<?xml version="1.0" standalone="no"?>
 <!DOCTYPE svg PUBLIC "-//W3C//DTD SVG 1.1//EN" 
 "http://www.w3.org/Graphics/SVG/1.1/DTD/svg11.dtd"> 
<svg xmlns="http://www.w3.org/2000/svg" version="1.1" 
    width="29.7002cm" height="21.0007cm" viewBox="0 0 116930 82680 ">
<title>SVG Picture created as ARCU PCB REV B-F.Cu.svg date 2016/10/20 11:10:14 </title>
  <desc>Picture generated by PCBNEW </desc>
<g style="fill:#000000; fill-opacity:1;stroke:#000000; stroke-opacity:1;
stroke-linecap:round; stroke-linejoin:round; "
 transform="translate(0 0) scale(1 1)">
</g>
<g style="fill:#000000; fill-opacity:0.0; 
stroke:#000000; stroke-width:-0.000393701; stroke-opacity:1; 
stroke-linecap:round; stroke-linejoin:round;">
</g>
<g style="fill:#000000; fill-opacity:0.0; 
stroke:#000000; stroke-width:39.3701; stroke-opacity:1; 
stroke-linecap:round; stroke-linejoin:round;">
</g>
<g style="fill:#000000; fill-opacity:0.0; 
stroke:#000000; stroke-width:59.0551; stroke-opacity:1; 
stroke-linecap:round; stroke-linejoin:round;">
<rect x="69685.9" y="65357.2" width="42519.7" height="12598.4" rx="0" />
</g>
<g style="fill:#000000; fill-opacity:0.0; 
stroke:#000000; stroke-width:39.3701; stroke-opacity:1; 
stroke-linecap:round; stroke-linejoin:round;">
</g>
<g style="fill:#000000; fill-opacity:0.0; 
stroke:#000000; stroke-width:59.0551; stroke-opacity:1; 
stroke-linecap:round; stroke-linejoin:round;">
<rect x="3937.01" y="3937.01" width="109056" height="74806" rx="0" />
</g>
<g style="fill:#000000; fill-opacity:0.0; 
stroke:#000000; stroke-width:39.3701; stroke-opacity:1; 
stroke-linecap:round; stroke-linejoin:round;">
</g>
<g style="fill:#000000; fill-opacity:0.0; 
stroke:#000000; stroke-width:59.0551; stroke-opacity:1; 
stroke-linecap:round; stroke-linejoin:round;">
<rect x="4724.41" y="4724.41" width="107481" height="73231.2" rx="0" />
</g>
<g style="fill:#000000; fill-opacity:0.0; 
stroke:#000000; stroke-width:39.3701; stroke-opacity:1; 
stroke-linecap:round; stroke-linejoin:round;">
</g>
<g style="fill:#000000; fill-opacity:0.0; 
stroke:#000000; stroke-width:59.0551; stroke-opacity:1; 
stroke-linecap:round; stroke-linejoin:round;">
<path d="M23622 4724
L23622 3937
" />
</g>
<g style="fill:#000000; fill-opacity:0.0; 
stroke:#000000; stroke-width:39.3701; stroke-opacity:1; 
stroke-linecap:round; stroke-linejoin:round;">
</g>
<g style="fill:#000000; fill-opacity:0.0; 
stroke:#000000; stroke-width:59.0551; stroke-opacity:1; 
stroke-linecap:round; stroke-linejoin:round;">
<path d="M43307 4724
L43307 3937
" />
</g>
<g style="fill:#000000; fill-opacity:0.0; 
stroke:#000000; stroke-width:39.3701; stroke-opacity:1; 
stroke-linecap:round; stroke-linejoin:round;">
</g>
<g style="fill:#000000; fill-opacity:0.0; 
stroke:#000000; stroke-width:59.0551; stroke-opacity:1; 
stroke-linecap:round; stroke-linejoin:round;">
<path d="M62992 4724
L62992 3937
" />
</g>
<g style="fill:#000000; fill-opacity:0.0; 
stroke:#000000; stroke-width:39.3701; stroke-opacity:1; 
stroke-linecap:round; stroke-linejoin:round;">
</g>
<g style="fill:#000000; fill-opacity:0.0; 
stroke:#000000; stroke-width:59.0551; stroke-opacity:1; 
stroke-linecap:round; stroke-linejoin:round;">
<path d="M82677 4724
L82677 3937
" />
</g>
<g style="fill:#000000; fill-opacity:0.0; 
stroke:#000000; stroke-width:39.3701; stroke-opacity:1; 
stroke-linecap:round; stroke-linejoin:round;">
</g>
<g style="fill:#000000; fill-opacity:0.0; 
stroke:#000000; stroke-width:59.0551; stroke-opacity:1; 
stroke-linecap:round; stroke-linejoin:round;">
<path d="M102362 4724
L102362 3937
" />
</g>
<g style="fill:#000000; fill-opacity:0.0; 
stroke:#000000; stroke-width:39.3701; stroke-opacity:1; 
stroke-linecap:round; stroke-linejoin:round;">
</g>
<g style="fill:#000000; fill-opacity:0.0; 
stroke:#000000; stroke-width:59.0551; stroke-opacity:1; 
stroke-linecap:round; stroke-linejoin:round;">
<path d="M14169 4562
L13877 4562
" />
<path d="M14023 4562
L14023 4050
L13974 4123
L13925 4172
L13877 4196
" />
</g>
<g style="fill:#000000; fill-opacity:0.0; 
stroke:#000000; stroke-width:39.3701; stroke-opacity:1; 
stroke-linecap:round; stroke-linejoin:round;">
</g>
<g style="fill:#000000; fill-opacity:0.0; 
stroke:#000000; stroke-width:59.0551; stroke-opacity:1; 
stroke-linecap:round; stroke-linejoin:round;">
<path d="M33562 4099
L33586 4074
L33635 4050
L33757 4050
L33805 4074
L33830 4099
L33854 4147
L33854 4196
L33830 4269
L33537 4562
L33854 4562
" />
</g>
<g style="fill:#000000; fill-opacity:0.0; 
stroke:#000000; stroke-width:39.3701; stroke-opacity:1; 
stroke-linecap:round; stroke-linejoin:round;">
</g>
<g style="fill:#000000; fill-opacity:0.0; 
stroke:#000000; stroke-width:59.0551; stroke-opacity:1; 
stroke-linecap:round; stroke-linejoin:round;">
<path d="M53222 4050
L53539 4050
L53368 4245
L53442 4245
L53490 4269
L53515 4294
L53539 4342
L53539 4464
L53515 4513
L53490 4537
L53442 4562
L53295 4562
L53247 4537
L53222 4513
" />
</g>
<g style="fill:#000000; fill-opacity:0.0; 
stroke:#000000; stroke-width:39.3701; stroke-opacity:1; 
stroke-linecap:round; stroke-linejoin:round;">
</g>
<g style="fill:#000000; fill-opacity:0.0; 
stroke:#000000; stroke-width:59.0551; stroke-opacity:1; 
stroke-linecap:round; stroke-linejoin:round;">
<path d="M73175 4221
L73175 4562
" />
<path d="M73053 4026
L72932 4391
L73248 4391
" />
</g>
<g style="fill:#000000; fill-opacity:0.0; 
stroke:#000000; stroke-width:39.3701; stroke-opacity:1; 
stroke-linecap:round; stroke-linejoin:round;">
</g>
<g style="fill:#000000; fill-opacity:0.0; 
stroke:#000000; stroke-width:59.0551; stroke-opacity:1; 
stroke-linecap:round; stroke-linejoin:round;">
<path d="M92885 4050
L92641 4050
L92617 4294
L92641 4269
L92690 4245
L92812 4245
L92860 4269
L92885 4294
L92909 4342
L92909 4464
L92885 4513
L92860 4537
L92812 4562
L92690 4562
L92641 4537
L92617 4513
" />
</g>
<g style="fill:#000000; fill-opacity:0.0; 
stroke:#000000; stroke-width:39.3701; stroke-opacity:1; 
stroke-linecap:round; stroke-linejoin:round;">
</g>
<g style="fill:#000000; fill-opacity:0.0; 
stroke:#000000; stroke-width:59.0551; stroke-opacity:1; 
stroke-linecap:round; stroke-linejoin:round;">
<path d="M112545 4050
L112448 4050
L112399 4074
L112375 4099
L112326 4172
L112302 4269
L112302 4464
L112326 4513
L112350 4537
L112399 4562
L112497 4562
L112545 4537
L112570 4513
L112594 4464
L112594 4342
L112570 4294
L112545 4269
L112497 4245
L112399 4245
L112350 4269
L112326 4294
L112302 4342
" />
</g>
<g style="fill:#000000; fill-opacity:0.0; 
stroke:#000000; stroke-width:39.3701; stroke-opacity:1; 
stroke-linecap:round; stroke-linejoin:round;">
</g>
<g style="fill:#000000; fill-opacity:0.0; 
stroke:#000000; stroke-width:59.0551; stroke-opacity:1; 
stroke-linecap:round; stroke-linejoin:round;">
<path d="M23622 77955
L23622 78742
" />
</g>
<g style="fill:#000000; fill-opacity:0.0; 
stroke:#000000; stroke-width:39.3701; stroke-opacity:1; 
stroke-linecap:round; stroke-linejoin:round;">
</g>
<g style="fill:#000000; fill-opacity:0.0; 
stroke:#000000; stroke-width:59.0551; stroke-opacity:1; 
stroke-linecap:round; stroke-linejoin:round;">
<path d="M43307 77955
L43307 78742
" />
</g>
<g style="fill:#000000; fill-opacity:0.0; 
stroke:#000000; stroke-width:39.3701; stroke-opacity:1; 
stroke-linecap:round; stroke-linejoin:round;">
</g>
<g style="fill:#000000; fill-opacity:0.0; 
stroke:#000000; stroke-width:59.0551; stroke-opacity:1; 
stroke-linecap:round; stroke-linejoin:round;">
<path d="M62992 77955
L62992 78742
" />
</g>
<g style="fill:#000000; fill-opacity:0.0; 
stroke:#000000; stroke-width:39.3701; stroke-opacity:1; 
stroke-linecap:round; stroke-linejoin:round;">
</g>
<g style="fill:#000000; fill-opacity:0.0; 
stroke:#000000; stroke-width:59.0551; stroke-opacity:1; 
stroke-linecap:round; stroke-linejoin:round;">
<path d="M82677 77955
L82677 78742
" />
</g>
<g style="fill:#000000; fill-opacity:0.0; 
stroke:#000000; stroke-width:39.3701; stroke-opacity:1; 
stroke-linecap:round; stroke-linejoin:round;">
</g>
<g style="fill:#000000; fill-opacity:0.0; 
stroke:#000000; stroke-width:59.0551; stroke-opacity:1; 
stroke-linecap:round; stroke-linejoin:round;">
<path d="M102362 77955
L102362 78742
" />
</g>
<g style="fill:#000000; fill-opacity:0.0; 
stroke:#000000; stroke-width:39.3701; stroke-opacity:1; 
stroke-linecap:round; stroke-linejoin:round;">
</g>
<g style="fill:#000000; fill-opacity:0.0; 
stroke:#000000; stroke-width:59.0551; stroke-opacity:1; 
stroke-linecap:round; stroke-linejoin:round;">
<path d="M14169 78580
L13877 78580
" />
<path d="M14023 78580
L14023 78069
L13974 78142
L13925 78190
L13877 78215
" />
</g>
<g style="fill:#000000; fill-opacity:0.0; 
stroke:#000000; stroke-width:39.3701; stroke-opacity:1; 
stroke-linecap:round; stroke-linejoin:round;">
</g>
<g style="fill:#000000; fill-opacity:0.0; 
stroke:#000000; stroke-width:59.0551; stroke-opacity:1; 
stroke-linecap:round; stroke-linejoin:round;">
<path d="M33562 78117
L33586 78093
L33635 78069
L33757 78069
L33805 78093
L33830 78117
L33854 78166
L33854 78215
L33830 78288
L33537 78580
L33854 78580
" />
</g>
<g style="fill:#000000; fill-opacity:0.0; 
stroke:#000000; stroke-width:39.3701; stroke-opacity:1; 
stroke-linecap:round; stroke-linejoin:round;">
</g>
<g style="fill:#000000; fill-opacity:0.0; 
stroke:#000000; stroke-width:59.0551; stroke-opacity:1; 
stroke-linecap:round; stroke-linejoin:round;">
<path d="M53222 78069
L53539 78069
L53368 78263
L53442 78263
L53490 78288
L53515 78312
L53539 78361
L53539 78483
L53515 78532
L53490 78556
L53442 78580
L53295 78580
L53247 78556
L53222 78532
" />
</g>
<g style="fill:#000000; fill-opacity:0.0; 
stroke:#000000; stroke-width:39.3701; stroke-opacity:1; 
stroke-linecap:round; stroke-linejoin:round;">
</g>
<g style="fill:#000000; fill-opacity:0.0; 
stroke:#000000; stroke-width:59.0551; stroke-opacity:1; 
stroke-linecap:round; stroke-linejoin:round;">
<path d="M73175 78239
L73175 78580
" />
<path d="M73053 78044
L72932 78410
L73248 78410
" />
</g>
<g style="fill:#000000; fill-opacity:0.0; 
stroke:#000000; stroke-width:39.3701; stroke-opacity:1; 
stroke-linecap:round; stroke-linejoin:round;">
</g>
<g style="fill:#000000; fill-opacity:0.0; 
stroke:#000000; stroke-width:59.0551; stroke-opacity:1; 
stroke-linecap:round; stroke-linejoin:round;">
<path d="M92885 78069
L92641 78069
L92617 78312
L92641 78288
L92690 78263
L92812 78263
L92860 78288
L92885 78312
L92909 78361
L92909 78483
L92885 78532
L92860 78556
L92812 78580
L92690 78580
L92641 78556
L92617 78532
" />
</g>
<g style="fill:#000000; fill-opacity:0.0; 
stroke:#000000; stroke-width:39.3701; stroke-opacity:1; 
stroke-linecap:round; stroke-linejoin:round;">
</g>
<g style="fill:#000000; fill-opacity:0.0; 
stroke:#000000; stroke-width:59.0551; stroke-opacity:1; 
stroke-linecap:round; stroke-linejoin:round;">
<path d="M112545 78069
L112448 78069
L112399 78093
L112375 78117
L112326 78190
L112302 78288
L112302 78483
L112326 78532
L112350 78556
L112399 78580
L112497 78580
L112545 78556
L112570 78532
L112594 78483
L112594 78361
L112570 78312
L112545 78288
L112497 78263
L112399 78263
L112350 78288
L112326 78312
L112302 78361
" />
</g>
<g style="fill:#000000; fill-opacity:0.0; 
stroke:#000000; stroke-width:39.3701; stroke-opacity:1; 
stroke-linecap:round; stroke-linejoin:round;">
</g>
<g style="fill:#000000; fill-opacity:0.0; 
stroke:#000000; stroke-width:59.0551; stroke-opacity:1; 
stroke-linecap:round; stroke-linejoin:round;">
<path d="M3937 23622
L4724 23622
" />
</g>
<g style="fill:#000000; fill-opacity:0.0; 
stroke:#000000; stroke-width:39.3701; stroke-opacity:1; 
stroke-linecap:round; stroke-linejoin:round;">
</g>
<g style="fill:#000000; fill-opacity:0.0; 
stroke:#000000; stroke-width:59.0551; stroke-opacity:1; 
stroke-linecap:round; stroke-linejoin:round;">
<path d="M3937 43307
L4724 43307
" />
</g>
<g style="fill:#000000; fill-opacity:0.0; 
stroke:#000000; stroke-width:39.3701; stroke-opacity:1; 
stroke-linecap:round; stroke-linejoin:round;">
</g>
<g style="fill:#000000; fill-opacity:0.0; 
stroke:#000000; stroke-width:59.0551; stroke-opacity:1; 
stroke-linecap:round; stroke-linejoin:round;">
<path d="M3937 62992
L4724 62992
" />
</g>
<g style="fill:#000000; fill-opacity:0.0; 
stroke:#000000; stroke-width:39.3701; stroke-opacity:1; 
stroke-linecap:round; stroke-linejoin:round;">
</g>
<g style="fill:#000000; fill-opacity:0.0; 
stroke:#000000; stroke-width:59.0551; stroke-opacity:1; 
stroke-linecap:round; stroke-linejoin:round;">
<path d="M4208 13864
L4452 13864
" />
<path d="M4160 14011
L4330 13499
L4501 14011
" />
</g>
<g style="fill:#000000; fill-opacity:0.0; 
stroke:#000000; stroke-width:39.3701; stroke-opacity:1; 
stroke-linecap:round; stroke-linejoin:round;">
</g>
<g style="fill:#000000; fill-opacity:0.0; 
stroke:#000000; stroke-width:59.0551; stroke-opacity:1; 
stroke-linecap:round; stroke-linejoin:round;">
<path d="M4367 33428
L4440 33452
L4464 33476
L4489 33525
L4489 33598
L4464 33647
L4440 33671
L4391 33696
L4196 33696
L4196 33184
L4367 33184
L4416 33208
L4440 33233
L4464 33281
L4464 33330
L4440 33379
L4416 33403
L4367 33428
L4196 33428
" />
</g>
<g style="fill:#000000; fill-opacity:0.0; 
stroke:#000000; stroke-width:39.3701; stroke-opacity:1; 
stroke-linecap:round; stroke-linejoin:round;">
</g>
<g style="fill:#000000; fill-opacity:0.0; 
stroke:#000000; stroke-width:59.0551; stroke-opacity:1; 
stroke-linecap:round; stroke-linejoin:round;">
<path d="M4489 53332
L4464 53356
L4391 53381
L4342 53381
L4269 53356
L4221 53308
L4196 53259
L4172 53161
L4172 53088
L4196 52991
L4221 52942
L4269 52893
L4342 52869
L4391 52869
L4464 52893
L4489 52918
" />
</g>
<g style="fill:#000000; fill-opacity:0.0; 
stroke:#000000; stroke-width:39.3701; stroke-opacity:1; 
stroke-linecap:round; stroke-linejoin:round;">
</g>
<g style="fill:#000000; fill-opacity:0.0; 
stroke:#000000; stroke-width:59.0551; stroke-opacity:1; 
stroke-linecap:round; stroke-linejoin:round;">
<path d="M4196 73066
L4196 72554
L4318 72554
L4391 72578
L4440 72627
L4464 72676
L4489 72773
L4489 72846
L4464 72944
L4440 72993
L4391 73041
L4318 73066
L4196 73066
" />
</g>
<g style="fill:#000000; fill-opacity:0.0; 
stroke:#000000; stroke-width:39.3701; stroke-opacity:1; 
stroke-linecap:round; stroke-linejoin:round;">
</g>
<g style="fill:#000000; fill-opacity:0.0; 
stroke:#000000; stroke-width:59.0551; stroke-opacity:1; 
stroke-linecap:round; stroke-linejoin:round;">
<path d="M112992 23622
L112205 23622
" />
</g>
<g style="fill:#000000; fill-opacity:0.0; 
stroke:#000000; stroke-width:39.3701; stroke-opacity:1; 
stroke-linecap:round; stroke-linejoin:round;">
</g>
<g style="fill:#000000; fill-opacity:0.0; 
stroke:#000000; stroke-width:59.0551; stroke-opacity:1; 
stroke-linecap:round; stroke-linejoin:round;">
<path d="M112992 43307
L112205 43307
" />
</g>
<g style="fill:#000000; fill-opacity:0.0; 
stroke:#000000; stroke-width:39.3701; stroke-opacity:1; 
stroke-linecap:round; stroke-linejoin:round;">
</g>
<g style="fill:#000000; fill-opacity:0.0; 
stroke:#000000; stroke-width:59.0551; stroke-opacity:1; 
stroke-linecap:round; stroke-linejoin:round;">
<path d="M112992 62992
L112205 62992
" />
</g>
<g style="fill:#000000; fill-opacity:0.0; 
stroke:#000000; stroke-width:39.3701; stroke-opacity:1; 
stroke-linecap:round; stroke-linejoin:round;">
</g>
<g style="fill:#000000; fill-opacity:0.0; 
stroke:#000000; stroke-width:59.0551; stroke-opacity:1; 
stroke-linecap:round; stroke-linejoin:round;">
<path d="M112477 13864
L112721 13864
" />
<path d="M112428 14011
L112599 13499
L112769 14011
" />
</g>
<g style="fill:#000000; fill-opacity:0.0; 
stroke:#000000; stroke-width:39.3701; stroke-opacity:1; 
stroke-linecap:round; stroke-linejoin:round;">
</g>
<g style="fill:#000000; fill-opacity:0.0; 
stroke:#000000; stroke-width:59.0551; stroke-opacity:1; 
stroke-linecap:round; stroke-linejoin:round;">
<path d="M112635 33428
L112708 33452
L112733 33476
L112757 33525
L112757 33598
L112733 33647
L112708 33671
L112660 33696
L112465 33696
L112465 33184
L112635 33184
L112684 33208
L112708 33233
L112733 33281
L112733 33330
L112708 33379
L112684 33403
L112635 33428
L112465 33428
" />
</g>
<g style="fill:#000000; fill-opacity:0.0; 
stroke:#000000; stroke-width:39.3701; stroke-opacity:1; 
stroke-linecap:round; stroke-linejoin:round;">
</g>
<g style="fill:#000000; fill-opacity:0.0; 
stroke:#000000; stroke-width:59.0551; stroke-opacity:1; 
stroke-linecap:round; stroke-linejoin:round;">
<path d="M112757 53332
L112733 53356
L112660 53381
L112611 53381
L112538 53356
L112489 53308
L112465 53259
L112440 53161
L112440 53088
L112465 52991
L112489 52942
L112538 52893
L112611 52869
L112660 52869
L112733 52893
L112757 52918
" />
</g>
<g style="fill:#000000; fill-opacity:0.0; 
stroke:#000000; stroke-width:39.3701; stroke-opacity:1; 
stroke-linecap:round; stroke-linejoin:round;">
</g>
<g style="fill:#000000; fill-opacity:0.0; 
stroke:#000000; stroke-width:59.0551; stroke-opacity:1; 
stroke-linecap:round; stroke-linejoin:round;">
<path d="M112465 73066
L112465 72554
L112587 72554
L112660 72578
L112708 72627
L112733 72676
L112757 72773
L112757 72846
L112733 72944
L112708 72993
L112660 73041
L112587 73066
L112465 73066
" />
</g>
<g style="fill:#000000; fill-opacity:0.0; 
stroke:#000000; stroke-width:39.3701; stroke-opacity:1; 
stroke-linecap:round; stroke-linejoin:round;">
</g>
<g style="fill:#000000; fill-opacity:0.0; 
stroke:#000000; stroke-width:59.0551; stroke-opacity:1; 
stroke-linecap:round; stroke-linejoin:round;">
<path d="M78881 76293
L78881 75703
L79022 75703
L79106 75731
L79162 75787
L79190 75843
L79219 75956
L79219 76040
L79190 76153
L79162 76209
L79106 76265
L79022 76293
L78881 76293
" />
<path d="M79725 76293
L79725 75984
L79697 75928
L79640 75899
L79528 75899
L79472 75928
" />
<path d="M79725 76265
L79669 76293
L79528 76293
L79472 76265
L79444 76209
L79444 76153
L79472 76096
L79528 76068
L79669 76068
L79725 76040
" />
<path d="M79922 75899
L80147 75899
" />
<path d="M80006 75703
L80006 76209
L80034 76265
L80090 76293
L80147 76293
" />
<path d="M80568 76265
L80512 76293
L80400 76293
L80343 76265
L80315 76209
L80315 75984
L80343 75928
L80400 75899
L80512 75899
L80568 75928
L80597 75984
L80597 76040
L80315 76096
" />
<path d="M80850 76237
L80878 76265
L80850 76293
L80822 76265
L80850 76237
L80850 76293
" />
<path d="M80850 75928
L80878 75956
L80850 75984
L80822 75956
L80850 75928
L80850 75984
" />
</g>
<g style="fill:#000000; fill-opacity:0.0; 
stroke:#000000; stroke-width:39.3701; stroke-opacity:1; 
stroke-linecap:round; stroke-linejoin:round;">
</g>
<g style="fill:#000000; fill-opacity:0.0; 
stroke:#000000; stroke-width:59.0551; stroke-opacity:1; 
stroke-linecap:round; stroke-linejoin:round;">
<path d="M69685 76577
L112205 76577
" />
</g>
<g style="fill:#000000; fill-opacity:0.0; 
stroke:#000000; stroke-width:39.3701; stroke-opacity:1; 
stroke-linecap:round; stroke-linejoin:round;">
</g>
<g style="fill:#000000; fill-opacity:0.0; 
stroke:#000000; stroke-width:59.0551; stroke-opacity:1; 
stroke-linecap:round; stroke-linejoin:round;">
<path d="M70220 77395
L70220 76805
" />
<path d="M70557 77395
L70304 77058
" />
<path d="M70557 76805
L70220 77142
" />
<path d="M70810 77395
L70810 77002
" />
<path d="M70810 76805
L70782 76833
L70810 76861
L70838 76833
L70810 76805
L70810 76861
" />
<path d="M71429 77339
L71401 77367
L71316 77395
L71260 77395
L71176 77367
L71120 77311
L71091 77255
L71063 77142
L71063 77058
L71091 76946
L71120 76889
L71176 76833
L71260 76805
L71316 76805
L71401 76833
L71429 76861
" />
<path d="M71935 77395
L71935 77086
L71907 77030
L71851 77002
L71738 77002
L71682 77030
" />
<path d="M71935 77367
L71879 77395
L71738 77395
L71682 77367
L71654 77311
L71654 77255
L71682 77199
L71738 77171
L71879 77171
L71935 77142
" />
<path d="M72469 77395
L72469 76805
" />
<path d="M72469 77367
L72413 77395
L72301 77395
L72244 77367
L72216 77339
L72188 77283
L72188 77114
L72216 77058
L72244 77030
L72301 77002
L72413 77002
L72469 77030
" />
<path d="M73201 77086
L73397 77086
" />
<path d="M73482 77395
L73201 77395
L73201 76805
L73482 76805
" />
<path d="M73735 77339
L73763 77367
L73735 77395
L73707 77367
L73735 77339
L73735 77395
" />
<path d="M74016 77395
L74016 76805
L74157 76805
L74241 76833
L74297 76889
L74325 76946
L74354 77058
L74354 77142
L74325 77255
L74297 77311
L74241 77367
L74157 77395
L74016 77395
" />
<path d="M74607 77339
L74635 77367
L74607 77395
L74579 77367
L74607 77339
L74607 77395
" />
<path d="M74860 77227
L75141 77227
" />
<path d="M74804 77395
L75000 76805
L75197 77395
" />
<path d="M75394 77339
L75422 77367
L75394 77395
L75366 77367
L75394 77339
L75394 77395
" />
<path d="M76575 77395
L76575 76805
" />
<path d="M76631 77171
L76800 77395
" />
<path d="M76800 77002
L76575 77227
" />
<path d="M77053 77395
L77053 77002
" />
<path d="M77053 76805
L77025 76833
L77053 76861
L77081 76833
L77053 76805
L77053 76861
" />
<path d="M77588 77367
L77531 77395
L77419 77395
L77363 77367
L77334 77339
L77306 77283
L77306 77114
L77334 77058
L77363 77030
L77419 77002
L77531 77002
L77588 77030
" />
<path d="M78094 77395
L78094 77086
L78066 77030
L78009 77002
L77897 77002
L77841 77030
" />
<path d="M78094 77367
L78037 77395
L77897 77395
L77841 77367
L77813 77311
L77813 77255
L77841 77199
L77897 77171
L78037 77171
L78094 77142
" />
<path d="M78628 77395
L78628 76805
" />
<path d="M78628 77367
L78572 77395
L78459 77395
L78403 77367
L78375 77339
L78347 77283
L78347 77114
L78375 77058
L78403 77030
L78459 77002
L78572 77002
L78628 77030
" />
<path d="M79612 77002
L79612 77395
" />
<path d="M79472 76777
L79331 77199
L79697 77199
" />
<path d="M79922 77339
L79950 77367
L79922 77395
L79894 77367
L79922 77339
L79922 77395
" />
<path d="M80315 76805
L80372 76805
L80428 76833
L80456 76861
L80484 76917
L80512 77030
L80512 77171
L80484 77283
L80456 77339
L80428 77367
L80372 77395
L80315 77395
L80259 77367
L80231 77339
L80203 77283
L80175 77171
L80175 77030
L80203 76917
L80231 76861
L80259 76833
L80315 76805
" />
<path d="M80765 77339
L80793 77367
L80765 77395
L80737 77367
L80765 77339
L80765 77395
" />
<path d="M81300 77002
L81300 77395
" />
<path d="M81159 76777
L81018 77199
L81384 77199
" />
<path d="M81609 77171
L82059 77171
" />
<path d="M81834 77395
L81834 76946
" />
<path d="M82565 77367
L82509 77395
L82396 77395
L82340 77367
L82312 77311
L82312 77086
L82340 77030
L82396 77002
L82509 77002
L82565 77030
L82593 77086
L82593 77142
L82312 77199
" />
<path d="M83156 77395
L82818 77395
" />
<path d="M82987 77395
L82987 76805
L82931 76889
L82874 76946
L82818 76974
" />
<path d="M83409 77171
L83859 77171
" />
<path d="M84393 76805
L84280 76805
L84224 76833
L84196 76861
L84140 76946
L84112 77058
L84112 77283
L84140 77339
L84168 77367
L84224 77395
L84337 77395
L84393 77367
L84421 77339
L84449 77283
L84449 77142
L84421 77086
L84393 77058
L84337 77030
L84224 77030
L84168 77058
L84140 77086
L84112 77142
" />
<path d="M84646 76805
L85012 76805
L84815 77030
L84899 77030
L84955 77058
L84983 77086
L85012 77142
L85012 77283
L84983 77339
L84955 77367
L84899 77395
L84730 77395
L84674 77367
L84646 77339
" />
<path d="M85377 76805
L85433 76805
L85490 76833
L85518 76861
L85546 76917
L85574 77030
L85574 77171
L85546 77283
L85518 77339
L85490 77367
L85433 77395
L85377 77395
L85321 77367
L85293 77339
L85265 77283
L85237 77171
L85237 77030
L85265 76917
L85293 76861
L85321 76833
L85377 76805
" />
<path d="M85912 77058
L85855 77030
L85827 77002
L85799 76946
L85799 76917
L85827 76861
L85855 76833
L85912 76805
L86024 76805
L86080 76833
L86108 76861
L86136 76917
L86136 76946
L86108 77002
L86080 77030
L86024 77058
L85912 77058
L85855 77086
L85827 77114
L85799 77171
L85799 77283
L85827 77339
L85855 77367
L85912 77395
L86024 77395
L86080 77367
L86108 77339
L86136 77283
L86136 77171
L86108 77114
L86080 77086
L86024 77058
" />
<path d="M86643 77002
L86643 77395
" />
<path d="M86502 76777
L86361 77199
L86727 77199
" />
<path d="M87036 77058
L86980 77030
L86952 77002
L86924 76946
L86924 76917
L86952 76861
L86980 76833
L87036 76805
L87149 76805
L87205 76833
L87233 76861
L87261 76917
L87261 76946
L87233 77002
L87205 77030
L87149 77058
L87036 77058
L86980 77086
L86952 77114
L86924 77171
L86924 77283
L86952 77339
L86980 77367
L87036 77395
L87149 77395
L87205 77367
L87233 77339
L87261 77283
L87261 77171
L87233 77114
L87205 77086
L87149 77058
" />
<path d="M86249 76703
L87374 76703
" />
<path d="M87768 77002
L87768 77395
" />
<path d="M87514 77002
L87514 77311
L87543 77367
L87599 77395
L87683 77395
L87739 77367
L87768 77339
" />
<path d="M88049 77395
L88049 76805
" />
<path d="M88049 77030
L88105 77002
L88217 77002
L88274 77030
L88302 77058
L88330 77114
L88330 77283
L88302 77339
L88274 77367
L88217 77395
L88105 77395
L88049 77367
" />
<path d="M88836 77002
L88836 77395
" />
<path d="M88583 77002
L88583 77311
L88611 77367
L88667 77395
L88752 77395
L88808 77367
L88836 77339
" />
<path d="M89117 77002
L89117 77395
" />
<path d="M89117 77058
L89145 77030
L89202 77002
L89286 77002
L89342 77030
L89370 77086
L89370 77395
" />
<path d="M89567 77002
L89792 77002
" />
<path d="M89652 76805
L89652 77311
L89680 77367
L89736 77395
L89792 77395
" />
<path d="M90242 77002
L90242 77395
" />
<path d="M89989 77002
L89989 77311
L90017 77367
L90073 77395
L90158 77395
L90214 77367
L90242 77339
" />
<path d="M90833 77395
L90495 77395
" />
<path d="M90664 77395
L90664 76805
L90608 76889
L90552 76946
L90495 76974
" />
<path d="M91339 76805
L91226 76805
L91170 76833
L91142 76861
L91086 76946
L91058 77058
L91058 77283
L91086 77339
L91114 77367
L91170 77395
L91283 77395
L91339 77367
L91367 77339
L91395 77283
L91395 77142
L91367 77086
L91339 77058
L91283 77030
L91170 77030
L91114 77058
L91086 77086
L91058 77142
" />
<path d="M91648 77339
L91676 77367
L91648 77395
L91620 77367
L91648 77339
L91648 77395
" />
<path d="M92042 76805
L92098 76805
L92154 76833
L92183 76861
L92211 76917
L92239 77030
L92239 77171
L92211 77283
L92183 77339
L92154 77367
L92098 77395
L92042 77395
L91986 77367
L91958 77339
L91929 77283
L91901 77171
L91901 77030
L91929 76917
L91958 76861
L91986 76833
L92042 76805
" />
<path d="M92745 77002
L92745 77395
" />
<path d="M92604 76777
L92464 77199
L92829 77199
" />
<path d="M93054 77339
L93082 77367
L93054 77395
L93026 77367
L93054 77339
L93054 77395
" />
<path d="M93645 77395
L93307 77395
" />
<path d="M93476 77395
L93476 76805
L93420 76889
L93364 76946
L93307 76974
" />
<path d="M93898 77171
L94348 77171
" />
<path d="M94601 77367
L94657 77395
L94770 77395
L94826 77367
L94854 77311
L94854 77283
L94826 77227
L94770 77199
L94685 77199
L94629 77171
L94601 77114
L94601 77086
L94629 77030
L94685 77002
L94770 77002
L94826 77030
" />
<path d="M95023 77002
L95248 77002
" />
<path d="M95107 76805
L95107 77311
L95135 77367
L95192 77395
L95248 77395
" />
<path d="M95698 77395
L95698 77086
L95670 77030
L95613 77002
L95501 77002
L95445 77030
" />
<path d="M95698 77367
L95642 77395
L95501 77395
L95445 77367
L95417 77311
L95417 77255
L95445 77199
L95501 77171
L95642 77171
L95698 77142
" />
<path d="M95979 77395
L95979 76805
" />
<path d="M95979 77030
L96035 77002
L96148 77002
L96204 77030
L96232 77058
L96260 77114
L96260 77283
L96232 77339
L96204 77367
L96148 77395
L96035 77395
L95979 77367
" />
<path d="M96598 77395
L96541 77367
L96513 77311
L96513 76805
" />
<path d="M97048 77367
L96991 77395
L96879 77395
L96823 77367
L96795 77311
L96795 77086
L96823 77030
L96879 77002
L96991 77002
L97048 77030
L97076 77086
L97076 77142
L96795 77199
" />
</g>
<g style="fill:#000000; fill-opacity:0.0; 
stroke:#000000; stroke-width:39.3701; stroke-opacity:1; 
stroke-linecap:round; stroke-linejoin:round;">
</g>
<g style="fill:#000000; fill-opacity:0.0; 
stroke:#000000; stroke-width:59.0551; stroke-opacity:1; 
stroke-linecap:round; stroke-linejoin:round;">
<path d="M69685 75396
L112205 75396
" />
</g>
<g style="fill:#000000; fill-opacity:0.0; 
stroke:#000000; stroke-width:39.3701; stroke-opacity:1; 
stroke-linecap:round; stroke-linejoin:round;">
</g>
<g style="fill:#000000; fill-opacity:0.0; 
stroke:#000000; stroke-width:118.11; stroke-opacity:1; 
stroke-linecap:round; stroke-linejoin:round;">
<path d="M104022 76293
L103825 76012
" />
<path d="M103684 76293
L103684 75703
L103909 75703
L103965 75731
L103994 75759
L104022 75815
L104022 75899
L103994 75956
L103965 75984
L103909 76012
L103684 76012
" />
<path d="M104500 76265
L104444 76293
L104331 76293
L104275 76265
L104247 76209
L104247 75984
L104275 75928
L104331 75899
L104444 75899
L104500 75928
L104528 75984
L104528 76040
L104247 76096
" />
<path d="M104725 75899
L104865 76293
L105006 75899
" />
<path d="M105231 76237
L105259 76265
L105231 76293
L105203 76265
L105231 76237
L105231 76293
" />
<path d="M105231 75928
L105259 75956
L105231 75984
L105203 75956
L105231 75928
L105231 75984
" />
</g>
<g style="fill:#000000; fill-opacity:0.0; 
stroke:#000000; stroke-width:39.3701; stroke-opacity:1; 
stroke-linecap:round; stroke-linejoin:round;">
</g>
<g style="fill:#000000; fill-opacity:0.0; 
stroke:#000000; stroke-width:59.0551; stroke-opacity:1; 
stroke-linecap:round; stroke-linejoin:round;">
<path d="M70192 76265
L70276 76293
L70417 76293
L70473 76265
L70501 76237
L70529 76181
L70529 76124
L70501 76068
L70473 76040
L70417 76012
L70304 75984
L70248 75956
L70220 75928
L70192 75871
L70192 75815
L70220 75759
L70248 75731
L70304 75703
L70445 75703
L70529 75731
" />
<path d="M70782 76293
L70782 75899
" />
<path d="M70782 75703
L70754 75731
L70782 75759
L70810 75731
L70782 75703
L70782 75759
" />
<path d="M71007 75899
L71316 75899
L71007 76293
L71316 76293
" />
<path d="M71766 76265
L71710 76293
L71598 76293
L71541 76265
L71513 76209
L71513 75984
L71541 75928
L71598 75899
L71710 75899
L71766 75928
L71795 75984
L71795 76040
L71513 76096
" />
<path d="M72048 76237
L72076 76265
L72048 76293
L72019 76265
L72048 76237
L72048 76293
" />
<path d="M72048 75928
L72076 75956
L72048 75984
L72019 75956
L72048 75928
L72048 75984
" />
<path d="M72751 76124
L73032 76124
" />
<path d="M72694 76293
L72891 75703
L73088 76293
" />
<path d="M73538 75899
L73538 76293
" />
<path d="M73397 75674
L73257 76096
L73622 76096
" />
</g>
<g style="fill:#000000; fill-opacity:0.0; 
stroke:#000000; stroke-width:39.3701; stroke-opacity:1; 
stroke-linecap:round; stroke-linejoin:round;">
</g>
<g style="fill:#000000; fill-opacity:0.0; 
stroke:#000000; stroke-width:59.0551; stroke-opacity:1; 
stroke-linecap:round; stroke-linejoin:round;">
<path d="M103684 77395
L103684 76805
" />
<path d="M104219 77395
L104219 76805
" />
<path d="M104219 77367
L104162 77395
L104050 77395
L103994 77367
L103965 77339
L103937 77283
L103937 77114
L103965 77058
L103994 77030
L104050 77002
L104162 77002
L104219 77030
" />
<path d="M104500 77339
L104528 77367
L104500 77395
L104472 77367
L104500 77339
L104500 77395
" />
<path d="M104500 77030
L104528 77058
L104500 77086
L104472 77058
L104500 77030
L104500 77086
" />
<path d="M105540 77395
L105203 77395
" />
<path d="M105372 77395
L105372 76805
L105315 76889
L105259 76946
L105203 76974
" />
<path d="M106215 76777
L105709 77536
" />
<path d="M106721 77395
L106384 77395
" />
<path d="M106553 77395
L106553 76805
L106496 76889
L106440 76946
L106384 76974
" />
</g>
<g style="fill:#000000; fill-opacity:0.0; 
stroke:#000000; stroke-width:39.3701; stroke-opacity:1; 
stroke-linecap:round; stroke-linejoin:round;">
</g>
<g style="fill:#000000; fill-opacity:0.0; 
stroke:#000000; stroke-width:59.0551; stroke-opacity:1; 
stroke-linecap:round; stroke-linejoin:round;">
<path d="M69685 73821
L112205 73821
" />
</g>
<g style="fill:#000000; fill-opacity:0.0; 
stroke:#000000; stroke-width:39.3701; stroke-opacity:1; 
stroke-linecap:round; stroke-linejoin:round;">
</g>
<g style="fill:#000000; fill-opacity:0.0; 
stroke:#000000; stroke-width:157.48; stroke-opacity:1; 
stroke-linecap:round; stroke-linejoin:round;">
<path d="M70257 74099
L70707 74099
" />
<path d="M70384 74886
L70482 74099
" />
<path d="M70871 74886
L70937 74361
" />
<path d="M70970 74099
L70927 74136
L70960 74174
L71002 74136
L70970 74099
L70960 74174
" />
<path d="M71199 74361
L71499 74361
" />
<path d="M71345 74099
L71260 74774
L71288 74849
L71359 74886
L71434 74886
" />
<path d="M71809 74886
L71738 74849
L71710 74774
L71795 74099
" />
<path d="M72413 74849
L72334 74886
L72184 74886
L72113 74849
L72085 74774
L72123 74474
L72169 74399
L72249 74361
L72399 74361
L72469 74399
L72498 74474
L72488 74549
L72104 74624
" />
<path d="M72793 74811
L72826 74849
L72783 74886
L72751 74849
L72793 74811
L72783 74886
" />
<path d="M72844 74399
L72877 74436
L72835 74474
L72802 74436
L72844 74399
L72835 74474
" />
</g>
<g style="fill:#000000; fill-opacity:0.0; 
stroke:#000000; stroke-width:39.3701; stroke-opacity:1; 
stroke-linecap:round; stroke-linejoin:round;">
</g>
<g style="fill:#000000; fill-opacity:0.0; 
stroke:#000000; stroke-width:59.0551; stroke-opacity:1; 
stroke-linecap:round; stroke-linejoin:round;">
<path d="M70417 73070
L70220 73070
" />
<path d="M70220 73380
L70220 72789
L70501 72789
" />
<path d="M70726 73380
L70726 72986
" />
<path d="M70726 72789
L70698 72817
L70726 72845
L70754 72817
L70726 72789
L70726 72845
" />
<path d="M71091 73380
L71035 73352
L71007 73295
L71007 72789
" />
<path d="M71541 73352
L71485 73380
L71373 73380
L71316 73352
L71288 73295
L71288 73070
L71316 73014
L71373 72986
L71485 72986
L71541 73014
L71570 73070
L71570 73127
L71288 73183
" />
<path d="M71823 73323
L71851 73352
L71823 73380
L71795 73352
L71823 73323
L71823 73380
" />
<path d="M71823 73014
L71851 73042
L71823 73070
L71795 73042
L71823 73014
L71823 73070
" />
<path d="M72526 73211
L72807 73211
" />
<path d="M72469 73380
L72666 72789
L72863 73380
" />
<path d="M73397 73380
L73201 73099
" />
<path d="M73060 73380
L73060 72789
L73285 72789
L73341 72817
L73369 72845
L73397 72902
L73397 72986
L73369 73042
L73341 73070
L73285 73099
L73060 73099
" />
<path d="M73988 73323
L73960 73352
L73876 73380
L73819 73380
L73735 73352
L73679 73295
L73651 73239
L73622 73127
L73622 73042
L73651 72930
L73679 72874
L73735 72817
L73819 72789
L73876 72789
L73960 72817
L73988 72845
" />
<path d="M74241 72789
L74241 73267
L74269 73323
L74297 73352
L74354 73380
L74466 73380
L74522 73352
L74550 73323
L74579 73267
L74579 72789
" />
<path d="M75310 73380
L75310 72789
L75535 72789
L75591 72817
L75619 72845
L75647 72902
L75647 72986
L75619 73042
L75591 73070
L75535 73099
L75310 73099
" />
<path d="M76238 73323
L76210 73352
L76125 73380
L76069 73380
L75985 73352
L75928 73295
L75900 73239
L75872 73127
L75872 73042
L75900 72930
L75928 72874
L75985 72817
L76069 72789
L76125 72789
L76210 72817
L76238 72845
" />
<path d="M76688 73070
L76772 73099
L76800 73127
L76828 73183
L76828 73267
L76800 73323
L76772 73352
L76716 73380
L76491 73380
L76491 72789
L76688 72789
L76744 72817
L76772 72845
L76800 72902
L76800 72958
L76772 73014
L76744 73042
L76688 73070
L76491 73070
" />
<path d="M77869 73380
L77672 73099
" />
<path d="M77531 73380
L77531 72789
L77756 72789
L77813 72817
L77841 72845
L77869 72902
L77869 72986
L77841 73042
L77813 73070
L77756 73099
L77531 73099
" />
<path d="M78122 73070
L78319 73070
" />
<path d="M78403 73380
L78122 73380
L78122 72789
L78403 72789
" />
<path d="M78572 72789
L78769 73380
L78965 72789
" />
<path d="M79809 73070
L79894 73099
L79922 73127
L79950 73183
L79950 73267
L79922 73323
L79894 73352
L79837 73380
L79612 73380
L79612 72789
L79809 72789
L79865 72817
L79894 72845
L79922 72902
L79922 72958
L79894 73014
L79865 73042
L79809 73070
L79612 73070
" />
<path d="M80203 73323
L80231 73352
L80203 73380
L80175 73352
L80203 73323
L80203 73380
" />
<path d="M80484 73380
L80484 72789
" />
<path d="M80540 73155
L80709 73380
" />
<path d="M80709 72986
L80484 73211
" />
<path d="M80962 73380
L80962 72986
" />
<path d="M80962 72789
L80934 72817
L80962 72845
L80990 72817
L80962 72789
L80962 72845
" />
<path d="M81496 73352
L81440 73380
L81328 73380
L81271 73352
L81243 73323
L81215 73267
L81215 73099
L81243 73042
L81271 73014
L81328 72986
L81440 72986
L81496 73014
" />
<path d="M82003 73380
L82003 73070
L81974 73014
L81918 72986
L81806 72986
L81750 73014
" />
<path d="M82003 73352
L81946 73380
L81806 73380
L81750 73352
L81721 73295
L81721 73239
L81750 73183
L81806 73155
L81946 73155
L82003 73127
" />
<path d="M82537 73380
L82537 72789
" />
<path d="M82537 73352
L82481 73380
L82368 73380
L82312 73352
L82284 73323
L82256 73267
L82256 73099
L82284 73042
L82312 73014
L82368 72986
L82481 72986
L82537 73014
" />
<path d="M82678 73436
L83127 73436
" />
<path d="M83268 72986
L83268 73577
" />
<path d="M83268 73014
L83324 72986
L83437 72986
L83493 73014
L83521 73042
L83549 73099
L83549 73267
L83521 73323
L83493 73352
L83437 73380
L83324 73380
L83268 73352
" />
<path d="M84055 73352
L83999 73380
L83887 73380
L83831 73352
L83802 73323
L83774 73267
L83774 73099
L83802 73042
L83831 73014
L83887 72986
L83999 72986
L84055 73014
" />
<path d="M84309 73380
L84309 72789
" />
<path d="M84309 73014
L84365 72986
L84477 72986
L84534 73014
L84562 73042
L84590 73099
L84590 73267
L84562 73323
L84534 73352
L84477 73380
L84365 73380
L84309 73352
" />
</g>
<g style="fill:#000000; fill-opacity:0.0; 
stroke:#000000; stroke-width:39.3701; stroke-opacity:1; 
stroke-linecap:round; stroke-linejoin:round;">
</g>
<g style="fill:#000000; fill-opacity:0.0; 
stroke:#000000; stroke-width:59.0551; stroke-opacity:1; 
stroke-linecap:round; stroke-linejoin:round;">
<path d="M69685 71459
L112205 71459
" />
</g>
<g style="fill:#000000; fill-opacity:0.0; 
stroke:#000000; stroke-width:39.3701; stroke-opacity:1; 
stroke-linecap:round; stroke-linejoin:round;">
</g>
<g style="fill:#000000; fill-opacity:0.0; 
stroke:#000000; stroke-width:59.0551; stroke-opacity:1; 
stroke-linecap:round; stroke-linejoin:round;">
<path d="M70192 72289
L70276 72317
L70417 72317
L70473 72289
L70501 72260
L70529 72204
L70529 72148
L70501 72092
L70473 72064
L70417 72036
L70304 72007
L70248 71979
L70220 71951
L70192 71895
L70192 71839
L70220 71782
L70248 71754
L70304 71726
L70445 71726
L70529 71754
" />
<path d="M70782 72317
L70782 71726
" />
<path d="M71035 72317
L71035 72007
L71007 71951
L70951 71923
L70867 71923
L70810 71951
L70782 71979
" />
<path d="M71541 72289
L71485 72317
L71373 72317
L71316 72289
L71288 72232
L71288 72007
L71316 71951
L71373 71923
L71485 71923
L71541 71951
L71570 72007
L71570 72064
L71288 72120
" />
<path d="M72048 72289
L71991 72317
L71879 72317
L71823 72289
L71795 72232
L71795 72007
L71823 71951
L71879 71923
L71991 71923
L72048 71951
L72076 72007
L72076 72064
L71795 72120
" />
<path d="M72244 71923
L72469 71923
" />
<path d="M72329 71726
L72329 72232
L72357 72289
L72413 72317
L72469 72317
" />
<path d="M72666 72260
L72694 72289
L72666 72317
L72638 72289
L72666 72260
L72666 72317
" />
<path d="M72666 71951
L72694 71979
L72666 72007
L72638 71979
L72666 71951
L72666 72007
" />
</g>
<g style="fill:#000000; fill-opacity:0.0; 
stroke:#000000; stroke-width:39.3701; stroke-opacity:1; 
stroke-linecap:round; stroke-linejoin:round;">
</g>
<g style="fill:#000000; fill-opacity:0.0; 
stroke:#000000; stroke-width:59.0551; stroke-opacity:1; 
stroke-linecap:round; stroke-linejoin:round;">
<path d="M77559 75396
L77559 76577
" />
</g>
<g style="fill:#000000; fill-opacity:0.0; 
stroke:#000000; stroke-width:39.3701; stroke-opacity:1; 
stroke-linecap:round; stroke-linejoin:round;">
</g>
<g style="fill:#000000; fill-opacity:0.0; 
stroke:#000000; stroke-width:59.0551; stroke-opacity:1; 
stroke-linecap:round; stroke-linejoin:round;">
<path d="M102756 75396
L102756 77955
" />
</g>
<g style="fill:#840000; fill-opacity:0.0; 
stroke:#840000; stroke-width:59.0551; stroke-opacity:1; 
stroke-linecap:round; stroke-linejoin:round;">
</g>
<g style="fill:#840000; fill-opacity:0.0; 
stroke:#840000; stroke-width:62.5; stroke-opacity:1; 
stroke-linecap:round; stroke-linejoin:round;">
<path d="M57920 39140
L57932 39152
L57944 39188
L57944 39211
L57932 39247
L57908 39271
L57884 39283
L57837 39295
L57801 39295
L57753 39283
L57730 39271
L57706 39247
L57694 39211
L57694 39188
L57706 39152
L57718 39140
" />
<path d="M57944 39033
L57694 39033
L57694 38973
L57706 38938
L57730 38914
L57753 38902
L57801 38890
L57837 38890
L57884 38902
L57908 38914
L57932 38938
L57944 38973
L57944 39033
" />
<path d="M57944 38783
L57694 38783
L57872 38700
L57694 38616
L57944 38616
" />
<path d="M58381 39783
L58381 39926
" />
<path d="M58381 39854
L58131 39854
L58167 39878
L58191 39902
L58203 39926
" />
<path d="M58131 39628
L58131 39604
L58143 39580
L58155 39569
L58179 39557
L58227 39545
L58286 39545
L58334 39557
L58358 39569
L58369 39580
L58381 39604
L58381 39628
L58369 39652
L58358 39664
L58334 39676
L58286 39688
L58227 39688
L58179 39676
L58155 39664
L58143 39652
L58131 39628
" />
<path d="M58286 39438
L58286 39247
" />
<path d="M58381 38997
L58381 39140
" />
<path d="M58381 39069
L58131 39069
L58167 39092
L58191 39116
L58203 39140
" />
<path d="M58131 38914
L58131 38747
L58381 38854
" />
<path d="M58286 38652
L58286 38461
" />
<path d="M58381 38211
L58381 38354
" />
<path d="M58381 38283
L58131 38283
L58167 38307
L58191 38330
L58203 38354
" />
<path d="M58131 37997
L58131 38045
L58143 38069
L58155 38080
L58191 38104
L58238 38116
L58334 38116
L58358 38104
L58369 38092
L58381 38069
L58381 38021
L58369 37997
L58358 37985
L58334 37973
L58274 37973
L58250 37985
L58238 37997
L58227 38021
L58227 38069
L58238 38092
L58250 38104
L58274 38116
" />
</g>
<g style="fill:#C2C200; fill-opacity:0.0; 
stroke:#C2C200; stroke-width:62.5; stroke-opacity:1; 
stroke-linecap:round; stroke-linejoin:round;">
</g>
<g style="fill:#C2C200; fill-opacity:0.0; 
stroke:#C2C200; stroke-width:39.3701; stroke-opacity:1; 
stroke-linecap:round; stroke-linejoin:round;">
<path d="M52000 47000
L63000 47000
" />
<path d="M63000 31000
L63000 47000
" />
<path d="M52000 31000
L52000 47000
" />
<path d="M52000 31000
L63000 31000
" />
</g>
<g style="fill:#840000; fill-opacity:0.0; 
stroke:#840000; stroke-width:39.3701; stroke-opacity:1; 
stroke-linecap:round; stroke-linejoin:round;">
</g>
<g style="fill:#840000; fill-opacity:1.0; 
stroke:#840000; stroke-width:0; stroke-opacity:1; 
stroke-linecap:round; stroke-linejoin:round;">
<circle cx="61400" cy="35700" r="1181.1" /> 
</g>
<g style="fill:#840000; fill-opacity:1.0; 
stroke:#840000; stroke-width:39.3701; stroke-opacity:1; 
stroke-linecap:round; stroke-linejoin:round;">
</g>
<g style="fill:#840000; fill-opacity:1.0; 
stroke:#840000; stroke-width:0; stroke-opacity:1; 
stroke-linecap:round; stroke-linejoin:round;">
<circle cx="61400" cy="32747.2" r="1181.1" /> 
</g>
<g style="fill:#840000; fill-opacity:1.0; 
stroke:#840000; stroke-width:39.3701; stroke-opacity:1; 
stroke-linecap:round; stroke-linejoin:round;">
</g>
<g style="fill:#840000; fill-opacity:1.0; 
stroke:#840000; stroke-width:0; stroke-opacity:1; 
stroke-linecap:round; stroke-linejoin:round;">
<polyline style="fill-rule:evenodd;"
points="57746,32990
57253,32990
57253,32596
57746,32596
57746,32990
" /> 
<polyline style="fill-rule:evenodd;"
points="57746,32203
57253,32203
57253,31809
57746,31809
57746,32203
" /> 
<polyline style="fill-rule:evenodd;"
points="59349,37064
59349,37536
58877,37536
58877,37064
59349,37064
" /> 
<polyline style="fill-rule:evenodd;"
points="58523,37064
58523,37536
58051,37536
58051,37064
58523,37064
" /> 
<polyline style="fill-rule:evenodd;"
points="59349,35664
59349,36136
58877,36136
58877,35664
59349,35664
" /> 
<polyline style="fill-rule:evenodd;"
points="58523,35664
58523,36136
58051,36136
58051,35664
58523,35664
" /> 
<polyline style="fill-rule:evenodd;"
points="58600,32040
58600,31360
59400,31360
59400,32040
58600,32040
" /> 
</g>
<g style="fill:#840000; fill-opacity:1.0; 
stroke:#840000; stroke-width:680; stroke-opacity:1; 
stroke-linecap:round; stroke-linejoin:round;">
</g>
<g style="fill:#840000; fill-opacity:0.0; 
stroke:#840000; stroke-width:680; stroke-opacity:1; 
stroke-linecap:round; stroke-linejoin:round;">
<path d="M58940 32700
L59060 32700
" />
<path d="M58940 33700
L59060 33700
" />
</g>
<g style="fill:#840000; fill-opacity:0.0; 
stroke:#840000; stroke-width:0; stroke-opacity:1; 
stroke-linecap:round; stroke-linejoin:round;">
</g>
<g style="fill:#840000; fill-opacity:1.0; 
stroke:#840000; stroke-width:0; stroke-opacity:1; 
stroke-linecap:round; stroke-linejoin:round;">
<polyline style="fill-rule:evenodd;"
points="56988,34555
56988,34044
57263,34044
57263,34555
56988,34555
" /> 
<polyline style="fill-rule:evenodd;"
points="57736,34555
57736,34044
58011,34044
58011,34555
57736,34555
" /> 
<polyline style="fill-rule:evenodd;"
points="56988,33755
56988,33244
57263,33244
57263,33755
56988,33755
" /> 
<polyline style="fill-rule:evenodd;"
points="57736,33755
57736,33244
58011,33244
58011,33755
57736,33755
" /> 
<polyline style="fill-rule:evenodd;"
points="59411,41194
59411,41705
59136,41705
59136,41194
59411,41194
" /> 
<polyline style="fill-rule:evenodd;"
points="58663,41194
58663,41705
58388,41705
58388,41194
58663,41194
" /> 
<polyline style="fill-rule:evenodd;"
points="59411,42194
59411,42705
59136,42705
59136,42194
59411,42194
" /> 
<polyline style="fill-rule:evenodd;"
points="58663,42194
58663,42705
58388,42705
58388,42194
58663,42194
" /> 
<polyline style="fill-rule:evenodd;"
points="57288,31655
57288,31144
57563,31144
57563,31655
57288,31655
" /> 
<polyline style="fill-rule:evenodd;"
points="58036,31655
58036,31144
58311,31144
58311,31655
58036,31655
" /> 
<polyline style="fill-rule:evenodd;"
points="56038,31655
56038,31144
56313,31144
56313,31655
56038,31655
" /> 
<polyline style="fill-rule:evenodd;"
points="56786,31655
56786,31144
57061,31144
57061,31655
56786,31655
" /> 
<polyline style="fill-rule:evenodd;"
points="52360,36383
52360,36166
52951,36166
52951,36383
52360,36383
" /> 
<polyline style="fill-rule:evenodd;"
points="52360,36698
52360,36481
52951,36481
52951,36698
52360,36698
" /> 
<polyline style="fill-rule:evenodd;"
points="52360,37013
52360,36796
52951,36796
52951,37013
52360,37013
" /> 
<polyline style="fill-rule:evenodd;"
points="52360,37328
52360,37111
52951,37111
52951,37328
52360,37328
" /> 
<polyline style="fill-rule:evenodd;"
points="52360,37643
52360,37426
52951,37426
52951,37643
52360,37643
" /> 
<polyline style="fill-rule:evenodd;"
points="52360,37958
52360,37741
52951,37741
52951,37958
52360,37958
" /> 
<polyline style="fill-rule:evenodd;"
points="52360,38273
52360,38056
52951,38056
52951,38273
52360,38273
" /> 
<polyline style="fill-rule:evenodd;"
points="52360,38588
52360,38371
52951,38371
52951,38588
52360,38588
" /> 
<polyline style="fill-rule:evenodd;"
points="52360,38903
52360,38686
52951,38686
52951,38903
52360,38903
" /> 
<polyline style="fill-rule:evenodd;"
points="52360,39218
52360,39001
52951,39001
52951,39218
52360,39218
" /> 
<polyline style="fill-rule:evenodd;"
points="52360,39533
52360,39316
52951,39316
52951,39533
52360,39533
" /> 
<polyline style="fill-rule:evenodd;"
points="53433,40389
53216,40389
53216,39798
53433,39798
53433,40389
" /> 
<polyline style="fill-rule:evenodd;"
points="53748,40389
53531,40389
53531,39798
53748,39798
53748,40389
" /> 
<polyline style="fill-rule:evenodd;"
points="54063,40389
53846,40389
53846,39798
54063,39798
54063,40389
" /> 
<polyline style="fill-rule:evenodd;"
points="54378,40389
54161,40389
54161,39798
54378,39798
54378,40389
" /> 
<polyline style="fill-rule:evenodd;"
points="54693,40389
54476,40389
54476,39798
54693,39798
54693,40389
" /> 
<polyline style="fill-rule:evenodd;"
points="55008,40389
54791,40389
54791,39798
55008,39798
55008,40389
" /> 
<polyline style="fill-rule:evenodd;"
points="55323,40389
55106,40389
55106,39798
55323,39798
55323,40389
" /> 
<polyline style="fill-rule:evenodd;"
points="55638,40389
55421,40389
55421,39798
55638,39798
55638,40389
" /> 
<polyline style="fill-rule:evenodd;"
points="55953,40389
55736,40389
55736,39798
55953,39798
55953,40389
" /> 
<polyline style="fill-rule:evenodd;"
points="56268,40389
56051,40389
56051,39798
56268,39798
56268,40389
" /> 
<polyline style="fill-rule:evenodd;"
points="56583,40389
56366,40389
56366,39798
56583,39798
56583,40389
" /> 
<polyline style="fill-rule:evenodd;"
points="56848,39533
56848,39316
57439,39316
57439,39533
56848,39533
" /> 
<polyline style="fill-rule:evenodd;"
points="56848,39218
56848,39001
57439,39001
57439,39218
56848,39218
" /> 
<polyline style="fill-rule:evenodd;"
points="56848,38903
56848,38686
57439,38686
57439,38903
56848,38903
" /> 
<polyline style="fill-rule:evenodd;"
points="56848,38588
56848,38371
57439,38371
57439,38588
56848,38588
" /> 
<polyline style="fill-rule:evenodd;"
points="56848,38273
56848,38056
57439,38056
57439,38273
56848,38273
" /> 
<polyline style="fill-rule:evenodd;"
points="56848,37958
56848,37741
57439,37741
57439,37958
56848,37958
" /> 
<polyline style="fill-rule:evenodd;"
points="56848,37643
56848,37426
57439,37426
57439,37643
56848,37643
" /> 
<polyline style="fill-rule:evenodd;"
points="56848,37328
56848,37111
57439,37111
57439,37328
56848,37328
" /> 
<polyline style="fill-rule:evenodd;"
points="56848,37013
56848,36796
57439,36796
57439,37013
56848,37013
" /> 
<polyline style="fill-rule:evenodd;"
points="56848,36698
56848,36481
57439,36481
57439,36698
56848,36698
" /> 
<polyline style="fill-rule:evenodd;"
points="56848,36383
56848,36166
57439,36166
57439,36383
56848,36383
" /> 
<polyline style="fill-rule:evenodd;"
points="56583,35901
56366,35901
56366,35310
56583,35310
56583,35901
" /> 
<polyline style="fill-rule:evenodd;"
points="56268,35901
56051,35901
56051,35310
56268,35310
56268,35901
" /> 
<polyline style="fill-rule:evenodd;"
points="55953,35901
55736,35901
55736,35310
55953,35310
55953,35901
" /> 
<polyline style="fill-rule:evenodd;"
points="55638,35901
55421,35901
55421,35310
55638,35310
55638,35901
" /> 
<polyline style="fill-rule:evenodd;"
points="55323,35901
55106,35901
55106,35310
55323,35310
55323,35901
" /> 
<polyline style="fill-rule:evenodd;"
points="55008,35901
54791,35901
54791,35310
55008,35310
55008,35901
" /> 
<polyline style="fill-rule:evenodd;"
points="54693,35901
54476,35901
54476,35310
54693,35310
54693,35901
" /> 
<polyline style="fill-rule:evenodd;"
points="54378,35901
54161,35901
54161,35310
54378,35310
54378,35901
" /> 
<polyline style="fill-rule:evenodd;"
points="54063,35901
53846,35901
53846,35310
54063,35310
54063,35901
" /> 
<polyline style="fill-rule:evenodd;"
points="53748,35901
53531,35901
53531,35310
53748,35310
53748,35901
" /> 
<polyline style="fill-rule:evenodd;"
points="53433,35901
53216,35901
53216,35310
53433,35310
53433,35901
" /> 
<polyline style="fill-rule:evenodd;"
points="57920,41369
58156,41369
58156,41743
57920,41743
57920,41369
" /> 
<polyline style="fill-rule:evenodd;"
points="57427,41369
57664,41369
57664,41743
57427,41743
57427,41369
" /> 
<polyline style="fill-rule:evenodd;"
points="56935,41369
57172,41369
57172,41743
56935,41743
56935,41369
" /> 
<polyline style="fill-rule:evenodd;"
points="56443,41369
56679,41369
56679,41743
56443,41743
56443,41369
" /> 
<polyline style="fill-rule:evenodd;"
points="56443,42156
56679,42156
56679,42530
56443,42530
56443,42156
" /> 
<polyline style="fill-rule:evenodd;"
points="56935,42156
57172,42156
57172,42530
56935,42530
56935,42156
" /> 
<polyline style="fill-rule:evenodd;"
points="57427,42156
57664,42156
57664,42530
57427,42530
57427,42156
" /> 
<polyline style="fill-rule:evenodd;"
points="57920,42156
58156,42156
58156,42530
57920,42530
57920,42156
" /> 
<polyline style="fill-rule:evenodd;"
points="61448,42404
61448,42483
61172,42483
61172,42404
61448,42404
" /> 
<polyline style="fill-rule:evenodd;"
points="61448,42246
61448,42325
61172,42325
61172,42246
61448,42246
" /> 
<polyline style="fill-rule:evenodd;"
points="61448,42089
61448,42168
61172,42168
61172,42089
61448,42089
" /> 
<polyline style="fill-rule:evenodd;"
points="61448,41931
61448,42010
61172,42010
61172,41931
61448,41931
" /> 
<polyline style="fill-rule:evenodd;"
points="61448,41774
61448,41853
61172,41853
61172,41774
61448,41774
" /> 
<polyline style="fill-rule:evenodd;"
points="61448,41616
61448,41695
61172,41695
61172,41616
61448,41616
" /> 
<polyline style="fill-rule:evenodd;"
points="61054,41301
61133,41301
61133,41577
61054,41577
61054,41301
" /> 
<polyline style="fill-rule:evenodd;"
points="60896,41301
60975,41301
60975,41577
60896,41577
60896,41301
" /> 
<polyline style="fill-rule:evenodd;"
points="60739,41301
60818,41301
60818,41577
60739,41577
60739,41301
" /> 
<polyline style="fill-rule:evenodd;"
points="60581,41301
60660,41301
60660,41577
60581,41577
60581,41301
" /> 
<polyline style="fill-rule:evenodd;"
points="60424,41301
60503,41301
60503,41577
60424,41577
60424,41301
" /> 
<polyline style="fill-rule:evenodd;"
points="60266,41301
60345,41301
60345,41577
60266,41577
60266,41301
" /> 
<polyline style="fill-rule:evenodd;"
points="59951,41695
59951,41616
60227,41616
60227,41695
59951,41695
" /> 
<polyline style="fill-rule:evenodd;"
points="59951,41853
59951,41774
60227,41774
60227,41853
59951,41853
" /> 
<polyline style="fill-rule:evenodd;"
points="59951,42010
59951,41931
60227,41931
60227,42010
59951,42010
" /> 
<polyline style="fill-rule:evenodd;"
points="59951,42168
59951,42089
60227,42089
60227,42168
59951,42168
" /> 
<polyline style="fill-rule:evenodd;"
points="59951,42325
59951,42246
60227,42246
60227,42325
59951,42325
" /> 
<polyline style="fill-rule:evenodd;"
points="59951,42483
59951,42404
60227,42404
60227,42483
59951,42483
" /> 
<polyline style="fill-rule:evenodd;"
points="60345,42798
60266,42798
60266,42522
60345,42522
60345,42798
" /> 
<polyline style="fill-rule:evenodd;"
points="60503,42798
60424,42798
60424,42522
60503,42522
60503,42798
" /> 
<polyline style="fill-rule:evenodd;"
points="60660,42798
60581,42798
60581,42522
60660,42522
60660,42798
" /> 
<polyline style="fill-rule:evenodd;"
points="60818,42798
60739,42798
60739,42522
60818,42522
60818,42798
" /> 
<polyline style="fill-rule:evenodd;"
points="60975,42798
60896,42798
60896,42522
60975,42522
60975,42798
" /> 
<polyline style="fill-rule:evenodd;"
points="61133,42798
61054,42798
61054,42522
61133,42522
61133,42798
" /> 
<polyline style="fill-rule:evenodd;"
points="61044,41735
61044,42364
60355,42364
60355,41735
61044,41735
" /> 
<polyline style="fill-rule:evenodd;"
points="55561,33854
56545,33854
56545,34720
55561,34720
55561,33854
" /> 
<polyline style="fill-rule:evenodd;"
points="52254,33854
53238,33854
53238,34720
52254,34720
52254,33854
" /> 
<polyline style="fill-rule:evenodd;"
points="55561,31767
56545,31767
56545,32633
55561,32633
55561,31767
" /> 
<polyline style="fill-rule:evenodd;"
points="52254,31767
53238,31767
53238,32633
52254,32633
52254,31767
" /> 
<polyline style="fill-rule:evenodd;"
points="54931,33992
55128,33992
55128,34779
54931,34779
54931,33992
" /> 
<polyline style="fill-rule:evenodd;"
points="54616,33992
54813,33992
54813,34779
54616,34779
54616,33992
" /> 
<polyline style="fill-rule:evenodd;"
points="54301,33992
54498,33992
54498,34779
54301,34779
54301,33992
" /> 
<polyline style="fill-rule:evenodd;"
points="53986,33992
54183,33992
54183,34779
53986,34779
53986,33992
" /> 
<polyline style="fill-rule:evenodd;"
points="53671,33992
53868,33992
53868,34779
53671,34779
53671,33992
" /> 
<polyline style="fill-rule:evenodd;"
points="53058,41463
53058,40991
53766,40991
53766,41463
53058,41463
" /> 
<polyline style="fill-rule:evenodd;"
points="54633,41463
54633,40991
55341,40991
55341,41463
54633,41463
" /> 
<polyline style="fill-rule:evenodd;"
points="54633,42408
54633,41936
55341,41936
55341,42408
54633,42408
" /> 
<polyline style="fill-rule:evenodd;"
points="53058,42408
53058,41936
53766,41936
53766,42408
53058,42408
" /> 
<polyline style="fill-rule:evenodd;"
points="61750,47000
61750,44000
62250,44000
62250,47000
61750,47000
" /> 
<polyline style="fill-rule:evenodd;"
points="60750,47000
60750,44000
61250,44000
61250,47000
60750,47000
" /> 
<polyline style="fill-rule:evenodd;"
points="59750,47000
59750,44000
60250,44000
60250,47000
59750,47000
" /> 
<polyline style="fill-rule:evenodd;"
points="58750,47000
58750,44000
59250,44000
59250,47000
58750,47000
" /> 
<polyline style="fill-rule:evenodd;"
points="57750,47000
57750,44000
58250,44000
58250,47000
57750,47000
" /> 
<polyline style="fill-rule:evenodd;"
points="56750,47000
56750,44000
57250,44000
57250,47000
56750,47000
" /> 
<polyline style="fill-rule:evenodd;"
points="55750,47000
55750,44000
56250,44000
56250,47000
55750,47000
" /> 
<polyline style="fill-rule:evenodd;"
points="54750,47000
54750,44000
55250,44000
55250,47000
54750,47000
" /> 
<polyline style="fill-rule:evenodd;"
points="53750,47000
53750,44000
54250,44000
54250,47000
53750,47000
" /> 
<polyline style="fill-rule:evenodd;"
points="52750,47000
52750,44000
53250,44000
53250,47000
52750,47000
" /> 
</g>
<g style="fill:#C2C2C2; fill-opacity:1.0; 
stroke:#C2C2C2; stroke-width:0; stroke-opacity:1; 
stroke-linecap:round; stroke-linejoin:round;">
<circle cx="52750" cy="42100" r="118.11" /> 
</g>
<g style="fill:#C2C2C2; fill-opacity:1.0; 
stroke:#C2C2C2; stroke-width:39.3701; stroke-opacity:1; 
stroke-linecap:round; stroke-linejoin:round;">
</g>
<g style="fill:#C2C2C2; fill-opacity:1.0; 
stroke:#C2C2C2; stroke-width:0; stroke-opacity:1; 
stroke-linecap:round; stroke-linejoin:round;">
<circle cx="55650" cy="41300" r="118.11" /> 
</g>
<g style="fill:#C2C2C2; fill-opacity:1.0; 
stroke:#C2C2C2; stroke-width:39.3701; stroke-opacity:1; 
stroke-linecap:round; stroke-linejoin:round;">
</g>
<g style="fill:#C2C2C2; fill-opacity:1.0; 
stroke:#C2C2C2; stroke-width:0; stroke-opacity:1; 
stroke-linecap:round; stroke-linejoin:round;">
<circle cx="53300" cy="37800" r="118.11" /> 
</g>
<g style="fill:#C2C2C2; fill-opacity:1.0; 
stroke:#C2C2C2; stroke-width:39.3701; stroke-opacity:1; 
stroke-linecap:round; stroke-linejoin:round;">
</g>
<g style="fill:#C2C2C2; fill-opacity:1.0; 
stroke:#C2C2C2; stroke-width:0; stroke-opacity:1; 
stroke-linecap:round; stroke-linejoin:round;">
<circle cx="53950" cy="36250" r="118.11" /> 
</g>
<g style="fill:#C2C2C2; fill-opacity:1.0; 
stroke:#C2C2C2; stroke-width:39.3701; stroke-opacity:1; 
stroke-linecap:round; stroke-linejoin:round;">
</g>
<g style="fill:#C2C2C2; fill-opacity:1.0; 
stroke:#C2C2C2; stroke-width:0; stroke-opacity:1; 
stroke-linecap:round; stroke-linejoin:round;">
<circle cx="58400" cy="41000" r="118.11" /> 
</g>
<g style="fill:#C2C2C2; fill-opacity:1.0; 
stroke:#C2C2C2; stroke-width:39.3701; stroke-opacity:1; 
stroke-linecap:round; stroke-linejoin:round;">
</g>
<g style="fill:#C2C2C2; fill-opacity:1.0; 
stroke:#C2C2C2; stroke-width:0; stroke-opacity:1; 
stroke-linecap:round; stroke-linejoin:round;">
<circle cx="59300" cy="43000" r="118.11" /> 
</g>
<g style="fill:#C2C2C2; fill-opacity:1.0; 
stroke:#C2C2C2; stroke-width:39.3701; stroke-opacity:1; 
stroke-linecap:round; stroke-linejoin:round;">
</g>
<g style="fill:#C2C2C2; fill-opacity:1.0; 
stroke:#C2C2C2; stroke-width:0; stroke-opacity:1; 
stroke-linecap:round; stroke-linejoin:round;">
<circle cx="60450" cy="43000" r="118.11" /> 
</g>
<g style="fill:#C2C2C2; fill-opacity:1.0; 
stroke:#C2C2C2; stroke-width:39.3701; stroke-opacity:1; 
stroke-linecap:round; stroke-linejoin:round;">
</g>
<g style="fill:#C2C2C2; fill-opacity:1.0; 
stroke:#C2C2C2; stroke-width:0; stroke-opacity:1; 
stroke-linecap:round; stroke-linejoin:round;">
<circle cx="57000" cy="32500" r="118.11" /> 
</g>
<g style="fill:#C2C2C2; fill-opacity:1.0; 
stroke:#C2C2C2; stroke-width:39.3701; stroke-opacity:1; 
stroke-linecap:round; stroke-linejoin:round;">
</g>
<g style="fill:#C2C2C2; fill-opacity:1.0; 
stroke:#C2C2C2; stroke-width:0; stroke-opacity:1; 
stroke-linecap:round; stroke-linejoin:round;">
<circle cx="60900" cy="40850" r="118.11" /> 
</g>
<g style="fill:#C2C2C2; fill-opacity:1.0; 
stroke:#C2C2C2; stroke-width:39.3701; stroke-opacity:1; 
stroke-linecap:round; stroke-linejoin:round;">
</g>
<g style="fill:#C2C2C2; fill-opacity:1.0; 
stroke:#C2C2C2; stroke-width:0; stroke-opacity:1; 
stroke-linecap:round; stroke-linejoin:round;">
<circle cx="56600" cy="39200" r="118.11" /> 
</g>
<g style="fill:#C2C2C2; fill-opacity:1.0; 
stroke:#C2C2C2; stroke-width:39.3701; stroke-opacity:1; 
stroke-linecap:round; stroke-linejoin:round;">
</g>
<g style="fill:#C2C2C2; fill-opacity:1.0; 
stroke:#C2C2C2; stroke-width:0; stroke-opacity:1; 
stroke-linecap:round; stroke-linejoin:round;">
<circle cx="57300" cy="41100" r="118.11" /> 
</g>
<g style="fill:#C2C2C2; fill-opacity:1.0; 
stroke:#C2C2C2; stroke-width:39.3701; stroke-opacity:1; 
stroke-linecap:round; stroke-linejoin:round;">
</g>
<g style="fill:#C2C2C2; fill-opacity:1.0; 
stroke:#C2C2C2; stroke-width:0; stroke-opacity:1; 
stroke-linecap:round; stroke-linejoin:round;">
<circle cx="60600" cy="40850" r="118.11" /> 
</g>
<g style="fill:#C2C2C2; fill-opacity:1.0; 
stroke:#C2C2C2; stroke-width:39.3701; stroke-opacity:1; 
stroke-linecap:round; stroke-linejoin:round;">
</g>
<g style="fill:#C2C2C2; fill-opacity:1.0; 
stroke:#C2C2C2; stroke-width:0; stroke-opacity:1; 
stroke-linecap:round; stroke-linejoin:round;">
<circle cx="54200" cy="38100" r="118.11" /> 
</g>
<g style="fill:#C2C2C2; fill-opacity:1.0; 
stroke:#C2C2C2; stroke-width:39.3701; stroke-opacity:1; 
stroke-linecap:round; stroke-linejoin:round;">
</g>
<g style="fill:#C2C2C2; fill-opacity:1.0; 
stroke:#C2C2C2; stroke-width:0; stroke-opacity:1; 
stroke-linecap:round; stroke-linejoin:round;">
<circle cx="54200" cy="37700" r="118.11" /> 
</g>
<g style="fill:#C2C2C2; fill-opacity:1.0; 
stroke:#C2C2C2; stroke-width:39.3701; stroke-opacity:1; 
stroke-linecap:round; stroke-linejoin:round;">
</g>
<g style="fill:#C2C2C2; fill-opacity:1.0; 
stroke:#C2C2C2; stroke-width:0; stroke-opacity:1; 
stroke-linecap:round; stroke-linejoin:round;">
<circle cx="53600" cy="39500" r="118.11" /> 
</g>
<g style="fill:#C2C2C2; fill-opacity:1.0; 
stroke:#C2C2C2; stroke-width:39.3701; stroke-opacity:1; 
stroke-linecap:round; stroke-linejoin:round;">
</g>
<g style="fill:#C2C2C2; fill-opacity:1.0; 
stroke:#C2C2C2; stroke-width:0; stroke-opacity:1; 
stroke-linecap:round; stroke-linejoin:round;">
<circle cx="54800" cy="37900" r="118.11" /> 
</g>
<g style="fill:#C2C2C2; fill-opacity:1.0; 
stroke:#C2C2C2; stroke-width:39.3701; stroke-opacity:1; 
stroke-linecap:round; stroke-linejoin:round;">
</g>
<g style="fill:#C2C2C2; fill-opacity:1.0; 
stroke:#C2C2C2; stroke-width:0; stroke-opacity:1; 
stroke-linecap:round; stroke-linejoin:round;">
<circle cx="58350" cy="33050" r="118.11" /> 
</g>
<g style="fill:#C2C2C2; fill-opacity:1.0; 
stroke:#C2C2C2; stroke-width:39.3701; stroke-opacity:1; 
stroke-linecap:round; stroke-linejoin:round;">
</g>
<g style="fill:#C2C2C2; fill-opacity:1.0; 
stroke:#C2C2C2; stroke-width:0; stroke-opacity:1; 
stroke-linecap:round; stroke-linejoin:round;">
<circle cx="53600" cy="37900" r="118.11" /> 
</g>
<g style="fill:#C2C2C2; fill-opacity:1.0; 
stroke:#C2C2C2; stroke-width:39.3701; stroke-opacity:1; 
stroke-linecap:round; stroke-linejoin:round;">
</g>
<g style="fill:#C2C2C2; fill-opacity:1.0; 
stroke:#C2C2C2; stroke-width:0; stroke-opacity:1; 
stroke-linecap:round; stroke-linejoin:round;">
<circle cx="57000" cy="31900" r="118.11" /> 
</g>
<g style="fill:#C2C2C2; fill-opacity:1.0; 
stroke:#C2C2C2; stroke-width:39.3701; stroke-opacity:1; 
stroke-linecap:round; stroke-linejoin:round;">
</g>
<g style="fill:#C2C2C2; fill-opacity:1.0; 
stroke:#C2C2C2; stroke-width:0; stroke-opacity:1; 
stroke-linecap:round; stroke-linejoin:round;">
<circle cx="55400" cy="32900" r="118.11" /> 
</g>
<g style="fill:#C2C2C2; fill-opacity:1.0; 
stroke:#C2C2C2; stroke-width:39.3701; stroke-opacity:1; 
stroke-linecap:round; stroke-linejoin:round;">
</g>
<g style="fill:#840000; fill-opacity:1.0; 
stroke:#840000; stroke-width:39.3701; stroke-opacity:1; 
stroke-linecap:round; stroke-linejoin:round;">
</g>
<g style="fill:#840000; fill-opacity:1.0; 
stroke:#840000; stroke-width:98.4252; stroke-opacity:1; 
stroke-linecap:round; stroke-linejoin:round;">
</g>
<g style="fill:#840000; fill-opacity:0.0; 
stroke:#840000; stroke-width:98.4252; stroke-opacity:1; 
stroke-linecap:round; stroke-linejoin:round;">
<path d="M53412 42172
L52822 42172
" />
<path d="M52822 42172
L52750 42100
" />
<path d="M54987 41227
L55577 41227
" />
<path d="M55577 41227
L55650 41300
" />
<path d="M52655 37850
L53250 37850
" />
<path d="M53250 37850
L53300 37800
" />
<path d="M53955 35605
L53955 36244
" />
<path d="M53955 36244
L53950 36250
" />
<path d="M56600 39200
L56600 39500
" />
<path d="M58400 40900
L58400 41000
" />
<path d="M57200 39700
L58400 40900
" />
<path d="M57000 39700
L57200 39700
" />
<path d="M56800 39700
L57000 39700
" />
<path d="M56600 39500
L56800 39700
" />
<path d="M56690 39109
L57144 39109
" />
<path d="M60089 41656
L60089 40910
" />
<path d="M60900 40700
L60900 40850
" />
<path d="M60800 40600
L60900 40700
" />
<path d="M60400 40600
L60800 40600
" />
<path d="M60089 40910
L60400 40600
" />
<path d="M58400 41000
L59150 41000
" />
<path d="M59150 41000
L59274 41124
" />
<path d="M59274 41124
L59274 41450
" />
<path d="M58038 41511
L58050 41250
" />
<path d="M58250 41000
L58400 41000
" />
<path d="M58050 41250
L58250 41000
" />
<path d="M60089 41656
L59706 41656
" />
<path d="M59706 41656
L59500 41450
" />
<path d="M59500 41450
L59274 41450
" />
<path d="M59274 42450
L59274 42974
" />
<path d="M59274 42974
L59300 43000
" />
<path d="M60778 42921
L60700 43000
" />
<path d="M60700 43000
L60450 43000
" />
<path d="M60778 42921
L60778 42660
" />
<path d="M57500 32793
L57293 32793
" />
<path d="M57293 32793
L57000 32500
" />
<path d="M58038 41556
L58038 41511
" />
<path d="M60936 41439
L60936 40886
" />
<path d="M60936 40886
L60900 40850
" />
<path d="M56600 39200
L56690 39109
" />
<path d="M57546 41556
L57546 41396
" />
<path d="M57546 41396
L57300 41100
" />
<path d="M60621 41439
L60621 40871
" />
<path d="M60621 40871
L60600 40850
" />
<path d="M57144 37535
L57664 37535
" />
<path d="M57900 37300
L58287 37300
" />
<path d="M57664 37535
L57900 37300
" />
<path d="M57144 37220
L57479 37220
" />
<path d="M58000 35900
L58287 35900
" />
<path d="M57900 36000
L58000 35900
" />
<path d="M57900 36800
L57900 36000
" />
<path d="M57479 37220
L57900 36800
" />
<path d="M58525 41450
L58800 41450
" />
<path d="M60936 43013
L60936 42660
" />
<path d="M60737 43212
L60936 43013
" />
<path d="M60212 43212
L60737 43212
" />
<path d="M59700 42700
L60212 43212
" />
<path d="M59700 42100
L59700 42700
" />
<path d="M59550 41950
L59700 42100
" />
<path d="M59050 41950
L59550 41950
" />
<path d="M58900 41800
L59050 41950
" />
<path d="M58900 41550
L58900 41800
" />
<path d="M58800 41450
L58900 41550
" />
<path d="M58038 42343
L58038 42111
" />
<path d="M58525 41824
L58525 41450
" />
<path d="M58400 41950
L58525 41824
" />
<path d="M58200 41950
L58400 41950
" />
<path d="M58038 42111
L58200 41950
" />
<path d="M58525 42450
L58800 42450
" />
<path d="M61093 43106
L61093 42660
" />
<path d="M60800 43400
L61093 43106
" />
<path d="M60150 43400
L60800 43400
" />
<path d="M59550 42800
L60150 43400
" />
<path d="M59550 42200
L59550 42800
" />
<path d="M59450 42100
L59550 42200
" />
<path d="M59000 42100
L59450 42100
" />
<path d="M58900 42200
L59000 42100
" />
<path d="M58900 42350
L58900 42200
" />
<path d="M58800 42450
L58900 42350
" />
<path d="M57546 42343
L57546 42696
" />
<path d="M58525 42724
L58525 42450
" />
<path d="M58400 42850
L58525 42724
" />
<path d="M57700 42850
L58400 42850
" />
<path d="M57546 42696
L57700 42850
" />
<path d="M53190 39109
L54200 38100
" />
<path d="M53190 39109
L52655 39109
" />
<path d="M53105 38794
L54200 37700
" />
<path d="M52655 38794
L53105 38794
" />
<path d="M53640 40094
L53640 39540
" />
<path d="M53640 39540
L53600 39500
" />
<path d="M52655 39424
L53275 39424
" />
<path d="M53275 39424
L54800 37900
" />
<path d="M58350 33050
L59000 33700
" />
<path d="M53020 38479
L52655 38479
" />
<path d="M53020 38479
L53600 37900
" />
<path d="M57125 34300
L57000 34300
" />
<path d="M57000 34300
L56800 34100
" />
<path d="M56800 34100
L56800 33900
" />
<path d="M56800 33900
L56600 33700
" />
<path d="M56600 33700
L55400 33700
" />
<path d="M55400 33700
L55300 33800
" />
<path d="M55300 33800
L54800 33800
" />
<path d="M54800 33800
L54700 33900
" />
<path d="M54700 33900
L54700 34370
" />
<path d="M54700 34370
L54714 34385
" />
<path d="M54400 33900
L54400 34385
" />
<path d="M54800 33500
L54400 33900
" />
<path d="M54800 33300
L54800 33500
" />
<path d="M54900 33200
L54800 33300
" />
<path d="M55200 33200
L54900 33200
" />
<path d="M55500 33500
L55200 33200
" />
<path d="M57125 33500
L55500 33500
" />
<path d="M56924 31400
L57425 31400
" />
<path d="M57000 31475
L57000 31900
" />
<path d="M57000 31475
L56924 31400
" />
<path d="M55400 32900
L55400 31700
" />
<path d="M55700 31400
L56075 31400
" />
<path d="M55400 31700
L55700 31400
" />
</g>
<g style="fill:#840000; fill-opacity:1.0; 
stroke:#840000; stroke-width:100; stroke-opacity:1; 
stroke-linecap:round; stroke-linejoin:round;">
<polyline style="fill-rule:evenodd;"
points="62730,32219
62613,31937
62211,31534
61685,31316
61116,31315
60590,31533
60187,31935
59969,32461
59968,33030
60186,33556
60588,33959
61114,34178
61683,34178
62209,33961
62612,33558
62730,33275
62730,35172
62617,34895
62609,34883
62422,34748
61470,35700
62422,36651
62609,36516
62730,36228
62730,43950
62495,43950
62487,43907
62432,43822
62349,43765
62250,43745
61750,43745
61657,43762
61572,43817
61515,43900
61505,43950
61495,43950
61487,43907
61432,43822
61349,43765
61250,43745
60750,43745
60657,43762
60572,43817
60515,43900
60505,43950
60495,43950
60487,43907
60432,43822
60349,43765
60250,43745
59750,43745
59657,43762
59572,43817
59515,43900
59505,43950
59495,43950
59487,43907
59432,43822
59349,43765
59250,43745
58750,43745
58657,43762
58572,43817
58515,43900
58505,43950
58495,43950
58487,43907
58432,43822
58349,43765
58250,43745
57750,43745
57657,43762
57572,43817
57515,43900
57505,43950
57495,43950
57487,43907
57432,43822
57349,43765
57250,43745
56750,43745
56657,43762
56572,43817
56515,43900
56505,43950
56495,43950
56487,43907
56432,43822
56349,43765
56250,43745
55750,43745
55657,43762
55572,43817
55515,43900
55505,43950
55495,43950
55487,43907
55432,43822
55349,43765
55250,43745
54750,43745
54657,43762
54572,43817
54515,43900
54505,43950
54495,43950
54487,43907
54432,43822
54349,43765
54250,43745
53750,43745
53657,43762
53572,43817
53515,43900
53505,43950
53495,43950
53487,43907
53432,43822
53349,43765
53250,43745
52750,43745
52657,43762
52572,43817
52515,43900
52505,43950
52269,43950
52269,42172
52381,42172
52437,42308
52541,42411
52676,42468
52804,42468
52814,42470
52820,42501
52875,42586
52959,42643
53058,42663
53766,42663
53859,42646
53944,42591
54001,42507
54021,42408
54021,42284
54383,42284
54383,42458
54421,42550
54491,42620
54583,42658
54874,42658
54937,42596
54937,42222
55037,42222
55037,42596
55099,42658
55391,42658
55483,42620
55553,42550
55591,42458
55591,42284
55529,42222
55037,42222
54937,42222
54445,42222
54383,42284
54021,42284
54021,41936
54004,41843
53949,41758
53866,41701
53852,41698
53908,41675
53978,41605
54016,41513
54016,41340
53954,41277
53462,41277
53462,41285
53362,41285
53362,41277
52870,41277
52808,41340
52808,41513
52846,41605
52916,41675
52970,41697
52965,41698
52880,41753
52879,41755
52823,41731
52677,41731
52541,41787
52438,41891
52381,42026
52381,42172
52269,42172
52269,40941
52808,40941
52808,41115
52870,41177
53362,41177
53362,40803
53462,40803
53462,41177
53954,41177
54016,41115
54016,40991
54378,40991
54378,41463
54395,41556
54450,41641
54533,41698
54547,41701
54491,41724
54421,41794
54383,41886
54383,42059
54445,42122
54937,42122
54937,42114
55037,42114
55037,42122
55529,42122
55591,42059
55591,41886
55553,41794
55483,41724
55429,41702
55434,41701
55519,41646
55520,41644
55576,41668
55722,41668
55858,41612
55961,41508
56018,41373
56018,41227
55962,41091
55858,40988
55723,40931
55595,40931
55585,40929
55579,40898
55524,40813
55440,40756
55341,40736
54633,40736
54540,40753
54455,40808
54398,40892
54378,40991
54016,40991
54016,40941
53978,40849
53908,40779
53816,40741
53525,40741
53462,40803
53362,40803
53300,40741
53008,40741
52916,40779
52846,40849
52808,40941
52269,40941
52269,39769
52360,39787
52951,39787
52964,39785
52962,39798
52962,40389
52979,40482
53034,40567
53117,40624
53216,40644
53433,40644
53484,40634
53531,40644
53748,40644
53799,40634
53846,40644
54063,40644
54105,40636
54112,40639
54157,40639
54195,40601
54241,40572
54270,40529
54294,40567
54345,40602
54382,40639
54428,40639
54436,40636
54476,40644
54693,40644
54744,40634
54791,40644
55008,40644
55059,40634
55106,40644
55323,40644
55374,40634
55421,40644
55638,40644
55689,40634
55736,40644
55953,40644
56004,40634
56051,40644
56268,40644
56319,40634
56366,40644
56583,40644
56675,40626
56760,40572
56817,40488
56837,40389
56837,39999
57076,39999
57960,40883
57816,41063
57800,41094
57779,41123
57774,41142
57763,41134
57708,41123
57668,41074
57668,41027
57612,40891
57508,40788
57373,40731
57227,40731
57091,40787
56988,40891
56931,41026
56931,41119
56886,41119
56805,41152
56779,41134
56679,41114
56443,41114
56351,41131
56265,41186
56208,41270
56188,41369
56188,41743
56206,41835
56260,41921
56303,41949
56265,41973
56208,42057
56188,42156
56188,42530
56206,42623
56260,42708
56344,42765
56443,42785
56679,42785
56772,42768
56807,42745
56836,42765
56935,42785
57172,42785
57261,42768
57269,42810
57334,42907
57488,43061
57585,43126
57700,43149
58400,43149
58514,43126
58611,43061
58723,42949
58756,42943
58841,42888
58898,42805
58899,42799
58951,42880
58931,42926
58931,43072
58987,43208
59091,43311
59226,43368
59372,43368
59508,43312
59573,43246
59938,43611
60035,43676
60054,43680
60150,43699
60800,43699
60914,43676
61011,43611
61305,43317
61370,43220
61392,43106
61392,42737
61448,42737
61540,42720
61625,42665
61682,42582
61702,42483
61702,42404
61695,42363
61702,42325
61702,42246
61695,42206
61702,42168
61702,42089
61695,42048
61702,42010
61702,41931
61695,41891
61702,41853
61702,41774
61695,41733
61702,41695
61702,41616
61685,41524
61630,41439
61547,41382
61448,41362
61387,41362
61387,41301
61370,41209
61315,41124
61235,41069
61235,41002
61268,40923
61268,40777
61212,40641
61181,40610
61176,40585
61111,40488
61011,40388
60914,40323
60800,40300
60400,40300
60285,40323
60188,40388
59878,40698
59813,40795
59790,40910
59790,41317
59711,41238
59666,41208
59666,41194
59649,41101
59594,41016
59521,40966
59485,40912
59361,40788
59264,40723
59150,40700
58621,40700
58616,40695
58611,40688
58146,40223
58750,40223
58750,37753
58827,37786
59000,37786
59063,37723
59063,37350
59163,37350
59163,37723
59225,37786
59398,37786
59490,37747
59560,37677
59599,37585
59599,37412
59536,37350
59163,37350
59063,37350
59055,37350
59055,37250
59063,37250
59063,36876
59163,36876
59163,37250
59536,37250
59599,37187
59599,37014
59560,36922
59490,36852
59398,36814
59225,36814
59163,36876
59063,36876
59000,36814
58827,36814
58735,36852
58703,36884
58622,36829
58523,36809
58197,36809
58199,36800
58199,36722
60448,36722
60583,36909
61108,37129
61677,37132
62204,36917
62216,36909
62351,36722
61400,35770
60448,36722
58199,36722
58199,36390
58523,36390
58615,36373
58700,36318
58702,36315
58735,36347
58827,36386
59000,36386
59063,36323
59063,35950
59163,35950
59163,36323
59225,36386
59398,36386
59490,36347
59560,36277
59599,36185
59599,36012
59564,35977
59967,35977
60182,36504
60190,36516
60377,36651
61329,35700
60377,34748
60190,34883
59970,35408
59967,35977
59564,35977
59536,35950
59163,35950
59063,35950
59055,35950
59055,35850
59063,35850
59063,35476
59163,35476
59163,35850
59536,35850
59599,35787
59599,35614
59560,35522
59490,35452
59398,35414
59225,35414
59163,35476
59063,35476
59000,35414
58827,35414
58735,35452
58703,35484
58622,35429
58523,35409
58051,35409
57958,35426
57873,35481
57816,35564
57796,35664
57796,35683
57788,35688
57688,35788
57623,35885
57604,35978
57580,35954
57489,35916
57256,35916
57194,35979
57194,36225
57201,36225
57201,36226
56848,36226
56756,36244
56671,36299
56636,36350
56598,36387
56598,36433
56602,36441
56593,36481
56593,36698
56603,36749
56593,36796
56593,37013
56603,37064
56593,37111
56593,37328
56603,37379
56593,37426
56593,37643
56603,37694
56593,37741
56593,37958
56603,38009
56593,38056
56593,38273
56603,38324
56593,38371
56593,38588
56603,38639
56593,38686
56593,38829
56583,38831
56527,38831
56391,38887
56288,38991
56231,39126
56231,39272
56287,39408
56300,39421
56300,39500
56311,39552
56268,39543
56051,39543
56000,39553
55953,39543
55736,39543
55685,39553
55638,39543
55421,39543
55370,39553
55323,39543
55106,39543
55055,39553
55008,39543
54791,39543
54740,39553
54693,39543
54476,39543
54435,39551
54428,39548
54382,39548
54344,39586
54299,39616
54270,39658
54246,39621
54194,39586
54157,39548
54112,39548
54104,39552
54063,39543
53968,39543
53968,39427
53912,39291
53871,39251
54854,38268
54872,38268
55008,38212
55111,38108
55168,37973
55168,37827
55112,37691
55008,37588
54873,37531
54727,37531
54591,37587
54563,37615
54512,37491
54408,37388
54273,37331
54127,37331
53991,37387
53888,37491
53836,37615
53808,37588
53673,37531
53552,37531
53508,37488
53373,37431
53227,37431
53167,37456
53201,37422
53201,37377
53197,37368
53206,37328
53206,37111
53196,37060
53206,37013
53206,36796
53196,36745
53206,36698
53206,36481
53196,36430
53206,36383
53206,36166
53203,36153
53216,36156
53433,36156
53475,36148
53482,36151
53527,36151
53565,36113
53590,36097
53590,36151
53592,36151
53581,36176
53581,36322
53637,36458
53741,36561
53876,36618
54022,36618
54158,36562
54261,36458
54318,36323
54318,36177
54309,36156
54378,36156
54429,36146
54476,36156
54693,36156
54744,36146
54791,36156
55008,36156
55059,36146
55106,36156
55323,36156
55374,36146
55421,36156
55638,36156
55689,36146
55736,36156
55953,36156
55994,36148
56001,36151
56047,36151
56085,36113
56130,36083
56159,36041
56183,36078
56235,36113
56272,36151
56317,36151
56325,36147
56366,36156
56583,36156
56598,36153
56598,36162
56661,36225
57094,36225
57094,35979
57031,35916
56834,35916
56837,35901
56837,35310
56820,35217
56765,35132
56682,35075
56583,35055
56366,35055
56324,35063
56317,35060
56272,35060
56234,35098
56188,35127
56159,35170
56135,35132
56084,35097
56047,35060
56001,35060
55993,35063
55953,35055
55736,35055
55685,35065
55638,35055
55421,35055
55370,35065
55323,35055
55106,35055
55055,35065
55008,35055
54791,35055
54740,35065
54693,35055
54476,35055
54425,35065
54378,35055
54161,35055
54110,35065
54063,35055
53846,35055
53805,35063
53798,35060
53752,35060
53714,35098
53669,35127
53640,35170
53616,35132
53564,35097
53527,35060
53482,35060
53474,35063
53433,35055
53216,35055
53124,35073
53039,35127
52982,35211
52962,35310
52962,35901
52964,35914
52951,35912
52360,35912
52269,35929
52269,34975
53238,34975
53331,34957
53416,34903
53438,34870
53459,34921
53530,34991
53621,35029
53658,35029
53720,34967
53720,34435
53712,34435
53712,34335
53720,34335
53720,34327
53731,34327
53731,34779
53749,34872
53803,34957
53821,34969
53881,35029
53918,35029
53932,35023
53986,35034
54183,35034
54244,35022
54301,35034
54498,35034
54559,35022
54616,35034
54813,35034
54874,35022
54931,35034
55128,35034
55220,35016
55306,34962
55363,34878
55363,34875
55378,34898
55462,34955
55561,34975
56545,34975
56638,34957
56723,34903
56780,34819
56799,34724
56805,34733
56889,34790
56988,34810
57263,34810
57356,34793
57441,34738
57498,34655
57499,34649
57553,34733
57637,34790
57736,34810
58011,34810
58104,34793
58189,34738
58231,34677
60448,34677
61400,35629
62351,34677
62216,34490
61691,34270
61122,34267
60595,34482
60583,34490
60448,34677
58231,34677
58246,34655
58266,34555
58266,34044
58249,33951
58216,33899
58246,33855
58266,33755
58266,33413
58276,33418
58294,33418
58377,33500
58337,33700
58382,33925
58510,34117
58701,34245
58927,34290
59072,34290
59298,34245
59489,34117
59617,33925
59662,33700
59617,33474
59489,33282
59365,33200
59489,33117
59617,32925
59662,32700
59617,32474
59489,32282
59484,32279
59492,32277
59577,32222
59634,32139
59654,32040
59654,31360
59637,31269
62730,31269
62730,32219
" /> 
<polyline style="fill-rule:evenodd;"
points="57103,41506
57111,41506
57111,41606
57103,41606
57103,41614
57003,41614
57003,41606
56996,41606
56996,41506
57003,41506
57003,41498
57103,41498
57103,41506
" /> 
<polyline style="fill-rule:evenodd;"
points="58224,31350
58231,31350
58231,31450
58224,31450
58224,31843
58286,31905
58345,31905
58345,32040
58362,32132
58417,32217
58500,32274
58517,32278
58510,32282
58382,32474
58340,32681
58277,32681
58141,32737
58038,32841
58000,32930
58000,32596
57983,32504
57928,32419
57901,32400
57958,32344
57996,32252
57996,32118
57933,32056
57550,32056
57550,32064
57450,32064
57450,32056
57442,32056
57442,31956
57450,31956
57450,31948
57550,31948
57550,31956
57933,31956
57984,31905
57986,31905
58061,31905
58124,31843
58124,31450
58116,31450
58116,31350
58124,31350
58124,31342
58224,31342
58224,31350
" /> 
</g>
<g style="fill:#FFFFFF; fill-opacity:1.0; 
stroke:#FFFFFF; stroke-width:100; stroke-opacity:1; 
stroke-linecap:round; stroke-linejoin:round;">
</g>
<g style="fill:#FFFFFF; fill-opacity:1.0; 
stroke:#FFFFFF; stroke-width:0; stroke-opacity:1; 
stroke-linecap:round; stroke-linejoin:round;">
<circle cx="52750" cy="42100" r="78.7402" /> 
</g>
<g style="fill:#FFFFFF; fill-opacity:1.0; 
stroke:#FFFFFF; stroke-width:39.3701; stroke-opacity:1; 
stroke-linecap:round; stroke-linejoin:round;">
</g>
<g style="fill:#FFFFFF; fill-opacity:1.0; 
stroke:#FFFFFF; stroke-width:0; stroke-opacity:1; 
stroke-linecap:round; stroke-linejoin:round;">
<circle cx="55650" cy="41300" r="78.7402" /> 
</g>
<g style="fill:#FFFFFF; fill-opacity:1.0; 
stroke:#FFFFFF; stroke-width:39.3701; stroke-opacity:1; 
stroke-linecap:round; stroke-linejoin:round;">
</g>
<g style="fill:#FFFFFF; fill-opacity:1.0; 
stroke:#FFFFFF; stroke-width:0; stroke-opacity:1; 
stroke-linecap:round; stroke-linejoin:round;">
<circle cx="53300" cy="37800" r="78.7402" /> 
</g>
<g style="fill:#FFFFFF; fill-opacity:1.0; 
stroke:#FFFFFF; stroke-width:39.3701; stroke-opacity:1; 
stroke-linecap:round; stroke-linejoin:round;">
</g>
<g style="fill:#FFFFFF; fill-opacity:1.0; 
stroke:#FFFFFF; stroke-width:0; stroke-opacity:1; 
stroke-linecap:round; stroke-linejoin:round;">
<circle cx="53950" cy="36250" r="78.7402" /> 
</g>
<g style="fill:#FFFFFF; fill-opacity:1.0; 
stroke:#FFFFFF; stroke-width:39.3701; stroke-opacity:1; 
stroke-linecap:round; stroke-linejoin:round;">
</g>
<g style="fill:#FFFFFF; fill-opacity:1.0; 
stroke:#FFFFFF; stroke-width:0; stroke-opacity:1; 
stroke-linecap:round; stroke-linejoin:round;">
<circle cx="58400" cy="41000" r="78.7402" /> 
</g>
<g style="fill:#FFFFFF; fill-opacity:1.0; 
stroke:#FFFFFF; stroke-width:39.3701; stroke-opacity:1; 
stroke-linecap:round; stroke-linejoin:round;">
</g>
<g style="fill:#FFFFFF; fill-opacity:1.0; 
stroke:#FFFFFF; stroke-width:0; stroke-opacity:1; 
stroke-linecap:round; stroke-linejoin:round;">
<circle cx="59300" cy="43000" r="78.7402" /> 
</g>
<g style="fill:#FFFFFF; fill-opacity:1.0; 
stroke:#FFFFFF; stroke-width:39.3701; stroke-opacity:1; 
stroke-linecap:round; stroke-linejoin:round;">
</g>
<g style="fill:#FFFFFF; fill-opacity:1.0; 
stroke:#FFFFFF; stroke-width:0; stroke-opacity:1; 
stroke-linecap:round; stroke-linejoin:round;">
<circle cx="60450" cy="43000" r="78.7402" /> 
</g>
<g style="fill:#FFFFFF; fill-opacity:1.0; 
stroke:#FFFFFF; stroke-width:39.3701; stroke-opacity:1; 
stroke-linecap:round; stroke-linejoin:round;">
</g>
<g style="fill:#FFFFFF; fill-opacity:1.0; 
stroke:#FFFFFF; stroke-width:0; stroke-opacity:1; 
stroke-linecap:round; stroke-linejoin:round;">
<circle cx="57000" cy="32500" r="78.7402" /> 
</g>
<g style="fill:#FFFFFF; fill-opacity:1.0; 
stroke:#FFFFFF; stroke-width:39.3701; stroke-opacity:1; 
stroke-linecap:round; stroke-linejoin:round;">
</g>
<g style="fill:#FFFFFF; fill-opacity:1.0; 
stroke:#FFFFFF; stroke-width:0; stroke-opacity:1; 
stroke-linecap:round; stroke-linejoin:round;">
<circle cx="60900" cy="40850" r="78.7402" /> 
</g>
<g style="fill:#FFFFFF; fill-opacity:1.0; 
stroke:#FFFFFF; stroke-width:39.3701; stroke-opacity:1; 
stroke-linecap:round; stroke-linejoin:round;">
</g>
<g style="fill:#FFFFFF; fill-opacity:1.0; 
stroke:#FFFFFF; stroke-width:0; stroke-opacity:1; 
stroke-linecap:round; stroke-linejoin:round;">
<circle cx="56600" cy="39200" r="78.7402" /> 
</g>
<g style="fill:#FFFFFF; fill-opacity:1.0; 
stroke:#FFFFFF; stroke-width:39.3701; stroke-opacity:1; 
stroke-linecap:round; stroke-linejoin:round;">
</g>
<g style="fill:#FFFFFF; fill-opacity:1.0; 
stroke:#FFFFFF; stroke-width:0; stroke-opacity:1; 
stroke-linecap:round; stroke-linejoin:round;">
<circle cx="57300" cy="41100" r="78.7402" /> 
</g>
<g style="fill:#FFFFFF; fill-opacity:1.0; 
stroke:#FFFFFF; stroke-width:39.3701; stroke-opacity:1; 
stroke-linecap:round; stroke-linejoin:round;">
</g>
<g style="fill:#FFFFFF; fill-opacity:1.0; 
stroke:#FFFFFF; stroke-width:0; stroke-opacity:1; 
stroke-linecap:round; stroke-linejoin:round;">
<circle cx="60600" cy="40850" r="78.7402" /> 
</g>
<g style="fill:#FFFFFF; fill-opacity:1.0; 
stroke:#FFFFFF; stroke-width:39.3701; stroke-opacity:1; 
stroke-linecap:round; stroke-linejoin:round;">
</g>
<g style="fill:#FFFFFF; fill-opacity:1.0; 
stroke:#FFFFFF; stroke-width:0; stroke-opacity:1; 
stroke-linecap:round; stroke-linejoin:round;">
<circle cx="54200" cy="38100" r="78.7402" /> 
</g>
<g style="fill:#FFFFFF; fill-opacity:1.0; 
stroke:#FFFFFF; stroke-width:39.3701; stroke-opacity:1; 
stroke-linecap:round; stroke-linejoin:round;">
</g>
<g style="fill:#FFFFFF; fill-opacity:1.0; 
stroke:#FFFFFF; stroke-width:0; stroke-opacity:1; 
stroke-linecap:round; stroke-linejoin:round;">
<circle cx="54200" cy="37700" r="78.7402" /> 
</g>
<g style="fill:#FFFFFF; fill-opacity:1.0; 
stroke:#FFFFFF; stroke-width:39.3701; stroke-opacity:1; 
stroke-linecap:round; stroke-linejoin:round;">
</g>
<g style="fill:#FFFFFF; fill-opacity:1.0; 
stroke:#FFFFFF; stroke-width:0; stroke-opacity:1; 
stroke-linecap:round; stroke-linejoin:round;">
<circle cx="53600" cy="39500" r="78.7402" /> 
</g>
<g style="fill:#FFFFFF; fill-opacity:1.0; 
stroke:#FFFFFF; stroke-width:39.3701; stroke-opacity:1; 
stroke-linecap:round; stroke-linejoin:round;">
</g>
<g style="fill:#FFFFFF; fill-opacity:1.0; 
stroke:#FFFFFF; stroke-width:0; stroke-opacity:1; 
stroke-linecap:round; stroke-linejoin:round;">
<circle cx="54800" cy="37900" r="78.7402" /> 
</g>
<g style="fill:#FFFFFF; fill-opacity:1.0; 
stroke:#FFFFFF; stroke-width:39.3701; stroke-opacity:1; 
stroke-linecap:round; stroke-linejoin:round;">
</g>
<g style="fill:#FFFFFF; fill-opacity:1.0; 
stroke:#FFFFFF; stroke-width:0; stroke-opacity:1; 
stroke-linecap:round; stroke-linejoin:round;">
<circle cx="58350" cy="33050" r="78.7402" /> 
</g>
<g style="fill:#FFFFFF; fill-opacity:1.0; 
stroke:#FFFFFF; stroke-width:39.3701; stroke-opacity:1; 
stroke-linecap:round; stroke-linejoin:round;">
</g>
<g style="fill:#FFFFFF; fill-opacity:1.0; 
stroke:#FFFFFF; stroke-width:0; stroke-opacity:1; 
stroke-linecap:round; stroke-linejoin:round;">
<circle cx="53600" cy="37900" r="78.7402" /> 
</g>
<g style="fill:#FFFFFF; fill-opacity:1.0; 
stroke:#FFFFFF; stroke-width:39.3701; stroke-opacity:1; 
stroke-linecap:round; stroke-linejoin:round;">
</g>
<g style="fill:#FFFFFF; fill-opacity:1.0; 
stroke:#FFFFFF; stroke-width:0; stroke-opacity:1; 
stroke-linecap:round; stroke-linejoin:round;">
<circle cx="57000" cy="31900" r="78.7402" /> 
</g>
<g style="fill:#FFFFFF; fill-opacity:1.0; 
stroke:#FFFFFF; stroke-width:39.3701; stroke-opacity:1; 
stroke-linecap:round; stroke-linejoin:round;">
</g>
<g style="fill:#FFFFFF; fill-opacity:1.0; 
stroke:#FFFFFF; stroke-width:0; stroke-opacity:1; 
stroke-linecap:round; stroke-linejoin:round;">
<circle cx="55400" cy="32900" r="78.7402" /> 
</g>
<g style="fill:#FFFFFF; fill-opacity:1.0; 
stroke:#FFFFFF; stroke-width:39.3701; stroke-opacity:1; 
stroke-linecap:round; stroke-linejoin:round;">
</g>
<g style="fill:#FFFFFF; fill-opacity:1.0; 
stroke:#FFFFFF; stroke-width:0; stroke-opacity:1; 
stroke-linecap:round; stroke-linejoin:round;">
<circle cx="61400" cy="35700" r="885.827" /> 
</g>
<g style="fill:#FFFFFF; fill-opacity:1.0; 
stroke:#FFFFFF; stroke-width:39.3701; stroke-opacity:1; 
stroke-linecap:round; stroke-linejoin:round;">
</g>
<g style="fill:#FFFFFF; fill-opacity:1.0; 
stroke:#FFFFFF; stroke-width:0; stroke-opacity:1; 
stroke-linecap:round; stroke-linejoin:round;">
<circle cx="61400" cy="32747.2" r="885.827" /> 
</g>
<g style="fill:#FFFFFF; fill-opacity:1.0; 
stroke:#FFFFFF; stroke-width:39.3701; stroke-opacity:1; 
stroke-linecap:round; stroke-linejoin:round;">
</g>
<g style="fill:#FFFFFF; fill-opacity:1.0; 
stroke:#FFFFFF; stroke-width:0; stroke-opacity:1; 
stroke-linecap:round; stroke-linejoin:round;">
<circle cx="59000" cy="31700" r="200" /> 
</g>
<g style="fill:#FFFFFF; fill-opacity:1.0; 
stroke:#FFFFFF; stroke-width:39.3701; stroke-opacity:1; 
stroke-linecap:round; stroke-linejoin:round;">
</g>
<g style="fill:#FFFFFF; fill-opacity:1.0; 
stroke:#FFFFFF; stroke-width:0; stroke-opacity:1; 
stroke-linecap:round; stroke-linejoin:round;">
<circle cx="59000" cy="32700" r="200" /> 
</g>
<g style="fill:#FFFFFF; fill-opacity:1.0; 
stroke:#FFFFFF; stroke-width:39.3701; stroke-opacity:1; 
stroke-linecap:round; stroke-linejoin:round;">
</g>
<g style="fill:#FFFFFF; fill-opacity:1.0; 
stroke:#FFFFFF; stroke-width:0; stroke-opacity:1; 
stroke-linecap:round; stroke-linejoin:round;">
<circle cx="59000" cy="33700" r="200" /> 
</g>
<g style="fill:#FFFFFF; fill-opacity:1.0; 
stroke:#FFFFFF; stroke-width:39.3701; stroke-opacity:1; 
stroke-linecap:round; stroke-linejoin:round;">
</g>
<g style="fill:#FFFFFF; fill-opacity:1.0; 
stroke:#FFFFFF; stroke-width:0; stroke-opacity:1; 
stroke-linecap:round; stroke-linejoin:round;">
<circle cx="55089" cy="33500" r="177.165" /> 
</g>
<g style="fill:#FFFFFF; fill-opacity:1.0; 
stroke:#FFFFFF; stroke-width:39.3701; stroke-opacity:1; 
stroke-linecap:round; stroke-linejoin:round;">
</g>
<g style="fill:#FFFFFF; fill-opacity:1.0; 
stroke:#FFFFFF; stroke-width:0; stroke-opacity:1; 
stroke-linecap:round; stroke-linejoin:round;">
<circle cx="53711" cy="33500" r="177.165" /> 
</g>
<g style="fill:#FFFFFF; fill-opacity:1.0; 
stroke:#FFFFFF; stroke-width:39.3701; stroke-opacity:1; 
stroke-linecap:round; stroke-linejoin:round;">
</g>
<g style="fill:#000000; fill-opacity:1.0; 
stroke:#000000; stroke-width:39.3701; stroke-opacity:1; 
stroke-linecap:round; stroke-linejoin:round;">
</g> 
</svg>
