G04 #@! TF.FileFunction,Copper,L2,Bot,Signal*
%FSLAX46Y46*%
G04 Gerber Fmt 4.6, Leading zero omitted, Abs format (unit mm)*
G04 Created by KiCad (PCBNEW 4.0.4+e1-6308~48~ubuntu16.04.1-stable) date Tue Nov 15 18:16:49 2016*
%MOMM*%
%LPD*%
G01*
G04 APERTURE LIST*
%ADD10C,0.100000*%
%ADD11R,1.000000X1.250000*%
%ADD12R,1.250000X1.000000*%
%ADD13R,0.590000X0.450000*%
%ADD14R,0.900000X2.500000*%
%ADD15C,1.500000*%
%ADD16R,3.657600X2.032000*%
%ADD17R,1.016000X2.032000*%
%ADD18R,1.727200X1.727200*%
%ADD19O,1.727200X1.727200*%
%ADD20R,0.700000X2.000000*%
%ADD21R,1.000000X2.600000*%
%ADD22R,1.500000X2.600000*%
%ADD23C,0.800000*%
%ADD24C,2.032000*%
%ADD25C,0.203200*%
%ADD26C,0.304800*%
%ADD27C,0.254000*%
G04 APERTURE END LIST*
D10*
D11*
X161322000Y-100330000D03*
X163322000Y-100330000D03*
D12*
X157988000Y-99695000D03*
X157988000Y-97695000D03*
X143002000Y-95488000D03*
X143002000Y-93488000D03*
X152654000Y-93488000D03*
X152654000Y-95488000D03*
D13*
X154432000Y-92075000D03*
X156542000Y-92075000D03*
D14*
X161089000Y-89789000D03*
X158189000Y-89789000D03*
D15*
X145415000Y-98933000D03*
X147955000Y-98933000D03*
X150495000Y-98933000D03*
D16*
X147828000Y-88900000D03*
D17*
X147828000Y-95504000D03*
X145542000Y-95504000D03*
X150114000Y-95504000D03*
D18*
X143002000Y-102870000D03*
D19*
X145542000Y-102870000D03*
X143002000Y-105410000D03*
X145542000Y-105410000D03*
X143002000Y-107950000D03*
X145542000Y-107950000D03*
X143002000Y-110490000D03*
X145542000Y-110490000D03*
D20*
X153615000Y-103020000D03*
X154715000Y-103020000D03*
X155815000Y-103020000D03*
X156915000Y-103020000D03*
X158015000Y-103020000D03*
X159115000Y-103020000D03*
X160215000Y-103020000D03*
X161315000Y-103020000D03*
D21*
X151515000Y-103520000D03*
D22*
X164865000Y-103520000D03*
D23*
X163068000Y-101981000D03*
X148971000Y-96901000D03*
X162179000Y-111887000D03*
X155448000Y-108585000D03*
X153035000Y-100457000D03*
X154940000Y-112522000D03*
X147193000Y-110236000D03*
X147193000Y-106172000D03*
X157607000Y-101092000D03*
X158015000Y-105283000D03*
X162037878Y-104616201D03*
D24*
X147828000Y-92202000D03*
D23*
X157480000Y-111014800D03*
X154940000Y-105918000D03*
X156845000Y-105918000D03*
X159131000Y-105918000D03*
X156464000Y-101092000D03*
X160909000Y-105537000D03*
X159766000Y-107569000D03*
X154432000Y-101219000D03*
X167769420Y-96771580D03*
X161417000Y-108458000D03*
X165730047Y-96774113D03*
X161417000Y-109855000D03*
X151257000Y-114808000D03*
X152400000Y-113792000D03*
X166243000Y-108458000D03*
X160020000Y-92710000D03*
X159639000Y-99441000D03*
D25*
X145288000Y-102616000D02*
X145542000Y-102870000D01*
X163322000Y-100330000D02*
X163322000Y-101727000D01*
X163322000Y-101727000D02*
X163068000Y-101981000D01*
X150114000Y-95504000D02*
X150114000Y-95758000D01*
X150114000Y-95758000D02*
X148971000Y-96901000D01*
X150114000Y-95504000D02*
X150114000Y-96012000D01*
X146050000Y-102870000D02*
X145542000Y-102870000D01*
X155448000Y-100584000D02*
X155278199Y-100414199D01*
X155278199Y-100414199D02*
X153077801Y-100414199D01*
X153077801Y-100414199D02*
X153035000Y-100457000D01*
X155448000Y-101043894D02*
X155448000Y-100584000D01*
X155448000Y-101449800D02*
X155448000Y-101043894D01*
X155815000Y-103020000D02*
X155815000Y-101816800D01*
X155815000Y-101816800D02*
X155448000Y-101449800D01*
X157988000Y-99695000D02*
X157988000Y-100711000D01*
X157988000Y-100711000D02*
X157607000Y-101092000D01*
X158015000Y-103020000D02*
X158015000Y-105283000D01*
X158015000Y-105283000D02*
X158015000Y-105993106D01*
X158744695Y-106722801D02*
X160766305Y-106722801D01*
X162037878Y-105451228D02*
X162037878Y-104616201D01*
X160766305Y-106722801D02*
X162037878Y-105451228D01*
X158015000Y-105993106D02*
X158744695Y-106722801D01*
D26*
X148523200Y-93488000D02*
X148523200Y-92897200D01*
X148523200Y-92897200D02*
X147828000Y-92202000D01*
X147828000Y-95504000D02*
X147828000Y-94183200D01*
X147828000Y-94183200D02*
X148523200Y-93488000D01*
X148523200Y-93488000D02*
X151724200Y-93488000D01*
X151724200Y-93488000D02*
X152654000Y-93488000D01*
D25*
X156645894Y-111014800D02*
X150495000Y-104863906D01*
X150495000Y-104863906D02*
X150495000Y-98933000D01*
X156645894Y-111014800D02*
X157480000Y-111014800D01*
X154715000Y-103020000D02*
X154715000Y-105693000D01*
X154715000Y-105693000D02*
X154940000Y-105918000D01*
X154686000Y-103049000D02*
X154715000Y-103020000D01*
X156845000Y-105918000D02*
X156845000Y-103090000D01*
X156845000Y-103090000D02*
X156915000Y-103020000D01*
X159131000Y-105918000D02*
X159131000Y-103036000D01*
X159131000Y-103036000D02*
X159115000Y-103020000D01*
X156822358Y-100733642D02*
X156464000Y-101092000D01*
X156822358Y-99187000D02*
X156822358Y-100733642D01*
X161671000Y-98552000D02*
X157457358Y-98552000D01*
X157457358Y-98552000D02*
X156822358Y-99187000D01*
X162433000Y-99314000D02*
X161671000Y-98552000D01*
X162433000Y-100838000D02*
X162433000Y-99314000D01*
X161925000Y-101346000D02*
X162433000Y-100838000D01*
X160685800Y-101346000D02*
X161925000Y-101346000D01*
X160215000Y-103020000D02*
X160215000Y-101816800D01*
X160215000Y-101816800D02*
X160685800Y-101346000D01*
X160909000Y-105537000D02*
X161315000Y-105131000D01*
X161315000Y-105131000D02*
X161315000Y-103020000D01*
X155296262Y-107569000D02*
X152960199Y-105232937D01*
X152960199Y-105232937D02*
X152960199Y-101776159D01*
X152960199Y-101776159D02*
X153517358Y-101219000D01*
X153517358Y-101219000D02*
X153724894Y-101219000D01*
X153724894Y-101219000D02*
X154432000Y-101219000D01*
X155296262Y-107569000D02*
X159766000Y-107569000D01*
X161417000Y-108458000D02*
X162525642Y-108458000D01*
X167769420Y-103214222D02*
X167769420Y-96771580D01*
X162525642Y-108458000D02*
X167769420Y-103214222D01*
X165730047Y-96774113D02*
X165730047Y-100056311D01*
X160712199Y-108119695D02*
X160712199Y-109150199D01*
X165730047Y-100056311D02*
X163810199Y-101976159D01*
X161486801Y-107753199D02*
X161078695Y-107753199D01*
X163810199Y-101976159D02*
X163810199Y-105429801D01*
X160712199Y-109150199D02*
X161417000Y-109855000D01*
X163810199Y-105429801D02*
X161486801Y-107753199D01*
X161078695Y-107753199D02*
X160712199Y-108119695D01*
X150114000Y-115062000D02*
X151003000Y-115062000D01*
X151003000Y-115062000D02*
X151257000Y-114808000D01*
X150114000Y-115062000D02*
X145542000Y-110490000D01*
X143891000Y-103505000D02*
X143637000Y-103505000D01*
X143637000Y-103505000D02*
X143002000Y-102870000D01*
X144424401Y-104038401D02*
X143891000Y-103505000D01*
X152400000Y-113792000D02*
X152400000Y-110363000D01*
X152400000Y-110363000D02*
X146075401Y-104038401D01*
X146075401Y-104038401D02*
X144424401Y-104038401D01*
X166243000Y-108458000D02*
X166243000Y-109625738D01*
X160103537Y-115765201D02*
X149087967Y-115765201D01*
X166243000Y-109625738D02*
X160103537Y-115765201D01*
X149087967Y-115765201D02*
X144170401Y-110847635D01*
X143865599Y-106273599D02*
X143002000Y-105410000D01*
X144170401Y-110847635D02*
X144170401Y-106578401D01*
X144170401Y-106578401D02*
X143865599Y-106273599D01*
D26*
X156542000Y-92075000D02*
X156542000Y-90681200D01*
X156542000Y-90681200D02*
X157434200Y-89789000D01*
X157434200Y-89789000D02*
X158189000Y-89789000D01*
D25*
X160020000Y-92710000D02*
X161089000Y-91641000D01*
X161089000Y-91641000D02*
X161089000Y-89789000D01*
D26*
X145542000Y-95504000D02*
X145542000Y-96012000D01*
X145542000Y-96012000D02*
X147955000Y-98425000D01*
X147955000Y-98425000D02*
X147955000Y-98933000D01*
X150977601Y-96804481D02*
X149599081Y-98183001D01*
X149599081Y-98183001D02*
X148704999Y-98183001D01*
X148704999Y-98183001D02*
X147955000Y-98933000D01*
X151744519Y-94632399D02*
X153274683Y-94632399D01*
X150977601Y-96804481D02*
X150977601Y-95399317D01*
X150977601Y-95399317D02*
X151744519Y-94632399D01*
X153274683Y-94632399D02*
X154432000Y-93475082D01*
X154432000Y-93475082D02*
X154432000Y-92075000D01*
X143002000Y-95488000D02*
X145526000Y-95488000D01*
X145526000Y-95488000D02*
X145542000Y-95504000D01*
D25*
X160528000Y-100330000D02*
X161322000Y-100330000D01*
X159639000Y-99441000D02*
X160528000Y-100330000D01*
D27*
G36*
X166875864Y-87152685D02*
X168381368Y-88158631D01*
X169387316Y-89664138D01*
X169749000Y-91482448D01*
X169749000Y-111717552D01*
X169387316Y-113535862D01*
X168381368Y-115041369D01*
X166875864Y-116047315D01*
X165057552Y-116409000D01*
X142282448Y-116409000D01*
X140464138Y-116047316D01*
X138958631Y-115041368D01*
X138038971Y-113665000D01*
X138634000Y-113665000D01*
X138763481Y-114315945D01*
X139132211Y-114867789D01*
X139684055Y-115236519D01*
X140335000Y-115366000D01*
X140985945Y-115236519D01*
X141537789Y-114867789D01*
X141906519Y-114315945D01*
X142036000Y-113665000D01*
X141906519Y-113014055D01*
X141537789Y-112462211D01*
X140985945Y-112093481D01*
X140335000Y-111964000D01*
X139684055Y-112093481D01*
X139132211Y-112462211D01*
X138763481Y-113014055D01*
X138634000Y-113665000D01*
X138038971Y-113665000D01*
X137952685Y-113535864D01*
X137591000Y-111717552D01*
X137591000Y-105410000D01*
X141733017Y-105410000D01*
X141827757Y-105886288D01*
X142097552Y-106290065D01*
X142501329Y-106559860D01*
X142977617Y-106654600D01*
X143026383Y-106654600D01*
X143474887Y-106565387D01*
X143524347Y-106614846D01*
X143524349Y-106614849D01*
X143687801Y-106778301D01*
X143687801Y-106923840D01*
X143502671Y-106800140D01*
X143026383Y-106705400D01*
X142977617Y-106705400D01*
X142501329Y-106800140D01*
X142097552Y-107069935D01*
X141827757Y-107473712D01*
X141733017Y-107950000D01*
X141827757Y-108426288D01*
X142097552Y-108830065D01*
X142501329Y-109099860D01*
X142977617Y-109194600D01*
X143026383Y-109194600D01*
X143502671Y-109099860D01*
X143687801Y-108976160D01*
X143687801Y-109463840D01*
X143502671Y-109340140D01*
X143026383Y-109245400D01*
X142977617Y-109245400D01*
X142501329Y-109340140D01*
X142097552Y-109609935D01*
X141827757Y-110013712D01*
X141733017Y-110490000D01*
X141827757Y-110966288D01*
X142097552Y-111370065D01*
X142501329Y-111639860D01*
X142977617Y-111734600D01*
X143026383Y-111734600D01*
X143502671Y-111639860D01*
X143906448Y-111370065D01*
X143948058Y-111307792D01*
X148746715Y-116106448D01*
X148746717Y-116106451D01*
X148903284Y-116211065D01*
X149087967Y-116247802D01*
X149087972Y-116247801D01*
X160103537Y-116247801D01*
X160288220Y-116211065D01*
X160444787Y-116106451D01*
X162886238Y-113665000D01*
X165304000Y-113665000D01*
X165433481Y-114315945D01*
X165802211Y-114867789D01*
X166354055Y-115236519D01*
X167005000Y-115366000D01*
X167655945Y-115236519D01*
X168207789Y-114867789D01*
X168576519Y-114315945D01*
X168706000Y-113665000D01*
X168576519Y-113014055D01*
X168207789Y-112462211D01*
X167655945Y-112093481D01*
X167005000Y-111964000D01*
X166354055Y-112093481D01*
X165802211Y-112462211D01*
X165433481Y-113014055D01*
X165304000Y-113665000D01*
X162886238Y-113665000D01*
X166584250Y-109966988D01*
X166688864Y-109810421D01*
X166725600Y-109625738D01*
X166725600Y-109079780D01*
X166904714Y-108900979D01*
X167023864Y-108614032D01*
X167024136Y-108303331D01*
X166905486Y-108016177D01*
X166685979Y-107796286D01*
X166399032Y-107677136D01*
X166088331Y-107676864D01*
X165801177Y-107795514D01*
X165581286Y-108015021D01*
X165462136Y-108301968D01*
X165461864Y-108612669D01*
X165580514Y-108899823D01*
X165760400Y-109080024D01*
X165760400Y-109425838D01*
X159903637Y-115282601D01*
X151887037Y-115282601D01*
X151918714Y-115250979D01*
X152037864Y-114964032D01*
X152038136Y-114653331D01*
X151954691Y-114451380D01*
X151957021Y-114453714D01*
X152243968Y-114572864D01*
X152554669Y-114573136D01*
X152841823Y-114454486D01*
X153061714Y-114234979D01*
X153180864Y-113948032D01*
X153181136Y-113637331D01*
X153062486Y-113350177D01*
X152882600Y-113169976D01*
X152882600Y-110363005D01*
X152882601Y-110363000D01*
X152845864Y-110178317D01*
X152741250Y-110021750D01*
X146429961Y-103710461D01*
X146556316Y-103591246D01*
X146755115Y-103148182D01*
X146769226Y-103077232D01*
X146691280Y-102882700D01*
X145554700Y-102882700D01*
X145554700Y-102902700D01*
X145529300Y-102902700D01*
X145529300Y-102882700D01*
X144392720Y-102882700D01*
X144314774Y-103077232D01*
X144328885Y-103148182D01*
X144420203Y-103351703D01*
X144254064Y-103185564D01*
X144254064Y-102662768D01*
X144314774Y-102662768D01*
X144392720Y-102857300D01*
X145529300Y-102857300D01*
X145529300Y-101720714D01*
X145554700Y-101720714D01*
X145554700Y-102857300D01*
X146691280Y-102857300D01*
X146769226Y-102662768D01*
X146755115Y-102591818D01*
X146556316Y-102148754D01*
X146203097Y-101815494D01*
X145749232Y-101642773D01*
X145554700Y-101720714D01*
X145529300Y-101720714D01*
X145334768Y-101642773D01*
X144880903Y-101815494D01*
X144527684Y-102148754D01*
X144328885Y-102591818D01*
X144314774Y-102662768D01*
X144254064Y-102662768D01*
X144254064Y-102006400D01*
X144227497Y-101865210D01*
X144144054Y-101735535D01*
X144016734Y-101648541D01*
X143865600Y-101617936D01*
X142138400Y-101617936D01*
X141997210Y-101644503D01*
X141867535Y-101727946D01*
X141780541Y-101855266D01*
X141749936Y-102006400D01*
X141749936Y-103733600D01*
X141776503Y-103874790D01*
X141859946Y-104004465D01*
X141987266Y-104091459D01*
X142138400Y-104122064D01*
X143825564Y-104122064D01*
X144083151Y-104379651D01*
X144239718Y-104484265D01*
X144424401Y-104521001D01*
X144650923Y-104521001D01*
X144637552Y-104529935D01*
X144367757Y-104933712D01*
X144273017Y-105410000D01*
X144367757Y-105886288D01*
X144637552Y-106290065D01*
X145041329Y-106559860D01*
X145517617Y-106654600D01*
X145566383Y-106654600D01*
X146042671Y-106559860D01*
X146411876Y-106313165D01*
X146411864Y-106326669D01*
X146530514Y-106613823D01*
X146750021Y-106833714D01*
X147036968Y-106952864D01*
X147347669Y-106953136D01*
X147634823Y-106834486D01*
X147854714Y-106614979D01*
X147888386Y-106533886D01*
X151917400Y-110562900D01*
X151917400Y-113170220D01*
X151738286Y-113349021D01*
X151619136Y-113635968D01*
X151618864Y-113946669D01*
X151702309Y-114148620D01*
X151699979Y-114146286D01*
X151413032Y-114027136D01*
X151102331Y-114026864D01*
X150815177Y-114145514D01*
X150595286Y-114365021D01*
X150506269Y-114579400D01*
X150313899Y-114579400D01*
X146710053Y-110975553D01*
X146716243Y-110966288D01*
X146733229Y-110880893D01*
X146750021Y-110897714D01*
X147036968Y-111016864D01*
X147347669Y-111017136D01*
X147634823Y-110898486D01*
X147854714Y-110678979D01*
X147973864Y-110392032D01*
X147974136Y-110081331D01*
X147855486Y-109794177D01*
X147635979Y-109574286D01*
X147349032Y-109455136D01*
X147038331Y-109454864D01*
X146751177Y-109573514D01*
X146553779Y-109770567D01*
X146446448Y-109609935D01*
X146042671Y-109340140D01*
X145566383Y-109245400D01*
X145517617Y-109245400D01*
X145041329Y-109340140D01*
X144653001Y-109599612D01*
X144653001Y-108840388D01*
X145041329Y-109099860D01*
X145517617Y-109194600D01*
X145566383Y-109194600D01*
X146042671Y-109099860D01*
X146446448Y-108830065D01*
X146716243Y-108426288D01*
X146810983Y-107950000D01*
X146716243Y-107473712D01*
X146446448Y-107069935D01*
X146042671Y-106800140D01*
X145566383Y-106705400D01*
X145517617Y-106705400D01*
X145041329Y-106800140D01*
X144653001Y-107059612D01*
X144653001Y-106578401D01*
X144616265Y-106393718D01*
X144511651Y-106237151D01*
X144206849Y-105932349D01*
X144206846Y-105932347D01*
X144170052Y-105895553D01*
X144176243Y-105886288D01*
X144270983Y-105410000D01*
X144176243Y-104933712D01*
X143906448Y-104529935D01*
X143502671Y-104260140D01*
X143026383Y-104165400D01*
X142977617Y-104165400D01*
X142501329Y-104260140D01*
X142097552Y-104529935D01*
X141827757Y-104933712D01*
X141733017Y-105410000D01*
X137591000Y-105410000D01*
X137591000Y-99689980D01*
X144675980Y-99689980D01*
X144747506Y-99873333D01*
X145158165Y-100057193D01*
X145607926Y-100069905D01*
X146028315Y-99909534D01*
X146082494Y-99873333D01*
X146154020Y-99689980D01*
X145415000Y-98950961D01*
X144675980Y-99689980D01*
X137591000Y-99689980D01*
X137591000Y-99125926D01*
X144278095Y-99125926D01*
X144438466Y-99546315D01*
X144474667Y-99600494D01*
X144658020Y-99672020D01*
X145397039Y-98933000D01*
X145432961Y-98933000D01*
X146171980Y-99672020D01*
X146355333Y-99600494D01*
X146539193Y-99189835D01*
X146551905Y-98740074D01*
X146391534Y-98319685D01*
X146355333Y-98265506D01*
X146171980Y-98193980D01*
X145432961Y-98933000D01*
X145397039Y-98933000D01*
X144658020Y-98193980D01*
X144474667Y-98265506D01*
X144290807Y-98676165D01*
X144278095Y-99125926D01*
X137591000Y-99125926D01*
X137591000Y-98176020D01*
X144675980Y-98176020D01*
X145415000Y-98915039D01*
X146154020Y-98176020D01*
X146082494Y-97992667D01*
X145671835Y-97808807D01*
X145222074Y-97796095D01*
X144801685Y-97956466D01*
X144747506Y-97992667D01*
X144675980Y-98176020D01*
X137591000Y-98176020D01*
X137591000Y-94988000D01*
X141988536Y-94988000D01*
X141988536Y-95988000D01*
X142015103Y-96129190D01*
X142098546Y-96258865D01*
X142225866Y-96345859D01*
X142377000Y-96376464D01*
X143627000Y-96376464D01*
X143768190Y-96349897D01*
X143897865Y-96266454D01*
X143984859Y-96139134D01*
X144008700Y-96021400D01*
X144645536Y-96021400D01*
X144645536Y-96520000D01*
X144672103Y-96661190D01*
X144755546Y-96790865D01*
X144882866Y-96877859D01*
X145034000Y-96908464D01*
X145684122Y-96908464D01*
X147031983Y-98256325D01*
X146996744Y-98291503D01*
X146824196Y-98707043D01*
X146823804Y-99156983D01*
X146995625Y-99572823D01*
X147313503Y-99891256D01*
X147729043Y-100063804D01*
X148178983Y-100064196D01*
X148594823Y-99892375D01*
X148913256Y-99574497D01*
X149085804Y-99158957D01*
X149086190Y-98716401D01*
X149364188Y-98716401D01*
X149363804Y-99156983D01*
X149535625Y-99572823D01*
X149853503Y-99891256D01*
X150012400Y-99957236D01*
X150012400Y-104863906D01*
X150049136Y-105048589D01*
X150153750Y-105205156D01*
X156304644Y-111356050D01*
X156461211Y-111460664D01*
X156645894Y-111497401D01*
X156645899Y-111497400D01*
X156858220Y-111497400D01*
X157037021Y-111676514D01*
X157323968Y-111795664D01*
X157634669Y-111795936D01*
X157921823Y-111677286D01*
X158141714Y-111457779D01*
X158260864Y-111170832D01*
X158261136Y-110860131D01*
X158142486Y-110572977D01*
X157922979Y-110353086D01*
X157636032Y-110233936D01*
X157325331Y-110233664D01*
X157038177Y-110352314D01*
X156857976Y-110532200D01*
X156845794Y-110532200D01*
X151522058Y-105208464D01*
X152015000Y-105208464D01*
X152156190Y-105181897D01*
X152285865Y-105098454D01*
X152372859Y-104971134D01*
X152403464Y-104820000D01*
X152403464Y-102220000D01*
X152376897Y-102078810D01*
X152293454Y-101949135D01*
X152166134Y-101862141D01*
X152015000Y-101831536D01*
X151015000Y-101831536D01*
X150977600Y-101838573D01*
X150977600Y-101776159D01*
X152477599Y-101776159D01*
X152477599Y-105232937D01*
X152514335Y-105417620D01*
X152618949Y-105574187D01*
X154955012Y-107910250D01*
X155111579Y-108014864D01*
X155296262Y-108051600D01*
X159144220Y-108051600D01*
X159323021Y-108230714D01*
X159609968Y-108349864D01*
X159920669Y-108350136D01*
X160207823Y-108231486D01*
X160229599Y-108209748D01*
X160229599Y-109150199D01*
X160266335Y-109334882D01*
X160370949Y-109491449D01*
X160636086Y-109756586D01*
X160635864Y-110009669D01*
X160754514Y-110296823D01*
X160974021Y-110516714D01*
X161260968Y-110635864D01*
X161571669Y-110636136D01*
X161858823Y-110517486D01*
X162078714Y-110297979D01*
X162197864Y-110011032D01*
X162198136Y-109700331D01*
X162079486Y-109413177D01*
X161859979Y-109193286D01*
X161771525Y-109156557D01*
X161858823Y-109120486D01*
X162039024Y-108940600D01*
X162525642Y-108940600D01*
X162710325Y-108903864D01*
X162866892Y-108799250D01*
X168110670Y-103555472D01*
X168215284Y-103398905D01*
X168252020Y-103214222D01*
X168252020Y-97393360D01*
X168431134Y-97214559D01*
X168550284Y-96927612D01*
X168550556Y-96616911D01*
X168431906Y-96329757D01*
X168212399Y-96109866D01*
X167925452Y-95990716D01*
X167614751Y-95990444D01*
X167327597Y-96109094D01*
X167107706Y-96328601D01*
X166988556Y-96615548D01*
X166988284Y-96926249D01*
X167106934Y-97213403D01*
X167286820Y-97393604D01*
X167286820Y-103014322D01*
X166003464Y-104297678D01*
X166003464Y-102220000D01*
X165976897Y-102078810D01*
X165893454Y-101949135D01*
X165766134Y-101862141D01*
X165615000Y-101831536D01*
X164637322Y-101831536D01*
X166071297Y-100397561D01*
X166175911Y-100240994D01*
X166212647Y-100056311D01*
X166212647Y-97395893D01*
X166391761Y-97217092D01*
X166510911Y-96930145D01*
X166511183Y-96619444D01*
X166392533Y-96332290D01*
X166173026Y-96112399D01*
X165886079Y-95993249D01*
X165575378Y-95992977D01*
X165288224Y-96111627D01*
X165068333Y-96331134D01*
X164949183Y-96618081D01*
X164948911Y-96928782D01*
X165067561Y-97215936D01*
X165247447Y-97396137D01*
X165247447Y-99856411D01*
X164203000Y-100900858D01*
X164203000Y-100437950D01*
X164107750Y-100342700D01*
X163334700Y-100342700D01*
X163334700Y-101240750D01*
X163429950Y-101336000D01*
X163767858Y-101336000D01*
X163468949Y-101634909D01*
X163364335Y-101791476D01*
X163327599Y-101976159D01*
X163327599Y-105229901D01*
X161286901Y-107270599D01*
X161078700Y-107270599D01*
X161078695Y-107270598D01*
X160894012Y-107307335D01*
X160737445Y-107411949D01*
X160737443Y-107411952D01*
X160546971Y-107602423D01*
X160547136Y-107414331D01*
X160460808Y-107205401D01*
X160766305Y-107205401D01*
X160950988Y-107168665D01*
X161107555Y-107064051D01*
X162379128Y-105792478D01*
X162483742Y-105635911D01*
X162520479Y-105451228D01*
X162520478Y-105451223D01*
X162520478Y-105237981D01*
X162699592Y-105059180D01*
X162818742Y-104772233D01*
X162819014Y-104461532D01*
X162700364Y-104174378D01*
X162480857Y-103954487D01*
X162193910Y-103835337D01*
X162053464Y-103835214D01*
X162053464Y-102020000D01*
X162026897Y-101878810D01*
X161986692Y-101816329D01*
X162109683Y-101791864D01*
X162266250Y-101687250D01*
X162655199Y-101298300D01*
X162746214Y-101336000D01*
X163214050Y-101336000D01*
X163309300Y-101240750D01*
X163309300Y-100342700D01*
X163289300Y-100342700D01*
X163289300Y-100317300D01*
X163309300Y-100317300D01*
X163309300Y-99419250D01*
X163334700Y-99419250D01*
X163334700Y-100317300D01*
X164107750Y-100317300D01*
X164203000Y-100222050D01*
X164203000Y-99629215D01*
X164144996Y-99489181D01*
X164037820Y-99382004D01*
X163897786Y-99324000D01*
X163429950Y-99324000D01*
X163334700Y-99419250D01*
X163309300Y-99419250D01*
X163214050Y-99324000D01*
X162915600Y-99324000D01*
X162915600Y-99314005D01*
X162915601Y-99314000D01*
X162878864Y-99129317D01*
X162774250Y-98972750D01*
X162012250Y-98210750D01*
X161855683Y-98106136D01*
X161671000Y-98069400D01*
X158994000Y-98069400D01*
X158994000Y-97802950D01*
X158898750Y-97707700D01*
X158000700Y-97707700D01*
X158000700Y-97727700D01*
X157975300Y-97727700D01*
X157975300Y-97707700D01*
X157077250Y-97707700D01*
X156982000Y-97802950D01*
X156982000Y-98270786D01*
X157003695Y-98323163D01*
X156481108Y-98845750D01*
X156376494Y-99002317D01*
X156339758Y-99187000D01*
X156339758Y-100310891D01*
X156309331Y-100310864D01*
X156022177Y-100429514D01*
X155802286Y-100649021D01*
X155683136Y-100935968D01*
X155682864Y-101246669D01*
X155801514Y-101533823D01*
X155914721Y-101647229D01*
X155827700Y-101734250D01*
X155827700Y-103007300D01*
X155847700Y-103007300D01*
X155847700Y-103032700D01*
X155827700Y-103032700D01*
X155827700Y-104305750D01*
X155922950Y-104401000D01*
X156240786Y-104401000D01*
X156362400Y-104350626D01*
X156362400Y-105296220D01*
X156183286Y-105475021D01*
X156064136Y-105761968D01*
X156063864Y-106072669D01*
X156182514Y-106359823D01*
X156402021Y-106579714D01*
X156688968Y-106698864D01*
X156999669Y-106699136D01*
X157286823Y-106580486D01*
X157506714Y-106360979D01*
X157577551Y-106190383D01*
X157673750Y-106334356D01*
X158403443Y-107064048D01*
X158403445Y-107064051D01*
X158436893Y-107086400D01*
X155496162Y-107086400D01*
X155104738Y-106694976D01*
X155381823Y-106580486D01*
X155601714Y-106360979D01*
X155720864Y-106074032D01*
X155721136Y-105763331D01*
X155602486Y-105476177D01*
X155382979Y-105256286D01*
X155197600Y-105179310D01*
X155197600Y-104383513D01*
X155206190Y-104381897D01*
X155259805Y-104347397D01*
X155389214Y-104401000D01*
X155707050Y-104401000D01*
X155802300Y-104305750D01*
X155802300Y-103032700D01*
X155782300Y-103032700D01*
X155782300Y-103007300D01*
X155802300Y-103007300D01*
X155802300Y-101734250D01*
X155707050Y-101639000D01*
X155389214Y-101639000D01*
X155260373Y-101692368D01*
X155216134Y-101662141D01*
X155103147Y-101639261D01*
X155212864Y-101375032D01*
X155213136Y-101064331D01*
X155094486Y-100777177D01*
X154874979Y-100557286D01*
X154588032Y-100438136D01*
X154277331Y-100437864D01*
X153990177Y-100556514D01*
X153809976Y-100736400D01*
X153517363Y-100736400D01*
X153517358Y-100736399D01*
X153332675Y-100773136D01*
X153176108Y-100877750D01*
X152618949Y-101434909D01*
X152514335Y-101591476D01*
X152477599Y-101776159D01*
X150977600Y-101776159D01*
X150977600Y-99957338D01*
X151134823Y-99892375D01*
X151453256Y-99574497D01*
X151625804Y-99158957D01*
X151626196Y-98709017D01*
X151454375Y-98293177D01*
X151136497Y-97974744D01*
X150730334Y-97806090D01*
X151354772Y-97181652D01*
X151396491Y-97119214D01*
X156982000Y-97119214D01*
X156982000Y-97587050D01*
X157077250Y-97682300D01*
X157975300Y-97682300D01*
X157975300Y-96909250D01*
X158000700Y-96909250D01*
X158000700Y-97682300D01*
X158898750Y-97682300D01*
X158994000Y-97587050D01*
X158994000Y-97119214D01*
X158935996Y-96979180D01*
X158828819Y-96872004D01*
X158688785Y-96814000D01*
X158095950Y-96814000D01*
X158000700Y-96909250D01*
X157975300Y-96909250D01*
X157880050Y-96814000D01*
X157287215Y-96814000D01*
X157147181Y-96872004D01*
X157040004Y-96979180D01*
X156982000Y-97119214D01*
X151396491Y-97119214D01*
X151470398Y-97008604D01*
X151511002Y-96804481D01*
X151511001Y-96804476D01*
X151511001Y-95620259D01*
X151535310Y-95595950D01*
X151648000Y-95595950D01*
X151648000Y-96063786D01*
X151706004Y-96203820D01*
X151813181Y-96310996D01*
X151953215Y-96369000D01*
X152546050Y-96369000D01*
X152641300Y-96273750D01*
X152641300Y-95500700D01*
X152666700Y-95500700D01*
X152666700Y-96273750D01*
X152761950Y-96369000D01*
X153354785Y-96369000D01*
X153494819Y-96310996D01*
X153601996Y-96203820D01*
X153660000Y-96063786D01*
X153660000Y-95595950D01*
X153564750Y-95500700D01*
X152666700Y-95500700D01*
X152641300Y-95500700D01*
X151743250Y-95500700D01*
X151648000Y-95595950D01*
X151535310Y-95595950D01*
X151699605Y-95431655D01*
X151743250Y-95475300D01*
X152641300Y-95475300D01*
X152641300Y-95455300D01*
X152666700Y-95455300D01*
X152666700Y-95475300D01*
X153564750Y-95475300D01*
X153660000Y-95380050D01*
X153660000Y-95001424D01*
X154809168Y-93852255D01*
X154809171Y-93852253D01*
X154917315Y-93690403D01*
X154924797Y-93679206D01*
X154965400Y-93475082D01*
X154965400Y-92599345D01*
X154997865Y-92578454D01*
X155084859Y-92451134D01*
X155115464Y-92300000D01*
X155115464Y-91850000D01*
X155858536Y-91850000D01*
X155858536Y-92300000D01*
X155885103Y-92441190D01*
X155968546Y-92570865D01*
X156095866Y-92657859D01*
X156247000Y-92688464D01*
X156837000Y-92688464D01*
X156959039Y-92665501D01*
X156958856Y-92874571D01*
X157085102Y-93180109D01*
X157318662Y-93414077D01*
X157623979Y-93540855D01*
X157954571Y-93541144D01*
X158260109Y-93414898D01*
X158494077Y-93181338D01*
X158620855Y-92876021D01*
X158620864Y-92864669D01*
X159238864Y-92864669D01*
X159357514Y-93151823D01*
X159577021Y-93371714D01*
X159863968Y-93490864D01*
X160174669Y-93491136D01*
X160461823Y-93372486D01*
X160619759Y-93214826D01*
X160818662Y-93414077D01*
X161123979Y-93540855D01*
X161454571Y-93541144D01*
X161760109Y-93414898D01*
X161994077Y-93181338D01*
X162120855Y-92876021D01*
X162121144Y-92545429D01*
X161994898Y-92239891D01*
X161761338Y-92005923D01*
X161489777Y-91893161D01*
X161534864Y-91825683D01*
X161571600Y-91641000D01*
X161571600Y-91421330D01*
X161680190Y-91400897D01*
X161809865Y-91317454D01*
X161896859Y-91190134D01*
X161927464Y-91039000D01*
X161927464Y-89535000D01*
X165304000Y-89535000D01*
X165433481Y-90185945D01*
X165802211Y-90737789D01*
X166354055Y-91106519D01*
X167005000Y-91236000D01*
X167655945Y-91106519D01*
X168207789Y-90737789D01*
X168576519Y-90185945D01*
X168706000Y-89535000D01*
X168576519Y-88884055D01*
X168207789Y-88332211D01*
X167655945Y-87963481D01*
X167005000Y-87834000D01*
X166354055Y-87963481D01*
X165802211Y-88332211D01*
X165433481Y-88884055D01*
X165304000Y-89535000D01*
X161927464Y-89535000D01*
X161927464Y-88539000D01*
X161900897Y-88397810D01*
X161817454Y-88268135D01*
X161690134Y-88181141D01*
X161539000Y-88150536D01*
X160639000Y-88150536D01*
X160497810Y-88177103D01*
X160368135Y-88260546D01*
X160281141Y-88387866D01*
X160250536Y-88539000D01*
X160250536Y-91039000D01*
X160277103Y-91180190D01*
X160360546Y-91309865D01*
X160487866Y-91396859D01*
X160606400Y-91420862D01*
X160606400Y-91441100D01*
X160118414Y-91929086D01*
X159865331Y-91928864D01*
X159578177Y-92047514D01*
X159358286Y-92267021D01*
X159239136Y-92553968D01*
X159238864Y-92864669D01*
X158620864Y-92864669D01*
X158621144Y-92545429D01*
X158494898Y-92239891D01*
X158261338Y-92005923D01*
X157956021Y-91879145D01*
X157625429Y-91878856D01*
X157319891Y-92005102D01*
X157225464Y-92099364D01*
X157225464Y-91850000D01*
X157198897Y-91708810D01*
X157115454Y-91579135D01*
X157075400Y-91551767D01*
X157075400Y-90902142D01*
X157350536Y-90627006D01*
X157350536Y-91039000D01*
X157377103Y-91180190D01*
X157460546Y-91309865D01*
X157587866Y-91396859D01*
X157739000Y-91427464D01*
X158639000Y-91427464D01*
X158780190Y-91400897D01*
X158909865Y-91317454D01*
X158996859Y-91190134D01*
X159027464Y-91039000D01*
X159027464Y-88539000D01*
X159000897Y-88397810D01*
X158917454Y-88268135D01*
X158790134Y-88181141D01*
X158639000Y-88150536D01*
X157739000Y-88150536D01*
X157597810Y-88177103D01*
X157468135Y-88260546D01*
X157381141Y-88387866D01*
X157350536Y-88539000D01*
X157350536Y-89272242D01*
X157230076Y-89296203D01*
X157057029Y-89411829D01*
X156164829Y-90304029D01*
X156049203Y-90477077D01*
X156008600Y-90681200D01*
X156008600Y-91550655D01*
X155976135Y-91571546D01*
X155889141Y-91698866D01*
X155858536Y-91850000D01*
X155115464Y-91850000D01*
X155088897Y-91708810D01*
X155005454Y-91579135D01*
X154878134Y-91492141D01*
X154727000Y-91461536D01*
X154137000Y-91461536D01*
X153995810Y-91488103D01*
X153866135Y-91571546D01*
X153779141Y-91698866D01*
X153748536Y-91850000D01*
X153748536Y-92300000D01*
X153775103Y-92441190D01*
X153858546Y-92570865D01*
X153898600Y-92598233D01*
X153898600Y-93254141D01*
X153667464Y-93485277D01*
X153667464Y-92988000D01*
X153640897Y-92846810D01*
X153557454Y-92717135D01*
X153430134Y-92630141D01*
X153279000Y-92599536D01*
X152029000Y-92599536D01*
X151887810Y-92626103D01*
X151758135Y-92709546D01*
X151671141Y-92836866D01*
X151647300Y-92954600D01*
X149056600Y-92954600D01*
X149056600Y-92897200D01*
X149055103Y-92889673D01*
X149224757Y-92481100D01*
X149225242Y-91925339D01*
X149013010Y-91411697D01*
X148620370Y-91018371D01*
X148107100Y-90805243D01*
X147551339Y-90804758D01*
X147037697Y-91016990D01*
X146644371Y-91409630D01*
X146431243Y-91922900D01*
X146430758Y-92478661D01*
X146642990Y-92992303D01*
X147035630Y-93385629D01*
X147548900Y-93598757D01*
X147658006Y-93598852D01*
X147450829Y-93806029D01*
X147335203Y-93979077D01*
X147310901Y-94101248D01*
X147178810Y-94126103D01*
X147049135Y-94209546D01*
X146962141Y-94336866D01*
X146931536Y-94488000D01*
X146931536Y-96520000D01*
X146958103Y-96661190D01*
X146980792Y-96696450D01*
X146438464Y-96154122D01*
X146438464Y-94488000D01*
X146411897Y-94346810D01*
X146328454Y-94217135D01*
X146201134Y-94130141D01*
X146050000Y-94099536D01*
X145034000Y-94099536D01*
X144892810Y-94126103D01*
X144763135Y-94209546D01*
X144676141Y-94336866D01*
X144645536Y-94488000D01*
X144645536Y-94954600D01*
X144009179Y-94954600D01*
X143988897Y-94846810D01*
X143905454Y-94717135D01*
X143778134Y-94630141D01*
X143627000Y-94599536D01*
X142377000Y-94599536D01*
X142235810Y-94626103D01*
X142106135Y-94709546D01*
X142019141Y-94836866D01*
X141988536Y-94988000D01*
X137591000Y-94988000D01*
X137591000Y-93595950D01*
X141996000Y-93595950D01*
X141996000Y-94063786D01*
X142054004Y-94203820D01*
X142161181Y-94310996D01*
X142301215Y-94369000D01*
X142894050Y-94369000D01*
X142989300Y-94273750D01*
X142989300Y-93500700D01*
X143014700Y-93500700D01*
X143014700Y-94273750D01*
X143109950Y-94369000D01*
X143702785Y-94369000D01*
X143842819Y-94310996D01*
X143949996Y-94203820D01*
X144008000Y-94063786D01*
X144008000Y-93595950D01*
X143912750Y-93500700D01*
X143014700Y-93500700D01*
X142989300Y-93500700D01*
X142091250Y-93500700D01*
X141996000Y-93595950D01*
X137591000Y-93595950D01*
X137591000Y-92912214D01*
X141996000Y-92912214D01*
X141996000Y-93380050D01*
X142091250Y-93475300D01*
X142989300Y-93475300D01*
X142989300Y-92702250D01*
X143014700Y-92702250D01*
X143014700Y-93475300D01*
X143912750Y-93475300D01*
X144008000Y-93380050D01*
X144008000Y-92912214D01*
X143949996Y-92772180D01*
X143842819Y-92665004D01*
X143702785Y-92607000D01*
X143109950Y-92607000D01*
X143014700Y-92702250D01*
X142989300Y-92702250D01*
X142894050Y-92607000D01*
X142301215Y-92607000D01*
X142161181Y-92665004D01*
X142054004Y-92772180D01*
X141996000Y-92912214D01*
X137591000Y-92912214D01*
X137591000Y-91482448D01*
X137952685Y-89664136D01*
X138038970Y-89535000D01*
X138634000Y-89535000D01*
X138763481Y-90185945D01*
X139132211Y-90737789D01*
X139684055Y-91106519D01*
X140335000Y-91236000D01*
X140985945Y-91106519D01*
X141537789Y-90737789D01*
X141906519Y-90185945D01*
X142036000Y-89535000D01*
X141931164Y-89007950D01*
X145618200Y-89007950D01*
X145618200Y-89991785D01*
X145676204Y-90131819D01*
X145783380Y-90238996D01*
X145923414Y-90297000D01*
X147720050Y-90297000D01*
X147815300Y-90201750D01*
X147815300Y-88912700D01*
X147840700Y-88912700D01*
X147840700Y-90201750D01*
X147935950Y-90297000D01*
X149732586Y-90297000D01*
X149872620Y-90238996D01*
X149979796Y-90131819D01*
X150037800Y-89991785D01*
X150037800Y-89007950D01*
X149942550Y-88912700D01*
X147840700Y-88912700D01*
X147815300Y-88912700D01*
X145713450Y-88912700D01*
X145618200Y-89007950D01*
X141931164Y-89007950D01*
X141906519Y-88884055D01*
X141537789Y-88332211D01*
X140985945Y-87963481D01*
X140335000Y-87834000D01*
X139684055Y-87963481D01*
X139132211Y-88332211D01*
X138763481Y-88884055D01*
X138634000Y-89535000D01*
X138038970Y-89535000D01*
X138958631Y-88158632D01*
X139483066Y-87808215D01*
X145618200Y-87808215D01*
X145618200Y-88792050D01*
X145713450Y-88887300D01*
X147815300Y-88887300D01*
X147815300Y-87598250D01*
X147840700Y-87598250D01*
X147840700Y-88887300D01*
X149942550Y-88887300D01*
X150037800Y-88792050D01*
X150037800Y-87808215D01*
X149979796Y-87668181D01*
X149872620Y-87561004D01*
X149732586Y-87503000D01*
X147935950Y-87503000D01*
X147840700Y-87598250D01*
X147815300Y-87598250D01*
X147720050Y-87503000D01*
X145923414Y-87503000D01*
X145783380Y-87561004D01*
X145676204Y-87668181D01*
X145618200Y-87808215D01*
X139483066Y-87808215D01*
X140464138Y-87152684D01*
X142282448Y-86791000D01*
X165057552Y-86791000D01*
X166875864Y-87152685D01*
X166875864Y-87152685D01*
G37*
X166875864Y-87152685D02*
X168381368Y-88158631D01*
X169387316Y-89664138D01*
X169749000Y-91482448D01*
X169749000Y-111717552D01*
X169387316Y-113535862D01*
X168381368Y-115041369D01*
X166875864Y-116047315D01*
X165057552Y-116409000D01*
X142282448Y-116409000D01*
X140464138Y-116047316D01*
X138958631Y-115041368D01*
X138038971Y-113665000D01*
X138634000Y-113665000D01*
X138763481Y-114315945D01*
X139132211Y-114867789D01*
X139684055Y-115236519D01*
X140335000Y-115366000D01*
X140985945Y-115236519D01*
X141537789Y-114867789D01*
X141906519Y-114315945D01*
X142036000Y-113665000D01*
X141906519Y-113014055D01*
X141537789Y-112462211D01*
X140985945Y-112093481D01*
X140335000Y-111964000D01*
X139684055Y-112093481D01*
X139132211Y-112462211D01*
X138763481Y-113014055D01*
X138634000Y-113665000D01*
X138038971Y-113665000D01*
X137952685Y-113535864D01*
X137591000Y-111717552D01*
X137591000Y-105410000D01*
X141733017Y-105410000D01*
X141827757Y-105886288D01*
X142097552Y-106290065D01*
X142501329Y-106559860D01*
X142977617Y-106654600D01*
X143026383Y-106654600D01*
X143474887Y-106565387D01*
X143524347Y-106614846D01*
X143524349Y-106614849D01*
X143687801Y-106778301D01*
X143687801Y-106923840D01*
X143502671Y-106800140D01*
X143026383Y-106705400D01*
X142977617Y-106705400D01*
X142501329Y-106800140D01*
X142097552Y-107069935D01*
X141827757Y-107473712D01*
X141733017Y-107950000D01*
X141827757Y-108426288D01*
X142097552Y-108830065D01*
X142501329Y-109099860D01*
X142977617Y-109194600D01*
X143026383Y-109194600D01*
X143502671Y-109099860D01*
X143687801Y-108976160D01*
X143687801Y-109463840D01*
X143502671Y-109340140D01*
X143026383Y-109245400D01*
X142977617Y-109245400D01*
X142501329Y-109340140D01*
X142097552Y-109609935D01*
X141827757Y-110013712D01*
X141733017Y-110490000D01*
X141827757Y-110966288D01*
X142097552Y-111370065D01*
X142501329Y-111639860D01*
X142977617Y-111734600D01*
X143026383Y-111734600D01*
X143502671Y-111639860D01*
X143906448Y-111370065D01*
X143948058Y-111307792D01*
X148746715Y-116106448D01*
X148746717Y-116106451D01*
X148903284Y-116211065D01*
X149087967Y-116247802D01*
X149087972Y-116247801D01*
X160103537Y-116247801D01*
X160288220Y-116211065D01*
X160444787Y-116106451D01*
X162886238Y-113665000D01*
X165304000Y-113665000D01*
X165433481Y-114315945D01*
X165802211Y-114867789D01*
X166354055Y-115236519D01*
X167005000Y-115366000D01*
X167655945Y-115236519D01*
X168207789Y-114867789D01*
X168576519Y-114315945D01*
X168706000Y-113665000D01*
X168576519Y-113014055D01*
X168207789Y-112462211D01*
X167655945Y-112093481D01*
X167005000Y-111964000D01*
X166354055Y-112093481D01*
X165802211Y-112462211D01*
X165433481Y-113014055D01*
X165304000Y-113665000D01*
X162886238Y-113665000D01*
X166584250Y-109966988D01*
X166688864Y-109810421D01*
X166725600Y-109625738D01*
X166725600Y-109079780D01*
X166904714Y-108900979D01*
X167023864Y-108614032D01*
X167024136Y-108303331D01*
X166905486Y-108016177D01*
X166685979Y-107796286D01*
X166399032Y-107677136D01*
X166088331Y-107676864D01*
X165801177Y-107795514D01*
X165581286Y-108015021D01*
X165462136Y-108301968D01*
X165461864Y-108612669D01*
X165580514Y-108899823D01*
X165760400Y-109080024D01*
X165760400Y-109425838D01*
X159903637Y-115282601D01*
X151887037Y-115282601D01*
X151918714Y-115250979D01*
X152037864Y-114964032D01*
X152038136Y-114653331D01*
X151954691Y-114451380D01*
X151957021Y-114453714D01*
X152243968Y-114572864D01*
X152554669Y-114573136D01*
X152841823Y-114454486D01*
X153061714Y-114234979D01*
X153180864Y-113948032D01*
X153181136Y-113637331D01*
X153062486Y-113350177D01*
X152882600Y-113169976D01*
X152882600Y-110363005D01*
X152882601Y-110363000D01*
X152845864Y-110178317D01*
X152741250Y-110021750D01*
X146429961Y-103710461D01*
X146556316Y-103591246D01*
X146755115Y-103148182D01*
X146769226Y-103077232D01*
X146691280Y-102882700D01*
X145554700Y-102882700D01*
X145554700Y-102902700D01*
X145529300Y-102902700D01*
X145529300Y-102882700D01*
X144392720Y-102882700D01*
X144314774Y-103077232D01*
X144328885Y-103148182D01*
X144420203Y-103351703D01*
X144254064Y-103185564D01*
X144254064Y-102662768D01*
X144314774Y-102662768D01*
X144392720Y-102857300D01*
X145529300Y-102857300D01*
X145529300Y-101720714D01*
X145554700Y-101720714D01*
X145554700Y-102857300D01*
X146691280Y-102857300D01*
X146769226Y-102662768D01*
X146755115Y-102591818D01*
X146556316Y-102148754D01*
X146203097Y-101815494D01*
X145749232Y-101642773D01*
X145554700Y-101720714D01*
X145529300Y-101720714D01*
X145334768Y-101642773D01*
X144880903Y-101815494D01*
X144527684Y-102148754D01*
X144328885Y-102591818D01*
X144314774Y-102662768D01*
X144254064Y-102662768D01*
X144254064Y-102006400D01*
X144227497Y-101865210D01*
X144144054Y-101735535D01*
X144016734Y-101648541D01*
X143865600Y-101617936D01*
X142138400Y-101617936D01*
X141997210Y-101644503D01*
X141867535Y-101727946D01*
X141780541Y-101855266D01*
X141749936Y-102006400D01*
X141749936Y-103733600D01*
X141776503Y-103874790D01*
X141859946Y-104004465D01*
X141987266Y-104091459D01*
X142138400Y-104122064D01*
X143825564Y-104122064D01*
X144083151Y-104379651D01*
X144239718Y-104484265D01*
X144424401Y-104521001D01*
X144650923Y-104521001D01*
X144637552Y-104529935D01*
X144367757Y-104933712D01*
X144273017Y-105410000D01*
X144367757Y-105886288D01*
X144637552Y-106290065D01*
X145041329Y-106559860D01*
X145517617Y-106654600D01*
X145566383Y-106654600D01*
X146042671Y-106559860D01*
X146411876Y-106313165D01*
X146411864Y-106326669D01*
X146530514Y-106613823D01*
X146750021Y-106833714D01*
X147036968Y-106952864D01*
X147347669Y-106953136D01*
X147634823Y-106834486D01*
X147854714Y-106614979D01*
X147888386Y-106533886D01*
X151917400Y-110562900D01*
X151917400Y-113170220D01*
X151738286Y-113349021D01*
X151619136Y-113635968D01*
X151618864Y-113946669D01*
X151702309Y-114148620D01*
X151699979Y-114146286D01*
X151413032Y-114027136D01*
X151102331Y-114026864D01*
X150815177Y-114145514D01*
X150595286Y-114365021D01*
X150506269Y-114579400D01*
X150313899Y-114579400D01*
X146710053Y-110975553D01*
X146716243Y-110966288D01*
X146733229Y-110880893D01*
X146750021Y-110897714D01*
X147036968Y-111016864D01*
X147347669Y-111017136D01*
X147634823Y-110898486D01*
X147854714Y-110678979D01*
X147973864Y-110392032D01*
X147974136Y-110081331D01*
X147855486Y-109794177D01*
X147635979Y-109574286D01*
X147349032Y-109455136D01*
X147038331Y-109454864D01*
X146751177Y-109573514D01*
X146553779Y-109770567D01*
X146446448Y-109609935D01*
X146042671Y-109340140D01*
X145566383Y-109245400D01*
X145517617Y-109245400D01*
X145041329Y-109340140D01*
X144653001Y-109599612D01*
X144653001Y-108840388D01*
X145041329Y-109099860D01*
X145517617Y-109194600D01*
X145566383Y-109194600D01*
X146042671Y-109099860D01*
X146446448Y-108830065D01*
X146716243Y-108426288D01*
X146810983Y-107950000D01*
X146716243Y-107473712D01*
X146446448Y-107069935D01*
X146042671Y-106800140D01*
X145566383Y-106705400D01*
X145517617Y-106705400D01*
X145041329Y-106800140D01*
X144653001Y-107059612D01*
X144653001Y-106578401D01*
X144616265Y-106393718D01*
X144511651Y-106237151D01*
X144206849Y-105932349D01*
X144206846Y-105932347D01*
X144170052Y-105895553D01*
X144176243Y-105886288D01*
X144270983Y-105410000D01*
X144176243Y-104933712D01*
X143906448Y-104529935D01*
X143502671Y-104260140D01*
X143026383Y-104165400D01*
X142977617Y-104165400D01*
X142501329Y-104260140D01*
X142097552Y-104529935D01*
X141827757Y-104933712D01*
X141733017Y-105410000D01*
X137591000Y-105410000D01*
X137591000Y-99689980D01*
X144675980Y-99689980D01*
X144747506Y-99873333D01*
X145158165Y-100057193D01*
X145607926Y-100069905D01*
X146028315Y-99909534D01*
X146082494Y-99873333D01*
X146154020Y-99689980D01*
X145415000Y-98950961D01*
X144675980Y-99689980D01*
X137591000Y-99689980D01*
X137591000Y-99125926D01*
X144278095Y-99125926D01*
X144438466Y-99546315D01*
X144474667Y-99600494D01*
X144658020Y-99672020D01*
X145397039Y-98933000D01*
X145432961Y-98933000D01*
X146171980Y-99672020D01*
X146355333Y-99600494D01*
X146539193Y-99189835D01*
X146551905Y-98740074D01*
X146391534Y-98319685D01*
X146355333Y-98265506D01*
X146171980Y-98193980D01*
X145432961Y-98933000D01*
X145397039Y-98933000D01*
X144658020Y-98193980D01*
X144474667Y-98265506D01*
X144290807Y-98676165D01*
X144278095Y-99125926D01*
X137591000Y-99125926D01*
X137591000Y-98176020D01*
X144675980Y-98176020D01*
X145415000Y-98915039D01*
X146154020Y-98176020D01*
X146082494Y-97992667D01*
X145671835Y-97808807D01*
X145222074Y-97796095D01*
X144801685Y-97956466D01*
X144747506Y-97992667D01*
X144675980Y-98176020D01*
X137591000Y-98176020D01*
X137591000Y-94988000D01*
X141988536Y-94988000D01*
X141988536Y-95988000D01*
X142015103Y-96129190D01*
X142098546Y-96258865D01*
X142225866Y-96345859D01*
X142377000Y-96376464D01*
X143627000Y-96376464D01*
X143768190Y-96349897D01*
X143897865Y-96266454D01*
X143984859Y-96139134D01*
X144008700Y-96021400D01*
X144645536Y-96021400D01*
X144645536Y-96520000D01*
X144672103Y-96661190D01*
X144755546Y-96790865D01*
X144882866Y-96877859D01*
X145034000Y-96908464D01*
X145684122Y-96908464D01*
X147031983Y-98256325D01*
X146996744Y-98291503D01*
X146824196Y-98707043D01*
X146823804Y-99156983D01*
X146995625Y-99572823D01*
X147313503Y-99891256D01*
X147729043Y-100063804D01*
X148178983Y-100064196D01*
X148594823Y-99892375D01*
X148913256Y-99574497D01*
X149085804Y-99158957D01*
X149086190Y-98716401D01*
X149364188Y-98716401D01*
X149363804Y-99156983D01*
X149535625Y-99572823D01*
X149853503Y-99891256D01*
X150012400Y-99957236D01*
X150012400Y-104863906D01*
X150049136Y-105048589D01*
X150153750Y-105205156D01*
X156304644Y-111356050D01*
X156461211Y-111460664D01*
X156645894Y-111497401D01*
X156645899Y-111497400D01*
X156858220Y-111497400D01*
X157037021Y-111676514D01*
X157323968Y-111795664D01*
X157634669Y-111795936D01*
X157921823Y-111677286D01*
X158141714Y-111457779D01*
X158260864Y-111170832D01*
X158261136Y-110860131D01*
X158142486Y-110572977D01*
X157922979Y-110353086D01*
X157636032Y-110233936D01*
X157325331Y-110233664D01*
X157038177Y-110352314D01*
X156857976Y-110532200D01*
X156845794Y-110532200D01*
X151522058Y-105208464D01*
X152015000Y-105208464D01*
X152156190Y-105181897D01*
X152285865Y-105098454D01*
X152372859Y-104971134D01*
X152403464Y-104820000D01*
X152403464Y-102220000D01*
X152376897Y-102078810D01*
X152293454Y-101949135D01*
X152166134Y-101862141D01*
X152015000Y-101831536D01*
X151015000Y-101831536D01*
X150977600Y-101838573D01*
X150977600Y-101776159D01*
X152477599Y-101776159D01*
X152477599Y-105232937D01*
X152514335Y-105417620D01*
X152618949Y-105574187D01*
X154955012Y-107910250D01*
X155111579Y-108014864D01*
X155296262Y-108051600D01*
X159144220Y-108051600D01*
X159323021Y-108230714D01*
X159609968Y-108349864D01*
X159920669Y-108350136D01*
X160207823Y-108231486D01*
X160229599Y-108209748D01*
X160229599Y-109150199D01*
X160266335Y-109334882D01*
X160370949Y-109491449D01*
X160636086Y-109756586D01*
X160635864Y-110009669D01*
X160754514Y-110296823D01*
X160974021Y-110516714D01*
X161260968Y-110635864D01*
X161571669Y-110636136D01*
X161858823Y-110517486D01*
X162078714Y-110297979D01*
X162197864Y-110011032D01*
X162198136Y-109700331D01*
X162079486Y-109413177D01*
X161859979Y-109193286D01*
X161771525Y-109156557D01*
X161858823Y-109120486D01*
X162039024Y-108940600D01*
X162525642Y-108940600D01*
X162710325Y-108903864D01*
X162866892Y-108799250D01*
X168110670Y-103555472D01*
X168215284Y-103398905D01*
X168252020Y-103214222D01*
X168252020Y-97393360D01*
X168431134Y-97214559D01*
X168550284Y-96927612D01*
X168550556Y-96616911D01*
X168431906Y-96329757D01*
X168212399Y-96109866D01*
X167925452Y-95990716D01*
X167614751Y-95990444D01*
X167327597Y-96109094D01*
X167107706Y-96328601D01*
X166988556Y-96615548D01*
X166988284Y-96926249D01*
X167106934Y-97213403D01*
X167286820Y-97393604D01*
X167286820Y-103014322D01*
X166003464Y-104297678D01*
X166003464Y-102220000D01*
X165976897Y-102078810D01*
X165893454Y-101949135D01*
X165766134Y-101862141D01*
X165615000Y-101831536D01*
X164637322Y-101831536D01*
X166071297Y-100397561D01*
X166175911Y-100240994D01*
X166212647Y-100056311D01*
X166212647Y-97395893D01*
X166391761Y-97217092D01*
X166510911Y-96930145D01*
X166511183Y-96619444D01*
X166392533Y-96332290D01*
X166173026Y-96112399D01*
X165886079Y-95993249D01*
X165575378Y-95992977D01*
X165288224Y-96111627D01*
X165068333Y-96331134D01*
X164949183Y-96618081D01*
X164948911Y-96928782D01*
X165067561Y-97215936D01*
X165247447Y-97396137D01*
X165247447Y-99856411D01*
X164203000Y-100900858D01*
X164203000Y-100437950D01*
X164107750Y-100342700D01*
X163334700Y-100342700D01*
X163334700Y-101240750D01*
X163429950Y-101336000D01*
X163767858Y-101336000D01*
X163468949Y-101634909D01*
X163364335Y-101791476D01*
X163327599Y-101976159D01*
X163327599Y-105229901D01*
X161286901Y-107270599D01*
X161078700Y-107270599D01*
X161078695Y-107270598D01*
X160894012Y-107307335D01*
X160737445Y-107411949D01*
X160737443Y-107411952D01*
X160546971Y-107602423D01*
X160547136Y-107414331D01*
X160460808Y-107205401D01*
X160766305Y-107205401D01*
X160950988Y-107168665D01*
X161107555Y-107064051D01*
X162379128Y-105792478D01*
X162483742Y-105635911D01*
X162520479Y-105451228D01*
X162520478Y-105451223D01*
X162520478Y-105237981D01*
X162699592Y-105059180D01*
X162818742Y-104772233D01*
X162819014Y-104461532D01*
X162700364Y-104174378D01*
X162480857Y-103954487D01*
X162193910Y-103835337D01*
X162053464Y-103835214D01*
X162053464Y-102020000D01*
X162026897Y-101878810D01*
X161986692Y-101816329D01*
X162109683Y-101791864D01*
X162266250Y-101687250D01*
X162655199Y-101298300D01*
X162746214Y-101336000D01*
X163214050Y-101336000D01*
X163309300Y-101240750D01*
X163309300Y-100342700D01*
X163289300Y-100342700D01*
X163289300Y-100317300D01*
X163309300Y-100317300D01*
X163309300Y-99419250D01*
X163334700Y-99419250D01*
X163334700Y-100317300D01*
X164107750Y-100317300D01*
X164203000Y-100222050D01*
X164203000Y-99629215D01*
X164144996Y-99489181D01*
X164037820Y-99382004D01*
X163897786Y-99324000D01*
X163429950Y-99324000D01*
X163334700Y-99419250D01*
X163309300Y-99419250D01*
X163214050Y-99324000D01*
X162915600Y-99324000D01*
X162915600Y-99314005D01*
X162915601Y-99314000D01*
X162878864Y-99129317D01*
X162774250Y-98972750D01*
X162012250Y-98210750D01*
X161855683Y-98106136D01*
X161671000Y-98069400D01*
X158994000Y-98069400D01*
X158994000Y-97802950D01*
X158898750Y-97707700D01*
X158000700Y-97707700D01*
X158000700Y-97727700D01*
X157975300Y-97727700D01*
X157975300Y-97707700D01*
X157077250Y-97707700D01*
X156982000Y-97802950D01*
X156982000Y-98270786D01*
X157003695Y-98323163D01*
X156481108Y-98845750D01*
X156376494Y-99002317D01*
X156339758Y-99187000D01*
X156339758Y-100310891D01*
X156309331Y-100310864D01*
X156022177Y-100429514D01*
X155802286Y-100649021D01*
X155683136Y-100935968D01*
X155682864Y-101246669D01*
X155801514Y-101533823D01*
X155914721Y-101647229D01*
X155827700Y-101734250D01*
X155827700Y-103007300D01*
X155847700Y-103007300D01*
X155847700Y-103032700D01*
X155827700Y-103032700D01*
X155827700Y-104305750D01*
X155922950Y-104401000D01*
X156240786Y-104401000D01*
X156362400Y-104350626D01*
X156362400Y-105296220D01*
X156183286Y-105475021D01*
X156064136Y-105761968D01*
X156063864Y-106072669D01*
X156182514Y-106359823D01*
X156402021Y-106579714D01*
X156688968Y-106698864D01*
X156999669Y-106699136D01*
X157286823Y-106580486D01*
X157506714Y-106360979D01*
X157577551Y-106190383D01*
X157673750Y-106334356D01*
X158403443Y-107064048D01*
X158403445Y-107064051D01*
X158436893Y-107086400D01*
X155496162Y-107086400D01*
X155104738Y-106694976D01*
X155381823Y-106580486D01*
X155601714Y-106360979D01*
X155720864Y-106074032D01*
X155721136Y-105763331D01*
X155602486Y-105476177D01*
X155382979Y-105256286D01*
X155197600Y-105179310D01*
X155197600Y-104383513D01*
X155206190Y-104381897D01*
X155259805Y-104347397D01*
X155389214Y-104401000D01*
X155707050Y-104401000D01*
X155802300Y-104305750D01*
X155802300Y-103032700D01*
X155782300Y-103032700D01*
X155782300Y-103007300D01*
X155802300Y-103007300D01*
X155802300Y-101734250D01*
X155707050Y-101639000D01*
X155389214Y-101639000D01*
X155260373Y-101692368D01*
X155216134Y-101662141D01*
X155103147Y-101639261D01*
X155212864Y-101375032D01*
X155213136Y-101064331D01*
X155094486Y-100777177D01*
X154874979Y-100557286D01*
X154588032Y-100438136D01*
X154277331Y-100437864D01*
X153990177Y-100556514D01*
X153809976Y-100736400D01*
X153517363Y-100736400D01*
X153517358Y-100736399D01*
X153332675Y-100773136D01*
X153176108Y-100877750D01*
X152618949Y-101434909D01*
X152514335Y-101591476D01*
X152477599Y-101776159D01*
X150977600Y-101776159D01*
X150977600Y-99957338D01*
X151134823Y-99892375D01*
X151453256Y-99574497D01*
X151625804Y-99158957D01*
X151626196Y-98709017D01*
X151454375Y-98293177D01*
X151136497Y-97974744D01*
X150730334Y-97806090D01*
X151354772Y-97181652D01*
X151396491Y-97119214D01*
X156982000Y-97119214D01*
X156982000Y-97587050D01*
X157077250Y-97682300D01*
X157975300Y-97682300D01*
X157975300Y-96909250D01*
X158000700Y-96909250D01*
X158000700Y-97682300D01*
X158898750Y-97682300D01*
X158994000Y-97587050D01*
X158994000Y-97119214D01*
X158935996Y-96979180D01*
X158828819Y-96872004D01*
X158688785Y-96814000D01*
X158095950Y-96814000D01*
X158000700Y-96909250D01*
X157975300Y-96909250D01*
X157880050Y-96814000D01*
X157287215Y-96814000D01*
X157147181Y-96872004D01*
X157040004Y-96979180D01*
X156982000Y-97119214D01*
X151396491Y-97119214D01*
X151470398Y-97008604D01*
X151511002Y-96804481D01*
X151511001Y-96804476D01*
X151511001Y-95620259D01*
X151535310Y-95595950D01*
X151648000Y-95595950D01*
X151648000Y-96063786D01*
X151706004Y-96203820D01*
X151813181Y-96310996D01*
X151953215Y-96369000D01*
X152546050Y-96369000D01*
X152641300Y-96273750D01*
X152641300Y-95500700D01*
X152666700Y-95500700D01*
X152666700Y-96273750D01*
X152761950Y-96369000D01*
X153354785Y-96369000D01*
X153494819Y-96310996D01*
X153601996Y-96203820D01*
X153660000Y-96063786D01*
X153660000Y-95595950D01*
X153564750Y-95500700D01*
X152666700Y-95500700D01*
X152641300Y-95500700D01*
X151743250Y-95500700D01*
X151648000Y-95595950D01*
X151535310Y-95595950D01*
X151699605Y-95431655D01*
X151743250Y-95475300D01*
X152641300Y-95475300D01*
X152641300Y-95455300D01*
X152666700Y-95455300D01*
X152666700Y-95475300D01*
X153564750Y-95475300D01*
X153660000Y-95380050D01*
X153660000Y-95001424D01*
X154809168Y-93852255D01*
X154809171Y-93852253D01*
X154917315Y-93690403D01*
X154924797Y-93679206D01*
X154965400Y-93475082D01*
X154965400Y-92599345D01*
X154997865Y-92578454D01*
X155084859Y-92451134D01*
X155115464Y-92300000D01*
X155115464Y-91850000D01*
X155858536Y-91850000D01*
X155858536Y-92300000D01*
X155885103Y-92441190D01*
X155968546Y-92570865D01*
X156095866Y-92657859D01*
X156247000Y-92688464D01*
X156837000Y-92688464D01*
X156959039Y-92665501D01*
X156958856Y-92874571D01*
X157085102Y-93180109D01*
X157318662Y-93414077D01*
X157623979Y-93540855D01*
X157954571Y-93541144D01*
X158260109Y-93414898D01*
X158494077Y-93181338D01*
X158620855Y-92876021D01*
X158620864Y-92864669D01*
X159238864Y-92864669D01*
X159357514Y-93151823D01*
X159577021Y-93371714D01*
X159863968Y-93490864D01*
X160174669Y-93491136D01*
X160461823Y-93372486D01*
X160619759Y-93214826D01*
X160818662Y-93414077D01*
X161123979Y-93540855D01*
X161454571Y-93541144D01*
X161760109Y-93414898D01*
X161994077Y-93181338D01*
X162120855Y-92876021D01*
X162121144Y-92545429D01*
X161994898Y-92239891D01*
X161761338Y-92005923D01*
X161489777Y-91893161D01*
X161534864Y-91825683D01*
X161571600Y-91641000D01*
X161571600Y-91421330D01*
X161680190Y-91400897D01*
X161809865Y-91317454D01*
X161896859Y-91190134D01*
X161927464Y-91039000D01*
X161927464Y-89535000D01*
X165304000Y-89535000D01*
X165433481Y-90185945D01*
X165802211Y-90737789D01*
X166354055Y-91106519D01*
X167005000Y-91236000D01*
X167655945Y-91106519D01*
X168207789Y-90737789D01*
X168576519Y-90185945D01*
X168706000Y-89535000D01*
X168576519Y-88884055D01*
X168207789Y-88332211D01*
X167655945Y-87963481D01*
X167005000Y-87834000D01*
X166354055Y-87963481D01*
X165802211Y-88332211D01*
X165433481Y-88884055D01*
X165304000Y-89535000D01*
X161927464Y-89535000D01*
X161927464Y-88539000D01*
X161900897Y-88397810D01*
X161817454Y-88268135D01*
X161690134Y-88181141D01*
X161539000Y-88150536D01*
X160639000Y-88150536D01*
X160497810Y-88177103D01*
X160368135Y-88260546D01*
X160281141Y-88387866D01*
X160250536Y-88539000D01*
X160250536Y-91039000D01*
X160277103Y-91180190D01*
X160360546Y-91309865D01*
X160487866Y-91396859D01*
X160606400Y-91420862D01*
X160606400Y-91441100D01*
X160118414Y-91929086D01*
X159865331Y-91928864D01*
X159578177Y-92047514D01*
X159358286Y-92267021D01*
X159239136Y-92553968D01*
X159238864Y-92864669D01*
X158620864Y-92864669D01*
X158621144Y-92545429D01*
X158494898Y-92239891D01*
X158261338Y-92005923D01*
X157956021Y-91879145D01*
X157625429Y-91878856D01*
X157319891Y-92005102D01*
X157225464Y-92099364D01*
X157225464Y-91850000D01*
X157198897Y-91708810D01*
X157115454Y-91579135D01*
X157075400Y-91551767D01*
X157075400Y-90902142D01*
X157350536Y-90627006D01*
X157350536Y-91039000D01*
X157377103Y-91180190D01*
X157460546Y-91309865D01*
X157587866Y-91396859D01*
X157739000Y-91427464D01*
X158639000Y-91427464D01*
X158780190Y-91400897D01*
X158909865Y-91317454D01*
X158996859Y-91190134D01*
X159027464Y-91039000D01*
X159027464Y-88539000D01*
X159000897Y-88397810D01*
X158917454Y-88268135D01*
X158790134Y-88181141D01*
X158639000Y-88150536D01*
X157739000Y-88150536D01*
X157597810Y-88177103D01*
X157468135Y-88260546D01*
X157381141Y-88387866D01*
X157350536Y-88539000D01*
X157350536Y-89272242D01*
X157230076Y-89296203D01*
X157057029Y-89411829D01*
X156164829Y-90304029D01*
X156049203Y-90477077D01*
X156008600Y-90681200D01*
X156008600Y-91550655D01*
X155976135Y-91571546D01*
X155889141Y-91698866D01*
X155858536Y-91850000D01*
X155115464Y-91850000D01*
X155088897Y-91708810D01*
X155005454Y-91579135D01*
X154878134Y-91492141D01*
X154727000Y-91461536D01*
X154137000Y-91461536D01*
X153995810Y-91488103D01*
X153866135Y-91571546D01*
X153779141Y-91698866D01*
X153748536Y-91850000D01*
X153748536Y-92300000D01*
X153775103Y-92441190D01*
X153858546Y-92570865D01*
X153898600Y-92598233D01*
X153898600Y-93254141D01*
X153667464Y-93485277D01*
X153667464Y-92988000D01*
X153640897Y-92846810D01*
X153557454Y-92717135D01*
X153430134Y-92630141D01*
X153279000Y-92599536D01*
X152029000Y-92599536D01*
X151887810Y-92626103D01*
X151758135Y-92709546D01*
X151671141Y-92836866D01*
X151647300Y-92954600D01*
X149056600Y-92954600D01*
X149056600Y-92897200D01*
X149055103Y-92889673D01*
X149224757Y-92481100D01*
X149225242Y-91925339D01*
X149013010Y-91411697D01*
X148620370Y-91018371D01*
X148107100Y-90805243D01*
X147551339Y-90804758D01*
X147037697Y-91016990D01*
X146644371Y-91409630D01*
X146431243Y-91922900D01*
X146430758Y-92478661D01*
X146642990Y-92992303D01*
X147035630Y-93385629D01*
X147548900Y-93598757D01*
X147658006Y-93598852D01*
X147450829Y-93806029D01*
X147335203Y-93979077D01*
X147310901Y-94101248D01*
X147178810Y-94126103D01*
X147049135Y-94209546D01*
X146962141Y-94336866D01*
X146931536Y-94488000D01*
X146931536Y-96520000D01*
X146958103Y-96661190D01*
X146980792Y-96696450D01*
X146438464Y-96154122D01*
X146438464Y-94488000D01*
X146411897Y-94346810D01*
X146328454Y-94217135D01*
X146201134Y-94130141D01*
X146050000Y-94099536D01*
X145034000Y-94099536D01*
X144892810Y-94126103D01*
X144763135Y-94209546D01*
X144676141Y-94336866D01*
X144645536Y-94488000D01*
X144645536Y-94954600D01*
X144009179Y-94954600D01*
X143988897Y-94846810D01*
X143905454Y-94717135D01*
X143778134Y-94630141D01*
X143627000Y-94599536D01*
X142377000Y-94599536D01*
X142235810Y-94626103D01*
X142106135Y-94709546D01*
X142019141Y-94836866D01*
X141988536Y-94988000D01*
X137591000Y-94988000D01*
X137591000Y-93595950D01*
X141996000Y-93595950D01*
X141996000Y-94063786D01*
X142054004Y-94203820D01*
X142161181Y-94310996D01*
X142301215Y-94369000D01*
X142894050Y-94369000D01*
X142989300Y-94273750D01*
X142989300Y-93500700D01*
X143014700Y-93500700D01*
X143014700Y-94273750D01*
X143109950Y-94369000D01*
X143702785Y-94369000D01*
X143842819Y-94310996D01*
X143949996Y-94203820D01*
X144008000Y-94063786D01*
X144008000Y-93595950D01*
X143912750Y-93500700D01*
X143014700Y-93500700D01*
X142989300Y-93500700D01*
X142091250Y-93500700D01*
X141996000Y-93595950D01*
X137591000Y-93595950D01*
X137591000Y-92912214D01*
X141996000Y-92912214D01*
X141996000Y-93380050D01*
X142091250Y-93475300D01*
X142989300Y-93475300D01*
X142989300Y-92702250D01*
X143014700Y-92702250D01*
X143014700Y-93475300D01*
X143912750Y-93475300D01*
X144008000Y-93380050D01*
X144008000Y-92912214D01*
X143949996Y-92772180D01*
X143842819Y-92665004D01*
X143702785Y-92607000D01*
X143109950Y-92607000D01*
X143014700Y-92702250D01*
X142989300Y-92702250D01*
X142894050Y-92607000D01*
X142301215Y-92607000D01*
X142161181Y-92665004D01*
X142054004Y-92772180D01*
X141996000Y-92912214D01*
X137591000Y-92912214D01*
X137591000Y-91482448D01*
X137952685Y-89664136D01*
X138038970Y-89535000D01*
X138634000Y-89535000D01*
X138763481Y-90185945D01*
X139132211Y-90737789D01*
X139684055Y-91106519D01*
X140335000Y-91236000D01*
X140985945Y-91106519D01*
X141537789Y-90737789D01*
X141906519Y-90185945D01*
X142036000Y-89535000D01*
X141931164Y-89007950D01*
X145618200Y-89007950D01*
X145618200Y-89991785D01*
X145676204Y-90131819D01*
X145783380Y-90238996D01*
X145923414Y-90297000D01*
X147720050Y-90297000D01*
X147815300Y-90201750D01*
X147815300Y-88912700D01*
X147840700Y-88912700D01*
X147840700Y-90201750D01*
X147935950Y-90297000D01*
X149732586Y-90297000D01*
X149872620Y-90238996D01*
X149979796Y-90131819D01*
X150037800Y-89991785D01*
X150037800Y-89007950D01*
X149942550Y-88912700D01*
X147840700Y-88912700D01*
X147815300Y-88912700D01*
X145713450Y-88912700D01*
X145618200Y-89007950D01*
X141931164Y-89007950D01*
X141906519Y-88884055D01*
X141537789Y-88332211D01*
X140985945Y-87963481D01*
X140335000Y-87834000D01*
X139684055Y-87963481D01*
X139132211Y-88332211D01*
X138763481Y-88884055D01*
X138634000Y-89535000D01*
X138038970Y-89535000D01*
X138958631Y-88158632D01*
X139483066Y-87808215D01*
X145618200Y-87808215D01*
X145618200Y-88792050D01*
X145713450Y-88887300D01*
X147815300Y-88887300D01*
X147815300Y-87598250D01*
X147840700Y-87598250D01*
X147840700Y-88887300D01*
X149942550Y-88887300D01*
X150037800Y-88792050D01*
X150037800Y-87808215D01*
X149979796Y-87668181D01*
X149872620Y-87561004D01*
X149732586Y-87503000D01*
X147935950Y-87503000D01*
X147840700Y-87598250D01*
X147815300Y-87598250D01*
X147720050Y-87503000D01*
X145923414Y-87503000D01*
X145783380Y-87561004D01*
X145676204Y-87668181D01*
X145618200Y-87808215D01*
X139483066Y-87808215D01*
X140464138Y-87152684D01*
X142282448Y-86791000D01*
X165057552Y-86791000D01*
X166875864Y-87152685D01*
G36*
X151664420Y-94114932D02*
X151540396Y-94139602D01*
X151367348Y-94255228D01*
X151003000Y-94619576D01*
X151003000Y-94412215D01*
X150944996Y-94272181D01*
X150837820Y-94165004D01*
X150697786Y-94107000D01*
X150221950Y-94107000D01*
X150126700Y-94202250D01*
X150126700Y-95491300D01*
X150146700Y-95491300D01*
X150146700Y-95516700D01*
X150126700Y-95516700D01*
X150126700Y-96805750D01*
X150174345Y-96853395D01*
X149378139Y-97649601D01*
X148705004Y-97649601D01*
X148704999Y-97649600D01*
X148500876Y-97690204D01*
X148327828Y-97805830D01*
X148287303Y-97846355D01*
X148180957Y-97802196D01*
X148086456Y-97802114D01*
X147147823Y-96863481D01*
X147168866Y-96877859D01*
X147320000Y-96908464D01*
X148336000Y-96908464D01*
X148477190Y-96881897D01*
X148606865Y-96798454D01*
X148693859Y-96671134D01*
X148724464Y-96520000D01*
X148724464Y-95611950D01*
X149225000Y-95611950D01*
X149225000Y-96595785D01*
X149283004Y-96735819D01*
X149390180Y-96842996D01*
X149530214Y-96901000D01*
X150006050Y-96901000D01*
X150101300Y-96805750D01*
X150101300Y-95516700D01*
X149320250Y-95516700D01*
X149225000Y-95611950D01*
X148724464Y-95611950D01*
X148724464Y-94488000D01*
X148710204Y-94412215D01*
X149225000Y-94412215D01*
X149225000Y-95396050D01*
X149320250Y-95491300D01*
X150101300Y-95491300D01*
X150101300Y-94202250D01*
X150006050Y-94107000D01*
X149530214Y-94107000D01*
X149390180Y-94165004D01*
X149283004Y-94272181D01*
X149225000Y-94412215D01*
X148710204Y-94412215D01*
X148697897Y-94346810D01*
X148614454Y-94217135D01*
X148575217Y-94190325D01*
X148744142Y-94021400D01*
X151646821Y-94021400D01*
X151664420Y-94114932D01*
X151664420Y-94114932D01*
G37*
X151664420Y-94114932D02*
X151540396Y-94139602D01*
X151367348Y-94255228D01*
X151003000Y-94619576D01*
X151003000Y-94412215D01*
X150944996Y-94272181D01*
X150837820Y-94165004D01*
X150697786Y-94107000D01*
X150221950Y-94107000D01*
X150126700Y-94202250D01*
X150126700Y-95491300D01*
X150146700Y-95491300D01*
X150146700Y-95516700D01*
X150126700Y-95516700D01*
X150126700Y-96805750D01*
X150174345Y-96853395D01*
X149378139Y-97649601D01*
X148705004Y-97649601D01*
X148704999Y-97649600D01*
X148500876Y-97690204D01*
X148327828Y-97805830D01*
X148287303Y-97846355D01*
X148180957Y-97802196D01*
X148086456Y-97802114D01*
X147147823Y-96863481D01*
X147168866Y-96877859D01*
X147320000Y-96908464D01*
X148336000Y-96908464D01*
X148477190Y-96881897D01*
X148606865Y-96798454D01*
X148693859Y-96671134D01*
X148724464Y-96520000D01*
X148724464Y-95611950D01*
X149225000Y-95611950D01*
X149225000Y-96595785D01*
X149283004Y-96735819D01*
X149390180Y-96842996D01*
X149530214Y-96901000D01*
X150006050Y-96901000D01*
X150101300Y-96805750D01*
X150101300Y-95516700D01*
X149320250Y-95516700D01*
X149225000Y-95611950D01*
X148724464Y-95611950D01*
X148724464Y-94488000D01*
X148710204Y-94412215D01*
X149225000Y-94412215D01*
X149225000Y-95396050D01*
X149320250Y-95491300D01*
X150101300Y-95491300D01*
X150101300Y-94202250D01*
X150006050Y-94107000D01*
X149530214Y-94107000D01*
X149390180Y-94165004D01*
X149283004Y-94272181D01*
X149225000Y-94412215D01*
X148710204Y-94412215D01*
X148697897Y-94346810D01*
X148614454Y-94217135D01*
X148575217Y-94190325D01*
X148744142Y-94021400D01*
X151646821Y-94021400D01*
X151664420Y-94114932D01*
M02*
