<?xml version="1.0" standalone="no"?>
 <!DOCTYPE svg PUBLIC "-//W3C//DTD SVG 1.1//EN" 
 "http://www.w3.org/Graphics/SVG/1.1/DTD/svg11.dtd"> 
<svg xmlns="http://www.w3.org/2000/svg" version="1.1" 
    width="29.7002cm" height="21.0007cm" viewBox="0 0 116930 82680 ">
<title>SVG Picture created as ARCU PCB REV B-B.Cu.svg date 2016/10/20 11:10:14 </title>
  <desc>Picture generated by PCBNEW </desc>
<g style="fill:#000000; fill-opacity:1;stroke:#000000; stroke-opacity:1;
stroke-linecap:round; stroke-linejoin:round; "
 transform="translate(0 0) scale(1 1)">
</g>
<g style="fill:#000000; fill-opacity:0.0; 
stroke:#000000; stroke-width:-0.000393701; stroke-opacity:1; 
stroke-linecap:round; stroke-linejoin:round;">
</g>
<g style="fill:#000000; fill-opacity:0.0; 
stroke:#000000; stroke-width:39.3701; stroke-opacity:1; 
stroke-linecap:round; stroke-linejoin:round;">
</g>
<g style="fill:#000000; fill-opacity:0.0; 
stroke:#000000; stroke-width:59.0551; stroke-opacity:1; 
stroke-linecap:round; stroke-linejoin:round;">
<rect x="69685.9" y="65357.2" width="42519.7" height="12598.4" rx="0" />
</g>
<g style="fill:#000000; fill-opacity:0.0; 
stroke:#000000; stroke-width:39.3701; stroke-opacity:1; 
stroke-linecap:round; stroke-linejoin:round;">
</g>
<g style="fill:#000000; fill-opacity:0.0; 
stroke:#000000; stroke-width:59.0551; stroke-opacity:1; 
stroke-linecap:round; stroke-linejoin:round;">
<rect x="3937.01" y="3937.01" width="109056" height="74806" rx="0" />
</g>
<g style="fill:#000000; fill-opacity:0.0; 
stroke:#000000; stroke-width:39.3701; stroke-opacity:1; 
stroke-linecap:round; stroke-linejoin:round;">
</g>
<g style="fill:#000000; fill-opacity:0.0; 
stroke:#000000; stroke-width:59.0551; stroke-opacity:1; 
stroke-linecap:round; stroke-linejoin:round;">
<rect x="4724.41" y="4724.41" width="107481" height="73231.2" rx="0" />
</g>
<g style="fill:#000000; fill-opacity:0.0; 
stroke:#000000; stroke-width:39.3701; stroke-opacity:1; 
stroke-linecap:round; stroke-linejoin:round;">
</g>
<g style="fill:#000000; fill-opacity:0.0; 
stroke:#000000; stroke-width:59.0551; stroke-opacity:1; 
stroke-linecap:round; stroke-linejoin:round;">
<path d="M23622 4724
L23622 3937
" />
</g>
<g style="fill:#000000; fill-opacity:0.0; 
stroke:#000000; stroke-width:39.3701; stroke-opacity:1; 
stroke-linecap:round; stroke-linejoin:round;">
</g>
<g style="fill:#000000; fill-opacity:0.0; 
stroke:#000000; stroke-width:59.0551; stroke-opacity:1; 
stroke-linecap:round; stroke-linejoin:round;">
<path d="M43307 4724
L43307 3937
" />
</g>
<g style="fill:#000000; fill-opacity:0.0; 
stroke:#000000; stroke-width:39.3701; stroke-opacity:1; 
stroke-linecap:round; stroke-linejoin:round;">
</g>
<g style="fill:#000000; fill-opacity:0.0; 
stroke:#000000; stroke-width:59.0551; stroke-opacity:1; 
stroke-linecap:round; stroke-linejoin:round;">
<path d="M62992 4724
L62992 3937
" />
</g>
<g style="fill:#000000; fill-opacity:0.0; 
stroke:#000000; stroke-width:39.3701; stroke-opacity:1; 
stroke-linecap:round; stroke-linejoin:round;">
</g>
<g style="fill:#000000; fill-opacity:0.0; 
stroke:#000000; stroke-width:59.0551; stroke-opacity:1; 
stroke-linecap:round; stroke-linejoin:round;">
<path d="M82677 4724
L82677 3937
" />
</g>
<g style="fill:#000000; fill-opacity:0.0; 
stroke:#000000; stroke-width:39.3701; stroke-opacity:1; 
stroke-linecap:round; stroke-linejoin:round;">
</g>
<g style="fill:#000000; fill-opacity:0.0; 
stroke:#000000; stroke-width:59.0551; stroke-opacity:1; 
stroke-linecap:round; stroke-linejoin:round;">
<path d="M102362 4724
L102362 3937
" />
</g>
<g style="fill:#000000; fill-opacity:0.0; 
stroke:#000000; stroke-width:39.3701; stroke-opacity:1; 
stroke-linecap:round; stroke-linejoin:round;">
</g>
<g style="fill:#000000; fill-opacity:0.0; 
stroke:#000000; stroke-width:59.0551; stroke-opacity:1; 
stroke-linecap:round; stroke-linejoin:round;">
<path d="M14169 4562
L13877 4562
" />
<path d="M14023 4562
L14023 4050
L13974 4123
L13925 4172
L13877 4196
" />
</g>
<g style="fill:#000000; fill-opacity:0.0; 
stroke:#000000; stroke-width:39.3701; stroke-opacity:1; 
stroke-linecap:round; stroke-linejoin:round;">
</g>
<g style="fill:#000000; fill-opacity:0.0; 
stroke:#000000; stroke-width:59.0551; stroke-opacity:1; 
stroke-linecap:round; stroke-linejoin:round;">
<path d="M33562 4099
L33586 4074
L33635 4050
L33757 4050
L33805 4074
L33830 4099
L33854 4147
L33854 4196
L33830 4269
L33537 4562
L33854 4562
" />
</g>
<g style="fill:#000000; fill-opacity:0.0; 
stroke:#000000; stroke-width:39.3701; stroke-opacity:1; 
stroke-linecap:round; stroke-linejoin:round;">
</g>
<g style="fill:#000000; fill-opacity:0.0; 
stroke:#000000; stroke-width:59.0551; stroke-opacity:1; 
stroke-linecap:round; stroke-linejoin:round;">
<path d="M53222 4050
L53539 4050
L53368 4245
L53442 4245
L53490 4269
L53515 4294
L53539 4342
L53539 4464
L53515 4513
L53490 4537
L53442 4562
L53295 4562
L53247 4537
L53222 4513
" />
</g>
<g style="fill:#000000; fill-opacity:0.0; 
stroke:#000000; stroke-width:39.3701; stroke-opacity:1; 
stroke-linecap:round; stroke-linejoin:round;">
</g>
<g style="fill:#000000; fill-opacity:0.0; 
stroke:#000000; stroke-width:59.0551; stroke-opacity:1; 
stroke-linecap:round; stroke-linejoin:round;">
<path d="M73175 4221
L73175 4562
" />
<path d="M73053 4026
L72932 4391
L73248 4391
" />
</g>
<g style="fill:#000000; fill-opacity:0.0; 
stroke:#000000; stroke-width:39.3701; stroke-opacity:1; 
stroke-linecap:round; stroke-linejoin:round;">
</g>
<g style="fill:#000000; fill-opacity:0.0; 
stroke:#000000; stroke-width:59.0551; stroke-opacity:1; 
stroke-linecap:round; stroke-linejoin:round;">
<path d="M92885 4050
L92641 4050
L92617 4294
L92641 4269
L92690 4245
L92812 4245
L92860 4269
L92885 4294
L92909 4342
L92909 4464
L92885 4513
L92860 4537
L92812 4562
L92690 4562
L92641 4537
L92617 4513
" />
</g>
<g style="fill:#000000; fill-opacity:0.0; 
stroke:#000000; stroke-width:39.3701; stroke-opacity:1; 
stroke-linecap:round; stroke-linejoin:round;">
</g>
<g style="fill:#000000; fill-opacity:0.0; 
stroke:#000000; stroke-width:59.0551; stroke-opacity:1; 
stroke-linecap:round; stroke-linejoin:round;">
<path d="M112545 4050
L112448 4050
L112399 4074
L112375 4099
L112326 4172
L112302 4269
L112302 4464
L112326 4513
L112350 4537
L112399 4562
L112497 4562
L112545 4537
L112570 4513
L112594 4464
L112594 4342
L112570 4294
L112545 4269
L112497 4245
L112399 4245
L112350 4269
L112326 4294
L112302 4342
" />
</g>
<g style="fill:#000000; fill-opacity:0.0; 
stroke:#000000; stroke-width:39.3701; stroke-opacity:1; 
stroke-linecap:round; stroke-linejoin:round;">
</g>
<g style="fill:#000000; fill-opacity:0.0; 
stroke:#000000; stroke-width:59.0551; stroke-opacity:1; 
stroke-linecap:round; stroke-linejoin:round;">
<path d="M23622 77955
L23622 78742
" />
</g>
<g style="fill:#000000; fill-opacity:0.0; 
stroke:#000000; stroke-width:39.3701; stroke-opacity:1; 
stroke-linecap:round; stroke-linejoin:round;">
</g>
<g style="fill:#000000; fill-opacity:0.0; 
stroke:#000000; stroke-width:59.0551; stroke-opacity:1; 
stroke-linecap:round; stroke-linejoin:round;">
<path d="M43307 77955
L43307 78742
" />
</g>
<g style="fill:#000000; fill-opacity:0.0; 
stroke:#000000; stroke-width:39.3701; stroke-opacity:1; 
stroke-linecap:round; stroke-linejoin:round;">
</g>
<g style="fill:#000000; fill-opacity:0.0; 
stroke:#000000; stroke-width:59.0551; stroke-opacity:1; 
stroke-linecap:round; stroke-linejoin:round;">
<path d="M62992 77955
L62992 78742
" />
</g>
<g style="fill:#000000; fill-opacity:0.0; 
stroke:#000000; stroke-width:39.3701; stroke-opacity:1; 
stroke-linecap:round; stroke-linejoin:round;">
</g>
<g style="fill:#000000; fill-opacity:0.0; 
stroke:#000000; stroke-width:59.0551; stroke-opacity:1; 
stroke-linecap:round; stroke-linejoin:round;">
<path d="M82677 77955
L82677 78742
" />
</g>
<g style="fill:#000000; fill-opacity:0.0; 
stroke:#000000; stroke-width:39.3701; stroke-opacity:1; 
stroke-linecap:round; stroke-linejoin:round;">
</g>
<g style="fill:#000000; fill-opacity:0.0; 
stroke:#000000; stroke-width:59.0551; stroke-opacity:1; 
stroke-linecap:round; stroke-linejoin:round;">
<path d="M102362 77955
L102362 78742
" />
</g>
<g style="fill:#000000; fill-opacity:0.0; 
stroke:#000000; stroke-width:39.3701; stroke-opacity:1; 
stroke-linecap:round; stroke-linejoin:round;">
</g>
<g style="fill:#000000; fill-opacity:0.0; 
stroke:#000000; stroke-width:59.0551; stroke-opacity:1; 
stroke-linecap:round; stroke-linejoin:round;">
<path d="M14169 78580
L13877 78580
" />
<path d="M14023 78580
L14023 78069
L13974 78142
L13925 78190
L13877 78215
" />
</g>
<g style="fill:#000000; fill-opacity:0.0; 
stroke:#000000; stroke-width:39.3701; stroke-opacity:1; 
stroke-linecap:round; stroke-linejoin:round;">
</g>
<g style="fill:#000000; fill-opacity:0.0; 
stroke:#000000; stroke-width:59.0551; stroke-opacity:1; 
stroke-linecap:round; stroke-linejoin:round;">
<path d="M33562 78117
L33586 78093
L33635 78069
L33757 78069
L33805 78093
L33830 78117
L33854 78166
L33854 78215
L33830 78288
L33537 78580
L33854 78580
" />
</g>
<g style="fill:#000000; fill-opacity:0.0; 
stroke:#000000; stroke-width:39.3701; stroke-opacity:1; 
stroke-linecap:round; stroke-linejoin:round;">
</g>
<g style="fill:#000000; fill-opacity:0.0; 
stroke:#000000; stroke-width:59.0551; stroke-opacity:1; 
stroke-linecap:round; stroke-linejoin:round;">
<path d="M53222 78069
L53539 78069
L53368 78263
L53442 78263
L53490 78288
L53515 78312
L53539 78361
L53539 78483
L53515 78532
L53490 78556
L53442 78580
L53295 78580
L53247 78556
L53222 78532
" />
</g>
<g style="fill:#000000; fill-opacity:0.0; 
stroke:#000000; stroke-width:39.3701; stroke-opacity:1; 
stroke-linecap:round; stroke-linejoin:round;">
</g>
<g style="fill:#000000; fill-opacity:0.0; 
stroke:#000000; stroke-width:59.0551; stroke-opacity:1; 
stroke-linecap:round; stroke-linejoin:round;">
<path d="M73175 78239
L73175 78580
" />
<path d="M73053 78044
L72932 78410
L73248 78410
" />
</g>
<g style="fill:#000000; fill-opacity:0.0; 
stroke:#000000; stroke-width:39.3701; stroke-opacity:1; 
stroke-linecap:round; stroke-linejoin:round;">
</g>
<g style="fill:#000000; fill-opacity:0.0; 
stroke:#000000; stroke-width:59.0551; stroke-opacity:1; 
stroke-linecap:round; stroke-linejoin:round;">
<path d="M92885 78069
L92641 78069
L92617 78312
L92641 78288
L92690 78263
L92812 78263
L92860 78288
L92885 78312
L92909 78361
L92909 78483
L92885 78532
L92860 78556
L92812 78580
L92690 78580
L92641 78556
L92617 78532
" />
</g>
<g style="fill:#000000; fill-opacity:0.0; 
stroke:#000000; stroke-width:39.3701; stroke-opacity:1; 
stroke-linecap:round; stroke-linejoin:round;">
</g>
<g style="fill:#000000; fill-opacity:0.0; 
stroke:#000000; stroke-width:59.0551; stroke-opacity:1; 
stroke-linecap:round; stroke-linejoin:round;">
<path d="M112545 78069
L112448 78069
L112399 78093
L112375 78117
L112326 78190
L112302 78288
L112302 78483
L112326 78532
L112350 78556
L112399 78580
L112497 78580
L112545 78556
L112570 78532
L112594 78483
L112594 78361
L112570 78312
L112545 78288
L112497 78263
L112399 78263
L112350 78288
L112326 78312
L112302 78361
" />
</g>
<g style="fill:#000000; fill-opacity:0.0; 
stroke:#000000; stroke-width:39.3701; stroke-opacity:1; 
stroke-linecap:round; stroke-linejoin:round;">
</g>
<g style="fill:#000000; fill-opacity:0.0; 
stroke:#000000; stroke-width:59.0551; stroke-opacity:1; 
stroke-linecap:round; stroke-linejoin:round;">
<path d="M3937 23622
L4724 23622
" />
</g>
<g style="fill:#000000; fill-opacity:0.0; 
stroke:#000000; stroke-width:39.3701; stroke-opacity:1; 
stroke-linecap:round; stroke-linejoin:round;">
</g>
<g style="fill:#000000; fill-opacity:0.0; 
stroke:#000000; stroke-width:59.0551; stroke-opacity:1; 
stroke-linecap:round; stroke-linejoin:round;">
<path d="M3937 43307
L4724 43307
" />
</g>
<g style="fill:#000000; fill-opacity:0.0; 
stroke:#000000; stroke-width:39.3701; stroke-opacity:1; 
stroke-linecap:round; stroke-linejoin:round;">
</g>
<g style="fill:#000000; fill-opacity:0.0; 
stroke:#000000; stroke-width:59.0551; stroke-opacity:1; 
stroke-linecap:round; stroke-linejoin:round;">
<path d="M3937 62992
L4724 62992
" />
</g>
<g style="fill:#000000; fill-opacity:0.0; 
stroke:#000000; stroke-width:39.3701; stroke-opacity:1; 
stroke-linecap:round; stroke-linejoin:round;">
</g>
<g style="fill:#000000; fill-opacity:0.0; 
stroke:#000000; stroke-width:59.0551; stroke-opacity:1; 
stroke-linecap:round; stroke-linejoin:round;">
<path d="M4208 13864
L4452 13864
" />
<path d="M4160 14011
L4330 13499
L4501 14011
" />
</g>
<g style="fill:#000000; fill-opacity:0.0; 
stroke:#000000; stroke-width:39.3701; stroke-opacity:1; 
stroke-linecap:round; stroke-linejoin:round;">
</g>
<g style="fill:#000000; fill-opacity:0.0; 
stroke:#000000; stroke-width:59.0551; stroke-opacity:1; 
stroke-linecap:round; stroke-linejoin:round;">
<path d="M4367 33428
L4440 33452
L4464 33476
L4489 33525
L4489 33598
L4464 33647
L4440 33671
L4391 33696
L4196 33696
L4196 33184
L4367 33184
L4416 33208
L4440 33233
L4464 33281
L4464 33330
L4440 33379
L4416 33403
L4367 33428
L4196 33428
" />
</g>
<g style="fill:#000000; fill-opacity:0.0; 
stroke:#000000; stroke-width:39.3701; stroke-opacity:1; 
stroke-linecap:round; stroke-linejoin:round;">
</g>
<g style="fill:#000000; fill-opacity:0.0; 
stroke:#000000; stroke-width:59.0551; stroke-opacity:1; 
stroke-linecap:round; stroke-linejoin:round;">
<path d="M4489 53332
L4464 53356
L4391 53381
L4342 53381
L4269 53356
L4221 53308
L4196 53259
L4172 53161
L4172 53088
L4196 52991
L4221 52942
L4269 52893
L4342 52869
L4391 52869
L4464 52893
L4489 52918
" />
</g>
<g style="fill:#000000; fill-opacity:0.0; 
stroke:#000000; stroke-width:39.3701; stroke-opacity:1; 
stroke-linecap:round; stroke-linejoin:round;">
</g>
<g style="fill:#000000; fill-opacity:0.0; 
stroke:#000000; stroke-width:59.0551; stroke-opacity:1; 
stroke-linecap:round; stroke-linejoin:round;">
<path d="M4196 73066
L4196 72554
L4318 72554
L4391 72578
L4440 72627
L4464 72676
L4489 72773
L4489 72846
L4464 72944
L4440 72993
L4391 73041
L4318 73066
L4196 73066
" />
</g>
<g style="fill:#000000; fill-opacity:0.0; 
stroke:#000000; stroke-width:39.3701; stroke-opacity:1; 
stroke-linecap:round; stroke-linejoin:round;">
</g>
<g style="fill:#000000; fill-opacity:0.0; 
stroke:#000000; stroke-width:59.0551; stroke-opacity:1; 
stroke-linecap:round; stroke-linejoin:round;">
<path d="M112992 23622
L112205 23622
" />
</g>
<g style="fill:#000000; fill-opacity:0.0; 
stroke:#000000; stroke-width:39.3701; stroke-opacity:1; 
stroke-linecap:round; stroke-linejoin:round;">
</g>
<g style="fill:#000000; fill-opacity:0.0; 
stroke:#000000; stroke-width:59.0551; stroke-opacity:1; 
stroke-linecap:round; stroke-linejoin:round;">
<path d="M112992 43307
L112205 43307
" />
</g>
<g style="fill:#000000; fill-opacity:0.0; 
stroke:#000000; stroke-width:39.3701; stroke-opacity:1; 
stroke-linecap:round; stroke-linejoin:round;">
</g>
<g style="fill:#000000; fill-opacity:0.0; 
stroke:#000000; stroke-width:59.0551; stroke-opacity:1; 
stroke-linecap:round; stroke-linejoin:round;">
<path d="M112992 62992
L112205 62992
" />
</g>
<g style="fill:#000000; fill-opacity:0.0; 
stroke:#000000; stroke-width:39.3701; stroke-opacity:1; 
stroke-linecap:round; stroke-linejoin:round;">
</g>
<g style="fill:#000000; fill-opacity:0.0; 
stroke:#000000; stroke-width:59.0551; stroke-opacity:1; 
stroke-linecap:round; stroke-linejoin:round;">
<path d="M112477 13864
L112721 13864
" />
<path d="M112428 14011
L112599 13499
L112769 14011
" />
</g>
<g style="fill:#000000; fill-opacity:0.0; 
stroke:#000000; stroke-width:39.3701; stroke-opacity:1; 
stroke-linecap:round; stroke-linejoin:round;">
</g>
<g style="fill:#000000; fill-opacity:0.0; 
stroke:#000000; stroke-width:59.0551; stroke-opacity:1; 
stroke-linecap:round; stroke-linejoin:round;">
<path d="M112635 33428
L112708 33452
L112733 33476
L112757 33525
L112757 33598
L112733 33647
L112708 33671
L112660 33696
L112465 33696
L112465 33184
L112635 33184
L112684 33208
L112708 33233
L112733 33281
L112733 33330
L112708 33379
L112684 33403
L112635 33428
L112465 33428
" />
</g>
<g style="fill:#000000; fill-opacity:0.0; 
stroke:#000000; stroke-width:39.3701; stroke-opacity:1; 
stroke-linecap:round; stroke-linejoin:round;">
</g>
<g style="fill:#000000; fill-opacity:0.0; 
stroke:#000000; stroke-width:59.0551; stroke-opacity:1; 
stroke-linecap:round; stroke-linejoin:round;">
<path d="M112757 53332
L112733 53356
L112660 53381
L112611 53381
L112538 53356
L112489 53308
L112465 53259
L112440 53161
L112440 53088
L112465 52991
L112489 52942
L112538 52893
L112611 52869
L112660 52869
L112733 52893
L112757 52918
" />
</g>
<g style="fill:#000000; fill-opacity:0.0; 
stroke:#000000; stroke-width:39.3701; stroke-opacity:1; 
stroke-linecap:round; stroke-linejoin:round;">
</g>
<g style="fill:#000000; fill-opacity:0.0; 
stroke:#000000; stroke-width:59.0551; stroke-opacity:1; 
stroke-linecap:round; stroke-linejoin:round;">
<path d="M112465 73066
L112465 72554
L112587 72554
L112660 72578
L112708 72627
L112733 72676
L112757 72773
L112757 72846
L112733 72944
L112708 72993
L112660 73041
L112587 73066
L112465 73066
" />
</g>
<g style="fill:#000000; fill-opacity:0.0; 
stroke:#000000; stroke-width:39.3701; stroke-opacity:1; 
stroke-linecap:round; stroke-linejoin:round;">
</g>
<g style="fill:#000000; fill-opacity:0.0; 
stroke:#000000; stroke-width:59.0551; stroke-opacity:1; 
stroke-linecap:round; stroke-linejoin:round;">
<path d="M78881 76293
L78881 75703
L79022 75703
L79106 75731
L79162 75787
L79190 75843
L79219 75956
L79219 76040
L79190 76153
L79162 76209
L79106 76265
L79022 76293
L78881 76293
" />
<path d="M79725 76293
L79725 75984
L79697 75928
L79640 75899
L79528 75899
L79472 75928
" />
<path d="M79725 76265
L79669 76293
L79528 76293
L79472 76265
L79444 76209
L79444 76153
L79472 76096
L79528 76068
L79669 76068
L79725 76040
" />
<path d="M79922 75899
L80147 75899
" />
<path d="M80006 75703
L80006 76209
L80034 76265
L80090 76293
L80147 76293
" />
<path d="M80568 76265
L80512 76293
L80400 76293
L80343 76265
L80315 76209
L80315 75984
L80343 75928
L80400 75899
L80512 75899
L80568 75928
L80597 75984
L80597 76040
L80315 76096
" />
<path d="M80850 76237
L80878 76265
L80850 76293
L80822 76265
L80850 76237
L80850 76293
" />
<path d="M80850 75928
L80878 75956
L80850 75984
L80822 75956
L80850 75928
L80850 75984
" />
</g>
<g style="fill:#000000; fill-opacity:0.0; 
stroke:#000000; stroke-width:39.3701; stroke-opacity:1; 
stroke-linecap:round; stroke-linejoin:round;">
</g>
<g style="fill:#000000; fill-opacity:0.0; 
stroke:#000000; stroke-width:59.0551; stroke-opacity:1; 
stroke-linecap:round; stroke-linejoin:round;">
<path d="M69685 76577
L112205 76577
" />
</g>
<g style="fill:#000000; fill-opacity:0.0; 
stroke:#000000; stroke-width:39.3701; stroke-opacity:1; 
stroke-linecap:round; stroke-linejoin:round;">
</g>
<g style="fill:#000000; fill-opacity:0.0; 
stroke:#000000; stroke-width:59.0551; stroke-opacity:1; 
stroke-linecap:round; stroke-linejoin:round;">
<path d="M70220 77395
L70220 76805
" />
<path d="M70557 77395
L70304 77058
" />
<path d="M70557 76805
L70220 77142
" />
<path d="M70810 77395
L70810 77002
" />
<path d="M70810 76805
L70782 76833
L70810 76861
L70838 76833
L70810 76805
L70810 76861
" />
<path d="M71429 77339
L71401 77367
L71316 77395
L71260 77395
L71176 77367
L71120 77311
L71091 77255
L71063 77142
L71063 77058
L71091 76946
L71120 76889
L71176 76833
L71260 76805
L71316 76805
L71401 76833
L71429 76861
" />
<path d="M71935 77395
L71935 77086
L71907 77030
L71851 77002
L71738 77002
L71682 77030
" />
<path d="M71935 77367
L71879 77395
L71738 77395
L71682 77367
L71654 77311
L71654 77255
L71682 77199
L71738 77171
L71879 77171
L71935 77142
" />
<path d="M72469 77395
L72469 76805
" />
<path d="M72469 77367
L72413 77395
L72301 77395
L72244 77367
L72216 77339
L72188 77283
L72188 77114
L72216 77058
L72244 77030
L72301 77002
L72413 77002
L72469 77030
" />
<path d="M73201 77086
L73397 77086
" />
<path d="M73482 77395
L73201 77395
L73201 76805
L73482 76805
" />
<path d="M73735 77339
L73763 77367
L73735 77395
L73707 77367
L73735 77339
L73735 77395
" />
<path d="M74016 77395
L74016 76805
L74157 76805
L74241 76833
L74297 76889
L74325 76946
L74354 77058
L74354 77142
L74325 77255
L74297 77311
L74241 77367
L74157 77395
L74016 77395
" />
<path d="M74607 77339
L74635 77367
L74607 77395
L74579 77367
L74607 77339
L74607 77395
" />
<path d="M74860 77227
L75141 77227
" />
<path d="M74804 77395
L75000 76805
L75197 77395
" />
<path d="M75394 77339
L75422 77367
L75394 77395
L75366 77367
L75394 77339
L75394 77395
" />
<path d="M76575 77395
L76575 76805
" />
<path d="M76631 77171
L76800 77395
" />
<path d="M76800 77002
L76575 77227
" />
<path d="M77053 77395
L77053 77002
" />
<path d="M77053 76805
L77025 76833
L77053 76861
L77081 76833
L77053 76805
L77053 76861
" />
<path d="M77588 77367
L77531 77395
L77419 77395
L77363 77367
L77334 77339
L77306 77283
L77306 77114
L77334 77058
L77363 77030
L77419 77002
L77531 77002
L77588 77030
" />
<path d="M78094 77395
L78094 77086
L78066 77030
L78009 77002
L77897 77002
L77841 77030
" />
<path d="M78094 77367
L78037 77395
L77897 77395
L77841 77367
L77813 77311
L77813 77255
L77841 77199
L77897 77171
L78037 77171
L78094 77142
" />
<path d="M78628 77395
L78628 76805
" />
<path d="M78628 77367
L78572 77395
L78459 77395
L78403 77367
L78375 77339
L78347 77283
L78347 77114
L78375 77058
L78403 77030
L78459 77002
L78572 77002
L78628 77030
" />
<path d="M79612 77002
L79612 77395
" />
<path d="M79472 76777
L79331 77199
L79697 77199
" />
<path d="M79922 77339
L79950 77367
L79922 77395
L79894 77367
L79922 77339
L79922 77395
" />
<path d="M80315 76805
L80372 76805
L80428 76833
L80456 76861
L80484 76917
L80512 77030
L80512 77171
L80484 77283
L80456 77339
L80428 77367
L80372 77395
L80315 77395
L80259 77367
L80231 77339
L80203 77283
L80175 77171
L80175 77030
L80203 76917
L80231 76861
L80259 76833
L80315 76805
" />
<path d="M80765 77339
L80793 77367
L80765 77395
L80737 77367
L80765 77339
L80765 77395
" />
<path d="M81300 77002
L81300 77395
" />
<path d="M81159 76777
L81018 77199
L81384 77199
" />
<path d="M81609 77171
L82059 77171
" />
<path d="M81834 77395
L81834 76946
" />
<path d="M82565 77367
L82509 77395
L82396 77395
L82340 77367
L82312 77311
L82312 77086
L82340 77030
L82396 77002
L82509 77002
L82565 77030
L82593 77086
L82593 77142
L82312 77199
" />
<path d="M83156 77395
L82818 77395
" />
<path d="M82987 77395
L82987 76805
L82931 76889
L82874 76946
L82818 76974
" />
<path d="M83409 77171
L83859 77171
" />
<path d="M84393 76805
L84280 76805
L84224 76833
L84196 76861
L84140 76946
L84112 77058
L84112 77283
L84140 77339
L84168 77367
L84224 77395
L84337 77395
L84393 77367
L84421 77339
L84449 77283
L84449 77142
L84421 77086
L84393 77058
L84337 77030
L84224 77030
L84168 77058
L84140 77086
L84112 77142
" />
<path d="M84646 76805
L85012 76805
L84815 77030
L84899 77030
L84955 77058
L84983 77086
L85012 77142
L85012 77283
L84983 77339
L84955 77367
L84899 77395
L84730 77395
L84674 77367
L84646 77339
" />
<path d="M85377 76805
L85433 76805
L85490 76833
L85518 76861
L85546 76917
L85574 77030
L85574 77171
L85546 77283
L85518 77339
L85490 77367
L85433 77395
L85377 77395
L85321 77367
L85293 77339
L85265 77283
L85237 77171
L85237 77030
L85265 76917
L85293 76861
L85321 76833
L85377 76805
" />
<path d="M85912 77058
L85855 77030
L85827 77002
L85799 76946
L85799 76917
L85827 76861
L85855 76833
L85912 76805
L86024 76805
L86080 76833
L86108 76861
L86136 76917
L86136 76946
L86108 77002
L86080 77030
L86024 77058
L85912 77058
L85855 77086
L85827 77114
L85799 77171
L85799 77283
L85827 77339
L85855 77367
L85912 77395
L86024 77395
L86080 77367
L86108 77339
L86136 77283
L86136 77171
L86108 77114
L86080 77086
L86024 77058
" />
<path d="M86643 77002
L86643 77395
" />
<path d="M86502 76777
L86361 77199
L86727 77199
" />
<path d="M87036 77058
L86980 77030
L86952 77002
L86924 76946
L86924 76917
L86952 76861
L86980 76833
L87036 76805
L87149 76805
L87205 76833
L87233 76861
L87261 76917
L87261 76946
L87233 77002
L87205 77030
L87149 77058
L87036 77058
L86980 77086
L86952 77114
L86924 77171
L86924 77283
L86952 77339
L86980 77367
L87036 77395
L87149 77395
L87205 77367
L87233 77339
L87261 77283
L87261 77171
L87233 77114
L87205 77086
L87149 77058
" />
<path d="M86249 76703
L87374 76703
" />
<path d="M87768 77002
L87768 77395
" />
<path d="M87514 77002
L87514 77311
L87543 77367
L87599 77395
L87683 77395
L87739 77367
L87768 77339
" />
<path d="M88049 77395
L88049 76805
" />
<path d="M88049 77030
L88105 77002
L88217 77002
L88274 77030
L88302 77058
L88330 77114
L88330 77283
L88302 77339
L88274 77367
L88217 77395
L88105 77395
L88049 77367
" />
<path d="M88836 77002
L88836 77395
" />
<path d="M88583 77002
L88583 77311
L88611 77367
L88667 77395
L88752 77395
L88808 77367
L88836 77339
" />
<path d="M89117 77002
L89117 77395
" />
<path d="M89117 77058
L89145 77030
L89202 77002
L89286 77002
L89342 77030
L89370 77086
L89370 77395
" />
<path d="M89567 77002
L89792 77002
" />
<path d="M89652 76805
L89652 77311
L89680 77367
L89736 77395
L89792 77395
" />
<path d="M90242 77002
L90242 77395
" />
<path d="M89989 77002
L89989 77311
L90017 77367
L90073 77395
L90158 77395
L90214 77367
L90242 77339
" />
<path d="M90833 77395
L90495 77395
" />
<path d="M90664 77395
L90664 76805
L90608 76889
L90552 76946
L90495 76974
" />
<path d="M91339 76805
L91226 76805
L91170 76833
L91142 76861
L91086 76946
L91058 77058
L91058 77283
L91086 77339
L91114 77367
L91170 77395
L91283 77395
L91339 77367
L91367 77339
L91395 77283
L91395 77142
L91367 77086
L91339 77058
L91283 77030
L91170 77030
L91114 77058
L91086 77086
L91058 77142
" />
<path d="M91648 77339
L91676 77367
L91648 77395
L91620 77367
L91648 77339
L91648 77395
" />
<path d="M92042 76805
L92098 76805
L92154 76833
L92183 76861
L92211 76917
L92239 77030
L92239 77171
L92211 77283
L92183 77339
L92154 77367
L92098 77395
L92042 77395
L91986 77367
L91958 77339
L91929 77283
L91901 77171
L91901 77030
L91929 76917
L91958 76861
L91986 76833
L92042 76805
" />
<path d="M92745 77002
L92745 77395
" />
<path d="M92604 76777
L92464 77199
L92829 77199
" />
<path d="M93054 77339
L93082 77367
L93054 77395
L93026 77367
L93054 77339
L93054 77395
" />
<path d="M93645 77395
L93307 77395
" />
<path d="M93476 77395
L93476 76805
L93420 76889
L93364 76946
L93307 76974
" />
<path d="M93898 77171
L94348 77171
" />
<path d="M94601 77367
L94657 77395
L94770 77395
L94826 77367
L94854 77311
L94854 77283
L94826 77227
L94770 77199
L94685 77199
L94629 77171
L94601 77114
L94601 77086
L94629 77030
L94685 77002
L94770 77002
L94826 77030
" />
<path d="M95023 77002
L95248 77002
" />
<path d="M95107 76805
L95107 77311
L95135 77367
L95192 77395
L95248 77395
" />
<path d="M95698 77395
L95698 77086
L95670 77030
L95613 77002
L95501 77002
L95445 77030
" />
<path d="M95698 77367
L95642 77395
L95501 77395
L95445 77367
L95417 77311
L95417 77255
L95445 77199
L95501 77171
L95642 77171
L95698 77142
" />
<path d="M95979 77395
L95979 76805
" />
<path d="M95979 77030
L96035 77002
L96148 77002
L96204 77030
L96232 77058
L96260 77114
L96260 77283
L96232 77339
L96204 77367
L96148 77395
L96035 77395
L95979 77367
" />
<path d="M96598 77395
L96541 77367
L96513 77311
L96513 76805
" />
<path d="M97048 77367
L96991 77395
L96879 77395
L96823 77367
L96795 77311
L96795 77086
L96823 77030
L96879 77002
L96991 77002
L97048 77030
L97076 77086
L97076 77142
L96795 77199
" />
</g>
<g style="fill:#000000; fill-opacity:0.0; 
stroke:#000000; stroke-width:39.3701; stroke-opacity:1; 
stroke-linecap:round; stroke-linejoin:round;">
</g>
<g style="fill:#000000; fill-opacity:0.0; 
stroke:#000000; stroke-width:59.0551; stroke-opacity:1; 
stroke-linecap:round; stroke-linejoin:round;">
<path d="M69685 75396
L112205 75396
" />
</g>
<g style="fill:#000000; fill-opacity:0.0; 
stroke:#000000; stroke-width:39.3701; stroke-opacity:1; 
stroke-linecap:round; stroke-linejoin:round;">
</g>
<g style="fill:#000000; fill-opacity:0.0; 
stroke:#000000; stroke-width:118.11; stroke-opacity:1; 
stroke-linecap:round; stroke-linejoin:round;">
<path d="M104022 76293
L103825 76012
" />
<path d="M103684 76293
L103684 75703
L103909 75703
L103965 75731
L103994 75759
L104022 75815
L104022 75899
L103994 75956
L103965 75984
L103909 76012
L103684 76012
" />
<path d="M104500 76265
L104444 76293
L104331 76293
L104275 76265
L104247 76209
L104247 75984
L104275 75928
L104331 75899
L104444 75899
L104500 75928
L104528 75984
L104528 76040
L104247 76096
" />
<path d="M104725 75899
L104865 76293
L105006 75899
" />
<path d="M105231 76237
L105259 76265
L105231 76293
L105203 76265
L105231 76237
L105231 76293
" />
<path d="M105231 75928
L105259 75956
L105231 75984
L105203 75956
L105231 75928
L105231 75984
" />
</g>
<g style="fill:#000000; fill-opacity:0.0; 
stroke:#000000; stroke-width:39.3701; stroke-opacity:1; 
stroke-linecap:round; stroke-linejoin:round;">
</g>
<g style="fill:#000000; fill-opacity:0.0; 
stroke:#000000; stroke-width:59.0551; stroke-opacity:1; 
stroke-linecap:round; stroke-linejoin:round;">
<path d="M70192 76265
L70276 76293
L70417 76293
L70473 76265
L70501 76237
L70529 76181
L70529 76124
L70501 76068
L70473 76040
L70417 76012
L70304 75984
L70248 75956
L70220 75928
L70192 75871
L70192 75815
L70220 75759
L70248 75731
L70304 75703
L70445 75703
L70529 75731
" />
<path d="M70782 76293
L70782 75899
" />
<path d="M70782 75703
L70754 75731
L70782 75759
L70810 75731
L70782 75703
L70782 75759
" />
<path d="M71007 75899
L71316 75899
L71007 76293
L71316 76293
" />
<path d="M71766 76265
L71710 76293
L71598 76293
L71541 76265
L71513 76209
L71513 75984
L71541 75928
L71598 75899
L71710 75899
L71766 75928
L71795 75984
L71795 76040
L71513 76096
" />
<path d="M72048 76237
L72076 76265
L72048 76293
L72019 76265
L72048 76237
L72048 76293
" />
<path d="M72048 75928
L72076 75956
L72048 75984
L72019 75956
L72048 75928
L72048 75984
" />
<path d="M72751 76124
L73032 76124
" />
<path d="M72694 76293
L72891 75703
L73088 76293
" />
<path d="M73538 75899
L73538 76293
" />
<path d="M73397 75674
L73257 76096
L73622 76096
" />
</g>
<g style="fill:#000000; fill-opacity:0.0; 
stroke:#000000; stroke-width:39.3701; stroke-opacity:1; 
stroke-linecap:round; stroke-linejoin:round;">
</g>
<g style="fill:#000000; fill-opacity:0.0; 
stroke:#000000; stroke-width:59.0551; stroke-opacity:1; 
stroke-linecap:round; stroke-linejoin:round;">
<path d="M103684 77395
L103684 76805
" />
<path d="M104219 77395
L104219 76805
" />
<path d="M104219 77367
L104162 77395
L104050 77395
L103994 77367
L103965 77339
L103937 77283
L103937 77114
L103965 77058
L103994 77030
L104050 77002
L104162 77002
L104219 77030
" />
<path d="M104500 77339
L104528 77367
L104500 77395
L104472 77367
L104500 77339
L104500 77395
" />
<path d="M104500 77030
L104528 77058
L104500 77086
L104472 77058
L104500 77030
L104500 77086
" />
<path d="M105540 77395
L105203 77395
" />
<path d="M105372 77395
L105372 76805
L105315 76889
L105259 76946
L105203 76974
" />
<path d="M106215 76777
L105709 77536
" />
<path d="M106721 77395
L106384 77395
" />
<path d="M106553 77395
L106553 76805
L106496 76889
L106440 76946
L106384 76974
" />
</g>
<g style="fill:#000000; fill-opacity:0.0; 
stroke:#000000; stroke-width:39.3701; stroke-opacity:1; 
stroke-linecap:round; stroke-linejoin:round;">
</g>
<g style="fill:#000000; fill-opacity:0.0; 
stroke:#000000; stroke-width:59.0551; stroke-opacity:1; 
stroke-linecap:round; stroke-linejoin:round;">
<path d="M69685 73821
L112205 73821
" />
</g>
<g style="fill:#000000; fill-opacity:0.0; 
stroke:#000000; stroke-width:39.3701; stroke-opacity:1; 
stroke-linecap:round; stroke-linejoin:round;">
</g>
<g style="fill:#000000; fill-opacity:0.0; 
stroke:#000000; stroke-width:157.48; stroke-opacity:1; 
stroke-linecap:round; stroke-linejoin:round;">
<path d="M70257 74099
L70707 74099
" />
<path d="M70384 74886
L70482 74099
" />
<path d="M70871 74886
L70937 74361
" />
<path d="M70970 74099
L70927 74136
L70960 74174
L71002 74136
L70970 74099
L70960 74174
" />
<path d="M71199 74361
L71499 74361
" />
<path d="M71345 74099
L71260 74774
L71288 74849
L71359 74886
L71434 74886
" />
<path d="M71809 74886
L71738 74849
L71710 74774
L71795 74099
" />
<path d="M72413 74849
L72334 74886
L72184 74886
L72113 74849
L72085 74774
L72123 74474
L72169 74399
L72249 74361
L72399 74361
L72469 74399
L72498 74474
L72488 74549
L72104 74624
" />
<path d="M72793 74811
L72826 74849
L72783 74886
L72751 74849
L72793 74811
L72783 74886
" />
<path d="M72844 74399
L72877 74436
L72835 74474
L72802 74436
L72844 74399
L72835 74474
" />
</g>
<g style="fill:#000000; fill-opacity:0.0; 
stroke:#000000; stroke-width:39.3701; stroke-opacity:1; 
stroke-linecap:round; stroke-linejoin:round;">
</g>
<g style="fill:#000000; fill-opacity:0.0; 
stroke:#000000; stroke-width:59.0551; stroke-opacity:1; 
stroke-linecap:round; stroke-linejoin:round;">
<path d="M70417 73070
L70220 73070
" />
<path d="M70220 73380
L70220 72789
L70501 72789
" />
<path d="M70726 73380
L70726 72986
" />
<path d="M70726 72789
L70698 72817
L70726 72845
L70754 72817
L70726 72789
L70726 72845
" />
<path d="M71091 73380
L71035 73352
L71007 73295
L71007 72789
" />
<path d="M71541 73352
L71485 73380
L71373 73380
L71316 73352
L71288 73295
L71288 73070
L71316 73014
L71373 72986
L71485 72986
L71541 73014
L71570 73070
L71570 73127
L71288 73183
" />
<path d="M71823 73323
L71851 73352
L71823 73380
L71795 73352
L71823 73323
L71823 73380
" />
<path d="M71823 73014
L71851 73042
L71823 73070
L71795 73042
L71823 73014
L71823 73070
" />
<path d="M72526 73211
L72807 73211
" />
<path d="M72469 73380
L72666 72789
L72863 73380
" />
<path d="M73397 73380
L73201 73099
" />
<path d="M73060 73380
L73060 72789
L73285 72789
L73341 72817
L73369 72845
L73397 72902
L73397 72986
L73369 73042
L73341 73070
L73285 73099
L73060 73099
" />
<path d="M73988 73323
L73960 73352
L73876 73380
L73819 73380
L73735 73352
L73679 73295
L73651 73239
L73622 73127
L73622 73042
L73651 72930
L73679 72874
L73735 72817
L73819 72789
L73876 72789
L73960 72817
L73988 72845
" />
<path d="M74241 72789
L74241 73267
L74269 73323
L74297 73352
L74354 73380
L74466 73380
L74522 73352
L74550 73323
L74579 73267
L74579 72789
" />
<path d="M75310 73380
L75310 72789
L75535 72789
L75591 72817
L75619 72845
L75647 72902
L75647 72986
L75619 73042
L75591 73070
L75535 73099
L75310 73099
" />
<path d="M76238 73323
L76210 73352
L76125 73380
L76069 73380
L75985 73352
L75928 73295
L75900 73239
L75872 73127
L75872 73042
L75900 72930
L75928 72874
L75985 72817
L76069 72789
L76125 72789
L76210 72817
L76238 72845
" />
<path d="M76688 73070
L76772 73099
L76800 73127
L76828 73183
L76828 73267
L76800 73323
L76772 73352
L76716 73380
L76491 73380
L76491 72789
L76688 72789
L76744 72817
L76772 72845
L76800 72902
L76800 72958
L76772 73014
L76744 73042
L76688 73070
L76491 73070
" />
<path d="M77869 73380
L77672 73099
" />
<path d="M77531 73380
L77531 72789
L77756 72789
L77813 72817
L77841 72845
L77869 72902
L77869 72986
L77841 73042
L77813 73070
L77756 73099
L77531 73099
" />
<path d="M78122 73070
L78319 73070
" />
<path d="M78403 73380
L78122 73380
L78122 72789
L78403 72789
" />
<path d="M78572 72789
L78769 73380
L78965 72789
" />
<path d="M79809 73070
L79894 73099
L79922 73127
L79950 73183
L79950 73267
L79922 73323
L79894 73352
L79837 73380
L79612 73380
L79612 72789
L79809 72789
L79865 72817
L79894 72845
L79922 72902
L79922 72958
L79894 73014
L79865 73042
L79809 73070
L79612 73070
" />
<path d="M80203 73323
L80231 73352
L80203 73380
L80175 73352
L80203 73323
L80203 73380
" />
<path d="M80484 73380
L80484 72789
" />
<path d="M80540 73155
L80709 73380
" />
<path d="M80709 72986
L80484 73211
" />
<path d="M80962 73380
L80962 72986
" />
<path d="M80962 72789
L80934 72817
L80962 72845
L80990 72817
L80962 72789
L80962 72845
" />
<path d="M81496 73352
L81440 73380
L81328 73380
L81271 73352
L81243 73323
L81215 73267
L81215 73099
L81243 73042
L81271 73014
L81328 72986
L81440 72986
L81496 73014
" />
<path d="M82003 73380
L82003 73070
L81974 73014
L81918 72986
L81806 72986
L81750 73014
" />
<path d="M82003 73352
L81946 73380
L81806 73380
L81750 73352
L81721 73295
L81721 73239
L81750 73183
L81806 73155
L81946 73155
L82003 73127
" />
<path d="M82537 73380
L82537 72789
" />
<path d="M82537 73352
L82481 73380
L82368 73380
L82312 73352
L82284 73323
L82256 73267
L82256 73099
L82284 73042
L82312 73014
L82368 72986
L82481 72986
L82537 73014
" />
<path d="M82678 73436
L83127 73436
" />
<path d="M83268 72986
L83268 73577
" />
<path d="M83268 73014
L83324 72986
L83437 72986
L83493 73014
L83521 73042
L83549 73099
L83549 73267
L83521 73323
L83493 73352
L83437 73380
L83324 73380
L83268 73352
" />
<path d="M84055 73352
L83999 73380
L83887 73380
L83831 73352
L83802 73323
L83774 73267
L83774 73099
L83802 73042
L83831 73014
L83887 72986
L83999 72986
L84055 73014
" />
<path d="M84309 73380
L84309 72789
" />
<path d="M84309 73014
L84365 72986
L84477 72986
L84534 73014
L84562 73042
L84590 73099
L84590 73267
L84562 73323
L84534 73352
L84477 73380
L84365 73380
L84309 73352
" />
</g>
<g style="fill:#000000; fill-opacity:0.0; 
stroke:#000000; stroke-width:39.3701; stroke-opacity:1; 
stroke-linecap:round; stroke-linejoin:round;">
</g>
<g style="fill:#000000; fill-opacity:0.0; 
stroke:#000000; stroke-width:59.0551; stroke-opacity:1; 
stroke-linecap:round; stroke-linejoin:round;">
<path d="M69685 71459
L112205 71459
" />
</g>
<g style="fill:#000000; fill-opacity:0.0; 
stroke:#000000; stroke-width:39.3701; stroke-opacity:1; 
stroke-linecap:round; stroke-linejoin:round;">
</g>
<g style="fill:#000000; fill-opacity:0.0; 
stroke:#000000; stroke-width:59.0551; stroke-opacity:1; 
stroke-linecap:round; stroke-linejoin:round;">
<path d="M70192 72289
L70276 72317
L70417 72317
L70473 72289
L70501 72260
L70529 72204
L70529 72148
L70501 72092
L70473 72064
L70417 72036
L70304 72007
L70248 71979
L70220 71951
L70192 71895
L70192 71839
L70220 71782
L70248 71754
L70304 71726
L70445 71726
L70529 71754
" />
<path d="M70782 72317
L70782 71726
" />
<path d="M71035 72317
L71035 72007
L71007 71951
L70951 71923
L70867 71923
L70810 71951
L70782 71979
" />
<path d="M71541 72289
L71485 72317
L71373 72317
L71316 72289
L71288 72232
L71288 72007
L71316 71951
L71373 71923
L71485 71923
L71541 71951
L71570 72007
L71570 72064
L71288 72120
" />
<path d="M72048 72289
L71991 72317
L71879 72317
L71823 72289
L71795 72232
L71795 72007
L71823 71951
L71879 71923
L71991 71923
L72048 71951
L72076 72007
L72076 72064
L71795 72120
" />
<path d="M72244 71923
L72469 71923
" />
<path d="M72329 71726
L72329 72232
L72357 72289
L72413 72317
L72469 72317
" />
<path d="M72666 72260
L72694 72289
L72666 72317
L72638 72289
L72666 72260
L72666 72317
" />
<path d="M72666 71951
L72694 71979
L72666 72007
L72638 71979
L72666 71951
L72666 72007
" />
</g>
<g style="fill:#000000; fill-opacity:0.0; 
stroke:#000000; stroke-width:39.3701; stroke-opacity:1; 
stroke-linecap:round; stroke-linejoin:round;">
</g>
<g style="fill:#000000; fill-opacity:0.0; 
stroke:#000000; stroke-width:59.0551; stroke-opacity:1; 
stroke-linecap:round; stroke-linejoin:round;">
<path d="M77559 75396
L77559 76577
" />
</g>
<g style="fill:#000000; fill-opacity:0.0; 
stroke:#000000; stroke-width:39.3701; stroke-opacity:1; 
stroke-linecap:round; stroke-linejoin:round;">
</g>
<g style="fill:#000000; fill-opacity:0.0; 
stroke:#000000; stroke-width:59.0551; stroke-opacity:1; 
stroke-linecap:round; stroke-linejoin:round;">
<path d="M102756 75396
L102756 77955
" />
</g>
<g style="fill:#C2C200; fill-opacity:0.0; 
stroke:#C2C200; stroke-width:59.0551; stroke-opacity:1; 
stroke-linecap:round; stroke-linejoin:round;">
</g>
<g style="fill:#C2C200; fill-opacity:0.0; 
stroke:#C2C200; stroke-width:39.3701; stroke-opacity:1; 
stroke-linecap:round; stroke-linejoin:round;">
<path d="M52000 47000
L63000 47000
" />
<path d="M63000 31000
L63000 47000
" />
<path d="M52000 31000
L52000 47000
" />
<path d="M52000 31000
L63000 31000
" />
</g>
<g style="fill:#840000; fill-opacity:0.0; 
stroke:#840000; stroke-width:39.3701; stroke-opacity:1; 
stroke-linecap:round; stroke-linejoin:round;">
</g>
<g style="fill:#840000; fill-opacity:1.0; 
stroke:#840000; stroke-width:0; stroke-opacity:1; 
stroke-linecap:round; stroke-linejoin:round;">
<circle cx="61400" cy="35700" r="1181.1" /> 
</g>
<g style="fill:#840000; fill-opacity:1.0; 
stroke:#840000; stroke-width:39.3701; stroke-opacity:1; 
stroke-linecap:round; stroke-linejoin:round;">
</g>
<g style="fill:#840000; fill-opacity:1.0; 
stroke:#840000; stroke-width:0; stroke-opacity:1; 
stroke-linecap:round; stroke-linejoin:round;">
<circle cx="61400" cy="32747.2" r="1181.1" /> 
</g>
<g style="fill:#840000; fill-opacity:1.0; 
stroke:#840000; stroke-width:39.3701; stroke-opacity:1; 
stroke-linecap:round; stroke-linejoin:round;">
</g>
<g style="fill:#008400; fill-opacity:1.0; 
stroke:#008400; stroke-width:39.3701; stroke-opacity:1; 
stroke-linecap:round; stroke-linejoin:round;">
</g>
<g style="fill:#008400; fill-opacity:1.0; 
stroke:#008400; stroke-width:0; stroke-opacity:1; 
stroke-linecap:round; stroke-linejoin:round;">
<polyline style="fill-rule:evenodd;"
points="53209,42346
53209,41853
53603,41853
53603,42346
53209,42346
" /> 
<polyline style="fill-rule:evenodd;"
points="53996,42346
53996,41853
54390,41853
54390,42346
53996,42346
" /> 
<polyline style="fill-rule:evenodd;"
points="55390,41053
55390,41546
54996,41546
54996,41053
55390,41053
" /> 
<polyline style="fill-rule:evenodd;"
points="54603,41053
54603,41546
54209,41546
54209,41053
54603,41053
" /> 
<polyline style="fill-rule:evenodd;"
points="52896,38040
52403,38040
52403,37646
52896,37646
52896,38040
" /> 
<polyline style="fill-rule:evenodd;"
points="52896,37253
52403,37253
52403,36859
52896,36859
52896,37253
" /> 
<polyline style="fill-rule:evenodd;"
points="54090,35353
54090,35846
53696,35846
53696,35353
54090,35353
" /> 
<polyline style="fill-rule:evenodd;"
points="53303,35353
53303,35846
52909,35846
52909,35353
53303,35353
" /> 
<polyline style="fill-rule:evenodd;"
points="55409,35046
55409,34553
55803,34553
55803,35046
55409,35046
" /> 
<polyline style="fill-rule:evenodd;"
points="56196,35046
56196,34553
56590,34553
56590,35046
56196,35046
" /> 
<polyline style="fill-rule:evenodd;"
points="57009,35046
57009,34553
57403,34553
57403,35046
57009,35046
" /> 
<polyline style="fill-rule:evenodd;"
points="57796,35046
57796,34553
58190,34553
58190,35046
57796,35046
" /> 
<polyline style="fill-rule:evenodd;"
points="57490,41303
57490,41796
57096,41796
57096,41303
57490,41303
" /> 
<polyline style="fill-rule:evenodd;"
points="56703,41303
56703,41796
56309,41796
56309,41303
56703,41303
" /> 
<polyline style="fill-rule:evenodd;"
points="57753,41359
58246,41359
58246,41753
57753,41753
57753,41359
" /> 
<polyline style="fill-rule:evenodd;"
points="57753,42146
58246,42146
58246,42540
57753,42540
57753,42146
" /> 
<polyline style="fill-rule:evenodd;"
points="58553,41359
59046,41359
59046,41753
58553,41753
58553,41359
" /> 
<polyline style="fill-rule:evenodd;"
points="58553,42146
59046,42146
59046,42540
58553,42540
58553,42146
" /> 
<polyline style="fill-rule:evenodd;"
points="61190,41203
61190,41696
60796,41696
60796,41203
61190,41203
" /> 
<polyline style="fill-rule:evenodd;"
points="60403,41203
60403,41696
60009,41696
60009,41203
60403,41203
" /> 
<polyline style="fill-rule:evenodd;"
points="60790,42003
60790,42496
60396,42496
60396,42003
60790,42003
" /> 
<polyline style="fill-rule:evenodd;"
points="60003,42003
60003,42496
59609,42496
59609,42003
60003,42003
" /> 
</g>
<g style="fill:#840000; fill-opacity:1.0; 
stroke:#840000; stroke-width:0; stroke-opacity:1; 
stroke-linecap:round; stroke-linejoin:round;">
<polyline style="fill-rule:evenodd;"
points="58600,32040
58600,31360
59400,31360
59400,32040
58600,32040
" /> 
</g>
<g style="fill:#840000; fill-opacity:1.0; 
stroke:#840000; stroke-width:680; stroke-opacity:1; 
stroke-linecap:round; stroke-linejoin:round;">
</g>
<g style="fill:#840000; fill-opacity:0.0; 
stroke:#840000; stroke-width:680; stroke-opacity:1; 
stroke-linecap:round; stroke-linejoin:round;">
<path d="M58940 32700
L59060 32700
" />
<path d="M58940 33700
L59060 33700
" />
</g>
<g style="fill:#008400; fill-opacity:0.0; 
stroke:#008400; stroke-width:680; stroke-opacity:1; 
stroke-linecap:round; stroke-linejoin:round;">
</g>
<g style="fill:#008400; fill-opacity:0.0; 
stroke:#008400; stroke-width:0; stroke-opacity:1; 
stroke-linecap:round; stroke-linejoin:round;">
</g>
<g style="fill:#008400; fill-opacity:1.0; 
stroke:#008400; stroke-width:0; stroke-opacity:1; 
stroke-linecap:round; stroke-linejoin:round;">
<polyline style="fill-rule:evenodd;"
points="59147,36140
59934,36140
59934,36416
59147,36416
59147,36140
" /> 
<polyline style="fill-rule:evenodd;"
points="59147,36573
59934,36573
59934,36849
59147,36849
59147,36573
" /> 
<polyline style="fill-rule:evenodd;"
points="59147,37006
59934,37006
59934,37282
59147,37282
59147,37006
" /> 
<polyline style="fill-rule:evenodd;"
points="59147,37439
59934,37439
59934,37715
59147,37715
59147,37439
" /> 
<polyline style="fill-rule:evenodd;"
points="59147,37872
59934,37872
59934,38148
59147,38148
59147,37872
" /> 
<polyline style="fill-rule:evenodd;"
points="59147,38305
59934,38305
59934,38581
59147,38581
59147,38305
" /> 
<polyline style="fill-rule:evenodd;"
points="59147,38738
59934,38738
59934,39014
59147,39014
59147,38738
" /> 
<polyline style="fill-rule:evenodd;"
points="59147,39172
59934,39172
59934,39447
59147,39447
59147,39172
" /> 
<polyline style="fill-rule:evenodd;"
points="58832,35254
59855,35254
59855,35648
58832,35648
58832,35254
" /> 
<polyline style="fill-rule:evenodd;"
points="58832,40412
59855,40412
59855,41002
58832,41002
58832,40412
" /> 
<polyline style="fill-rule:evenodd;"
points="52738,40355
52738,39844
53013,39844
53013,40355
52738,40355
" /> 
<polyline style="fill-rule:evenodd;"
points="53486,40355
53486,39844
53761,39844
53761,40355
53486,40355
" /> 
<polyline style="fill-rule:evenodd;"
points="62611,37844
62611,38355
62336,38355
62336,37844
62611,37844
" /> 
<polyline style="fill-rule:evenodd;"
points="61863,37844
61863,38355
61588,38355
61588,37844
61863,37844
" /> 
<polyline style="fill-rule:evenodd;"
points="61311,37844
61311,38355
61036,38355
61036,37844
61311,37844
" /> 
<polyline style="fill-rule:evenodd;"
points="60563,37844
60563,38355
60288,38355
60288,37844
60563,37844
" /> 
<polyline style="fill-rule:evenodd;"
points="59488,34555
59488,34044
59763,34044
59763,34555
59488,34555
" /> 
<polyline style="fill-rule:evenodd;"
points="60236,34555
60236,34044
60511,34044
60511,34555
60236,34555
" /> 
<polyline style="fill-rule:evenodd;"
points="54520,31300
54520,32100
53080,32100
53080,31300
54520,31300
" /> 
<polyline style="fill-rule:evenodd;"
points="54000,33900
54000,34700
53600,34700
53600,33900
54000,33900
" /> 
<polyline style="fill-rule:evenodd;"
points="53100,33900
53100,34700
52700,34700
52700,33900
53100,33900
" /> 
<polyline style="fill-rule:evenodd;"
points="54900,33900
54900,34700
54500,34700
54500,33900
54900,33900
" /> 
<polyline style="fill-rule:evenodd;"
points="58220,31840
58220,32060
57440,32060
57440,31840
58220,31840
" /> 
<polyline style="fill-rule:evenodd;"
points="58220,32340
58220,32560
57440,32560
57440,32340
58220,32340
" /> 
<polyline style="fill-rule:evenodd;"
points="58220,32840
58220,33060
57440,33060
57440,32840
58220,32840
" /> 
<polyline style="fill-rule:evenodd;"
points="58220,33340
58220,33560
57440,33560
57440,33340
58220,33340
" /> 
<polyline style="fill-rule:evenodd;"
points="56360,33340
56360,33560
55580,33560
55580,33340
56360,33340
" /> 
<polyline style="fill-rule:evenodd;"
points="56360,32840
56360,33060
55580,33060
55580,32840
56360,32840
" /> 
<polyline style="fill-rule:evenodd;"
points="56360,32340
56360,32560
55580,32560
55580,32340
56360,32340
" /> 
<polyline style="fill-rule:evenodd;"
points="56360,31840
56360,32060
55580,32060
55580,31840
56360,31840
" /> 
<polyline style="fill-rule:evenodd;"
points="52750,47000
52750,44000
53250,44000
53250,47000
52750,47000
" /> 
<polyline style="fill-rule:evenodd;"
points="53750,47000
53750,44000
54250,44000
54250,47000
53750,47000
" /> 
<polyline style="fill-rule:evenodd;"
points="54750,47000
54750,44000
55250,44000
55250,47000
54750,47000
" /> 
<polyline style="fill-rule:evenodd;"
points="55750,47000
55750,44000
56250,44000
56250,47000
55750,47000
" /> 
<polyline style="fill-rule:evenodd;"
points="56750,47000
56750,44000
57250,44000
57250,47000
56750,47000
" /> 
<polyline style="fill-rule:evenodd;"
points="57750,47000
57750,44000
58250,44000
58250,47000
57750,47000
" /> 
<polyline style="fill-rule:evenodd;"
points="58750,47000
58750,44000
59250,44000
59250,47000
58750,47000
" /> 
<polyline style="fill-rule:evenodd;"
points="59750,47000
59750,44000
60250,44000
60250,47000
59750,47000
" /> 
<polyline style="fill-rule:evenodd;"
points="60750,47000
60750,44000
61250,44000
61250,47000
60750,47000
" /> 
<polyline style="fill-rule:evenodd;"
points="61750,47000
61750,44000
62250,44000
62250,47000
61750,47000
" /> 
</g>
<g style="fill:#C2C2C2; fill-opacity:1.0; 
stroke:#C2C2C2; stroke-width:0; stroke-opacity:1; 
stroke-linecap:round; stroke-linejoin:round;">
<circle cx="52750" cy="42100" r="118.11" /> 
</g>
<g style="fill:#C2C2C2; fill-opacity:1.0; 
stroke:#C2C2C2; stroke-width:39.3701; stroke-opacity:1; 
stroke-linecap:round; stroke-linejoin:round;">
</g>
<g style="fill:#C2C2C2; fill-opacity:1.0; 
stroke:#C2C2C2; stroke-width:0; stroke-opacity:1; 
stroke-linecap:round; stroke-linejoin:round;">
<circle cx="55650" cy="41300" r="118.11" /> 
</g>
<g style="fill:#C2C2C2; fill-opacity:1.0; 
stroke:#C2C2C2; stroke-width:39.3701; stroke-opacity:1; 
stroke-linecap:round; stroke-linejoin:round;">
</g>
<g style="fill:#C2C2C2; fill-opacity:1.0; 
stroke:#C2C2C2; stroke-width:0; stroke-opacity:1; 
stroke-linecap:round; stroke-linejoin:round;">
<circle cx="53300" cy="37800" r="118.11" /> 
</g>
<g style="fill:#C2C2C2; fill-opacity:1.0; 
stroke:#C2C2C2; stroke-width:39.3701; stroke-opacity:1; 
stroke-linecap:round; stroke-linejoin:round;">
</g>
<g style="fill:#C2C2C2; fill-opacity:1.0; 
stroke:#C2C2C2; stroke-width:0; stroke-opacity:1; 
stroke-linecap:round; stroke-linejoin:round;">
<circle cx="53950" cy="36250" r="118.11" /> 
</g>
<g style="fill:#C2C2C2; fill-opacity:1.0; 
stroke:#C2C2C2; stroke-width:39.3701; stroke-opacity:1; 
stroke-linecap:round; stroke-linejoin:round;">
</g>
<g style="fill:#C2C2C2; fill-opacity:1.0; 
stroke:#C2C2C2; stroke-width:0; stroke-opacity:1; 
stroke-linecap:round; stroke-linejoin:round;">
<circle cx="58400" cy="41000" r="118.11" /> 
</g>
<g style="fill:#C2C2C2; fill-opacity:1.0; 
stroke:#C2C2C2; stroke-width:39.3701; stroke-opacity:1; 
stroke-linecap:round; stroke-linejoin:round;">
</g>
<g style="fill:#C2C2C2; fill-opacity:1.0; 
stroke:#C2C2C2; stroke-width:0; stroke-opacity:1; 
stroke-linecap:round; stroke-linejoin:round;">
<circle cx="59300" cy="43000" r="118.11" /> 
</g>
<g style="fill:#C2C2C2; fill-opacity:1.0; 
stroke:#C2C2C2; stroke-width:39.3701; stroke-opacity:1; 
stroke-linecap:round; stroke-linejoin:round;">
</g>
<g style="fill:#C2C2C2; fill-opacity:1.0; 
stroke:#C2C2C2; stroke-width:0; stroke-opacity:1; 
stroke-linecap:round; stroke-linejoin:round;">
<circle cx="60450" cy="43000" r="118.11" /> 
</g>
<g style="fill:#C2C2C2; fill-opacity:1.0; 
stroke:#C2C2C2; stroke-width:39.3701; stroke-opacity:1; 
stroke-linecap:round; stroke-linejoin:round;">
</g>
<g style="fill:#C2C2C2; fill-opacity:1.0; 
stroke:#C2C2C2; stroke-width:0; stroke-opacity:1; 
stroke-linecap:round; stroke-linejoin:round;">
<circle cx="57000" cy="32500" r="118.11" /> 
</g>
<g style="fill:#C2C2C2; fill-opacity:1.0; 
stroke:#C2C2C2; stroke-width:39.3701; stroke-opacity:1; 
stroke-linecap:round; stroke-linejoin:round;">
</g>
<g style="fill:#C2C2C2; fill-opacity:1.0; 
stroke:#C2C2C2; stroke-width:0; stroke-opacity:1; 
stroke-linecap:round; stroke-linejoin:round;">
<circle cx="60900" cy="40850" r="118.11" /> 
</g>
<g style="fill:#C2C2C2; fill-opacity:1.0; 
stroke:#C2C2C2; stroke-width:39.3701; stroke-opacity:1; 
stroke-linecap:round; stroke-linejoin:round;">
</g>
<g style="fill:#C2C2C2; fill-opacity:1.0; 
stroke:#C2C2C2; stroke-width:0; stroke-opacity:1; 
stroke-linecap:round; stroke-linejoin:round;">
<circle cx="56600" cy="39200" r="118.11" /> 
</g>
<g style="fill:#C2C2C2; fill-opacity:1.0; 
stroke:#C2C2C2; stroke-width:39.3701; stroke-opacity:1; 
stroke-linecap:round; stroke-linejoin:round;">
</g>
<g style="fill:#C2C2C2; fill-opacity:1.0; 
stroke:#C2C2C2; stroke-width:0; stroke-opacity:1; 
stroke-linecap:round; stroke-linejoin:round;">
<circle cx="57300" cy="41100" r="118.11" /> 
</g>
<g style="fill:#C2C2C2; fill-opacity:1.0; 
stroke:#C2C2C2; stroke-width:39.3701; stroke-opacity:1; 
stroke-linecap:round; stroke-linejoin:round;">
</g>
<g style="fill:#C2C2C2; fill-opacity:1.0; 
stroke:#C2C2C2; stroke-width:0; stroke-opacity:1; 
stroke-linecap:round; stroke-linejoin:round;">
<circle cx="60600" cy="40850" r="118.11" /> 
</g>
<g style="fill:#C2C2C2; fill-opacity:1.0; 
stroke:#C2C2C2; stroke-width:39.3701; stroke-opacity:1; 
stroke-linecap:round; stroke-linejoin:round;">
</g>
<g style="fill:#C2C2C2; fill-opacity:1.0; 
stroke:#C2C2C2; stroke-width:0; stroke-opacity:1; 
stroke-linecap:round; stroke-linejoin:round;">
<circle cx="54200" cy="38100" r="118.11" /> 
</g>
<g style="fill:#C2C2C2; fill-opacity:1.0; 
stroke:#C2C2C2; stroke-width:39.3701; stroke-opacity:1; 
stroke-linecap:round; stroke-linejoin:round;">
</g>
<g style="fill:#C2C2C2; fill-opacity:1.0; 
stroke:#C2C2C2; stroke-width:0; stroke-opacity:1; 
stroke-linecap:round; stroke-linejoin:round;">
<circle cx="54200" cy="37700" r="118.11" /> 
</g>
<g style="fill:#C2C2C2; fill-opacity:1.0; 
stroke:#C2C2C2; stroke-width:39.3701; stroke-opacity:1; 
stroke-linecap:round; stroke-linejoin:round;">
</g>
<g style="fill:#C2C2C2; fill-opacity:1.0; 
stroke:#C2C2C2; stroke-width:0; stroke-opacity:1; 
stroke-linecap:round; stroke-linejoin:round;">
<circle cx="53600" cy="39500" r="118.11" /> 
</g>
<g style="fill:#C2C2C2; fill-opacity:1.0; 
stroke:#C2C2C2; stroke-width:39.3701; stroke-opacity:1; 
stroke-linecap:round; stroke-linejoin:round;">
</g>
<g style="fill:#C2C2C2; fill-opacity:1.0; 
stroke:#C2C2C2; stroke-width:0; stroke-opacity:1; 
stroke-linecap:round; stroke-linejoin:round;">
<circle cx="54800" cy="37900" r="118.11" /> 
</g>
<g style="fill:#C2C2C2; fill-opacity:1.0; 
stroke:#C2C2C2; stroke-width:39.3701; stroke-opacity:1; 
stroke-linecap:round; stroke-linejoin:round;">
</g>
<g style="fill:#C2C2C2; fill-opacity:1.0; 
stroke:#C2C2C2; stroke-width:0; stroke-opacity:1; 
stroke-linecap:round; stroke-linejoin:round;">
<circle cx="58350" cy="33050" r="118.11" /> 
</g>
<g style="fill:#C2C2C2; fill-opacity:1.0; 
stroke:#C2C2C2; stroke-width:39.3701; stroke-opacity:1; 
stroke-linecap:round; stroke-linejoin:round;">
</g>
<g style="fill:#C2C2C2; fill-opacity:1.0; 
stroke:#C2C2C2; stroke-width:0; stroke-opacity:1; 
stroke-linecap:round; stroke-linejoin:round;">
<circle cx="53600" cy="37900" r="118.11" /> 
</g>
<g style="fill:#C2C2C2; fill-opacity:1.0; 
stroke:#C2C2C2; stroke-width:39.3701; stroke-opacity:1; 
stroke-linecap:round; stroke-linejoin:round;">
</g>
<g style="fill:#C2C2C2; fill-opacity:1.0; 
stroke:#C2C2C2; stroke-width:0; stroke-opacity:1; 
stroke-linecap:round; stroke-linejoin:round;">
<circle cx="57000" cy="31900" r="118.11" /> 
</g>
<g style="fill:#C2C2C2; fill-opacity:1.0; 
stroke:#C2C2C2; stroke-width:39.3701; stroke-opacity:1; 
stroke-linecap:round; stroke-linejoin:round;">
</g>
<g style="fill:#C2C2C2; fill-opacity:1.0; 
stroke:#C2C2C2; stroke-width:0; stroke-opacity:1; 
stroke-linecap:round; stroke-linejoin:round;">
<circle cx="55400" cy="32900" r="118.11" /> 
</g>
<g style="fill:#C2C2C2; fill-opacity:1.0; 
stroke:#C2C2C2; stroke-width:39.3701; stroke-opacity:1; 
stroke-linecap:round; stroke-linejoin:round;">
</g>
<g style="fill:#008400; fill-opacity:1.0; 
stroke:#008400; stroke-width:39.3701; stroke-opacity:1; 
stroke-linecap:round; stroke-linejoin:round;">
</g>
<g style="fill:#008400; fill-opacity:1.0; 
stroke:#008400; stroke-width:98.4252; stroke-opacity:1; 
stroke-linecap:round; stroke-linejoin:round;">
</g>
<g style="fill:#008400; fill-opacity:0.0; 
stroke:#008400; stroke-width:98.4252; stroke-opacity:1; 
stroke-linecap:round; stroke-linejoin:round;">
<path d="M59000 32700
L59000 32850
" />
<path d="M59000 32850
L58400 33450
" />
<path d="M55606 35106
L55606 34800
" />
<path d="M55750 35250
L55606 35106
" />
<path d="M57450 35250
L55750 35250
" />
<path d="M57600 35100
L57450 35250
" />
<path d="M57600 34500
L57600 35100
" />
<path d="M57750 34350
L57600 34500
" />
<path d="M58200 34350
L57750 34350
" />
<path d="M58400 34150
L58200 34350
" />
<path d="M58400 33450
L58400 34150
" />
<path d="M61400 32747
L62047 32747
" />
<path d="M62047 32747
L62800 33500
" />
<path d="M62800 37774
L62474 38100
" />
<path d="M62800 33500
L62800 37774
" />
</g>
<g style="fill:#008400; fill-opacity:0.0; 
stroke:#008400; stroke-width:787.402; stroke-opacity:1; 
stroke-linecap:round; stroke-linejoin:round;">
<path d="M59000 32700
L61352 32700
" />
<path d="M61352 32700
L61400 32747
" />
</g>
<g style="fill:#008400; fill-opacity:0.0; 
stroke:#008400; stroke-width:98.4252; stroke-opacity:1; 
stroke-linecap:round; stroke-linejoin:round;">
<path d="M55606 34800
L55400 34800
" />
<path d="M52900 34800
L52900 34300
" />
<path d="M53000 34900
L52900 34800
" />
<path d="M55300 34900
L53000 34900
" />
<path d="M55400 34800
L55300 34900
" />
<path d="M52750 42100
L53406 42100
" />
<path d="M55650 41300
L55193 41300
" />
<path d="M53256 37843
L52650 37843
" />
<path d="M53300 37800
L53256 37843
" />
<path d="M53893 36193
L53893 35600
" />
<path d="M53950 36250
L53893 36193
" />
<path d="M58400 41000
L58400 41550
" />
<path d="M58800 41850
L58800 41556
" />
<path d="M58900 41950
L58800 41850
" />
<path d="M59100 41950
L58900 41950
" />
<path d="M59250 42100
L59100 41950
" />
<path d="M59250 42950
L59250 42100
" />
<path d="M59300 43000
L59250 42950
" />
<path d="M58800 41400
L58800 41556
" />
<path d="M60993 41450
L60993 42456
" />
<path d="M60993 42456
L60450 43000
" />
<path d="M53800 34300
L53800 34000
" />
<path d="M53800 34000
L54100 33700
" />
<path d="M54100 33700
L54700 33700
" />
<path d="M54700 33700
L54800 33600
" />
<path d="M54800 33600
L54800 33300
" />
<path d="M54800 33300
L54900 33200
" />
<path d="M54900 33200
L55300 33200
" />
<path d="M55300 33200
L55400 33300
" />
<path d="M55400 33300
L55400 34200
" />
<path d="M55400 34200
L55700 34400
" />
<path d="M55700 34400
L57100 34400
" />
<path d="M57100 34400
L57206 34506
" />
<path d="M57206 34506
L57206 34800
" />
<path d="M57000 32500
L56950 32450
" />
<path d="M56950 32450
L55970 32450
" />
<path d="M58400 41550
L58793 41550
" />
<path d="M58793 41550
L58800 41556
" />
<path d="M58400 41550
L58393 41556
" />
<path d="M58393 41556
L58000 41556
" />
<path d="M60993 40943
L60993 41450
" />
<path d="M60900 40850
L60993 40943
" />
<path d="M59490 38060
L59760 38060
" />
<path d="M59760 38060
L60100 38400
" />
<path d="M60100 38400
L60100 39500
" />
<path d="M60100 39500
L59900 39700
" />
<path d="M59900 39700
L56800 39700
" />
<path d="M56800 39700
L56600 39500
" />
<path d="M56600 39500
L56600 39200
" />
<path d="M57300 41100
L57293 41106
" />
<path d="M57293 41106
L57293 41550
" />
<path d="M60593 40856
L60593 42250
" />
<path d="M60600 40850
L60593 40856
" />
<path d="M54593 38493
L54200 38100
" />
<path d="M59490 38493
L54593 38493
" />
<path d="M58872 37627
L59490 37627
" />
<path d="M58300 38200
L58872 37627
" />
<path d="M54700 38200
L58300 38200
" />
<path d="M54200 37700
L54700 38200
" />
<path d="M52875 39724
L52875 40100
" />
<path d="M53100 39500
L52875 39724
" />
<path d="M53600 39500
L53100 39500
" />
<path d="M58838 36761
L59490 36761
" />
<path d="M57700 37900
L58838 36761
" />
<path d="M54800 37900
L57700 37900
" />
<path d="M57830 32950
L58250 32950
" />
<path d="M58250 32950
L58350 33050
" />
<path d="M59000 33700
L59000 34200
" />
<path d="M59100 34300
L59625 34300
" />
<path d="M59000 34200
L59100 34300
" />
<path d="M54626 38926
L53600 37900
" />
<path d="M59490 38926
L54626 38926
" />
<path d="M61174 38100
L61725 38100
" />
<path d="M57350 32450
L57830 32450
" />
<path d="M57350 32450
L57000 32100
" />
<path d="M57000 32100
L57000 31900
" />
<path d="M55970 32950
L55450 32950
" />
<path d="M55400 32900
L55450 32950
" />
</g>
<g style="fill:#008400; fill-opacity:1.0; 
stroke:#008400; stroke-width:100; stroke-opacity:1; 
stroke-linecap:round; stroke-linejoin:round;">
<polyline style="fill-rule:evenodd;"
points="60186,33556
60454,33825
60424,33856
60424,34250
60699,34250
60761,34187
60761,34031
61114,34178
61683,34178
62209,33961
62500,33670
62500,34805
62422,34748
61470,35700
62422,36651
62500,36594
62500,37589
62336,37589
62243,37606
62158,37661
62101,37744
62100,37750
62046,37666
61962,37609
61863,37589
61588,37589
61495,37606
61449,37635
61410,37609
61311,37589
61036,37589
60943,37606
60858,37661
60801,37744
60798,37758
60775,37702
60705,37632
60613,37594
60538,37594
60475,37656
60475,38050
60483,38050
60483,38150
60475,38150
60475,38543
60538,38605
60613,38605
60705,38567
60775,38497
60797,38443
60798,38448
60853,38533
60937,38590
61036,38610
61311,38610
61404,38593
61450,38564
61489,38590
61588,38610
61863,38610
61956,38593
62041,38538
62098,38455
62099,38449
62153,38533
62237,38590
62336,38610
62611,38610
62704,38593
62730,38576
62730,43950
62495,43950
62487,43907
62432,43822
62349,43765
62250,43745
61750,43745
61657,43762
61572,43817
61515,43900
61505,43950
61495,43950
61487,43907
61432,43822
61349,43765
61250,43745
60750,43745
60657,43762
60572,43817
60515,43900
60505,43950
60495,43950
60487,43907
60432,43822
60349,43765
60250,43745
59750,43745
59657,43762
59572,43817
59515,43900
59505,43950
59495,43950
59487,43907
59432,43822
59349,43765
59250,43745
58750,43745
58657,43762
58572,43817
58515,43900
58505,43950
58495,43950
58487,43907
58432,43822
58349,43765
58250,43745
57750,43745
57657,43762
57572,43817
57515,43900
57505,43950
57495,43950
57487,43907
57432,43822
57349,43765
57250,43745
56750,43745
56657,43762
56572,43817
56515,43900
56505,43950
56495,43950
56487,43907
56432,43822
56349,43765
56250,43745
55750,43745
55657,43762
55572,43817
55515,43900
55505,43950
55495,43950
55487,43907
55432,43822
55349,43765
55250,43745
54750,43745
54657,43762
54572,43817
54515,43900
54505,43950
54495,43950
54487,43907
54432,43822
54349,43765
54250,43745
53750,43745
53657,43762
53572,43817
53515,43900
53505,43950
53499,43950
53461,43858
53391,43788
53299,43750
53112,43750
53050,43812
53050,43950
52950,43950
52950,43812
52887,43750
52700,43750
52608,43788
52538,43858
52500,43950
52269,43950
52269,42172
52381,42172
52437,42308
52541,42411
52676,42468
52822,42468
52958,42412
52965,42404
52971,42438
53026,42523
53110,42580
53209,42600
53603,42600
53695,42583
53780,42528
53799,42501
53855,42558
53947,42596
54081,42596
54143,42533
54143,42150
54243,42150
54243,42533
54306,42596
54440,42596
54532,42558
54602,42487
54615,42456
57503,42456
57503,42590
57541,42682
57612,42752
57704,42790
57887,42790
57950,42728
57950,42393
58050,42393
58050,42728
58112,42790
58295,42790
58387,42752
58400,42740
58412,42752
58504,42790
58687,42790
58750,42728
58750,42393
58050,42393
57950,42393
57566,42393
57503,42456
54615,42456
54640,42395
54640,42212
54578,42150
54243,42150
54143,42150
54135,42150
54135,42050
54143,42050
54143,42042
54243,42042
54243,42050
54578,42050
54640,41987
54640,41804
54637,41796
54652,41796
54744,41758
54800,41702
54814,41723
54897,41780
54996,41800
55390,41800
55483,41783
55568,41728
55609,41668
55722,41668
55736,41662
56059,41662
56059,41845
56097,41937
56167,42008
56259,42046
56393,42046
56456,41983
56456,41600
56121,41600
56059,41662
55736,41662
55858,41612
55961,41508
56018,41373
56018,41254
56059,41254
56059,41437
56121,41500
56456,41500
56456,41116
56556,41116
56556,41500
56564,41500
56564,41600
56556,41600
56556,41983
56618,42046
56752,42046
56844,42008
56900,41952
56914,41973
56997,42030
57096,42050
57490,42050
57525,42044
57503,42097
57503,42231
57566,42293
57950,42293
57950,42285
58050,42285
58050,42293
58750,42293
58750,42285
58850,42285
58850,42293
58857,42293
58857,42393
58850,42393
58850,42728
58912,42790
58950,42790
58950,42881
58931,42926
58931,43072
58987,43208
59091,43311
59226,43368
59372,43368
59508,43312
59611,43208
59668,43073
59668,42927
59612,42791
59566,42746
59693,42746
59756,42683
59756,42300
59748,42300
59748,42200
59756,42200
59756,42192
59856,42192
59856,42200
59864,42200
59864,42300
59856,42300
59856,42683
59918,42746
60052,42746
60144,42708
60200,42652
60214,42673
60238,42690
60138,42791
60081,42926
60081,43072
60137,43208
60241,43311
60376,43368
60522,43368
60658,43312
60761,43208
60818,43073
60818,43055
61205,42667
61270,42570
61292,42456
61292,41927
61368,41878
61425,41795
61445,41696
61445,41203
61428,41111
61373,41026
61292,40971
61292,40943
61270,40829
61268,40826
61268,40777
61212,40641
61108,40538
60973,40481
60827,40481
60749,40513
60673,40481
60527,40481
60391,40537
60288,40641
60231,40776
60231,40922
60266,41006
60256,41016
60256,41400
60264,41400
60264,41500
60256,41500
60256,41507
60156,41507
60156,41500
59821,41500
59759,41562
59759,41745
59762,41753
59756,41753
59756,41816
59693,41753
59559,41753
59467,41791
59416,41843
59311,41738
59300,41731
59300,41359
59283,41266
59277,41257
59759,41257
59759,41337
59821,41400
60156,41400
60156,41016
60110,40970
60110,40412
60093,40319
60038,40234
59955,40177
59855,40157
58832,40157
58739,40174
58654,40229
58597,40313
58577,40412
58577,40675
58473,40631
58327,40631
58191,40687
58088,40791
58031,40926
58031,41072
58044,41104
57753,41104
57668,41120
57668,41027
57612,40891
57508,40788
57373,40731
57227,40731
57091,40787
56988,40891
56931,41026
56931,41113
56919,41121
56900,41148
56844,41091
56752,41053
56618,41053
56556,41116
56456,41116
56393,41053
56259,41053
56167,41091
56097,41162
56059,41254
56018,41254
56018,41227
55962,41091
55858,40988
55723,40931
55609,40931
55573,40876
55489,40819
55390,40799
54996,40799
54904,40816
54819,40871
54800,40898
54744,40841
54652,40803
54518,40803
54456,40866
54456,41250
54464,41250
54464,41350
54456,41350
54456,41357
54356,41357
54356,41350
54021,41350
53959,41412
53959,41595
53962,41603
53947,41603
53855,41641
53799,41697
53785,41676
53702,41619
53603,41599
53209,41599
53116,41616
53031,41671
52974,41754
52966,41795
52958,41788
52823,41731
52677,41731
52541,41787
52438,41891
52381,42026
52381,42172
52269,42172
52269,41004
53959,41004
53959,41187
54021,41250
54356,41250
54356,40866
54293,40803
54159,40803
54067,40841
53997,40912
53959,41004
52269,41004
52269,39844
52483,39844
52483,40355
52500,40448
52555,40533
52639,40590
52738,40610
53013,40610
53106,40593
53191,40538
53248,40455
53249,40449
53303,40533
53387,40590
53486,40610
53761,40610
53854,40593
53939,40538
53996,40455
54016,40355
54016,39844
53999,39751
53944,39666
53932,39658
53968,39573
53968,39427
53912,39291
53808,39188
53673,39131
53527,39131
53391,39187
53378,39200
53100,39200
52985,39223
52888,39288
52664,39512
52599,39609
52593,39640
52560,39661
52503,39744
52483,39844
52269,39844
52269,38251
52304,38275
52403,38295
52896,38295
52988,38278
53073,38223
53128,38142
53165,38142
53226,38168
53347,38168
53391,38211
53526,38268
53544,38268
54415,39138
54512,39203
54626,39225
56231,39225
56231,39272
56287,39408
56300,39421
56300,39500
56323,39614
56388,39711
56588,39911
56685,39976
56800,39999
59900,39999
60014,39976
60111,39911
60311,39711
60319,39700
60376,39614
60399,39500
60399,38400
60376,38285
60375,38284
60375,38150
60368,38150
60368,38050
60375,38050
60375,37656
60313,37594
60238,37594
60189,37614
60189,37439
60174,37357
60184,37332
60184,37256
60122,37194
59982,37194
59934,37184
59147,37184
59096,37194
58959,37194
58897,37256
58897,37328
58872,37328
58757,37351
58660,37415
58176,37900
58122,37900
58944,37078
58959,37094
59099,37094
59147,37104
59934,37104
59985,37094
60122,37094
60184,37031
60184,36956
60173,36929
60189,36849
60189,36722
60448,36722
60583,36909
61108,37129
61677,37132
62204,36917
62216,36909
62351,36722
61400,35770
60448,36722
60189,36722
60189,36573
60174,36491
60175,36486
60182,36504
60190,36516
60377,36651
61329,35700
60424,34794
60424,34743
60486,34805
60561,34805
60572,34801
61400,35629
62351,34677
62216,34490
61691,34270
61122,34267
60761,34414
60761,34412
60699,34350
60424,34350
60424,34357
60324,34357
60324,34350
60316,34350
60316,34250
60324,34250
60324,33856
60261,33794
60186,33794
60094,33832
60024,33902
60002,33956
60001,33951
59946,33866
59862,33809
59763,33789
59644,33789
59662,33700
59617,33474
59530,33343
60097,33343
60186,33556
" /> 
<polyline style="fill-rule:evenodd;"
points="52825,31300
52825,32100
52842,32192
52897,32277
52980,32334
53080,32354
54520,32354
54612,32337
54697,32282
54754,32199
54774,32100
54774,31300
54769,31269
58363,31269
58345,31360
58345,31622
58319,31605
58220,31585
57440,31585
57347,31602
57271,31651
57208,31588
57073,31531
56927,31531
56791,31587
56688,31691
56631,31826
56631,31972
56687,32108
56706,32126
56710,32150
56596,32150
56614,32060
56614,31840
56597,31747
56542,31662
56459,31605
56360,31585
55580,31585
55487,31602
55402,31657
55345,31740
55325,31840
55325,32060
55342,32152
55373,32200
55345,32240
55325,32340
55325,32532
55191,32587
55088,32691
55031,32826
55031,32900
54900,32900
54785,32923
54688,32988
54588,33088
54523,33185
54500,33300
54500,33400
54132,33400
54073,33258
53953,33138
53796,33072
53626,33072
53469,33137
53349,33257
53283,33414
53283,33584
53348,33741
53382,33775
53365,33800
53350,33874
53337,33807
53282,33722
53199,33665
53100,33645
52700,33645
52607,33662
52522,33717
52465,33800
52445,33900
52445,34700
52462,34792
52517,34877
52600,34934
52642,34943
52688,35011
52788,35111
52808,35125
52767,35141
52697,35212
52659,35304
52659,35487
52721,35550
53056,35550
53056,35542
53156,35542
53156,35550
53164,35550
53164,35650
53156,35650
53156,36033
53218,36096
53352,36096
53444,36058
53500,36002
53514,36023
53594,36078
53594,36146
53581,36176
53581,36322
53637,36458
53741,36561
53876,36618
54022,36618
54158,36562
54261,36458
54318,36323
54318,36177
54262,36041
54256,36036
54268,36028
54325,35945
54345,35846
54345,35353
54328,35261
54288,35199
55210,35199
55226,35223
55310,35280
55379,35294
55394,35317
55538,35461
55635,35526
55750,35549
57450,35549
57564,35526
57661,35461
57811,35311
57821,35296
57881,35296
57943,35233
57943,34850
58043,34850
58043,35233
58106,35296
58240,35296
58332,35258
58402,35187
58440,35095
58440,34912
58378,34850
58043,34850
57943,34850
57935,34850
57935,34750
57943,34750
57943,34742
58043,34742
58043,34750
58378,34750
58440,34687
58440,34532
58611,34361
58641,34316
58676,34264
58682,34232
58701,34245
58710,34246
58723,34314
58788,34411
58888,34511
58985,34576
59100,34599
59241,34599
59250,34648
59305,34733
59389,34790
59488,34810
59763,34810
59856,34793
59941,34738
59998,34655
60001,34641
60024,34697
60094,34767
60186,34805
60261,34805
60324,34743
60324,34787
60190,34883
60081,35143
60038,35076
59955,35019
59855,34999
58832,34999
58739,35017
58654,35072
58597,35155
58577,35254
58577,35648
58594,35741
58649,35826
58733,35883
58832,35903
59054,35903
58969,35957
58912,36041
58892,36140
58892,36416
58901,36462
58838,36462
58724,36484
58627,36549
57576,37600
55021,37600
55008,37588
54873,37531
54727,37531
54591,37587
54563,37615
54512,37491
54408,37388
54273,37331
54127,37331
53991,37387
53888,37491
53836,37615
53808,37588
53673,37531
53552,37531
53508,37488
53373,37431
53227,37431
53091,37487
53091,37488
53078,37469
53051,37450
53108,37394
53146,37302
53146,37168
53083,37106
52700,37106
52700,37114
52600,37114
52600,37106
52592,37106
52592,37006
52600,37006
52600,36671
52700,36671
52700,37006
53083,37006
53146,36943
53146,36809
53108,36717
53037,36647
52945,36609
52762,36609
52700,36671
52600,36671
52537,36609
52354,36609
52269,36644
52269,35712
52659,35712
52659,35895
52697,35987
52767,36058
52859,36096
52993,36096
53056,36033
53056,35650
52721,35650
52659,35712
52269,35712
52269,31269
52831,31269
52825,31300
" /> 
<polyline style="fill-rule:evenodd;"
points="56443,34750
56451,34750
56451,34850
56443,34850
56443,34857
56343,34857
56343,34850
56335,34850
56335,34750
56343,34750
56343,34742
56443,34742
56443,34750
" /> 
<polyline style="fill-rule:evenodd;"
points="54750,34250
54757,34250
54757,34350
54750,34350
54750,34357
54650,34357
54650,34350
54642,34350
54642,34250
54650,34250
54650,34242
54750,34242
54750,34250
" /> 
<polyline style="fill-rule:evenodd;"
points="56791,32811
56926,32868
57072,32868
57189,32820
57185,32840
57185,33060
57202,33152
57230,33196
57228,33198
57190,33290
57190,33337
57252,33400
57780,33400
57780,33392
57880,33392
57880,33400
57887,33400
57887,33500
57880,33500
57880,33747
57942,33810
58100,33810
58100,34026
58076,34050
57750,34050
57635,34073
57538,34138
57400,34276
57311,34188
57214,34123
57100,34100
55790,34100
55699,34039
55699,33814
56360,33814
56452,33797
56537,33742
56594,33659
56614,33562
57190,33562
57190,33609
57228,33701
57298,33771
57390,33810
57717,33810
57780,33747
57780,33500
57252,33500
57190,33562
56614,33562
56614,33560
56614,33340
56597,33247
56566,33199
56594,33159
56614,33060
56614,32840
56597,32749
56728,32749
56791,32811
" /> 
</g>
<g style="fill:#FFFFFF; fill-opacity:1.0; 
stroke:#FFFFFF; stroke-width:100; stroke-opacity:1; 
stroke-linecap:round; stroke-linejoin:round;">
</g>
<g style="fill:#FFFFFF; fill-opacity:1.0; 
stroke:#FFFFFF; stroke-width:0; stroke-opacity:1; 
stroke-linecap:round; stroke-linejoin:round;">
<circle cx="52750" cy="42100" r="78.7402" /> 
</g>
<g style="fill:#FFFFFF; fill-opacity:1.0; 
stroke:#FFFFFF; stroke-width:39.3701; stroke-opacity:1; 
stroke-linecap:round; stroke-linejoin:round;">
</g>
<g style="fill:#FFFFFF; fill-opacity:1.0; 
stroke:#FFFFFF; stroke-width:0; stroke-opacity:1; 
stroke-linecap:round; stroke-linejoin:round;">
<circle cx="55650" cy="41300" r="78.7402" /> 
</g>
<g style="fill:#FFFFFF; fill-opacity:1.0; 
stroke:#FFFFFF; stroke-width:39.3701; stroke-opacity:1; 
stroke-linecap:round; stroke-linejoin:round;">
</g>
<g style="fill:#FFFFFF; fill-opacity:1.0; 
stroke:#FFFFFF; stroke-width:0; stroke-opacity:1; 
stroke-linecap:round; stroke-linejoin:round;">
<circle cx="53300" cy="37800" r="78.7402" /> 
</g>
<g style="fill:#FFFFFF; fill-opacity:1.0; 
stroke:#FFFFFF; stroke-width:39.3701; stroke-opacity:1; 
stroke-linecap:round; stroke-linejoin:round;">
</g>
<g style="fill:#FFFFFF; fill-opacity:1.0; 
stroke:#FFFFFF; stroke-width:0; stroke-opacity:1; 
stroke-linecap:round; stroke-linejoin:round;">
<circle cx="53950" cy="36250" r="78.7402" /> 
</g>
<g style="fill:#FFFFFF; fill-opacity:1.0; 
stroke:#FFFFFF; stroke-width:39.3701; stroke-opacity:1; 
stroke-linecap:round; stroke-linejoin:round;">
</g>
<g style="fill:#FFFFFF; fill-opacity:1.0; 
stroke:#FFFFFF; stroke-width:0; stroke-opacity:1; 
stroke-linecap:round; stroke-linejoin:round;">
<circle cx="58400" cy="41000" r="78.7402" /> 
</g>
<g style="fill:#FFFFFF; fill-opacity:1.0; 
stroke:#FFFFFF; stroke-width:39.3701; stroke-opacity:1; 
stroke-linecap:round; stroke-linejoin:round;">
</g>
<g style="fill:#FFFFFF; fill-opacity:1.0; 
stroke:#FFFFFF; stroke-width:0; stroke-opacity:1; 
stroke-linecap:round; stroke-linejoin:round;">
<circle cx="59300" cy="43000" r="78.7402" /> 
</g>
<g style="fill:#FFFFFF; fill-opacity:1.0; 
stroke:#FFFFFF; stroke-width:39.3701; stroke-opacity:1; 
stroke-linecap:round; stroke-linejoin:round;">
</g>
<g style="fill:#FFFFFF; fill-opacity:1.0; 
stroke:#FFFFFF; stroke-width:0; stroke-opacity:1; 
stroke-linecap:round; stroke-linejoin:round;">
<circle cx="60450" cy="43000" r="78.7402" /> 
</g>
<g style="fill:#FFFFFF; fill-opacity:1.0; 
stroke:#FFFFFF; stroke-width:39.3701; stroke-opacity:1; 
stroke-linecap:round; stroke-linejoin:round;">
</g>
<g style="fill:#FFFFFF; fill-opacity:1.0; 
stroke:#FFFFFF; stroke-width:0; stroke-opacity:1; 
stroke-linecap:round; stroke-linejoin:round;">
<circle cx="57000" cy="32500" r="78.7402" /> 
</g>
<g style="fill:#FFFFFF; fill-opacity:1.0; 
stroke:#FFFFFF; stroke-width:39.3701; stroke-opacity:1; 
stroke-linecap:round; stroke-linejoin:round;">
</g>
<g style="fill:#FFFFFF; fill-opacity:1.0; 
stroke:#FFFFFF; stroke-width:0; stroke-opacity:1; 
stroke-linecap:round; stroke-linejoin:round;">
<circle cx="60900" cy="40850" r="78.7402" /> 
</g>
<g style="fill:#FFFFFF; fill-opacity:1.0; 
stroke:#FFFFFF; stroke-width:39.3701; stroke-opacity:1; 
stroke-linecap:round; stroke-linejoin:round;">
</g>
<g style="fill:#FFFFFF; fill-opacity:1.0; 
stroke:#FFFFFF; stroke-width:0; stroke-opacity:1; 
stroke-linecap:round; stroke-linejoin:round;">
<circle cx="56600" cy="39200" r="78.7402" /> 
</g>
<g style="fill:#FFFFFF; fill-opacity:1.0; 
stroke:#FFFFFF; stroke-width:39.3701; stroke-opacity:1; 
stroke-linecap:round; stroke-linejoin:round;">
</g>
<g style="fill:#FFFFFF; fill-opacity:1.0; 
stroke:#FFFFFF; stroke-width:0; stroke-opacity:1; 
stroke-linecap:round; stroke-linejoin:round;">
<circle cx="57300" cy="41100" r="78.7402" /> 
</g>
<g style="fill:#FFFFFF; fill-opacity:1.0; 
stroke:#FFFFFF; stroke-width:39.3701; stroke-opacity:1; 
stroke-linecap:round; stroke-linejoin:round;">
</g>
<g style="fill:#FFFFFF; fill-opacity:1.0; 
stroke:#FFFFFF; stroke-width:0; stroke-opacity:1; 
stroke-linecap:round; stroke-linejoin:round;">
<circle cx="60600" cy="40850" r="78.7402" /> 
</g>
<g style="fill:#FFFFFF; fill-opacity:1.0; 
stroke:#FFFFFF; stroke-width:39.3701; stroke-opacity:1; 
stroke-linecap:round; stroke-linejoin:round;">
</g>
<g style="fill:#FFFFFF; fill-opacity:1.0; 
stroke:#FFFFFF; stroke-width:0; stroke-opacity:1; 
stroke-linecap:round; stroke-linejoin:round;">
<circle cx="54200" cy="38100" r="78.7402" /> 
</g>
<g style="fill:#FFFFFF; fill-opacity:1.0; 
stroke:#FFFFFF; stroke-width:39.3701; stroke-opacity:1; 
stroke-linecap:round; stroke-linejoin:round;">
</g>
<g style="fill:#FFFFFF; fill-opacity:1.0; 
stroke:#FFFFFF; stroke-width:0; stroke-opacity:1; 
stroke-linecap:round; stroke-linejoin:round;">
<circle cx="54200" cy="37700" r="78.7402" /> 
</g>
<g style="fill:#FFFFFF; fill-opacity:1.0; 
stroke:#FFFFFF; stroke-width:39.3701; stroke-opacity:1; 
stroke-linecap:round; stroke-linejoin:round;">
</g>
<g style="fill:#FFFFFF; fill-opacity:1.0; 
stroke:#FFFFFF; stroke-width:0; stroke-opacity:1; 
stroke-linecap:round; stroke-linejoin:round;">
<circle cx="53600" cy="39500" r="78.7402" /> 
</g>
<g style="fill:#FFFFFF; fill-opacity:1.0; 
stroke:#FFFFFF; stroke-width:39.3701; stroke-opacity:1; 
stroke-linecap:round; stroke-linejoin:round;">
</g>
<g style="fill:#FFFFFF; fill-opacity:1.0; 
stroke:#FFFFFF; stroke-width:0; stroke-opacity:1; 
stroke-linecap:round; stroke-linejoin:round;">
<circle cx="54800" cy="37900" r="78.7402" /> 
</g>
<g style="fill:#FFFFFF; fill-opacity:1.0; 
stroke:#FFFFFF; stroke-width:39.3701; stroke-opacity:1; 
stroke-linecap:round; stroke-linejoin:round;">
</g>
<g style="fill:#FFFFFF; fill-opacity:1.0; 
stroke:#FFFFFF; stroke-width:0; stroke-opacity:1; 
stroke-linecap:round; stroke-linejoin:round;">
<circle cx="58350" cy="33050" r="78.7402" /> 
</g>
<g style="fill:#FFFFFF; fill-opacity:1.0; 
stroke:#FFFFFF; stroke-width:39.3701; stroke-opacity:1; 
stroke-linecap:round; stroke-linejoin:round;">
</g>
<g style="fill:#FFFFFF; fill-opacity:1.0; 
stroke:#FFFFFF; stroke-width:0; stroke-opacity:1; 
stroke-linecap:round; stroke-linejoin:round;">
<circle cx="53600" cy="37900" r="78.7402" /> 
</g>
<g style="fill:#FFFFFF; fill-opacity:1.0; 
stroke:#FFFFFF; stroke-width:39.3701; stroke-opacity:1; 
stroke-linecap:round; stroke-linejoin:round;">
</g>
<g style="fill:#FFFFFF; fill-opacity:1.0; 
stroke:#FFFFFF; stroke-width:0; stroke-opacity:1; 
stroke-linecap:round; stroke-linejoin:round;">
<circle cx="57000" cy="31900" r="78.7402" /> 
</g>
<g style="fill:#FFFFFF; fill-opacity:1.0; 
stroke:#FFFFFF; stroke-width:39.3701; stroke-opacity:1; 
stroke-linecap:round; stroke-linejoin:round;">
</g>
<g style="fill:#FFFFFF; fill-opacity:1.0; 
stroke:#FFFFFF; stroke-width:0; stroke-opacity:1; 
stroke-linecap:round; stroke-linejoin:round;">
<circle cx="55400" cy="32900" r="78.7402" /> 
</g>
<g style="fill:#FFFFFF; fill-opacity:1.0; 
stroke:#FFFFFF; stroke-width:39.3701; stroke-opacity:1; 
stroke-linecap:round; stroke-linejoin:round;">
</g>
<g style="fill:#FFFFFF; fill-opacity:1.0; 
stroke:#FFFFFF; stroke-width:0; stroke-opacity:1; 
stroke-linecap:round; stroke-linejoin:round;">
<circle cx="61400" cy="35700" r="885.827" /> 
</g>
<g style="fill:#FFFFFF; fill-opacity:1.0; 
stroke:#FFFFFF; stroke-width:39.3701; stroke-opacity:1; 
stroke-linecap:round; stroke-linejoin:round;">
</g>
<g style="fill:#FFFFFF; fill-opacity:1.0; 
stroke:#FFFFFF; stroke-width:0; stroke-opacity:1; 
stroke-linecap:round; stroke-linejoin:round;">
<circle cx="61400" cy="32747.2" r="885.827" /> 
</g>
<g style="fill:#FFFFFF; fill-opacity:1.0; 
stroke:#FFFFFF; stroke-width:39.3701; stroke-opacity:1; 
stroke-linecap:round; stroke-linejoin:round;">
</g>
<g style="fill:#FFFFFF; fill-opacity:1.0; 
stroke:#FFFFFF; stroke-width:0; stroke-opacity:1; 
stroke-linecap:round; stroke-linejoin:round;">
<circle cx="59000" cy="31700" r="200" /> 
</g>
<g style="fill:#FFFFFF; fill-opacity:1.0; 
stroke:#FFFFFF; stroke-width:39.3701; stroke-opacity:1; 
stroke-linecap:round; stroke-linejoin:round;">
</g>
<g style="fill:#FFFFFF; fill-opacity:1.0; 
stroke:#FFFFFF; stroke-width:0; stroke-opacity:1; 
stroke-linecap:round; stroke-linejoin:round;">
<circle cx="59000" cy="32700" r="200" /> 
</g>
<g style="fill:#FFFFFF; fill-opacity:1.0; 
stroke:#FFFFFF; stroke-width:39.3701; stroke-opacity:1; 
stroke-linecap:round; stroke-linejoin:round;">
</g>
<g style="fill:#FFFFFF; fill-opacity:1.0; 
stroke:#FFFFFF; stroke-width:0; stroke-opacity:1; 
stroke-linecap:round; stroke-linejoin:round;">
<circle cx="59000" cy="33700" r="200" /> 
</g>
<g style="fill:#FFFFFF; fill-opacity:1.0; 
stroke:#FFFFFF; stroke-width:39.3701; stroke-opacity:1; 
stroke-linecap:round; stroke-linejoin:round;">
</g>
<g style="fill:#FFFFFF; fill-opacity:1.0; 
stroke:#FFFFFF; stroke-width:0; stroke-opacity:1; 
stroke-linecap:round; stroke-linejoin:round;">
<circle cx="55089" cy="33500" r="177.165" /> 
</g>
<g style="fill:#FFFFFF; fill-opacity:1.0; 
stroke:#FFFFFF; stroke-width:39.3701; stroke-opacity:1; 
stroke-linecap:round; stroke-linejoin:round;">
</g>
<g style="fill:#FFFFFF; fill-opacity:1.0; 
stroke:#FFFFFF; stroke-width:0; stroke-opacity:1; 
stroke-linecap:round; stroke-linejoin:round;">
<circle cx="53711" cy="33500" r="177.165" /> 
</g>
<g style="fill:#FFFFFF; fill-opacity:1.0; 
stroke:#FFFFFF; stroke-width:39.3701; stroke-opacity:1; 
stroke-linecap:round; stroke-linejoin:round;">
</g>
<g style="fill:#000000; fill-opacity:1.0; 
stroke:#000000; stroke-width:39.3701; stroke-opacity:1; 
stroke-linecap:round; stroke-linejoin:round;">
</g> 
</svg>
