G04 #@! TF.FileFunction,Copper,L1,Top,Signal*
%FSLAX46Y46*%
G04 Gerber Fmt 4.6, Leading zero omitted, Abs format (unit mm)*
G04 Created by KiCad (PCBNEW 4.0.4+e1-6308~48~ubuntu16.04.1-stable) date Wed Nov 16 18:20:05 2016*
%MOMM*%
%LPD*%
G01*
G04 APERTURE LIST*
%ADD10C,0.100000*%
%ADD11R,1.727200X1.727200*%
%ADD12O,1.727200X1.727200*%
%ADD13R,3.233420X0.843280*%
%ADD14R,2.979420X0.843280*%
%ADD15C,0.800000*%
%ADD16C,0.203200*%
G04 APERTURE END LIST*
D10*
D11*
X162814000Y-103378000D03*
D12*
X162814000Y-105918000D03*
X160274000Y-103378000D03*
X160274000Y-105918000D03*
X157734000Y-103378000D03*
X157734000Y-105918000D03*
X155194000Y-103378000D03*
X155194000Y-105918000D03*
X152654000Y-103378000D03*
X152654000Y-105918000D03*
D13*
X129133600Y-102158800D03*
D14*
X129260600Y-107873800D03*
X129260600Y-106730800D03*
X129260600Y-105587800D03*
D13*
X129133600Y-104444800D03*
D14*
X129260600Y-103301800D03*
X129260600Y-101015800D03*
X129260600Y-99872800D03*
D15*
X149352000Y-102108000D03*
D16*
X129133600Y-102158800D02*
X149301200Y-102158800D01*
X149301200Y-102158800D02*
X149352000Y-102108000D01*
X129260600Y-105587800D02*
X150019816Y-105587800D01*
X150019816Y-105587800D02*
X151924827Y-107492811D01*
X151924827Y-107492811D02*
X162968423Y-107492811D01*
X162968423Y-107492811D02*
X163982401Y-106478833D01*
X163982401Y-106478833D02*
X163982401Y-104292401D01*
X163982401Y-104292401D02*
X163068000Y-103378000D01*
X163068000Y-103378000D02*
X162814000Y-103378000D01*
X129133600Y-104444800D02*
X149451566Y-104444800D01*
X149451566Y-104444800D02*
X152093167Y-107086401D01*
X152093167Y-107086401D02*
X161645599Y-107086401D01*
X161645599Y-107086401D02*
X161950401Y-106781599D01*
X161950401Y-106781599D02*
X162814000Y-105918000D01*
X129260600Y-103301800D02*
X150848566Y-103301800D01*
X150848566Y-103301800D02*
X152093167Y-104546401D01*
X152093167Y-104546401D02*
X154025599Y-104546401D01*
X154025599Y-104546401D02*
X154330401Y-104241599D01*
X154330401Y-104241599D02*
X155194000Y-103378000D01*
X129260600Y-101015800D02*
X150291800Y-101015800D01*
X150291800Y-101015800D02*
X152654000Y-103378000D01*
X129260600Y-107873800D02*
X130953510Y-107873800D01*
X130953510Y-107873800D02*
X130978930Y-107899220D01*
X130978930Y-107899220D02*
X163136764Y-107899220D01*
X163136764Y-107899220D02*
X164388811Y-106647173D01*
X164388811Y-106647173D02*
X164388811Y-102676969D01*
X164388811Y-102676969D02*
X163921441Y-102209599D01*
X161442401Y-102209599D02*
X161137599Y-102514401D01*
X161137599Y-102514401D02*
X160274000Y-103378000D01*
X163921441Y-102209599D02*
X161442401Y-102209599D01*
X129260600Y-107873800D02*
X130328670Y-107873800D01*
X130328670Y-107873800D02*
X130354090Y-107899220D01*
M02*
