G04 #@! TF.FileFunction,Soldermask,Top*
%FSLAX46Y46*%
G04 Gerber Fmt 4.6, Leading zero omitted, Abs format (unit mm)*
G04 Created by KiCad (PCBNEW 4.0.4+e1-6308~48~ubuntu16.04.1-stable) date Tue Nov 15 18:16:49 2016*
%MOMM*%
%LPD*%
G01*
G04 APERTURE LIST*
%ADD10C,0.100000*%
%ADD11R,1.250000X1.000000*%
%ADD12R,1.000000X1.250000*%
%ADD13R,1.198880X1.198880*%
%ADD14C,1.500000*%
%ADD15R,1.300000X0.700000*%
%ADD16R,0.550000X1.500000*%
%ADD17R,1.500000X0.550000*%
%ADD18R,1.727200X1.727200*%
%ADD19O,1.727200X1.727200*%
%ADD20R,2.900000X2.600000*%
%ADD21R,0.900000X2.400000*%
%ADD22R,2.200000X1.900000*%
%ADD23R,0.600000X1.100000*%
%ADD24R,1.100000X0.600000*%
%ADD25R,2.000000X2.150000*%
G04 APERTURE END LIST*
D10*
D11*
X149225000Y-112141000D03*
X149225000Y-114141000D03*
X149225000Y-104292400D03*
X149225000Y-102292400D03*
D12*
X166259000Y-106172000D03*
X168259000Y-106172000D03*
D11*
X167894000Y-101235000D03*
X167894000Y-103235000D03*
D13*
X168308020Y-110617000D03*
X166209980Y-110617000D03*
D14*
X145415000Y-98933000D03*
X147955000Y-98933000D03*
X150495000Y-98933000D03*
D15*
X151765000Y-103439000D03*
X151765000Y-101539000D03*
X156972000Y-97599500D03*
X156972000Y-99499500D03*
X154813000Y-97602000D03*
X154813000Y-99502000D03*
X167894000Y-99629000D03*
X167894000Y-97729000D03*
X165735000Y-99629000D03*
X165735000Y-97729000D03*
D16*
X162100000Y-102910000D03*
X161300000Y-102910000D03*
X160500000Y-102910000D03*
X159700000Y-102910000D03*
X158900000Y-102910000D03*
X158100000Y-102910000D03*
X157300000Y-102910000D03*
X156500000Y-102910000D03*
X155700000Y-102910000D03*
X154900000Y-102910000D03*
X154100000Y-102910000D03*
D17*
X152400000Y-104610000D03*
X152400000Y-105410000D03*
X152400000Y-106210000D03*
X152400000Y-107010000D03*
X152400000Y-107810000D03*
X152400000Y-108610000D03*
X152400000Y-109410000D03*
X152400000Y-110210000D03*
X152400000Y-111010000D03*
X152400000Y-111810000D03*
X152400000Y-112610000D03*
D16*
X154100000Y-114310000D03*
X154900000Y-114310000D03*
X155700000Y-114310000D03*
X156500000Y-114310000D03*
X157300000Y-114310000D03*
X158100000Y-114310000D03*
X158900000Y-114310000D03*
X159700000Y-114310000D03*
X160500000Y-114310000D03*
X161300000Y-114310000D03*
X162100000Y-114310000D03*
D17*
X163800000Y-112610000D03*
X163800000Y-111810000D03*
X163800000Y-111010000D03*
X163800000Y-110210000D03*
X163800000Y-109410000D03*
X163800000Y-108610000D03*
X163800000Y-107810000D03*
X163800000Y-107010000D03*
X163800000Y-106210000D03*
X163800000Y-105410000D03*
X163800000Y-104610000D03*
D18*
X143002000Y-102870000D03*
D19*
X145542000Y-102870000D03*
X143002000Y-105410000D03*
X145542000Y-105410000D03*
X143002000Y-107950000D03*
X145542000Y-107950000D03*
X143002000Y-110490000D03*
X145542000Y-110490000D03*
D20*
X163740000Y-94710000D03*
X155340000Y-94710000D03*
X163740000Y-89410000D03*
X155340000Y-89410000D03*
D21*
X161140000Y-94960000D03*
X160340000Y-94960000D03*
X159540000Y-94960000D03*
X158740000Y-94960000D03*
X157940000Y-94960000D03*
D22*
X149225000Y-110321200D03*
X149225000Y-106121200D03*
D23*
X163414042Y-97666352D03*
X163014042Y-97666352D03*
X162614042Y-97666352D03*
X162214042Y-97666352D03*
X161814042Y-97666352D03*
X161414042Y-97666352D03*
D24*
X160864042Y-98216352D03*
X160864042Y-98616352D03*
X160864042Y-99016352D03*
X160864042Y-99416352D03*
X160864042Y-99816352D03*
X160864042Y-100216352D03*
D23*
X161414042Y-100766352D03*
X161814042Y-100766352D03*
X162214042Y-100766352D03*
X162614042Y-100766352D03*
X163014042Y-100766352D03*
X163414042Y-100766352D03*
D24*
X163964042Y-100216352D03*
X163964042Y-99816352D03*
X163964042Y-99416352D03*
X163964042Y-99016352D03*
X163964042Y-98616352D03*
X163964042Y-98216352D03*
D25*
X162414042Y-99216352D03*
M02*
