G04 #@! TF.FileFunction,Copper,L1,Top,Signal*
%FSLAX46Y46*%
G04 Gerber Fmt 4.6, Leading zero omitted, Abs format (unit mm)*
G04 Created by KiCad (PCBNEW 4.0.4+e1-6308~48~ubuntu16.04.1-stable) date Tue Nov 15 18:16:49 2016*
%MOMM*%
%LPD*%
G01*
G04 APERTURE LIST*
%ADD10C,0.100000*%
%ADD11C,0.150000*%
%ADD12R,1.250000X1.000000*%
%ADD13R,1.000000X1.250000*%
%ADD14R,1.198880X1.198880*%
%ADD15C,1.500000*%
%ADD16R,1.300000X0.700000*%
%ADD17R,0.550000X1.500000*%
%ADD18R,1.500000X0.550000*%
%ADD19R,1.727200X1.727200*%
%ADD20O,1.727200X1.727200*%
%ADD21R,2.500000X2.200000*%
%ADD22R,0.500000X2.000000*%
%ADD23R,2.200000X1.900000*%
%ADD24R,0.200000X0.700000*%
%ADD25R,0.700000X0.200000*%
%ADD26R,1.600000X1.750000*%
%ADD27C,0.800000*%
%ADD28C,2.032000*%
%ADD29C,0.203200*%
%ADD30C,0.304800*%
%ADD31C,0.508000*%
G04 APERTURE END LIST*
D10*
D11*
X165878095Y-92305667D02*
X166354286Y-92305667D01*
X165782857Y-92591381D02*
X166116190Y-91591381D01*
X166449524Y-92591381D01*
X167354286Y-92591381D02*
X167020952Y-92115190D01*
X166782857Y-92591381D02*
X166782857Y-91591381D01*
X167163810Y-91591381D01*
X167259048Y-91639000D01*
X167306667Y-91686619D01*
X167354286Y-91781857D01*
X167354286Y-91924714D01*
X167306667Y-92019952D01*
X167259048Y-92067571D01*
X167163810Y-92115190D01*
X166782857Y-92115190D01*
X168354286Y-92496143D02*
X168306667Y-92543762D01*
X168163810Y-92591381D01*
X168068572Y-92591381D01*
X167925714Y-92543762D01*
X167830476Y-92448524D01*
X167782857Y-92353286D01*
X167735238Y-92162810D01*
X167735238Y-92019952D01*
X167782857Y-91829476D01*
X167830476Y-91734238D01*
X167925714Y-91639000D01*
X168068572Y-91591381D01*
X168163810Y-91591381D01*
X168306667Y-91639000D01*
X168354286Y-91686619D01*
X168782857Y-91591381D02*
X168782857Y-92400905D01*
X168830476Y-92496143D01*
X168878095Y-92543762D01*
X168973333Y-92591381D01*
X169163810Y-92591381D01*
X169259048Y-92543762D01*
X169306667Y-92496143D01*
X169354286Y-92400905D01*
X169354286Y-91591381D01*
X166259048Y-94241381D02*
X165925714Y-93765190D01*
X165687619Y-94241381D02*
X165687619Y-93241381D01*
X166068572Y-93241381D01*
X166163810Y-93289000D01*
X166211429Y-93336619D01*
X166259048Y-93431857D01*
X166259048Y-93574714D01*
X166211429Y-93669952D01*
X166163810Y-93717571D01*
X166068572Y-93765190D01*
X165687619Y-93765190D01*
X166687619Y-93717571D02*
X167020953Y-93717571D01*
X167163810Y-94241381D02*
X166687619Y-94241381D01*
X166687619Y-93241381D01*
X167163810Y-93241381D01*
X167449524Y-93241381D02*
X167782857Y-94241381D01*
X168116191Y-93241381D01*
X169163810Y-93955667D02*
X169640001Y-93955667D01*
X169068572Y-94241381D02*
X169401905Y-93241381D01*
X169735239Y-94241381D01*
X143700572Y-114819357D02*
X143664858Y-114855071D01*
X143557715Y-114890786D01*
X143486286Y-114890786D01*
X143379143Y-114855071D01*
X143307715Y-114783643D01*
X143272000Y-114712214D01*
X143236286Y-114569357D01*
X143236286Y-114462214D01*
X143272000Y-114319357D01*
X143307715Y-114247929D01*
X143379143Y-114176500D01*
X143486286Y-114140786D01*
X143557715Y-114140786D01*
X143664858Y-114176500D01*
X143700572Y-114212214D01*
X144022000Y-114890786D02*
X144022000Y-114140786D01*
X144200572Y-114140786D01*
X144307715Y-114176500D01*
X144379143Y-114247929D01*
X144414858Y-114319357D01*
X144450572Y-114462214D01*
X144450572Y-114569357D01*
X144414858Y-114712214D01*
X144379143Y-114783643D01*
X144307715Y-114855071D01*
X144200572Y-114890786D01*
X144022000Y-114890786D01*
X144772000Y-114890786D02*
X144772000Y-114140786D01*
X145022000Y-114676500D01*
X145272000Y-114140786D01*
X145272000Y-114890786D01*
X142272000Y-116165786D02*
X141843428Y-116165786D01*
X142057714Y-116165786D02*
X142057714Y-115415786D01*
X141986285Y-115522929D01*
X141914857Y-115594357D01*
X141843428Y-115630071D01*
X142986286Y-116165786D02*
X142557714Y-116165786D01*
X142772000Y-116165786D02*
X142772000Y-115415786D01*
X142700571Y-115522929D01*
X142629143Y-115594357D01*
X142557714Y-115630071D01*
X143843429Y-115380071D02*
X143200572Y-116344357D01*
X144022000Y-115415786D02*
X144486286Y-115415786D01*
X144236286Y-115701500D01*
X144343428Y-115701500D01*
X144414857Y-115737214D01*
X144450571Y-115772929D01*
X144486286Y-115844357D01*
X144486286Y-116022929D01*
X144450571Y-116094357D01*
X144414857Y-116130071D01*
X144343428Y-116165786D01*
X144129143Y-116165786D01*
X144057714Y-116130071D01*
X144022000Y-116094357D01*
X145343429Y-115380071D02*
X144700572Y-116344357D01*
X145986286Y-116165786D02*
X145557714Y-116165786D01*
X145772000Y-116165786D02*
X145772000Y-115415786D01*
X145700571Y-115522929D01*
X145629143Y-115594357D01*
X145557714Y-115630071D01*
X146629143Y-115415786D02*
X146486286Y-115415786D01*
X146414857Y-115451500D01*
X146379143Y-115487214D01*
X146307714Y-115594357D01*
X146272000Y-115737214D01*
X146272000Y-116022929D01*
X146307714Y-116094357D01*
X146343429Y-116130071D01*
X146414857Y-116165786D01*
X146557714Y-116165786D01*
X146629143Y-116130071D01*
X146664857Y-116094357D01*
X146700572Y-116022929D01*
X146700572Y-115844357D01*
X146664857Y-115772929D01*
X146629143Y-115737214D01*
X146557714Y-115701500D01*
X146414857Y-115701500D01*
X146343429Y-115737214D01*
X146307714Y-115772929D01*
X146272000Y-115844357D01*
D12*
X149225000Y-112141000D03*
X149225000Y-114141000D03*
X149225000Y-104292400D03*
X149225000Y-102292400D03*
D13*
X166259000Y-106172000D03*
X168259000Y-106172000D03*
D12*
X167894000Y-101235000D03*
X167894000Y-103235000D03*
D14*
X168308020Y-110617000D03*
X166209980Y-110617000D03*
D15*
X145415000Y-98933000D03*
X147955000Y-98933000D03*
X150495000Y-98933000D03*
D16*
X151765000Y-103439000D03*
X151765000Y-101539000D03*
X156972000Y-97599500D03*
X156972000Y-99499500D03*
X154813000Y-97602000D03*
X154813000Y-99502000D03*
X167894000Y-99629000D03*
X167894000Y-97729000D03*
X165735000Y-99629000D03*
X165735000Y-97729000D03*
D17*
X162100000Y-102910000D03*
X161300000Y-102910000D03*
X160500000Y-102910000D03*
X159700000Y-102910000D03*
X158900000Y-102910000D03*
X158100000Y-102910000D03*
X157300000Y-102910000D03*
X156500000Y-102910000D03*
X155700000Y-102910000D03*
X154900000Y-102910000D03*
X154100000Y-102910000D03*
D18*
X152400000Y-104610000D03*
X152400000Y-105410000D03*
X152400000Y-106210000D03*
X152400000Y-107010000D03*
X152400000Y-107810000D03*
X152400000Y-108610000D03*
X152400000Y-109410000D03*
X152400000Y-110210000D03*
X152400000Y-111010000D03*
X152400000Y-111810000D03*
X152400000Y-112610000D03*
D17*
X154100000Y-114310000D03*
X154900000Y-114310000D03*
X155700000Y-114310000D03*
X156500000Y-114310000D03*
X157300000Y-114310000D03*
X158100000Y-114310000D03*
X158900000Y-114310000D03*
X159700000Y-114310000D03*
X160500000Y-114310000D03*
X161300000Y-114310000D03*
X162100000Y-114310000D03*
D18*
X163800000Y-112610000D03*
X163800000Y-111810000D03*
X163800000Y-111010000D03*
X163800000Y-110210000D03*
X163800000Y-109410000D03*
X163800000Y-108610000D03*
X163800000Y-107810000D03*
X163800000Y-107010000D03*
X163800000Y-106210000D03*
X163800000Y-105410000D03*
X163800000Y-104610000D03*
D19*
X143002000Y-102870000D03*
D20*
X145542000Y-102870000D03*
X143002000Y-105410000D03*
X145542000Y-105410000D03*
X143002000Y-107950000D03*
X145542000Y-107950000D03*
X143002000Y-110490000D03*
X145542000Y-110490000D03*
D21*
X163740000Y-94710000D03*
X155340000Y-94710000D03*
X163740000Y-89410000D03*
X155340000Y-89410000D03*
D22*
X161140000Y-94960000D03*
X160340000Y-94960000D03*
X159540000Y-94960000D03*
X158740000Y-94960000D03*
X157940000Y-94960000D03*
D23*
X149225000Y-110321200D03*
X149225000Y-106121200D03*
D24*
X163414042Y-97666352D03*
X163014042Y-97666352D03*
X162614042Y-97666352D03*
X162214042Y-97666352D03*
X161814042Y-97666352D03*
X161414042Y-97666352D03*
D25*
X160864042Y-98216352D03*
X160864042Y-98616352D03*
X160864042Y-99016352D03*
X160864042Y-99416352D03*
X160864042Y-99816352D03*
X160864042Y-100216352D03*
D24*
X161414042Y-100766352D03*
X161814042Y-100766352D03*
X162214042Y-100766352D03*
X162614042Y-100766352D03*
X163014042Y-100766352D03*
X163414042Y-100766352D03*
D25*
X163964042Y-100216352D03*
X163964042Y-99816352D03*
X163964042Y-99416352D03*
X163964042Y-99016352D03*
X163964042Y-98616352D03*
X163964042Y-98216352D03*
D26*
X162414042Y-99216352D03*
D27*
X163068000Y-101981000D03*
X148971000Y-96901000D03*
X162179000Y-111887000D03*
X155448000Y-108585000D03*
X153035000Y-100457000D03*
X154940000Y-112522000D03*
X147193000Y-110236000D03*
X147193000Y-106172000D03*
X157607000Y-101092000D03*
X158015000Y-105283000D03*
X162037878Y-104616201D03*
D28*
X147828000Y-92202000D03*
D27*
X157480000Y-111014800D03*
X154940000Y-105918000D03*
X156845000Y-105918000D03*
X159131000Y-105918000D03*
X156464000Y-101092000D03*
X160909000Y-105537000D03*
X159766000Y-107569000D03*
X154432000Y-101219000D03*
X167769420Y-96771580D03*
X161417000Y-108458000D03*
X165730047Y-96774113D03*
X161417000Y-109855000D03*
X151257000Y-114808000D03*
X152400000Y-113792000D03*
X166243000Y-108458000D03*
X160020000Y-92710000D03*
X159639000Y-99441000D03*
D29*
X163800000Y-105410000D02*
X162846800Y-105410000D01*
X162846800Y-105410000D02*
X162465800Y-105791000D01*
X162465800Y-105791000D02*
X162179000Y-105791000D01*
X158900000Y-102910000D02*
X158900000Y-103683642D01*
X158900000Y-103683642D02*
X159181159Y-103964801D01*
X159181159Y-103964801D02*
X160343372Y-103964801D01*
X160343372Y-103964801D02*
X161788571Y-105410000D01*
X161788571Y-105410000D02*
X161798000Y-105410000D01*
X161798000Y-105410000D02*
X162179000Y-105791000D01*
X162179000Y-105791000D02*
X162179000Y-111321315D01*
X162179000Y-111321315D02*
X162179000Y-111887000D01*
X163068000Y-101854000D02*
X163418843Y-101503157D01*
X163418843Y-101503157D02*
X163418843Y-101360193D01*
X163418843Y-101360193D02*
X163418843Y-100766352D01*
X163068000Y-101981000D02*
X163068000Y-101854000D01*
X163800000Y-105410000D02*
X164753200Y-105410000D01*
X164753200Y-105410000D02*
X164921001Y-105242199D01*
X164921001Y-105242199D02*
X167454199Y-105242199D01*
X167454199Y-105242199D02*
X168259000Y-106047000D01*
X168259000Y-106047000D02*
X168259000Y-106172000D01*
X163800000Y-111810000D02*
X162256000Y-111810000D01*
X162256000Y-111810000D02*
X162179000Y-111887000D01*
X162100000Y-114310000D02*
X162100000Y-111966000D01*
X162100000Y-111966000D02*
X162179000Y-111887000D01*
X152400000Y-107010000D02*
X153873000Y-107010000D01*
X153873000Y-107010000D02*
X155448000Y-108585000D01*
X155448000Y-108302172D02*
X155448000Y-108585000D01*
X149225000Y-102292400D02*
X149100000Y-102292400D01*
X155340000Y-94710000D02*
X157690000Y-94710000D01*
X157690000Y-94710000D02*
X157940000Y-94960000D01*
X154100000Y-114310000D02*
X154100000Y-113356800D01*
X154100000Y-113356800D02*
X154934800Y-112522000D01*
X154934800Y-112522000D02*
X154940000Y-112522000D01*
X149225000Y-110321200D02*
X147278200Y-110321200D01*
X147278200Y-110321200D02*
X147193000Y-110236000D01*
X149225000Y-112141000D02*
X149225000Y-110321200D01*
X149225000Y-110321200D02*
X149225000Y-109168000D01*
X149225000Y-109168000D02*
X149783000Y-108610000D01*
X149783000Y-108610000D02*
X151446800Y-108610000D01*
X151446800Y-108610000D02*
X152400000Y-108610000D01*
X149225000Y-106121200D02*
X147243800Y-106121200D01*
X147243800Y-106121200D02*
X147193000Y-106172000D01*
X149225000Y-104292400D02*
X149225000Y-106121200D01*
X149225000Y-106121200D02*
X149225000Y-107274400D01*
X149225000Y-107274400D02*
X149760600Y-107810000D01*
X149760600Y-107810000D02*
X151446800Y-107810000D01*
X151446800Y-107810000D02*
X152400000Y-107810000D01*
X157607000Y-101092000D02*
X158100000Y-101585000D01*
X158100000Y-101585000D02*
X158100000Y-102910000D01*
X158063077Y-102873077D02*
X158100000Y-102910000D01*
X163800000Y-106210000D02*
X166221000Y-106210000D01*
X166221000Y-106210000D02*
X166259000Y-106172000D01*
D30*
X144221201Y-100838000D02*
X144221201Y-99248491D01*
X144221201Y-99248491D02*
X144182399Y-99209689D01*
X144182399Y-99209689D02*
X144182399Y-94410761D01*
X144182399Y-94410761D02*
X146391160Y-92202000D01*
X146391160Y-92202000D02*
X147828000Y-92202000D01*
D29*
X158015000Y-105283000D02*
X158722894Y-105283000D01*
X158722894Y-105283000D02*
X158792695Y-105213199D01*
X158792695Y-105213199D02*
X159469305Y-105213199D01*
X159469305Y-105213199D02*
X159835801Y-105579695D01*
X157314398Y-104582398D02*
X158015000Y-105283000D01*
X157300000Y-104582398D02*
X157314398Y-104582398D01*
X157300000Y-104582398D02*
X157300000Y-102910000D01*
X152400000Y-106210000D02*
X154188894Y-106210000D01*
X154188894Y-106210000D02*
X155108105Y-107129211D01*
X155108105Y-107129211D02*
X159162683Y-107129211D01*
X159162683Y-107129211D02*
X159835801Y-106456093D01*
X159835801Y-106456093D02*
X159835801Y-105579695D01*
X162037878Y-104616201D02*
X162034000Y-104610000D01*
X161300000Y-103876000D02*
X162037878Y-104616201D01*
X160864042Y-99016352D02*
X160864042Y-98616352D01*
D30*
X144221201Y-100838000D02*
X144221201Y-109270799D01*
D29*
X151765000Y-101539000D02*
X151465000Y-101539000D01*
X151465000Y-101539000D02*
X150764000Y-100838000D01*
X150764000Y-100838000D02*
X144221201Y-100838000D01*
D30*
X144221201Y-109270799D02*
X143865599Y-109626401D01*
X143865599Y-109626401D02*
X143002000Y-110490000D01*
D29*
X151465000Y-101539000D02*
X150810199Y-102193801D01*
X150810199Y-102193801D02*
X150810199Y-105573399D01*
X150810199Y-105573399D02*
X151446800Y-106210000D01*
X151446800Y-106210000D02*
X152400000Y-106210000D01*
X162034000Y-104610000D02*
X163800000Y-104610000D01*
X161300000Y-102910000D02*
X161300000Y-103876000D01*
X161414042Y-100766352D02*
X159796614Y-100766352D01*
X159796614Y-100766352D02*
X158808799Y-99778537D01*
X158808799Y-99778537D02*
X158808799Y-99103463D01*
X158808799Y-99103463D02*
X159586752Y-98325510D01*
X159586752Y-98325510D02*
X160020000Y-98325510D01*
X161414042Y-100766352D02*
X161414042Y-102795958D01*
X161414042Y-102795958D02*
X161300000Y-102910000D01*
X160864042Y-98616352D02*
X160310842Y-98616352D01*
X160020000Y-98325510D02*
X160020000Y-97536000D01*
X160544449Y-97011551D02*
X164354449Y-97011551D01*
X160310842Y-98616352D02*
X160020000Y-98325510D01*
X160020000Y-97536000D02*
X160544449Y-97011551D01*
X164354449Y-97011551D02*
X165481000Y-95885000D01*
X168848801Y-98974199D02*
X168194000Y-99629000D01*
X165481000Y-95885000D02*
X168021000Y-95885000D01*
X168021000Y-95885000D02*
X168848801Y-96712801D01*
X168848801Y-96712801D02*
X168848801Y-98974199D01*
X168194000Y-99629000D02*
X167894000Y-99629000D01*
X167894000Y-99629000D02*
X167894000Y-101235000D01*
X165735000Y-99629000D02*
X166588200Y-99629000D01*
X166588200Y-99629000D02*
X167894000Y-99629000D01*
X163964042Y-99016352D02*
X165437352Y-99016352D01*
X165437352Y-99016352D02*
X165735000Y-99314000D01*
X165735000Y-99314000D02*
X165735000Y-99629000D01*
X166209980Y-111773662D02*
X162413642Y-115570000D01*
X166209980Y-110617000D02*
X166209980Y-111773662D01*
X162413642Y-115570000D02*
X159206800Y-115570000D01*
X159206800Y-115570000D02*
X158900000Y-115263200D01*
X158900000Y-115263200D02*
X158900000Y-114310000D01*
X157480000Y-111014800D02*
X157979999Y-111514799D01*
X157979999Y-111514799D02*
X157979999Y-111636799D01*
X157979999Y-111636799D02*
X159700000Y-113356800D01*
X159700000Y-114310000D02*
X159700000Y-113356800D01*
X157358000Y-111014800D02*
X157353000Y-111014800D01*
X154940000Y-105918000D02*
X154100000Y-105078000D01*
X154100000Y-105078000D02*
X154100000Y-102910000D01*
X155700000Y-102910000D02*
X155700000Y-104773000D01*
X155700000Y-104773000D02*
X156845000Y-105918000D01*
X158326199Y-106722801D02*
X159131000Y-105918000D01*
X156458695Y-106722801D02*
X158326199Y-106722801D01*
X156040199Y-106304305D02*
X156458695Y-106722801D01*
X156040199Y-105687949D02*
X156040199Y-106304305D01*
X154900000Y-102910000D02*
X154900000Y-104547750D01*
X154900000Y-104547750D02*
X156040199Y-105687949D01*
X156464000Y-101092000D02*
X156464000Y-102874000D01*
X156464000Y-102874000D02*
X156500000Y-102910000D01*
X156972000Y-99499500D02*
X157863142Y-99499500D01*
X157863142Y-99499500D02*
X160500000Y-102136358D01*
X160500000Y-102136358D02*
X160500000Y-102910000D01*
X160340000Y-94960000D02*
X160340000Y-96454000D01*
X160340000Y-96454000D02*
X159194500Y-97599500D01*
X159194500Y-97599500D02*
X156972000Y-97599500D01*
X159700000Y-102910000D02*
X159700000Y-101911108D01*
X159700000Y-101911108D02*
X157943193Y-100154301D01*
X157943193Y-100154301D02*
X155765301Y-100154301D01*
X155765301Y-100154301D02*
X155113000Y-99502000D01*
X155113000Y-99502000D02*
X154813000Y-99502000D01*
X159766000Y-107569000D02*
X160909000Y-106426000D01*
X160909000Y-106426000D02*
X160909000Y-105537000D01*
X154432000Y-101219000D02*
X153464106Y-101219000D01*
X153464106Y-101219000D02*
X152719801Y-101963305D01*
X152719801Y-101963305D02*
X152719801Y-102784199D01*
X152719801Y-102784199D02*
X152065000Y-103439000D01*
X152065000Y-103439000D02*
X151765000Y-103439000D01*
X151257000Y-104013000D02*
X151257000Y-105220200D01*
X151257000Y-105220200D02*
X151446800Y-105410000D01*
X151446800Y-105410000D02*
X152400000Y-105410000D01*
X151765000Y-103439000D02*
X151765000Y-103505000D01*
X151765000Y-103505000D02*
X151257000Y-104013000D01*
X167769420Y-96771580D02*
X167769420Y-97604420D01*
X167769420Y-97604420D02*
X167894000Y-97729000D01*
X152400000Y-109410000D02*
X160465000Y-109410000D01*
X160465000Y-109410000D02*
X161417000Y-108458000D01*
X163964042Y-98616352D02*
X167559848Y-98616352D01*
X167559848Y-98616352D02*
X167894000Y-98282200D01*
X167894000Y-98282200D02*
X167894000Y-97729000D01*
X165730047Y-96774113D02*
X165730047Y-97724047D01*
X165730047Y-97724047D02*
X165735000Y-97729000D01*
X152400000Y-110210000D02*
X161062000Y-110210000D01*
X161062000Y-110210000D02*
X161417000Y-109855000D01*
X163964042Y-98216352D02*
X165247648Y-98216352D01*
X165247648Y-98216352D02*
X165735000Y-97729000D01*
X151257000Y-114808000D02*
X152654000Y-114808000D01*
X152654000Y-114808000D02*
X153454801Y-114007199D01*
X152400000Y-111010000D02*
X153353200Y-111010000D01*
X153353200Y-111010000D02*
X153454801Y-111111601D01*
X153454801Y-111111601D02*
X153454801Y-114007199D01*
X151257000Y-111999800D02*
X151257000Y-113040642D01*
X151257000Y-113040642D02*
X152008358Y-113792000D01*
X152008358Y-113792000D02*
X152400000Y-113792000D01*
X152400000Y-111810000D02*
X151446800Y-111810000D01*
X151446800Y-111810000D02*
X151257000Y-111999800D01*
X166243000Y-108458000D02*
X164795000Y-107010000D01*
X164795000Y-107010000D02*
X163800000Y-107010000D01*
X161140000Y-94960000D02*
X161140000Y-93756800D01*
X161140000Y-93756800D02*
X160093200Y-92710000D01*
X160093200Y-92710000D02*
X160020000Y-92710000D01*
X159540000Y-94960000D02*
X159540000Y-96365000D01*
X159540000Y-96365000D02*
X159156410Y-96748590D01*
X159156410Y-96748590D02*
X155966410Y-96748590D01*
X155113000Y-97602000D02*
X154813000Y-97602000D01*
X155966410Y-96748590D02*
X155113000Y-97602000D01*
X160864042Y-99416352D02*
X159663648Y-99416352D01*
X159663648Y-99416352D02*
X159639000Y-99441000D01*
X160839394Y-99441000D02*
X160864042Y-99416352D01*
D31*
G36*
X166718853Y-87509918D02*
X166208253Y-87611483D01*
X165673461Y-87968820D01*
X165635992Y-87878362D01*
X165421638Y-87664008D01*
X165141571Y-87548000D01*
X163943200Y-87548000D01*
X163752700Y-87738500D01*
X163752700Y-89397300D01*
X163772700Y-89397300D01*
X163772700Y-89422700D01*
X163752700Y-89422700D01*
X163752700Y-91081500D01*
X163943200Y-91272000D01*
X164687524Y-91272000D01*
X164687524Y-92848000D01*
X163943200Y-92848000D01*
X163752700Y-93038500D01*
X163752700Y-94697300D01*
X163772700Y-94697300D01*
X163772700Y-94722700D01*
X163752700Y-94722700D01*
X163752700Y-94742700D01*
X163727300Y-94742700D01*
X163727300Y-94722700D01*
X163707300Y-94722700D01*
X163707300Y-94697300D01*
X163727300Y-94697300D01*
X163727300Y-93038500D01*
X163536800Y-92848000D01*
X162501880Y-92848000D01*
X162502209Y-92469976D01*
X162318082Y-92024354D01*
X161977439Y-91683116D01*
X161532139Y-91498211D01*
X161049976Y-91497791D01*
X160604354Y-91681918D01*
X160595488Y-91690769D01*
X160252150Y-91548202D01*
X159789878Y-91547799D01*
X159362640Y-91724330D01*
X159035479Y-92050920D01*
X158932014Y-92300091D01*
X158818082Y-92024354D01*
X158477439Y-91683116D01*
X158032139Y-91498211D01*
X157549976Y-91497791D01*
X157104354Y-91681918D01*
X156763116Y-92022561D01*
X156578211Y-92467861D01*
X156577880Y-92848000D01*
X155543200Y-92848000D01*
X155352700Y-93038500D01*
X155352700Y-94697300D01*
X155372700Y-94697300D01*
X155372700Y-94722700D01*
X155352700Y-94722700D01*
X155352700Y-94742700D01*
X155327300Y-94742700D01*
X155327300Y-94722700D01*
X153518500Y-94722700D01*
X153328000Y-94913200D01*
X153328000Y-95961571D01*
X153444008Y-96241638D01*
X153658362Y-96455992D01*
X153861853Y-96540281D01*
X153621271Y-96695092D01*
X153447283Y-96949731D01*
X153386072Y-97252000D01*
X153386072Y-97952000D01*
X153439205Y-98234380D01*
X153606092Y-98493729D01*
X153689853Y-98550961D01*
X153621271Y-98595092D01*
X153447283Y-98849731D01*
X153386072Y-99152000D01*
X153386072Y-99852000D01*
X153439205Y-100134380D01*
X153581428Y-100355400D01*
X153464106Y-100355400D01*
X153195105Y-100408908D01*
X153133620Y-100421138D01*
X152884535Y-100587571D01*
X152717269Y-100473283D01*
X152415000Y-100412072D01*
X151559386Y-100412072D01*
X151374657Y-100227343D01*
X151353031Y-100212893D01*
X151776064Y-99790598D01*
X152006737Y-99235075D01*
X152007262Y-98633564D01*
X151777559Y-98077640D01*
X151352598Y-97651936D01*
X150797075Y-97421263D01*
X150195564Y-97420738D01*
X149639640Y-97650441D01*
X149224649Y-98064708D01*
X148812598Y-97651936D01*
X148257075Y-97421263D01*
X147655564Y-97420738D01*
X147099640Y-97650441D01*
X146686675Y-98062685D01*
X146669621Y-98037162D01*
X146379325Y-97986635D01*
X145432961Y-98933000D01*
X145447103Y-98947142D01*
X145429142Y-98965103D01*
X145415000Y-98950961D01*
X145400858Y-98965103D01*
X145382897Y-98947142D01*
X145397039Y-98933000D01*
X145382897Y-98918858D01*
X145400858Y-98900897D01*
X145415000Y-98915039D01*
X146361365Y-97968675D01*
X146310838Y-97678379D01*
X145762524Y-97431059D01*
X145161302Y-97412396D01*
X145096799Y-97436798D01*
X145096799Y-94789517D01*
X146498985Y-93387332D01*
X146819529Y-93708436D01*
X147472782Y-93979691D01*
X148180114Y-93980308D01*
X148833840Y-93710194D01*
X149086044Y-93458429D01*
X153328000Y-93458429D01*
X153328000Y-94506800D01*
X153518500Y-94697300D01*
X155327300Y-94697300D01*
X155327300Y-93038500D01*
X155136800Y-92848000D01*
X153938429Y-92848000D01*
X153658362Y-92964008D01*
X153444008Y-93178362D01*
X153328000Y-93458429D01*
X149086044Y-93458429D01*
X149334436Y-93210471D01*
X149605691Y-92557218D01*
X149606308Y-91849886D01*
X149336194Y-91196160D01*
X148836471Y-90695564D01*
X148183218Y-90424309D01*
X147475886Y-90423692D01*
X146822160Y-90693806D01*
X146321564Y-91193529D01*
X146272719Y-91311159D01*
X146041234Y-91357205D01*
X145922412Y-91436599D01*
X145744582Y-91555421D01*
X143535821Y-93764183D01*
X143337604Y-94060835D01*
X143267999Y-94410761D01*
X143267999Y-99209689D01*
X143306801Y-99404759D01*
X143306801Y-101229472D01*
X142138400Y-101229472D01*
X141856020Y-101282605D01*
X141596671Y-101449492D01*
X141422683Y-101704131D01*
X141361472Y-102006400D01*
X141361472Y-103733600D01*
X141414605Y-104015980D01*
X141581492Y-104275329D01*
X141738917Y-104382894D01*
X141468294Y-104787910D01*
X141344553Y-105410000D01*
X141468294Y-106032090D01*
X141820680Y-106559473D01*
X142001061Y-106680000D01*
X141820680Y-106800527D01*
X141468294Y-107327910D01*
X141344553Y-107950000D01*
X141468294Y-108572090D01*
X141820680Y-109099473D01*
X142001061Y-109220000D01*
X141820680Y-109340527D01*
X141468294Y-109867910D01*
X141344553Y-110490000D01*
X141468294Y-111112090D01*
X141820680Y-111639473D01*
X142348063Y-111991859D01*
X142970153Y-112115600D01*
X143033847Y-112115600D01*
X143655937Y-111991859D01*
X144183320Y-111639473D01*
X144272000Y-111506754D01*
X144360680Y-111639473D01*
X144888063Y-111991859D01*
X145510153Y-112115600D01*
X145573847Y-112115600D01*
X146195937Y-111991859D01*
X146723320Y-111639473D01*
X146901319Y-111373079D01*
X146960850Y-111397798D01*
X147371960Y-111398156D01*
X147401205Y-111553580D01*
X147568092Y-111812929D01*
X147822731Y-111986917D01*
X147823072Y-111986986D01*
X147823072Y-112641000D01*
X147876205Y-112923380D01*
X148018640Y-113144730D01*
X147954008Y-113209362D01*
X147838000Y-113489429D01*
X147838000Y-113937800D01*
X148028500Y-114128300D01*
X149212300Y-114128300D01*
X149212300Y-114108300D01*
X149237700Y-114108300D01*
X149237700Y-114128300D01*
X149257700Y-114128300D01*
X149257700Y-114153700D01*
X149237700Y-114153700D01*
X149237700Y-115212500D01*
X149428200Y-115403000D01*
X150001571Y-115403000D01*
X150209907Y-115316704D01*
X150271330Y-115465360D01*
X150597920Y-115792521D01*
X151024850Y-115969798D01*
X151487122Y-115970201D01*
X151914360Y-115793670D01*
X152036643Y-115671600D01*
X152654000Y-115671600D01*
X152984485Y-115605862D01*
X153173898Y-115479300D01*
X153179008Y-115491638D01*
X153393362Y-115705992D01*
X153673429Y-115822000D01*
X153896800Y-115822000D01*
X154087300Y-115631500D01*
X154087300Y-115614853D01*
X154114937Y-115633737D01*
X154303200Y-115822000D01*
X154526571Y-115822000D01*
X154534685Y-115818639D01*
X154625000Y-115836928D01*
X155175000Y-115836928D01*
X155304590Y-115812544D01*
X155425000Y-115836928D01*
X155975000Y-115836928D01*
X156104590Y-115812544D01*
X156225000Y-115836928D01*
X156775000Y-115836928D01*
X156904590Y-115812544D01*
X157025000Y-115836928D01*
X157575000Y-115836928D01*
X157704590Y-115812544D01*
X157825000Y-115836928D01*
X158264668Y-115836928D01*
X158289343Y-115873857D01*
X158443485Y-116028000D01*
X147605429Y-116028000D01*
X147605429Y-114344200D01*
X147838000Y-114344200D01*
X147838000Y-114792571D01*
X147954008Y-115072638D01*
X148168362Y-115286992D01*
X148448429Y-115403000D01*
X149021800Y-115403000D01*
X149212300Y-115212500D01*
X149212300Y-114153700D01*
X148028500Y-114153700D01*
X147838000Y-114344200D01*
X147605429Y-114344200D01*
X147605429Y-113189500D01*
X142322417Y-113189500D01*
X142258517Y-112868253D01*
X141807196Y-112192804D01*
X141131747Y-111741483D01*
X140335000Y-111583000D01*
X139538253Y-111741483D01*
X138862804Y-112192804D01*
X138411483Y-112868253D01*
X138309918Y-113378853D01*
X137972000Y-111680024D01*
X137972000Y-91519976D01*
X138309918Y-89821147D01*
X138411483Y-90331747D01*
X138862804Y-91007196D01*
X139538253Y-91458517D01*
X140335000Y-91617000D01*
X141131747Y-91458517D01*
X141807196Y-91007196D01*
X142258517Y-90331747D01*
X142401445Y-89613200D01*
X153328000Y-89613200D01*
X153328000Y-90661571D01*
X153444008Y-90941638D01*
X153658362Y-91155992D01*
X153938429Y-91272000D01*
X155136800Y-91272000D01*
X155327300Y-91081500D01*
X155327300Y-89422700D01*
X155352700Y-89422700D01*
X155352700Y-91081500D01*
X155543200Y-91272000D01*
X156741571Y-91272000D01*
X157021638Y-91155992D01*
X157235992Y-90941638D01*
X157352000Y-90661571D01*
X157352000Y-89613200D01*
X161728000Y-89613200D01*
X161728000Y-90661571D01*
X161844008Y-90941638D01*
X162058362Y-91155992D01*
X162338429Y-91272000D01*
X163536800Y-91272000D01*
X163727300Y-91081500D01*
X163727300Y-89422700D01*
X161918500Y-89422700D01*
X161728000Y-89613200D01*
X157352000Y-89613200D01*
X157161500Y-89422700D01*
X155352700Y-89422700D01*
X155327300Y-89422700D01*
X153518500Y-89422700D01*
X153328000Y-89613200D01*
X142401445Y-89613200D01*
X142417000Y-89535000D01*
X142258517Y-88738253D01*
X141871091Y-88158429D01*
X153328000Y-88158429D01*
X153328000Y-89206800D01*
X153518500Y-89397300D01*
X155327300Y-89397300D01*
X155327300Y-87738500D01*
X155352700Y-87738500D01*
X155352700Y-89397300D01*
X157161500Y-89397300D01*
X157352000Y-89206800D01*
X157352000Y-88158429D01*
X161728000Y-88158429D01*
X161728000Y-89206800D01*
X161918500Y-89397300D01*
X163727300Y-89397300D01*
X163727300Y-87738500D01*
X163536800Y-87548000D01*
X162338429Y-87548000D01*
X162058362Y-87664008D01*
X161844008Y-87878362D01*
X161728000Y-88158429D01*
X157352000Y-88158429D01*
X157235992Y-87878362D01*
X157021638Y-87664008D01*
X156741571Y-87548000D01*
X155543200Y-87548000D01*
X155352700Y-87738500D01*
X155327300Y-87738500D01*
X155136800Y-87548000D01*
X153938429Y-87548000D01*
X153658362Y-87664008D01*
X153444008Y-87878362D01*
X153328000Y-88158429D01*
X141871091Y-88158429D01*
X141807196Y-88062804D01*
X141131747Y-87611483D01*
X140621147Y-87509918D01*
X142319976Y-87172000D01*
X165020024Y-87172000D01*
X166718853Y-87509918D01*
X166718853Y-87509918D01*
G37*
X166718853Y-87509918D02*
X166208253Y-87611483D01*
X165673461Y-87968820D01*
X165635992Y-87878362D01*
X165421638Y-87664008D01*
X165141571Y-87548000D01*
X163943200Y-87548000D01*
X163752700Y-87738500D01*
X163752700Y-89397300D01*
X163772700Y-89397300D01*
X163772700Y-89422700D01*
X163752700Y-89422700D01*
X163752700Y-91081500D01*
X163943200Y-91272000D01*
X164687524Y-91272000D01*
X164687524Y-92848000D01*
X163943200Y-92848000D01*
X163752700Y-93038500D01*
X163752700Y-94697300D01*
X163772700Y-94697300D01*
X163772700Y-94722700D01*
X163752700Y-94722700D01*
X163752700Y-94742700D01*
X163727300Y-94742700D01*
X163727300Y-94722700D01*
X163707300Y-94722700D01*
X163707300Y-94697300D01*
X163727300Y-94697300D01*
X163727300Y-93038500D01*
X163536800Y-92848000D01*
X162501880Y-92848000D01*
X162502209Y-92469976D01*
X162318082Y-92024354D01*
X161977439Y-91683116D01*
X161532139Y-91498211D01*
X161049976Y-91497791D01*
X160604354Y-91681918D01*
X160595488Y-91690769D01*
X160252150Y-91548202D01*
X159789878Y-91547799D01*
X159362640Y-91724330D01*
X159035479Y-92050920D01*
X158932014Y-92300091D01*
X158818082Y-92024354D01*
X158477439Y-91683116D01*
X158032139Y-91498211D01*
X157549976Y-91497791D01*
X157104354Y-91681918D01*
X156763116Y-92022561D01*
X156578211Y-92467861D01*
X156577880Y-92848000D01*
X155543200Y-92848000D01*
X155352700Y-93038500D01*
X155352700Y-94697300D01*
X155372700Y-94697300D01*
X155372700Y-94722700D01*
X155352700Y-94722700D01*
X155352700Y-94742700D01*
X155327300Y-94742700D01*
X155327300Y-94722700D01*
X153518500Y-94722700D01*
X153328000Y-94913200D01*
X153328000Y-95961571D01*
X153444008Y-96241638D01*
X153658362Y-96455992D01*
X153861853Y-96540281D01*
X153621271Y-96695092D01*
X153447283Y-96949731D01*
X153386072Y-97252000D01*
X153386072Y-97952000D01*
X153439205Y-98234380D01*
X153606092Y-98493729D01*
X153689853Y-98550961D01*
X153621271Y-98595092D01*
X153447283Y-98849731D01*
X153386072Y-99152000D01*
X153386072Y-99852000D01*
X153439205Y-100134380D01*
X153581428Y-100355400D01*
X153464106Y-100355400D01*
X153195105Y-100408908D01*
X153133620Y-100421138D01*
X152884535Y-100587571D01*
X152717269Y-100473283D01*
X152415000Y-100412072D01*
X151559386Y-100412072D01*
X151374657Y-100227343D01*
X151353031Y-100212893D01*
X151776064Y-99790598D01*
X152006737Y-99235075D01*
X152007262Y-98633564D01*
X151777559Y-98077640D01*
X151352598Y-97651936D01*
X150797075Y-97421263D01*
X150195564Y-97420738D01*
X149639640Y-97650441D01*
X149224649Y-98064708D01*
X148812598Y-97651936D01*
X148257075Y-97421263D01*
X147655564Y-97420738D01*
X147099640Y-97650441D01*
X146686675Y-98062685D01*
X146669621Y-98037162D01*
X146379325Y-97986635D01*
X145432961Y-98933000D01*
X145447103Y-98947142D01*
X145429142Y-98965103D01*
X145415000Y-98950961D01*
X145400858Y-98965103D01*
X145382897Y-98947142D01*
X145397039Y-98933000D01*
X145382897Y-98918858D01*
X145400858Y-98900897D01*
X145415000Y-98915039D01*
X146361365Y-97968675D01*
X146310838Y-97678379D01*
X145762524Y-97431059D01*
X145161302Y-97412396D01*
X145096799Y-97436798D01*
X145096799Y-94789517D01*
X146498985Y-93387332D01*
X146819529Y-93708436D01*
X147472782Y-93979691D01*
X148180114Y-93980308D01*
X148833840Y-93710194D01*
X149086044Y-93458429D01*
X153328000Y-93458429D01*
X153328000Y-94506800D01*
X153518500Y-94697300D01*
X155327300Y-94697300D01*
X155327300Y-93038500D01*
X155136800Y-92848000D01*
X153938429Y-92848000D01*
X153658362Y-92964008D01*
X153444008Y-93178362D01*
X153328000Y-93458429D01*
X149086044Y-93458429D01*
X149334436Y-93210471D01*
X149605691Y-92557218D01*
X149606308Y-91849886D01*
X149336194Y-91196160D01*
X148836471Y-90695564D01*
X148183218Y-90424309D01*
X147475886Y-90423692D01*
X146822160Y-90693806D01*
X146321564Y-91193529D01*
X146272719Y-91311159D01*
X146041234Y-91357205D01*
X145922412Y-91436599D01*
X145744582Y-91555421D01*
X143535821Y-93764183D01*
X143337604Y-94060835D01*
X143267999Y-94410761D01*
X143267999Y-99209689D01*
X143306801Y-99404759D01*
X143306801Y-101229472D01*
X142138400Y-101229472D01*
X141856020Y-101282605D01*
X141596671Y-101449492D01*
X141422683Y-101704131D01*
X141361472Y-102006400D01*
X141361472Y-103733600D01*
X141414605Y-104015980D01*
X141581492Y-104275329D01*
X141738917Y-104382894D01*
X141468294Y-104787910D01*
X141344553Y-105410000D01*
X141468294Y-106032090D01*
X141820680Y-106559473D01*
X142001061Y-106680000D01*
X141820680Y-106800527D01*
X141468294Y-107327910D01*
X141344553Y-107950000D01*
X141468294Y-108572090D01*
X141820680Y-109099473D01*
X142001061Y-109220000D01*
X141820680Y-109340527D01*
X141468294Y-109867910D01*
X141344553Y-110490000D01*
X141468294Y-111112090D01*
X141820680Y-111639473D01*
X142348063Y-111991859D01*
X142970153Y-112115600D01*
X143033847Y-112115600D01*
X143655937Y-111991859D01*
X144183320Y-111639473D01*
X144272000Y-111506754D01*
X144360680Y-111639473D01*
X144888063Y-111991859D01*
X145510153Y-112115600D01*
X145573847Y-112115600D01*
X146195937Y-111991859D01*
X146723320Y-111639473D01*
X146901319Y-111373079D01*
X146960850Y-111397798D01*
X147371960Y-111398156D01*
X147401205Y-111553580D01*
X147568092Y-111812929D01*
X147822731Y-111986917D01*
X147823072Y-111986986D01*
X147823072Y-112641000D01*
X147876205Y-112923380D01*
X148018640Y-113144730D01*
X147954008Y-113209362D01*
X147838000Y-113489429D01*
X147838000Y-113937800D01*
X148028500Y-114128300D01*
X149212300Y-114128300D01*
X149212300Y-114108300D01*
X149237700Y-114108300D01*
X149237700Y-114128300D01*
X149257700Y-114128300D01*
X149257700Y-114153700D01*
X149237700Y-114153700D01*
X149237700Y-115212500D01*
X149428200Y-115403000D01*
X150001571Y-115403000D01*
X150209907Y-115316704D01*
X150271330Y-115465360D01*
X150597920Y-115792521D01*
X151024850Y-115969798D01*
X151487122Y-115970201D01*
X151914360Y-115793670D01*
X152036643Y-115671600D01*
X152654000Y-115671600D01*
X152984485Y-115605862D01*
X153173898Y-115479300D01*
X153179008Y-115491638D01*
X153393362Y-115705992D01*
X153673429Y-115822000D01*
X153896800Y-115822000D01*
X154087300Y-115631500D01*
X154087300Y-115614853D01*
X154114937Y-115633737D01*
X154303200Y-115822000D01*
X154526571Y-115822000D01*
X154534685Y-115818639D01*
X154625000Y-115836928D01*
X155175000Y-115836928D01*
X155304590Y-115812544D01*
X155425000Y-115836928D01*
X155975000Y-115836928D01*
X156104590Y-115812544D01*
X156225000Y-115836928D01*
X156775000Y-115836928D01*
X156904590Y-115812544D01*
X157025000Y-115836928D01*
X157575000Y-115836928D01*
X157704590Y-115812544D01*
X157825000Y-115836928D01*
X158264668Y-115836928D01*
X158289343Y-115873857D01*
X158443485Y-116028000D01*
X147605429Y-116028000D01*
X147605429Y-114344200D01*
X147838000Y-114344200D01*
X147838000Y-114792571D01*
X147954008Y-115072638D01*
X148168362Y-115286992D01*
X148448429Y-115403000D01*
X149021800Y-115403000D01*
X149212300Y-115212500D01*
X149212300Y-114153700D01*
X148028500Y-114153700D01*
X147838000Y-114344200D01*
X147605429Y-114344200D01*
X147605429Y-113189500D01*
X142322417Y-113189500D01*
X142258517Y-112868253D01*
X141807196Y-112192804D01*
X141131747Y-111741483D01*
X140335000Y-111583000D01*
X139538253Y-111741483D01*
X138862804Y-112192804D01*
X138411483Y-112868253D01*
X138309918Y-113378853D01*
X137972000Y-111680024D01*
X137972000Y-91519976D01*
X138309918Y-89821147D01*
X138411483Y-90331747D01*
X138862804Y-91007196D01*
X139538253Y-91458517D01*
X140335000Y-91617000D01*
X141131747Y-91458517D01*
X141807196Y-91007196D01*
X142258517Y-90331747D01*
X142401445Y-89613200D01*
X153328000Y-89613200D01*
X153328000Y-90661571D01*
X153444008Y-90941638D01*
X153658362Y-91155992D01*
X153938429Y-91272000D01*
X155136800Y-91272000D01*
X155327300Y-91081500D01*
X155327300Y-89422700D01*
X155352700Y-89422700D01*
X155352700Y-91081500D01*
X155543200Y-91272000D01*
X156741571Y-91272000D01*
X157021638Y-91155992D01*
X157235992Y-90941638D01*
X157352000Y-90661571D01*
X157352000Y-89613200D01*
X161728000Y-89613200D01*
X161728000Y-90661571D01*
X161844008Y-90941638D01*
X162058362Y-91155992D01*
X162338429Y-91272000D01*
X163536800Y-91272000D01*
X163727300Y-91081500D01*
X163727300Y-89422700D01*
X161918500Y-89422700D01*
X161728000Y-89613200D01*
X157352000Y-89613200D01*
X157161500Y-89422700D01*
X155352700Y-89422700D01*
X155327300Y-89422700D01*
X153518500Y-89422700D01*
X153328000Y-89613200D01*
X142401445Y-89613200D01*
X142417000Y-89535000D01*
X142258517Y-88738253D01*
X141871091Y-88158429D01*
X153328000Y-88158429D01*
X153328000Y-89206800D01*
X153518500Y-89397300D01*
X155327300Y-89397300D01*
X155327300Y-87738500D01*
X155352700Y-87738500D01*
X155352700Y-89397300D01*
X157161500Y-89397300D01*
X157352000Y-89206800D01*
X157352000Y-88158429D01*
X161728000Y-88158429D01*
X161728000Y-89206800D01*
X161918500Y-89397300D01*
X163727300Y-89397300D01*
X163727300Y-87738500D01*
X163536800Y-87548000D01*
X162338429Y-87548000D01*
X162058362Y-87664008D01*
X161844008Y-87878362D01*
X161728000Y-88158429D01*
X157352000Y-88158429D01*
X157235992Y-87878362D01*
X157021638Y-87664008D01*
X156741571Y-87548000D01*
X155543200Y-87548000D01*
X155352700Y-87738500D01*
X155327300Y-87738500D01*
X155136800Y-87548000D01*
X153938429Y-87548000D01*
X153658362Y-87664008D01*
X153444008Y-87878362D01*
X153328000Y-88158429D01*
X141871091Y-88158429D01*
X141807196Y-88062804D01*
X141131747Y-87611483D01*
X140621147Y-87509918D01*
X142319976Y-87172000D01*
X165020024Y-87172000D01*
X166718853Y-87509918D01*
G36*
X169368000Y-105078370D02*
X169190638Y-104901008D01*
X168910571Y-104785000D01*
X168462200Y-104785000D01*
X168271700Y-104975500D01*
X168271700Y-106159300D01*
X168291700Y-106159300D01*
X168291700Y-106184700D01*
X168271700Y-106184700D01*
X168271700Y-107368500D01*
X168462200Y-107559000D01*
X168910571Y-107559000D01*
X169190638Y-107442992D01*
X169368000Y-107265630D01*
X169368000Y-109400470D01*
X169339098Y-109371568D01*
X169059031Y-109255560D01*
X168511220Y-109255560D01*
X168320720Y-109446060D01*
X168320720Y-110604300D01*
X168340720Y-110604300D01*
X168340720Y-110629700D01*
X168320720Y-110629700D01*
X168320720Y-111787940D01*
X168511220Y-111978440D01*
X169059031Y-111978440D01*
X169331054Y-111865764D01*
X169030082Y-113378853D01*
X168928517Y-112868253D01*
X168477196Y-112192804D01*
X168125471Y-111957789D01*
X168295320Y-111787940D01*
X168295320Y-110629700D01*
X168275320Y-110629700D01*
X168275320Y-110604300D01*
X168295320Y-110604300D01*
X168295320Y-109446060D01*
X168104820Y-109255560D01*
X167557009Y-109255560D01*
X167276942Y-109371568D01*
X167251285Y-109397225D01*
X167111689Y-109301843D01*
X167054114Y-109290184D01*
X167227521Y-109117080D01*
X167404798Y-108690150D01*
X167405201Y-108227878D01*
X167228670Y-107800640D01*
X166963872Y-107535379D01*
X167041380Y-107520795D01*
X167262730Y-107378360D01*
X167327362Y-107442992D01*
X167607429Y-107559000D01*
X168055800Y-107559000D01*
X168246300Y-107368500D01*
X168246300Y-106184700D01*
X168226300Y-106184700D01*
X168226300Y-106159300D01*
X168246300Y-106159300D01*
X168246300Y-104975500D01*
X168055800Y-104785000D01*
X167607429Y-104785000D01*
X167327362Y-104901008D01*
X167260772Y-104967598D01*
X167061269Y-104831283D01*
X166759000Y-104770072D01*
X165759000Y-104770072D01*
X165476620Y-104823205D01*
X165318888Y-104924703D01*
X165326928Y-104885000D01*
X165326928Y-104335000D01*
X165273795Y-104052620D01*
X165106908Y-103793271D01*
X164852269Y-103619283D01*
X164550000Y-103558072D01*
X163151928Y-103558072D01*
X163151928Y-103438200D01*
X166507000Y-103438200D01*
X166507000Y-103886571D01*
X166623008Y-104166638D01*
X166837362Y-104380992D01*
X167117429Y-104497000D01*
X167690800Y-104497000D01*
X167881300Y-104306500D01*
X167881300Y-103247700D01*
X167906700Y-103247700D01*
X167906700Y-104306500D01*
X168097200Y-104497000D01*
X168670571Y-104497000D01*
X168950638Y-104380992D01*
X169164992Y-104166638D01*
X169281000Y-103886571D01*
X169281000Y-103438200D01*
X169090500Y-103247700D01*
X167906700Y-103247700D01*
X167881300Y-103247700D01*
X166697500Y-103247700D01*
X166507000Y-103438200D01*
X163151928Y-103438200D01*
X163151928Y-102160000D01*
X163101742Y-101893280D01*
X163114042Y-101893280D01*
X163193378Y-101878352D01*
X163210842Y-101878352D01*
X163214890Y-101874304D01*
X163396422Y-101840147D01*
X163507537Y-101768647D01*
X163617242Y-101878352D01*
X163665613Y-101878352D01*
X163945680Y-101762344D01*
X164160034Y-101547990D01*
X164276042Y-101267923D01*
X164276042Y-101093280D01*
X164314042Y-101093280D01*
X164596422Y-101040147D01*
X164855771Y-100873260D01*
X164954059Y-100729412D01*
X165085000Y-100755928D01*
X166385000Y-100755928D01*
X166492072Y-100735781D01*
X166492072Y-101735000D01*
X166545205Y-102017380D01*
X166687640Y-102238730D01*
X166623008Y-102303362D01*
X166507000Y-102583429D01*
X166507000Y-103031800D01*
X166697500Y-103222300D01*
X167881300Y-103222300D01*
X167881300Y-103202300D01*
X167906700Y-103202300D01*
X167906700Y-103222300D01*
X169090500Y-103222300D01*
X169281000Y-103031800D01*
X169281000Y-102583429D01*
X169164992Y-102303362D01*
X169098402Y-102236772D01*
X169234717Y-102037269D01*
X169295928Y-101735000D01*
X169295928Y-100735000D01*
X169242795Y-100452620D01*
X169194218Y-100377130D01*
X169259717Y-100281269D01*
X169320928Y-99979000D01*
X169320928Y-99723387D01*
X169368000Y-99676315D01*
X169368000Y-105078370D01*
X169368000Y-105078370D01*
G37*
X169368000Y-105078370D02*
X169190638Y-104901008D01*
X168910571Y-104785000D01*
X168462200Y-104785000D01*
X168271700Y-104975500D01*
X168271700Y-106159300D01*
X168291700Y-106159300D01*
X168291700Y-106184700D01*
X168271700Y-106184700D01*
X168271700Y-107368500D01*
X168462200Y-107559000D01*
X168910571Y-107559000D01*
X169190638Y-107442992D01*
X169368000Y-107265630D01*
X169368000Y-109400470D01*
X169339098Y-109371568D01*
X169059031Y-109255560D01*
X168511220Y-109255560D01*
X168320720Y-109446060D01*
X168320720Y-110604300D01*
X168340720Y-110604300D01*
X168340720Y-110629700D01*
X168320720Y-110629700D01*
X168320720Y-111787940D01*
X168511220Y-111978440D01*
X169059031Y-111978440D01*
X169331054Y-111865764D01*
X169030082Y-113378853D01*
X168928517Y-112868253D01*
X168477196Y-112192804D01*
X168125471Y-111957789D01*
X168295320Y-111787940D01*
X168295320Y-110629700D01*
X168275320Y-110629700D01*
X168275320Y-110604300D01*
X168295320Y-110604300D01*
X168295320Y-109446060D01*
X168104820Y-109255560D01*
X167557009Y-109255560D01*
X167276942Y-109371568D01*
X167251285Y-109397225D01*
X167111689Y-109301843D01*
X167054114Y-109290184D01*
X167227521Y-109117080D01*
X167404798Y-108690150D01*
X167405201Y-108227878D01*
X167228670Y-107800640D01*
X166963872Y-107535379D01*
X167041380Y-107520795D01*
X167262730Y-107378360D01*
X167327362Y-107442992D01*
X167607429Y-107559000D01*
X168055800Y-107559000D01*
X168246300Y-107368500D01*
X168246300Y-106184700D01*
X168226300Y-106184700D01*
X168226300Y-106159300D01*
X168246300Y-106159300D01*
X168246300Y-104975500D01*
X168055800Y-104785000D01*
X167607429Y-104785000D01*
X167327362Y-104901008D01*
X167260772Y-104967598D01*
X167061269Y-104831283D01*
X166759000Y-104770072D01*
X165759000Y-104770072D01*
X165476620Y-104823205D01*
X165318888Y-104924703D01*
X165326928Y-104885000D01*
X165326928Y-104335000D01*
X165273795Y-104052620D01*
X165106908Y-103793271D01*
X164852269Y-103619283D01*
X164550000Y-103558072D01*
X163151928Y-103558072D01*
X163151928Y-103438200D01*
X166507000Y-103438200D01*
X166507000Y-103886571D01*
X166623008Y-104166638D01*
X166837362Y-104380992D01*
X167117429Y-104497000D01*
X167690800Y-104497000D01*
X167881300Y-104306500D01*
X167881300Y-103247700D01*
X167906700Y-103247700D01*
X167906700Y-104306500D01*
X168097200Y-104497000D01*
X168670571Y-104497000D01*
X168950638Y-104380992D01*
X169164992Y-104166638D01*
X169281000Y-103886571D01*
X169281000Y-103438200D01*
X169090500Y-103247700D01*
X167906700Y-103247700D01*
X167881300Y-103247700D01*
X166697500Y-103247700D01*
X166507000Y-103438200D01*
X163151928Y-103438200D01*
X163151928Y-102160000D01*
X163101742Y-101893280D01*
X163114042Y-101893280D01*
X163193378Y-101878352D01*
X163210842Y-101878352D01*
X163214890Y-101874304D01*
X163396422Y-101840147D01*
X163507537Y-101768647D01*
X163617242Y-101878352D01*
X163665613Y-101878352D01*
X163945680Y-101762344D01*
X164160034Y-101547990D01*
X164276042Y-101267923D01*
X164276042Y-101093280D01*
X164314042Y-101093280D01*
X164596422Y-101040147D01*
X164855771Y-100873260D01*
X164954059Y-100729412D01*
X165085000Y-100755928D01*
X166385000Y-100755928D01*
X166492072Y-100735781D01*
X166492072Y-101735000D01*
X166545205Y-102017380D01*
X166687640Y-102238730D01*
X166623008Y-102303362D01*
X166507000Y-102583429D01*
X166507000Y-103031800D01*
X166697500Y-103222300D01*
X167881300Y-103222300D01*
X167881300Y-103202300D01*
X167906700Y-103202300D01*
X167906700Y-103222300D01*
X169090500Y-103222300D01*
X169281000Y-103031800D01*
X169281000Y-102583429D01*
X169164992Y-102303362D01*
X169098402Y-102236772D01*
X169234717Y-102037269D01*
X169295928Y-101735000D01*
X169295928Y-100735000D01*
X169242795Y-100452620D01*
X169194218Y-100377130D01*
X169259717Y-100281269D01*
X169320928Y-99979000D01*
X169320928Y-99723387D01*
X169368000Y-99676315D01*
X169368000Y-105078370D01*
G36*
X162273072Y-110735000D02*
X162273072Y-111285000D01*
X162290470Y-111377465D01*
X162288000Y-111383429D01*
X162288000Y-111606800D01*
X162466312Y-111785112D01*
X162484336Y-111813122D01*
X162476263Y-111824937D01*
X162288000Y-112013200D01*
X162288000Y-112236571D01*
X162291361Y-112244685D01*
X162273072Y-112335000D01*
X162273072Y-112828128D01*
X162112700Y-112988500D01*
X162112700Y-113005147D01*
X162085063Y-112986263D01*
X161896800Y-112798000D01*
X161673429Y-112798000D01*
X161665315Y-112801361D01*
X161575000Y-112783072D01*
X161025000Y-112783072D01*
X160895410Y-112807456D01*
X160775000Y-112783072D01*
X160335333Y-112783072D01*
X160310658Y-112746143D01*
X158785070Y-111220556D01*
X158781124Y-111200717D01*
X158777861Y-111184313D01*
X158703885Y-111073600D01*
X161062000Y-111073600D01*
X161346851Y-111016939D01*
X161647122Y-111017201D01*
X162074360Y-110840670D01*
X162296599Y-110618819D01*
X162273072Y-110735000D01*
X162273072Y-110735000D01*
G37*
X162273072Y-110735000D02*
X162273072Y-111285000D01*
X162290470Y-111377465D01*
X162288000Y-111383429D01*
X162288000Y-111606800D01*
X162466312Y-111785112D01*
X162484336Y-111813122D01*
X162476263Y-111824937D01*
X162288000Y-112013200D01*
X162288000Y-112236571D01*
X162291361Y-112244685D01*
X162273072Y-112335000D01*
X162273072Y-112828128D01*
X162112700Y-112988500D01*
X162112700Y-113005147D01*
X162085063Y-112986263D01*
X161896800Y-112798000D01*
X161673429Y-112798000D01*
X161665315Y-112801361D01*
X161575000Y-112783072D01*
X161025000Y-112783072D01*
X160895410Y-112807456D01*
X160775000Y-112783072D01*
X160335333Y-112783072D01*
X160310658Y-112746143D01*
X158785070Y-111220556D01*
X158781124Y-111200717D01*
X158777861Y-111184313D01*
X158703885Y-111073600D01*
X161062000Y-111073600D01*
X161346851Y-111016939D01*
X161647122Y-111017201D01*
X162074360Y-110840670D01*
X162296599Y-110618819D01*
X162273072Y-110735000D01*
G36*
X156317799Y-111244922D02*
X156494330Y-111672160D01*
X156820920Y-111999321D01*
X157247850Y-112176598D01*
X157322039Y-112176663D01*
X157369342Y-112247456D01*
X157904958Y-112783072D01*
X157825000Y-112783072D01*
X157695410Y-112807456D01*
X157575000Y-112783072D01*
X157025000Y-112783072D01*
X156895410Y-112807456D01*
X156775000Y-112783072D01*
X156225000Y-112783072D01*
X156095410Y-112807456D01*
X155975000Y-112783072D01*
X155425000Y-112783072D01*
X155295410Y-112807456D01*
X155175000Y-112783072D01*
X154625000Y-112783072D01*
X154532535Y-112800470D01*
X154526571Y-112798000D01*
X154318401Y-112798000D01*
X154318401Y-111111601D01*
X154310842Y-111073600D01*
X156317948Y-111073600D01*
X156317799Y-111244922D01*
X156317799Y-111244922D01*
G37*
X156317799Y-111244922D02*
X156494330Y-111672160D01*
X156820920Y-111999321D01*
X157247850Y-112176598D01*
X157322039Y-112176663D01*
X157369342Y-112247456D01*
X157904958Y-112783072D01*
X157825000Y-112783072D01*
X157695410Y-112807456D01*
X157575000Y-112783072D01*
X157025000Y-112783072D01*
X156895410Y-112807456D01*
X156775000Y-112783072D01*
X156225000Y-112783072D01*
X156095410Y-112807456D01*
X155975000Y-112783072D01*
X155425000Y-112783072D01*
X155295410Y-112807456D01*
X155175000Y-112783072D01*
X154625000Y-112783072D01*
X154532535Y-112800470D01*
X154526571Y-112798000D01*
X154318401Y-112798000D01*
X154318401Y-111111601D01*
X154310842Y-111073600D01*
X156317948Y-111073600D01*
X156317799Y-111244922D01*
G36*
X154497448Y-107739869D02*
X154777620Y-107927073D01*
X155108105Y-107992811D01*
X158683830Y-107992811D01*
X158780330Y-108226360D01*
X159099811Y-108546400D01*
X153926928Y-108546400D01*
X153926928Y-108335000D01*
X153902544Y-108205410D01*
X153926928Y-108085000D01*
X153926928Y-107535000D01*
X153909530Y-107442535D01*
X153912000Y-107436571D01*
X153912000Y-107213200D01*
X153772400Y-107073600D01*
X153831180Y-107073600D01*
X154497448Y-107739869D01*
X154497448Y-107739869D01*
G37*
X154497448Y-107739869D02*
X154777620Y-107927073D01*
X155108105Y-107992811D01*
X158683830Y-107992811D01*
X158780330Y-108226360D01*
X159099811Y-108546400D01*
X153926928Y-108546400D01*
X153926928Y-108335000D01*
X153902544Y-108205410D01*
X153926928Y-108085000D01*
X153926928Y-107535000D01*
X153909530Y-107442535D01*
X153912000Y-107436571D01*
X153912000Y-107213200D01*
X153772400Y-107073600D01*
X153831180Y-107073600D01*
X154497448Y-107739869D01*
G36*
X162288000Y-105836571D02*
X162291361Y-105844685D01*
X162273072Y-105935000D01*
X162273072Y-106485000D01*
X162297456Y-106614590D01*
X162273072Y-106735000D01*
X162273072Y-107285000D01*
X162297456Y-107414590D01*
X162273072Y-107535000D01*
X162273072Y-107670815D01*
X162076080Y-107473479D01*
X161649150Y-107296202D01*
X161260451Y-107295863D01*
X161519657Y-107036657D01*
X161706862Y-106756486D01*
X161741285Y-106583429D01*
X161772600Y-106426000D01*
X161772600Y-106316790D01*
X161893521Y-106196080D01*
X162067029Y-105778227D01*
X162268000Y-105778402D01*
X162288000Y-105770138D01*
X162288000Y-105836571D01*
X162288000Y-105836571D01*
G37*
X162288000Y-105836571D02*
X162291361Y-105844685D01*
X162273072Y-105935000D01*
X162273072Y-106485000D01*
X162297456Y-106614590D01*
X162273072Y-106735000D01*
X162273072Y-107285000D01*
X162297456Y-107414590D01*
X162273072Y-107535000D01*
X162273072Y-107670815D01*
X162076080Y-107473479D01*
X161649150Y-107296202D01*
X161260451Y-107295863D01*
X161519657Y-107036657D01*
X161706862Y-106756486D01*
X161741285Y-106583429D01*
X161772600Y-106426000D01*
X161772600Y-106316790D01*
X161893521Y-106196080D01*
X162067029Y-105778227D01*
X162268000Y-105778402D01*
X162288000Y-105770138D01*
X162288000Y-105836571D01*
G36*
X147838000Y-102089200D02*
X148028500Y-102279700D01*
X149212300Y-102279700D01*
X149212300Y-102259700D01*
X149237700Y-102259700D01*
X149237700Y-102279700D01*
X149257700Y-102279700D01*
X149257700Y-102305100D01*
X149237700Y-102305100D01*
X149237700Y-102325100D01*
X149212300Y-102325100D01*
X149212300Y-102305100D01*
X148028500Y-102305100D01*
X147838000Y-102495600D01*
X147838000Y-102943971D01*
X147954008Y-103224038D01*
X148020598Y-103290628D01*
X147884283Y-103490131D01*
X147823072Y-103792400D01*
X147823072Y-104459984D01*
X147583271Y-104614292D01*
X147409283Y-104868931D01*
X147380683Y-105010163D01*
X147119870Y-105009936D01*
X147075706Y-104787910D01*
X146723320Y-104260527D01*
X146528753Y-104130521D01*
X146864564Y-103815200D01*
X147125602Y-103237128D01*
X147145550Y-103136836D01*
X146977044Y-102882700D01*
X145554700Y-102882700D01*
X145554700Y-102902700D01*
X145529300Y-102902700D01*
X145529300Y-102882700D01*
X145509300Y-102882700D01*
X145509300Y-102857300D01*
X145529300Y-102857300D01*
X145529300Y-102837300D01*
X145554700Y-102837300D01*
X145554700Y-102857300D01*
X146977044Y-102857300D01*
X147145550Y-102603164D01*
X147125602Y-102502872D01*
X146864564Y-101924800D01*
X146626860Y-101701600D01*
X147838000Y-101701600D01*
X147838000Y-102089200D01*
X147838000Y-102089200D01*
G37*
X147838000Y-102089200D02*
X148028500Y-102279700D01*
X149212300Y-102279700D01*
X149212300Y-102259700D01*
X149237700Y-102259700D01*
X149237700Y-102279700D01*
X149257700Y-102279700D01*
X149257700Y-102305100D01*
X149237700Y-102305100D01*
X149237700Y-102325100D01*
X149212300Y-102325100D01*
X149212300Y-102305100D01*
X148028500Y-102305100D01*
X147838000Y-102495600D01*
X147838000Y-102943971D01*
X147954008Y-103224038D01*
X148020598Y-103290628D01*
X147884283Y-103490131D01*
X147823072Y-103792400D01*
X147823072Y-104459984D01*
X147583271Y-104614292D01*
X147409283Y-104868931D01*
X147380683Y-105010163D01*
X147119870Y-105009936D01*
X147075706Y-104787910D01*
X146723320Y-104260527D01*
X146528753Y-104130521D01*
X146864564Y-103815200D01*
X147125602Y-103237128D01*
X147145550Y-103136836D01*
X146977044Y-102882700D01*
X145554700Y-102882700D01*
X145554700Y-102902700D01*
X145529300Y-102902700D01*
X145529300Y-102882700D01*
X145509300Y-102882700D01*
X145509300Y-102857300D01*
X145529300Y-102857300D01*
X145529300Y-102837300D01*
X145554700Y-102837300D01*
X145554700Y-102857300D01*
X146977044Y-102857300D01*
X147145550Y-102603164D01*
X147125602Y-102502872D01*
X146864564Y-101924800D01*
X146626860Y-101701600D01*
X147838000Y-101701600D01*
X147838000Y-102089200D01*
M02*
