G04 #@! TF.FileFunction,Legend,Top*
%FSLAX46Y46*%
G04 Gerber Fmt 4.6, Leading zero omitted, Abs format (unit mm)*
G04 Created by KiCad (PCBNEW 4.0.4+e1-6308~48~ubuntu16.04.1-stable) date Wed Nov 16 18:20:05 2016*
%MOMM*%
%LPD*%
G01*
G04 APERTURE LIST*
%ADD10C,0.100000*%
%ADD11C,0.300000*%
%ADD12C,0.150000*%
G04 APERTURE END LIST*
D10*
D11*
X135775143Y-102543571D02*
X135775143Y-104043571D01*
X136489429Y-103329286D02*
X136560857Y-103472143D01*
X136703714Y-103543571D01*
X135775143Y-103329286D02*
X135846571Y-103472143D01*
X135989429Y-103543571D01*
X136275143Y-103543571D01*
X136418000Y-103472143D01*
X136489429Y-103329286D01*
X136489429Y-102543571D01*
X137275143Y-103472143D02*
X137489429Y-103543571D01*
X137846572Y-103543571D01*
X137989429Y-103472143D01*
X138060858Y-103400714D01*
X138132286Y-103257857D01*
X138132286Y-103115000D01*
X138060858Y-102972143D01*
X137989429Y-102900714D01*
X137846572Y-102829286D01*
X137560858Y-102757857D01*
X137418000Y-102686429D01*
X137346572Y-102615000D01*
X137275143Y-102472143D01*
X137275143Y-102329286D01*
X137346572Y-102186429D01*
X137418000Y-102115000D01*
X137560858Y-102043571D01*
X137918000Y-102043571D01*
X138132286Y-102115000D01*
X138775143Y-103543571D02*
X138775143Y-102043571D01*
X139132286Y-102043571D01*
X139346571Y-102115000D01*
X139489429Y-102257857D01*
X139560857Y-102400714D01*
X139632286Y-102686429D01*
X139632286Y-102900714D01*
X139560857Y-103186429D01*
X139489429Y-103329286D01*
X139346571Y-103472143D01*
X139132286Y-103543571D01*
X138775143Y-103543571D01*
X135453715Y-106093571D02*
X135453715Y-104593571D01*
X137025144Y-105950714D02*
X136953715Y-106022143D01*
X136739429Y-106093571D01*
X136596572Y-106093571D01*
X136382287Y-106022143D01*
X136239429Y-105879286D01*
X136168001Y-105736429D01*
X136096572Y-105450714D01*
X136096572Y-105236429D01*
X136168001Y-104950714D01*
X136239429Y-104807857D01*
X136382287Y-104665000D01*
X136596572Y-104593571D01*
X136739429Y-104593571D01*
X136953715Y-104665000D01*
X137025144Y-104736429D01*
X137596572Y-106022143D02*
X137810858Y-106093571D01*
X138168001Y-106093571D01*
X138310858Y-106022143D01*
X138382287Y-105950714D01*
X138453715Y-105807857D01*
X138453715Y-105665000D01*
X138382287Y-105522143D01*
X138310858Y-105450714D01*
X138168001Y-105379286D01*
X137882287Y-105307857D01*
X137739429Y-105236429D01*
X137668001Y-105165000D01*
X137596572Y-105022143D01*
X137596572Y-104879286D01*
X137668001Y-104736429D01*
X137739429Y-104665000D01*
X137882287Y-104593571D01*
X138239429Y-104593571D01*
X138453715Y-104665000D01*
X139096572Y-106093571D02*
X139096572Y-104593571D01*
X139668000Y-104593571D01*
X139810858Y-104665000D01*
X139882286Y-104736429D01*
X139953715Y-104879286D01*
X139953715Y-105093571D01*
X139882286Y-105236429D01*
X139810858Y-105307857D01*
X139668000Y-105379286D01*
X139096572Y-105379286D01*
D12*
X131753429Y-100166714D02*
X131499429Y-99803857D01*
X131318001Y-100166714D02*
X131318001Y-99404714D01*
X131608286Y-99404714D01*
X131680858Y-99441000D01*
X131717143Y-99477286D01*
X131753429Y-99549857D01*
X131753429Y-99658714D01*
X131717143Y-99731286D01*
X131680858Y-99767571D01*
X131608286Y-99803857D01*
X131318001Y-99803857D01*
X132043715Y-100130429D02*
X132152572Y-100166714D01*
X132334001Y-100166714D01*
X132406572Y-100130429D01*
X132442858Y-100094143D01*
X132479143Y-100021571D01*
X132479143Y-99949000D01*
X132442858Y-99876429D01*
X132406572Y-99840143D01*
X132334001Y-99803857D01*
X132188858Y-99767571D01*
X132116286Y-99731286D01*
X132080001Y-99695000D01*
X132043715Y-99622429D01*
X132043715Y-99549857D01*
X132080001Y-99477286D01*
X132116286Y-99441000D01*
X132188858Y-99404714D01*
X132370286Y-99404714D01*
X132479143Y-99441000D01*
X132696857Y-99404714D02*
X132950857Y-100166714D01*
X133204857Y-99404714D01*
X131662715Y-108294714D02*
X131408715Y-107931857D01*
X131227287Y-108294714D02*
X131227287Y-107532714D01*
X131517572Y-107532714D01*
X131590144Y-107569000D01*
X131626429Y-107605286D01*
X131662715Y-107677857D01*
X131662715Y-107786714D01*
X131626429Y-107859286D01*
X131590144Y-107895571D01*
X131517572Y-107931857D01*
X131227287Y-107931857D01*
X131953001Y-108258429D02*
X132061858Y-108294714D01*
X132243287Y-108294714D01*
X132315858Y-108258429D01*
X132352144Y-108222143D01*
X132388429Y-108149571D01*
X132388429Y-108077000D01*
X132352144Y-108004429D01*
X132315858Y-107968143D01*
X132243287Y-107931857D01*
X132098144Y-107895571D01*
X132025572Y-107859286D01*
X131989287Y-107823000D01*
X131953001Y-107750429D01*
X131953001Y-107677857D01*
X131989287Y-107605286D01*
X132025572Y-107569000D01*
X132098144Y-107532714D01*
X132279572Y-107532714D01*
X132388429Y-107569000D01*
X132606143Y-107532714D02*
X133041572Y-107532714D01*
X132823858Y-108294714D02*
X132823858Y-107532714D01*
X167894000Y-109198000D02*
X147574000Y-109198000D01*
X167354000Y-108648000D02*
X148134000Y-108648000D01*
X167894000Y-100098000D02*
X147574000Y-100098000D01*
X167354000Y-100648000D02*
X159984000Y-100648000D01*
X155484000Y-100648000D02*
X148134000Y-100648000D01*
X159984000Y-100648000D02*
X159984000Y-100098000D01*
X155484000Y-100648000D02*
X155484000Y-100098000D01*
X167894000Y-109198000D02*
X167894000Y-100098000D01*
X167354000Y-108648000D02*
X167354000Y-100648000D01*
X147574000Y-109198000D02*
X147574000Y-100098000D01*
X148134000Y-108648000D02*
X148134000Y-100648000D01*
X167894000Y-109198000D02*
X167354000Y-108648000D01*
X147574000Y-109198000D02*
X148134000Y-108648000D01*
X167894000Y-100098000D02*
X167354000Y-100648000D01*
X147574000Y-100098000D02*
X148134000Y-100648000D01*
X133033650Y-110050693D02*
X131752969Y-108727558D01*
X127139679Y-99064866D02*
X141620096Y-99064866D01*
X136005397Y-109314832D02*
X134576128Y-109314832D01*
X141064442Y-110064844D02*
X136720031Y-110064844D01*
X131752969Y-108727558D02*
X127139679Y-108727558D01*
X141620096Y-109577154D02*
X141064442Y-110064844D01*
X141620096Y-99064866D02*
X141620096Y-109577154D01*
X136720031Y-110064844D02*
X136005397Y-109314832D01*
X127139679Y-108727558D02*
X127139679Y-99064866D01*
X134576128Y-109314832D02*
X134576128Y-110050693D01*
X134576128Y-110050693D02*
X133033650Y-110050693D01*
X131227286Y-103686429D02*
X131336143Y-103722714D01*
X131517572Y-103722714D01*
X131590143Y-103686429D01*
X131626429Y-103650143D01*
X131662714Y-103577571D01*
X131662714Y-103505000D01*
X131626429Y-103432429D01*
X131590143Y-103396143D01*
X131517572Y-103359857D01*
X131372429Y-103323571D01*
X131299857Y-103287286D01*
X131263572Y-103251000D01*
X131227286Y-103178429D01*
X131227286Y-103105857D01*
X131263572Y-103033286D01*
X131299857Y-102997000D01*
X131372429Y-102960714D01*
X131553857Y-102960714D01*
X131662714Y-102997000D01*
X132424714Y-103650143D02*
X132388428Y-103686429D01*
X132279571Y-103722714D01*
X132207000Y-103722714D01*
X132098143Y-103686429D01*
X132025571Y-103613857D01*
X131989286Y-103541286D01*
X131953000Y-103396143D01*
X131953000Y-103287286D01*
X131989286Y-103142143D01*
X132025571Y-103069571D01*
X132098143Y-102997000D01*
X132207000Y-102960714D01*
X132279571Y-102960714D01*
X132388428Y-102997000D01*
X132424714Y-103033286D01*
X132751286Y-103722714D02*
X132751286Y-102960714D01*
X133186714Y-103722714D02*
X132860143Y-103287286D01*
X133186714Y-102960714D02*
X132751286Y-103396143D01*
X131263572Y-106008714D02*
X131263572Y-105246714D01*
X131517572Y-105791000D01*
X131771572Y-105246714D01*
X131771572Y-106008714D01*
X132279571Y-105246714D02*
X132424714Y-105246714D01*
X132497286Y-105283000D01*
X132569857Y-105355571D01*
X132606143Y-105500714D01*
X132606143Y-105754714D01*
X132569857Y-105899857D01*
X132497286Y-105972429D01*
X132424714Y-106008714D01*
X132279571Y-106008714D01*
X132207000Y-105972429D01*
X132134429Y-105899857D01*
X132098143Y-105754714D01*
X132098143Y-105500714D01*
X132134429Y-105355571D01*
X132207000Y-105283000D01*
X132279571Y-105246714D01*
X132896429Y-105972429D02*
X133005286Y-106008714D01*
X133186715Y-106008714D01*
X133259286Y-105972429D01*
X133295572Y-105936143D01*
X133331857Y-105863571D01*
X133331857Y-105791000D01*
X133295572Y-105718429D01*
X133259286Y-105682143D01*
X133186715Y-105645857D01*
X133041572Y-105609571D01*
X132969000Y-105573286D01*
X132932715Y-105537000D01*
X132896429Y-105464429D01*
X132896429Y-105391857D01*
X132932715Y-105319286D01*
X132969000Y-105283000D01*
X133041572Y-105246714D01*
X133223000Y-105246714D01*
X133331857Y-105283000D01*
X133658429Y-106008714D02*
X133658429Y-105246714D01*
X131263572Y-101436714D02*
X131263572Y-100674714D01*
X131517572Y-101219000D01*
X131771572Y-100674714D01*
X131771572Y-101436714D01*
X132134429Y-101436714D02*
X132134429Y-100674714D01*
X132461000Y-101400429D02*
X132569857Y-101436714D01*
X132751286Y-101436714D01*
X132823857Y-101400429D01*
X132860143Y-101364143D01*
X132896428Y-101291571D01*
X132896428Y-101219000D01*
X132860143Y-101146429D01*
X132823857Y-101110143D01*
X132751286Y-101073857D01*
X132606143Y-101037571D01*
X132533571Y-101001286D01*
X132497286Y-100965000D01*
X132461000Y-100892429D01*
X132461000Y-100819857D01*
X132497286Y-100747286D01*
X132533571Y-100711000D01*
X132606143Y-100674714D01*
X132787571Y-100674714D01*
X132896428Y-100711000D01*
X133368142Y-100674714D02*
X133513285Y-100674714D01*
X133585857Y-100711000D01*
X133658428Y-100783571D01*
X133694714Y-100928714D01*
X133694714Y-101182714D01*
X133658428Y-101327857D01*
X133585857Y-101400429D01*
X133513285Y-101436714D01*
X133368142Y-101436714D01*
X133295571Y-101400429D01*
X133223000Y-101327857D01*
X133186714Y-101182714D01*
X133186714Y-100928714D01*
X133223000Y-100783571D01*
X133295571Y-100711000D01*
X133368142Y-100674714D01*
X131191000Y-104103714D02*
X131445000Y-104865714D01*
X131699000Y-104103714D01*
X131953001Y-104865714D02*
X131953001Y-104103714D01*
X132134429Y-104103714D01*
X132243286Y-104140000D01*
X132315858Y-104212571D01*
X132352143Y-104285143D01*
X132388429Y-104430286D01*
X132388429Y-104539143D01*
X132352143Y-104684286D01*
X132315858Y-104756857D01*
X132243286Y-104829429D01*
X132134429Y-104865714D01*
X131953001Y-104865714D01*
X132715001Y-104865714D02*
X132715001Y-104103714D01*
X132896429Y-104103714D01*
X133005286Y-104140000D01*
X133077858Y-104212571D01*
X133114143Y-104285143D01*
X133150429Y-104430286D01*
X133150429Y-104539143D01*
X133114143Y-104684286D01*
X133077858Y-104756857D01*
X133005286Y-104829429D01*
X132896429Y-104865714D01*
X132715001Y-104865714D01*
X131626428Y-101854000D02*
X131553857Y-101817714D01*
X131445000Y-101817714D01*
X131336143Y-101854000D01*
X131263571Y-101926571D01*
X131227286Y-101999143D01*
X131191000Y-102144286D01*
X131191000Y-102253143D01*
X131227286Y-102398286D01*
X131263571Y-102470857D01*
X131336143Y-102543429D01*
X131445000Y-102579714D01*
X131517571Y-102579714D01*
X131626428Y-102543429D01*
X131662714Y-102507143D01*
X131662714Y-102253143D01*
X131517571Y-102253143D01*
X131989286Y-102579714D02*
X131989286Y-101817714D01*
X132424714Y-102579714D01*
X132424714Y-101817714D01*
X132787572Y-102579714D02*
X132787572Y-101817714D01*
X132969000Y-101817714D01*
X133077857Y-101854000D01*
X133150429Y-101926571D01*
X133186714Y-101999143D01*
X133223000Y-102144286D01*
X133223000Y-102253143D01*
X133186714Y-102398286D01*
X133150429Y-102470857D01*
X133077857Y-102543429D01*
X132969000Y-102579714D01*
X132787572Y-102579714D01*
X131699000Y-107079143D02*
X131662714Y-107115429D01*
X131553857Y-107151714D01*
X131481286Y-107151714D01*
X131372429Y-107115429D01*
X131299857Y-107042857D01*
X131263572Y-106970286D01*
X131227286Y-106825143D01*
X131227286Y-106716286D01*
X131263572Y-106571143D01*
X131299857Y-106498571D01*
X131372429Y-106426000D01*
X131481286Y-106389714D01*
X131553857Y-106389714D01*
X131662714Y-106426000D01*
X131699000Y-106462286D01*
X131989286Y-107115429D02*
X132098143Y-107151714D01*
X132279572Y-107151714D01*
X132352143Y-107115429D01*
X132388429Y-107079143D01*
X132424714Y-107006571D01*
X132424714Y-106934000D01*
X132388429Y-106861429D01*
X132352143Y-106825143D01*
X132279572Y-106788857D01*
X132134429Y-106752571D01*
X132061857Y-106716286D01*
X132025572Y-106680000D01*
X131989286Y-106607429D01*
X131989286Y-106534857D01*
X132025572Y-106462286D01*
X132061857Y-106426000D01*
X132134429Y-106389714D01*
X132315857Y-106389714D01*
X132424714Y-106426000D01*
M02*
