M48
;DRILL file {KiCad 4.0.4+e1-6308~48~ubuntu16.04.1-stable} date Tue Nov 15 18:16:54 2016
;FORMAT={-:-/ absolute / inch / decimal}
FMAT,2
INCH,TZ
T1C0.020
T2C0.028
T3C0.040
%
G90
G05
M72
T1
X5.795Y-4.18
X5.795Y-4.34
X5.865Y-3.815
X5.955Y-4.52
X6.Y-4.48
X6.025Y-3.955
X6.08Y-3.985
X6.1Y-4.17
X6.1Y-4.43
X6.12Y-4.275
X6.16Y-3.98
X6.175Y-4.17
X6.2Y-4.3707
X6.205Y-3.98
X6.2211Y-4.145
X6.265Y-4.17
X6.285Y-3.915
X6.29Y-4.235
X6.3Y-3.65
X6.335Y-4.155
X6.355Y-4.27
X6.355Y-4.325
X6.3794Y-4.1187
X6.385Y-4.405
X6.42Y-4.015
X6.5248Y-3.81
X6.545Y-4.27
X6.6051Y-3.8099
T2
X5.725Y-3.895
X5.825Y-3.895
X5.925Y-3.895
T3
X5.63Y-4.05
X5.63Y-4.15
X5.63Y-4.25
X5.63Y-4.35
X5.73Y-4.05
X5.73Y-4.15
X5.73Y-4.25
X5.73Y-4.35
X5.82Y-3.63
T0
M30
