G04 #@! TF.FileFunction,Legend,Bot*
%FSLAX46Y46*%
G04 Gerber Fmt 4.6, Leading zero omitted, Abs format (unit mm)*
G04 Created by KiCad (PCBNEW 4.0.4+e1-6308~48~ubuntu16.04.1-stable) date Tue Nov 15 18:16:49 2016*
%MOMM*%
%LPD*%
G01*
G04 APERTURE LIST*
%ADD10C,0.100000*%
%ADD11C,0.150000*%
%ADD12C,0.381000*%
%ADD13C,0.127000*%
G04 APERTURE END LIST*
D10*
D11*
X162822000Y-101180000D02*
X161822000Y-101180000D01*
X161822000Y-99480000D02*
X162822000Y-99480000D01*
X158838000Y-98195000D02*
X158838000Y-99195000D01*
X157138000Y-99195000D02*
X157138000Y-98195000D01*
X143852000Y-93988000D02*
X143852000Y-94988000D01*
X142152000Y-94988000D02*
X142152000Y-93988000D01*
X151804000Y-94988000D02*
X151804000Y-93988000D01*
X153504000Y-93988000D02*
X153504000Y-94988000D01*
X154187000Y-91275000D02*
X156587000Y-91275000D01*
X154187000Y-92875000D02*
X156587000Y-92875000D01*
X158639000Y-91264000D02*
X160639000Y-91264000D01*
X160639000Y-88314000D02*
X158639000Y-88314000D01*
X151384000Y-93726000D02*
X151384000Y-96774000D01*
X151384000Y-96774000D02*
X144272000Y-96774000D01*
X144272000Y-96774000D02*
X144272000Y-93726000D01*
X151384000Y-90678000D02*
X151384000Y-89916000D01*
X151384000Y-89916000D02*
X149860000Y-87630000D01*
X149860000Y-87630000D02*
X145796000Y-87630000D01*
X145796000Y-87630000D02*
X144272000Y-89916000D01*
X144272000Y-89916000D02*
X144272000Y-90678000D01*
D12*
G36*
X153665000Y-116420000D02*
X156365000Y-116420000D01*
X156365000Y-115020000D01*
X153665000Y-115020000D01*
X153665000Y-116420000D01*
G37*
X153665000Y-116420000D02*
X156365000Y-116420000D01*
X156365000Y-115020000D01*
X153665000Y-115020000D01*
X153665000Y-116420000D01*
G36*
X158615000Y-116420000D02*
X161315000Y-116420000D01*
X161315000Y-115020000D01*
X158615000Y-115020000D01*
X158615000Y-116420000D01*
G37*
X158615000Y-116420000D02*
X161315000Y-116420000D01*
X161315000Y-115020000D01*
X158615000Y-115020000D01*
X158615000Y-116420000D01*
G36*
X162365000Y-116420000D02*
X163565000Y-116420000D01*
X163565000Y-115220000D01*
X162365000Y-115220000D01*
X162365000Y-116420000D01*
G37*
X162365000Y-116420000D02*
X163565000Y-116420000D01*
X163565000Y-115220000D01*
X162365000Y-115220000D01*
X162365000Y-116420000D01*
G36*
X153065000Y-113520000D02*
X161865000Y-113520000D01*
X161865000Y-111020000D01*
X153065000Y-111020000D01*
X153065000Y-113520000D01*
G37*
X153065000Y-113520000D02*
X161865000Y-113520000D01*
X161865000Y-111020000D01*
X153065000Y-111020000D01*
X153065000Y-113520000D01*
G36*
X151015000Y-108620000D02*
X151615000Y-108620000D01*
X151615000Y-104820000D01*
X151015000Y-104820000D01*
X151015000Y-108620000D01*
G37*
X151015000Y-108620000D02*
X151615000Y-108620000D01*
X151615000Y-104820000D01*
X151015000Y-104820000D01*
X151015000Y-108620000D01*
G36*
X164615000Y-108620000D02*
X165215000Y-108620000D01*
X165215000Y-104820000D01*
X164615000Y-104820000D01*
X164615000Y-108620000D01*
G37*
X164615000Y-108620000D02*
X165215000Y-108620000D01*
X165215000Y-104820000D01*
X164615000Y-104820000D01*
X164615000Y-108620000D01*
D13*
X151215000Y-105020000D02*
X151215000Y-116420000D01*
X151215000Y-116420000D02*
X165015000Y-116420000D01*
X165015000Y-116420000D02*
X165015000Y-105020000D01*
D11*
X162431000Y-98946857D02*
X162466714Y-98982571D01*
X162573857Y-99018286D01*
X162645286Y-99018286D01*
X162752429Y-98982571D01*
X162823857Y-98911143D01*
X162859572Y-98839714D01*
X162895286Y-98696857D01*
X162895286Y-98589714D01*
X162859572Y-98446857D01*
X162823857Y-98375429D01*
X162752429Y-98304000D01*
X162645286Y-98268286D01*
X162573857Y-98268286D01*
X162466714Y-98304000D01*
X162431000Y-98339714D01*
X162002429Y-98589714D02*
X162073857Y-98554000D01*
X162109572Y-98518286D01*
X162145286Y-98446857D01*
X162145286Y-98411143D01*
X162109572Y-98339714D01*
X162073857Y-98304000D01*
X162002429Y-98268286D01*
X161859572Y-98268286D01*
X161788143Y-98304000D01*
X161752429Y-98339714D01*
X161716714Y-98411143D01*
X161716714Y-98446857D01*
X161752429Y-98518286D01*
X161788143Y-98554000D01*
X161859572Y-98589714D01*
X162002429Y-98589714D01*
X162073857Y-98625429D01*
X162109572Y-98661143D01*
X162145286Y-98732571D01*
X162145286Y-98875429D01*
X162109572Y-98946857D01*
X162073857Y-98982571D01*
X162002429Y-99018286D01*
X161859572Y-99018286D01*
X161788143Y-98982571D01*
X161752429Y-98946857D01*
X161716714Y-98875429D01*
X161716714Y-98732571D01*
X161752429Y-98661143D01*
X161788143Y-98625429D01*
X161859572Y-98589714D01*
X158113000Y-96660857D02*
X158148714Y-96696571D01*
X158255857Y-96732286D01*
X158327286Y-96732286D01*
X158434429Y-96696571D01*
X158505857Y-96625143D01*
X158541572Y-96553714D01*
X158577286Y-96410857D01*
X158577286Y-96303714D01*
X158541572Y-96160857D01*
X158505857Y-96089429D01*
X158434429Y-96018000D01*
X158327286Y-95982286D01*
X158255857Y-95982286D01*
X158148714Y-96018000D01*
X158113000Y-96053714D01*
X157863000Y-95982286D02*
X157398714Y-95982286D01*
X157648714Y-96268000D01*
X157541572Y-96268000D01*
X157470143Y-96303714D01*
X157434429Y-96339429D01*
X157398714Y-96410857D01*
X157398714Y-96589429D01*
X157434429Y-96660857D01*
X157470143Y-96696571D01*
X157541572Y-96732286D01*
X157755857Y-96732286D01*
X157827286Y-96696571D01*
X157863000Y-96660857D01*
X143127000Y-92342857D02*
X143162714Y-92378571D01*
X143269857Y-92414286D01*
X143341286Y-92414286D01*
X143448429Y-92378571D01*
X143519857Y-92307143D01*
X143555572Y-92235714D01*
X143591286Y-92092857D01*
X143591286Y-91985714D01*
X143555572Y-91842857D01*
X143519857Y-91771429D01*
X143448429Y-91700000D01*
X143341286Y-91664286D01*
X143269857Y-91664286D01*
X143162714Y-91700000D01*
X143127000Y-91735714D01*
X142448429Y-91664286D02*
X142805572Y-91664286D01*
X142841286Y-92021429D01*
X142805572Y-91985714D01*
X142734143Y-91950000D01*
X142555572Y-91950000D01*
X142484143Y-91985714D01*
X142448429Y-92021429D01*
X142412714Y-92092857D01*
X142412714Y-92271429D01*
X142448429Y-92342857D01*
X142484143Y-92378571D01*
X142555572Y-92414286D01*
X142734143Y-92414286D01*
X142805572Y-92378571D01*
X142841286Y-92342857D01*
X152779000Y-92342857D02*
X152814714Y-92378571D01*
X152921857Y-92414286D01*
X152993286Y-92414286D01*
X153100429Y-92378571D01*
X153171857Y-92307143D01*
X153207572Y-92235714D01*
X153243286Y-92092857D01*
X153243286Y-91985714D01*
X153207572Y-91842857D01*
X153171857Y-91771429D01*
X153100429Y-91700000D01*
X152993286Y-91664286D01*
X152921857Y-91664286D01*
X152814714Y-91700000D01*
X152779000Y-91735714D01*
X152136143Y-91664286D02*
X152279000Y-91664286D01*
X152350429Y-91700000D01*
X152386143Y-91735714D01*
X152457572Y-91842857D01*
X152493286Y-91985714D01*
X152493286Y-92271429D01*
X152457572Y-92342857D01*
X152421857Y-92378571D01*
X152350429Y-92414286D01*
X152207572Y-92414286D01*
X152136143Y-92378571D01*
X152100429Y-92342857D01*
X152064714Y-92271429D01*
X152064714Y-92092857D01*
X152100429Y-92021429D01*
X152136143Y-91985714D01*
X152207572Y-91950000D01*
X152350429Y-91950000D01*
X152421857Y-91985714D01*
X152457572Y-92021429D01*
X152493286Y-92092857D01*
X156225095Y-94377381D02*
X156225095Y-93377381D01*
X155987000Y-93377381D01*
X155844142Y-93425000D01*
X155748904Y-93520238D01*
X155701285Y-93615476D01*
X155653666Y-93805952D01*
X155653666Y-93948810D01*
X155701285Y-94139286D01*
X155748904Y-94234524D01*
X155844142Y-94329762D01*
X155987000Y-94377381D01*
X156225095Y-94377381D01*
X154701285Y-94377381D02*
X155272714Y-94377381D01*
X154987000Y-94377381D02*
X154987000Y-93377381D01*
X155082238Y-93520238D01*
X155177476Y-93615476D01*
X155272714Y-93663095D01*
X159889000Y-87576429D02*
X160139000Y-87576429D01*
X160139000Y-87969286D02*
X160139000Y-87219286D01*
X159781857Y-87219286D01*
X159103285Y-87969286D02*
X159531857Y-87969286D01*
X159317571Y-87969286D02*
X159317571Y-87219286D01*
X159389000Y-87326429D01*
X159460428Y-87397857D01*
X159531857Y-87433571D01*
X152526905Y-87717381D02*
X152526905Y-88526905D01*
X152479286Y-88622143D01*
X152431667Y-88669762D01*
X152336429Y-88717381D01*
X152145952Y-88717381D01*
X152050714Y-88669762D01*
X152003095Y-88622143D01*
X151955476Y-88526905D01*
X151955476Y-87717381D01*
X151526905Y-87812619D02*
X151479286Y-87765000D01*
X151384048Y-87717381D01*
X151145952Y-87717381D01*
X151050714Y-87765000D01*
X151003095Y-87812619D01*
X150955476Y-87907857D01*
X150955476Y-88003095D01*
X151003095Y-88145952D01*
X151574524Y-88717381D01*
X150955476Y-88717381D01*
X167304572Y-101812286D02*
X167304572Y-101062286D01*
X167018857Y-101062286D01*
X166947429Y-101098000D01*
X166911714Y-101133714D01*
X166876000Y-101205143D01*
X166876000Y-101312286D01*
X166911714Y-101383714D01*
X166947429Y-101419429D01*
X167018857Y-101455143D01*
X167304572Y-101455143D01*
X166590286Y-101133714D02*
X166554572Y-101098000D01*
X166483143Y-101062286D01*
X166304572Y-101062286D01*
X166233143Y-101098000D01*
X166197429Y-101133714D01*
X166161714Y-101205143D01*
X166161714Y-101276571D01*
X166197429Y-101383714D01*
X166626000Y-101812286D01*
X166161714Y-101812286D01*
M02*
