<?xml version="1.0" standalone="no"?>
 <!DOCTYPE svg PUBLIC "-//W3C//DTD SVG 1.1//EN" 
 "http://www.w3.org/Graphics/SVG/1.1/DTD/svg11.dtd"> 
<svg xmlns="http://www.w3.org/2000/svg" version="1.1" 
    width="29.7002cm" height="21.0007cm" viewBox="0 0 116930 82680 ">
<title>SVG Picture created as ARCU PCB REV A-F.SilkS.svg date 2016/10/14 16:19:16 </title>
  <desc>Picture generated by PCBNEW </desc>
<g style="fill:#000000; fill-opacity:1;stroke:#000000; stroke-opacity:1;
stroke-linecap:round; stroke-linejoin:round; "
 transform="translate(0 0) scale(1 1)">
</g>
<g style="fill:#000000; fill-opacity:0.0; 
stroke:#000000; stroke-width:-0.000393701; stroke-opacity:1; 
stroke-linecap:round; stroke-linejoin:round;">
</g>
<g style="fill:#000000; fill-opacity:0.0; 
stroke:#000000; stroke-width:39.3701; stroke-opacity:1; 
stroke-linecap:round; stroke-linejoin:round;">
</g>
<g style="fill:#000000; fill-opacity:0.0; 
stroke:#000000; stroke-width:59.0551; stroke-opacity:1; 
stroke-linecap:round; stroke-linejoin:round;">
<rect x="69685.9" y="65357.2" width="42519.7" height="12598.4" rx="0" />
</g>
<g style="fill:#000000; fill-opacity:0.0; 
stroke:#000000; stroke-width:39.3701; stroke-opacity:1; 
stroke-linecap:round; stroke-linejoin:round;">
</g>
<g style="fill:#000000; fill-opacity:0.0; 
stroke:#000000; stroke-width:59.0551; stroke-opacity:1; 
stroke-linecap:round; stroke-linejoin:round;">
<rect x="3937.01" y="3937.01" width="109056" height="74806" rx="0" />
</g>
<g style="fill:#000000; fill-opacity:0.0; 
stroke:#000000; stroke-width:39.3701; stroke-opacity:1; 
stroke-linecap:round; stroke-linejoin:round;">
</g>
<g style="fill:#000000; fill-opacity:0.0; 
stroke:#000000; stroke-width:59.0551; stroke-opacity:1; 
stroke-linecap:round; stroke-linejoin:round;">
<rect x="4724.41" y="4724.41" width="107481" height="73231.2" rx="0" />
</g>
<g style="fill:#000000; fill-opacity:0.0; 
stroke:#000000; stroke-width:39.3701; stroke-opacity:1; 
stroke-linecap:round; stroke-linejoin:round;">
</g>
<g style="fill:#000000; fill-opacity:0.0; 
stroke:#000000; stroke-width:59.0551; stroke-opacity:1; 
stroke-linecap:round; stroke-linejoin:round;">
<path d="M23622 4724
L23622 3937
" />
</g>
<g style="fill:#000000; fill-opacity:0.0; 
stroke:#000000; stroke-width:39.3701; stroke-opacity:1; 
stroke-linecap:round; stroke-linejoin:round;">
</g>
<g style="fill:#000000; fill-opacity:0.0; 
stroke:#000000; stroke-width:59.0551; stroke-opacity:1; 
stroke-linecap:round; stroke-linejoin:round;">
<path d="M43307 4724
L43307 3937
" />
</g>
<g style="fill:#000000; fill-opacity:0.0; 
stroke:#000000; stroke-width:39.3701; stroke-opacity:1; 
stroke-linecap:round; stroke-linejoin:round;">
</g>
<g style="fill:#000000; fill-opacity:0.0; 
stroke:#000000; stroke-width:59.0551; stroke-opacity:1; 
stroke-linecap:round; stroke-linejoin:round;">
<path d="M62992 4724
L62992 3937
" />
</g>
<g style="fill:#000000; fill-opacity:0.0; 
stroke:#000000; stroke-width:39.3701; stroke-opacity:1; 
stroke-linecap:round; stroke-linejoin:round;">
</g>
<g style="fill:#000000; fill-opacity:0.0; 
stroke:#000000; stroke-width:59.0551; stroke-opacity:1; 
stroke-linecap:round; stroke-linejoin:round;">
<path d="M82677 4724
L82677 3937
" />
</g>
<g style="fill:#000000; fill-opacity:0.0; 
stroke:#000000; stroke-width:39.3701; stroke-opacity:1; 
stroke-linecap:round; stroke-linejoin:round;">
</g>
<g style="fill:#000000; fill-opacity:0.0; 
stroke:#000000; stroke-width:59.0551; stroke-opacity:1; 
stroke-linecap:round; stroke-linejoin:round;">
<path d="M102362 4724
L102362 3937
" />
</g>
<g style="fill:#000000; fill-opacity:0.0; 
stroke:#000000; stroke-width:39.3701; stroke-opacity:1; 
stroke-linecap:round; stroke-linejoin:round;">
</g>
<g style="fill:#000000; fill-opacity:0.0; 
stroke:#000000; stroke-width:59.0551; stroke-opacity:1; 
stroke-linecap:round; stroke-linejoin:round;">
<path d="M14169 4562
L13877 4562
" />
<path d="M14023 4562
L14023 4050
L13974 4123
L13925 4172
L13877 4196
" />
</g>
<g style="fill:#000000; fill-opacity:0.0; 
stroke:#000000; stroke-width:39.3701; stroke-opacity:1; 
stroke-linecap:round; stroke-linejoin:round;">
</g>
<g style="fill:#000000; fill-opacity:0.0; 
stroke:#000000; stroke-width:59.0551; stroke-opacity:1; 
stroke-linecap:round; stroke-linejoin:round;">
<path d="M33562 4099
L33586 4074
L33635 4050
L33757 4050
L33805 4074
L33830 4099
L33854 4147
L33854 4196
L33830 4269
L33537 4562
L33854 4562
" />
</g>
<g style="fill:#000000; fill-opacity:0.0; 
stroke:#000000; stroke-width:39.3701; stroke-opacity:1; 
stroke-linecap:round; stroke-linejoin:round;">
</g>
<g style="fill:#000000; fill-opacity:0.0; 
stroke:#000000; stroke-width:59.0551; stroke-opacity:1; 
stroke-linecap:round; stroke-linejoin:round;">
<path d="M53222 4050
L53539 4050
L53368 4245
L53442 4245
L53490 4269
L53515 4294
L53539 4342
L53539 4464
L53515 4513
L53490 4537
L53442 4562
L53295 4562
L53247 4537
L53222 4513
" />
</g>
<g style="fill:#000000; fill-opacity:0.0; 
stroke:#000000; stroke-width:39.3701; stroke-opacity:1; 
stroke-linecap:round; stroke-linejoin:round;">
</g>
<g style="fill:#000000; fill-opacity:0.0; 
stroke:#000000; stroke-width:59.0551; stroke-opacity:1; 
stroke-linecap:round; stroke-linejoin:round;">
<path d="M73175 4221
L73175 4562
" />
<path d="M73053 4026
L72932 4391
L73248 4391
" />
</g>
<g style="fill:#000000; fill-opacity:0.0; 
stroke:#000000; stroke-width:39.3701; stroke-opacity:1; 
stroke-linecap:round; stroke-linejoin:round;">
</g>
<g style="fill:#000000; fill-opacity:0.0; 
stroke:#000000; stroke-width:59.0551; stroke-opacity:1; 
stroke-linecap:round; stroke-linejoin:round;">
<path d="M92885 4050
L92641 4050
L92617 4294
L92641 4269
L92690 4245
L92812 4245
L92860 4269
L92885 4294
L92909 4342
L92909 4464
L92885 4513
L92860 4537
L92812 4562
L92690 4562
L92641 4537
L92617 4513
" />
</g>
<g style="fill:#000000; fill-opacity:0.0; 
stroke:#000000; stroke-width:39.3701; stroke-opacity:1; 
stroke-linecap:round; stroke-linejoin:round;">
</g>
<g style="fill:#000000; fill-opacity:0.0; 
stroke:#000000; stroke-width:59.0551; stroke-opacity:1; 
stroke-linecap:round; stroke-linejoin:round;">
<path d="M112545 4050
L112448 4050
L112399 4074
L112375 4099
L112326 4172
L112302 4269
L112302 4464
L112326 4513
L112350 4537
L112399 4562
L112497 4562
L112545 4537
L112570 4513
L112594 4464
L112594 4342
L112570 4294
L112545 4269
L112497 4245
L112399 4245
L112350 4269
L112326 4294
L112302 4342
" />
</g>
<g style="fill:#000000; fill-opacity:0.0; 
stroke:#000000; stroke-width:39.3701; stroke-opacity:1; 
stroke-linecap:round; stroke-linejoin:round;">
</g>
<g style="fill:#000000; fill-opacity:0.0; 
stroke:#000000; stroke-width:59.0551; stroke-opacity:1; 
stroke-linecap:round; stroke-linejoin:round;">
<path d="M23622 77955
L23622 78742
" />
</g>
<g style="fill:#000000; fill-opacity:0.0; 
stroke:#000000; stroke-width:39.3701; stroke-opacity:1; 
stroke-linecap:round; stroke-linejoin:round;">
</g>
<g style="fill:#000000; fill-opacity:0.0; 
stroke:#000000; stroke-width:59.0551; stroke-opacity:1; 
stroke-linecap:round; stroke-linejoin:round;">
<path d="M43307 77955
L43307 78742
" />
</g>
<g style="fill:#000000; fill-opacity:0.0; 
stroke:#000000; stroke-width:39.3701; stroke-opacity:1; 
stroke-linecap:round; stroke-linejoin:round;">
</g>
<g style="fill:#000000; fill-opacity:0.0; 
stroke:#000000; stroke-width:59.0551; stroke-opacity:1; 
stroke-linecap:round; stroke-linejoin:round;">
<path d="M62992 77955
L62992 78742
" />
</g>
<g style="fill:#000000; fill-opacity:0.0; 
stroke:#000000; stroke-width:39.3701; stroke-opacity:1; 
stroke-linecap:round; stroke-linejoin:round;">
</g>
<g style="fill:#000000; fill-opacity:0.0; 
stroke:#000000; stroke-width:59.0551; stroke-opacity:1; 
stroke-linecap:round; stroke-linejoin:round;">
<path d="M82677 77955
L82677 78742
" />
</g>
<g style="fill:#000000; fill-opacity:0.0; 
stroke:#000000; stroke-width:39.3701; stroke-opacity:1; 
stroke-linecap:round; stroke-linejoin:round;">
</g>
<g style="fill:#000000; fill-opacity:0.0; 
stroke:#000000; stroke-width:59.0551; stroke-opacity:1; 
stroke-linecap:round; stroke-linejoin:round;">
<path d="M102362 77955
L102362 78742
" />
</g>
<g style="fill:#000000; fill-opacity:0.0; 
stroke:#000000; stroke-width:39.3701; stroke-opacity:1; 
stroke-linecap:round; stroke-linejoin:round;">
</g>
<g style="fill:#000000; fill-opacity:0.0; 
stroke:#000000; stroke-width:59.0551; stroke-opacity:1; 
stroke-linecap:round; stroke-linejoin:round;">
<path d="M14169 78580
L13877 78580
" />
<path d="M14023 78580
L14023 78069
L13974 78142
L13925 78190
L13877 78215
" />
</g>
<g style="fill:#000000; fill-opacity:0.0; 
stroke:#000000; stroke-width:39.3701; stroke-opacity:1; 
stroke-linecap:round; stroke-linejoin:round;">
</g>
<g style="fill:#000000; fill-opacity:0.0; 
stroke:#000000; stroke-width:59.0551; stroke-opacity:1; 
stroke-linecap:round; stroke-linejoin:round;">
<path d="M33562 78117
L33586 78093
L33635 78069
L33757 78069
L33805 78093
L33830 78117
L33854 78166
L33854 78215
L33830 78288
L33537 78580
L33854 78580
" />
</g>
<g style="fill:#000000; fill-opacity:0.0; 
stroke:#000000; stroke-width:39.3701; stroke-opacity:1; 
stroke-linecap:round; stroke-linejoin:round;">
</g>
<g style="fill:#000000; fill-opacity:0.0; 
stroke:#000000; stroke-width:59.0551; stroke-opacity:1; 
stroke-linecap:round; stroke-linejoin:round;">
<path d="M53222 78069
L53539 78069
L53368 78263
L53442 78263
L53490 78288
L53515 78312
L53539 78361
L53539 78483
L53515 78532
L53490 78556
L53442 78580
L53295 78580
L53247 78556
L53222 78532
" />
</g>
<g style="fill:#000000; fill-opacity:0.0; 
stroke:#000000; stroke-width:39.3701; stroke-opacity:1; 
stroke-linecap:round; stroke-linejoin:round;">
</g>
<g style="fill:#000000; fill-opacity:0.0; 
stroke:#000000; stroke-width:59.0551; stroke-opacity:1; 
stroke-linecap:round; stroke-linejoin:round;">
<path d="M73175 78239
L73175 78580
" />
<path d="M73053 78044
L72932 78410
L73248 78410
" />
</g>
<g style="fill:#000000; fill-opacity:0.0; 
stroke:#000000; stroke-width:39.3701; stroke-opacity:1; 
stroke-linecap:round; stroke-linejoin:round;">
</g>
<g style="fill:#000000; fill-opacity:0.0; 
stroke:#000000; stroke-width:59.0551; stroke-opacity:1; 
stroke-linecap:round; stroke-linejoin:round;">
<path d="M92885 78069
L92641 78069
L92617 78312
L92641 78288
L92690 78263
L92812 78263
L92860 78288
L92885 78312
L92909 78361
L92909 78483
L92885 78532
L92860 78556
L92812 78580
L92690 78580
L92641 78556
L92617 78532
" />
</g>
<g style="fill:#000000; fill-opacity:0.0; 
stroke:#000000; stroke-width:39.3701; stroke-opacity:1; 
stroke-linecap:round; stroke-linejoin:round;">
</g>
<g style="fill:#000000; fill-opacity:0.0; 
stroke:#000000; stroke-width:59.0551; stroke-opacity:1; 
stroke-linecap:round; stroke-linejoin:round;">
<path d="M112545 78069
L112448 78069
L112399 78093
L112375 78117
L112326 78190
L112302 78288
L112302 78483
L112326 78532
L112350 78556
L112399 78580
L112497 78580
L112545 78556
L112570 78532
L112594 78483
L112594 78361
L112570 78312
L112545 78288
L112497 78263
L112399 78263
L112350 78288
L112326 78312
L112302 78361
" />
</g>
<g style="fill:#000000; fill-opacity:0.0; 
stroke:#000000; stroke-width:39.3701; stroke-opacity:1; 
stroke-linecap:round; stroke-linejoin:round;">
</g>
<g style="fill:#000000; fill-opacity:0.0; 
stroke:#000000; stroke-width:59.0551; stroke-opacity:1; 
stroke-linecap:round; stroke-linejoin:round;">
<path d="M3937 23622
L4724 23622
" />
</g>
<g style="fill:#000000; fill-opacity:0.0; 
stroke:#000000; stroke-width:39.3701; stroke-opacity:1; 
stroke-linecap:round; stroke-linejoin:round;">
</g>
<g style="fill:#000000; fill-opacity:0.0; 
stroke:#000000; stroke-width:59.0551; stroke-opacity:1; 
stroke-linecap:round; stroke-linejoin:round;">
<path d="M3937 43307
L4724 43307
" />
</g>
<g style="fill:#000000; fill-opacity:0.0; 
stroke:#000000; stroke-width:39.3701; stroke-opacity:1; 
stroke-linecap:round; stroke-linejoin:round;">
</g>
<g style="fill:#000000; fill-opacity:0.0; 
stroke:#000000; stroke-width:59.0551; stroke-opacity:1; 
stroke-linecap:round; stroke-linejoin:round;">
<path d="M3937 62992
L4724 62992
" />
</g>
<g style="fill:#000000; fill-opacity:0.0; 
stroke:#000000; stroke-width:39.3701; stroke-opacity:1; 
stroke-linecap:round; stroke-linejoin:round;">
</g>
<g style="fill:#000000; fill-opacity:0.0; 
stroke:#000000; stroke-width:59.0551; stroke-opacity:1; 
stroke-linecap:round; stroke-linejoin:round;">
<path d="M4208 13864
L4452 13864
" />
<path d="M4160 14011
L4330 13499
L4501 14011
" />
</g>
<g style="fill:#000000; fill-opacity:0.0; 
stroke:#000000; stroke-width:39.3701; stroke-opacity:1; 
stroke-linecap:round; stroke-linejoin:round;">
</g>
<g style="fill:#000000; fill-opacity:0.0; 
stroke:#000000; stroke-width:59.0551; stroke-opacity:1; 
stroke-linecap:round; stroke-linejoin:round;">
<path d="M4367 33428
L4440 33452
L4464 33476
L4489 33525
L4489 33598
L4464 33647
L4440 33671
L4391 33696
L4196 33696
L4196 33184
L4367 33184
L4416 33208
L4440 33233
L4464 33281
L4464 33330
L4440 33379
L4416 33403
L4367 33428
L4196 33428
" />
</g>
<g style="fill:#000000; fill-opacity:0.0; 
stroke:#000000; stroke-width:39.3701; stroke-opacity:1; 
stroke-linecap:round; stroke-linejoin:round;">
</g>
<g style="fill:#000000; fill-opacity:0.0; 
stroke:#000000; stroke-width:59.0551; stroke-opacity:1; 
stroke-linecap:round; stroke-linejoin:round;">
<path d="M4489 53332
L4464 53356
L4391 53381
L4342 53381
L4269 53356
L4221 53308
L4196 53259
L4172 53161
L4172 53088
L4196 52991
L4221 52942
L4269 52893
L4342 52869
L4391 52869
L4464 52893
L4489 52918
" />
</g>
<g style="fill:#000000; fill-opacity:0.0; 
stroke:#000000; stroke-width:39.3701; stroke-opacity:1; 
stroke-linecap:round; stroke-linejoin:round;">
</g>
<g style="fill:#000000; fill-opacity:0.0; 
stroke:#000000; stroke-width:59.0551; stroke-opacity:1; 
stroke-linecap:round; stroke-linejoin:round;">
<path d="M4196 73066
L4196 72554
L4318 72554
L4391 72578
L4440 72627
L4464 72676
L4489 72773
L4489 72846
L4464 72944
L4440 72993
L4391 73041
L4318 73066
L4196 73066
" />
</g>
<g style="fill:#000000; fill-opacity:0.0; 
stroke:#000000; stroke-width:39.3701; stroke-opacity:1; 
stroke-linecap:round; stroke-linejoin:round;">
</g>
<g style="fill:#000000; fill-opacity:0.0; 
stroke:#000000; stroke-width:59.0551; stroke-opacity:1; 
stroke-linecap:round; stroke-linejoin:round;">
<path d="M112992 23622
L112205 23622
" />
</g>
<g style="fill:#000000; fill-opacity:0.0; 
stroke:#000000; stroke-width:39.3701; stroke-opacity:1; 
stroke-linecap:round; stroke-linejoin:round;">
</g>
<g style="fill:#000000; fill-opacity:0.0; 
stroke:#000000; stroke-width:59.0551; stroke-opacity:1; 
stroke-linecap:round; stroke-linejoin:round;">
<path d="M112992 43307
L112205 43307
" />
</g>
<g style="fill:#000000; fill-opacity:0.0; 
stroke:#000000; stroke-width:39.3701; stroke-opacity:1; 
stroke-linecap:round; stroke-linejoin:round;">
</g>
<g style="fill:#000000; fill-opacity:0.0; 
stroke:#000000; stroke-width:59.0551; stroke-opacity:1; 
stroke-linecap:round; stroke-linejoin:round;">
<path d="M112992 62992
L112205 62992
" />
</g>
<g style="fill:#000000; fill-opacity:0.0; 
stroke:#000000; stroke-width:39.3701; stroke-opacity:1; 
stroke-linecap:round; stroke-linejoin:round;">
</g>
<g style="fill:#000000; fill-opacity:0.0; 
stroke:#000000; stroke-width:59.0551; stroke-opacity:1; 
stroke-linecap:round; stroke-linejoin:round;">
<path d="M112477 13864
L112721 13864
" />
<path d="M112428 14011
L112599 13499
L112769 14011
" />
</g>
<g style="fill:#000000; fill-opacity:0.0; 
stroke:#000000; stroke-width:39.3701; stroke-opacity:1; 
stroke-linecap:round; stroke-linejoin:round;">
</g>
<g style="fill:#000000; fill-opacity:0.0; 
stroke:#000000; stroke-width:59.0551; stroke-opacity:1; 
stroke-linecap:round; stroke-linejoin:round;">
<path d="M112635 33428
L112708 33452
L112733 33476
L112757 33525
L112757 33598
L112733 33647
L112708 33671
L112660 33696
L112465 33696
L112465 33184
L112635 33184
L112684 33208
L112708 33233
L112733 33281
L112733 33330
L112708 33379
L112684 33403
L112635 33428
L112465 33428
" />
</g>
<g style="fill:#000000; fill-opacity:0.0; 
stroke:#000000; stroke-width:39.3701; stroke-opacity:1; 
stroke-linecap:round; stroke-linejoin:round;">
</g>
<g style="fill:#000000; fill-opacity:0.0; 
stroke:#000000; stroke-width:59.0551; stroke-opacity:1; 
stroke-linecap:round; stroke-linejoin:round;">
<path d="M112757 53332
L112733 53356
L112660 53381
L112611 53381
L112538 53356
L112489 53308
L112465 53259
L112440 53161
L112440 53088
L112465 52991
L112489 52942
L112538 52893
L112611 52869
L112660 52869
L112733 52893
L112757 52918
" />
</g>
<g style="fill:#000000; fill-opacity:0.0; 
stroke:#000000; stroke-width:39.3701; stroke-opacity:1; 
stroke-linecap:round; stroke-linejoin:round;">
</g>
<g style="fill:#000000; fill-opacity:0.0; 
stroke:#000000; stroke-width:59.0551; stroke-opacity:1; 
stroke-linecap:round; stroke-linejoin:round;">
<path d="M112465 73066
L112465 72554
L112587 72554
L112660 72578
L112708 72627
L112733 72676
L112757 72773
L112757 72846
L112733 72944
L112708 72993
L112660 73041
L112587 73066
L112465 73066
" />
</g>
<g style="fill:#000000; fill-opacity:0.0; 
stroke:#000000; stroke-width:39.3701; stroke-opacity:1; 
stroke-linecap:round; stroke-linejoin:round;">
</g>
<g style="fill:#000000; fill-opacity:0.0; 
stroke:#000000; stroke-width:59.0551; stroke-opacity:1; 
stroke-linecap:round; stroke-linejoin:round;">
<path d="M78881 76293
L78881 75703
L79022 75703
L79106 75731
L79162 75787
L79190 75843
L79219 75956
L79219 76040
L79190 76153
L79162 76209
L79106 76265
L79022 76293
L78881 76293
" />
<path d="M79725 76293
L79725 75984
L79697 75928
L79640 75899
L79528 75899
L79472 75928
" />
<path d="M79725 76265
L79669 76293
L79528 76293
L79472 76265
L79444 76209
L79444 76153
L79472 76096
L79528 76068
L79669 76068
L79725 76040
" />
<path d="M79922 75899
L80147 75899
" />
<path d="M80006 75703
L80006 76209
L80034 76265
L80090 76293
L80147 76293
" />
<path d="M80568 76265
L80512 76293
L80400 76293
L80343 76265
L80315 76209
L80315 75984
L80343 75928
L80400 75899
L80512 75899
L80568 75928
L80597 75984
L80597 76040
L80315 76096
" />
<path d="M80850 76237
L80878 76265
L80850 76293
L80822 76265
L80850 76237
L80850 76293
" />
<path d="M80850 75928
L80878 75956
L80850 75984
L80822 75956
L80850 75928
L80850 75984
" />
</g>
<g style="fill:#000000; fill-opacity:0.0; 
stroke:#000000; stroke-width:39.3701; stroke-opacity:1; 
stroke-linecap:round; stroke-linejoin:round;">
</g>
<g style="fill:#000000; fill-opacity:0.0; 
stroke:#000000; stroke-width:59.0551; stroke-opacity:1; 
stroke-linecap:round; stroke-linejoin:round;">
<path d="M69685 76577
L112205 76577
" />
</g>
<g style="fill:#000000; fill-opacity:0.0; 
stroke:#000000; stroke-width:39.3701; stroke-opacity:1; 
stroke-linecap:round; stroke-linejoin:round;">
</g>
<g style="fill:#000000; fill-opacity:0.0; 
stroke:#000000; stroke-width:59.0551; stroke-opacity:1; 
stroke-linecap:round; stroke-linejoin:round;">
<path d="M70220 77395
L70220 76805
" />
<path d="M70557 77395
L70304 77058
" />
<path d="M70557 76805
L70220 77142
" />
<path d="M70810 77395
L70810 77002
" />
<path d="M70810 76805
L70782 76833
L70810 76861
L70838 76833
L70810 76805
L70810 76861
" />
<path d="M71429 77339
L71401 77367
L71316 77395
L71260 77395
L71176 77367
L71120 77311
L71091 77255
L71063 77142
L71063 77058
L71091 76946
L71120 76889
L71176 76833
L71260 76805
L71316 76805
L71401 76833
L71429 76861
" />
<path d="M71935 77395
L71935 77086
L71907 77030
L71851 77002
L71738 77002
L71682 77030
" />
<path d="M71935 77367
L71879 77395
L71738 77395
L71682 77367
L71654 77311
L71654 77255
L71682 77199
L71738 77171
L71879 77171
L71935 77142
" />
<path d="M72469 77395
L72469 76805
" />
<path d="M72469 77367
L72413 77395
L72301 77395
L72244 77367
L72216 77339
L72188 77283
L72188 77114
L72216 77058
L72244 77030
L72301 77002
L72413 77002
L72469 77030
" />
<path d="M73201 77086
L73397 77086
" />
<path d="M73482 77395
L73201 77395
L73201 76805
L73482 76805
" />
<path d="M73735 77339
L73763 77367
L73735 77395
L73707 77367
L73735 77339
L73735 77395
" />
<path d="M74016 77395
L74016 76805
L74157 76805
L74241 76833
L74297 76889
L74325 76946
L74354 77058
L74354 77142
L74325 77255
L74297 77311
L74241 77367
L74157 77395
L74016 77395
" />
<path d="M74607 77339
L74635 77367
L74607 77395
L74579 77367
L74607 77339
L74607 77395
" />
<path d="M74860 77227
L75141 77227
" />
<path d="M74804 77395
L75000 76805
L75197 77395
" />
<path d="M75394 77339
L75422 77367
L75394 77395
L75366 77367
L75394 77339
L75394 77395
" />
<path d="M76575 77395
L76575 76805
" />
<path d="M76631 77171
L76800 77395
" />
<path d="M76800 77002
L76575 77227
" />
<path d="M77053 77395
L77053 77002
" />
<path d="M77053 76805
L77025 76833
L77053 76861
L77081 76833
L77053 76805
L77053 76861
" />
<path d="M77588 77367
L77531 77395
L77419 77395
L77363 77367
L77334 77339
L77306 77283
L77306 77114
L77334 77058
L77363 77030
L77419 77002
L77531 77002
L77588 77030
" />
<path d="M78094 77395
L78094 77086
L78066 77030
L78009 77002
L77897 77002
L77841 77030
" />
<path d="M78094 77367
L78037 77395
L77897 77395
L77841 77367
L77813 77311
L77813 77255
L77841 77199
L77897 77171
L78037 77171
L78094 77142
" />
<path d="M78628 77395
L78628 76805
" />
<path d="M78628 77367
L78572 77395
L78459 77395
L78403 77367
L78375 77339
L78347 77283
L78347 77114
L78375 77058
L78403 77030
L78459 77002
L78572 77002
L78628 77030
" />
<path d="M79612 77002
L79612 77395
" />
<path d="M79472 76777
L79331 77199
L79697 77199
" />
<path d="M79922 77339
L79950 77367
L79922 77395
L79894 77367
L79922 77339
L79922 77395
" />
<path d="M80315 76805
L80372 76805
L80428 76833
L80456 76861
L80484 76917
L80512 77030
L80512 77171
L80484 77283
L80456 77339
L80428 77367
L80372 77395
L80315 77395
L80259 77367
L80231 77339
L80203 77283
L80175 77171
L80175 77030
L80203 76917
L80231 76861
L80259 76833
L80315 76805
" />
<path d="M80765 77339
L80793 77367
L80765 77395
L80737 77367
L80765 77339
L80765 77395
" />
<path d="M81300 77002
L81300 77395
" />
<path d="M81159 76777
L81018 77199
L81384 77199
" />
<path d="M81609 77171
L82059 77171
" />
<path d="M81834 77395
L81834 76946
" />
<path d="M82565 77367
L82509 77395
L82396 77395
L82340 77367
L82312 77311
L82312 77086
L82340 77030
L82396 77002
L82509 77002
L82565 77030
L82593 77086
L82593 77142
L82312 77199
" />
<path d="M83156 77395
L82818 77395
" />
<path d="M82987 77395
L82987 76805
L82931 76889
L82874 76946
L82818 76974
" />
<path d="M83409 77171
L83859 77171
" />
<path d="M84393 76805
L84280 76805
L84224 76833
L84196 76861
L84140 76946
L84112 77058
L84112 77283
L84140 77339
L84168 77367
L84224 77395
L84337 77395
L84393 77367
L84421 77339
L84449 77283
L84449 77142
L84421 77086
L84393 77058
L84337 77030
L84224 77030
L84168 77058
L84140 77086
L84112 77142
" />
<path d="M84646 76805
L85012 76805
L84815 77030
L84899 77030
L84955 77058
L84983 77086
L85012 77142
L85012 77283
L84983 77339
L84955 77367
L84899 77395
L84730 77395
L84674 77367
L84646 77339
" />
<path d="M85377 76805
L85433 76805
L85490 76833
L85518 76861
L85546 76917
L85574 77030
L85574 77171
L85546 77283
L85518 77339
L85490 77367
L85433 77395
L85377 77395
L85321 77367
L85293 77339
L85265 77283
L85237 77171
L85237 77030
L85265 76917
L85293 76861
L85321 76833
L85377 76805
" />
<path d="M85912 77058
L85855 77030
L85827 77002
L85799 76946
L85799 76917
L85827 76861
L85855 76833
L85912 76805
L86024 76805
L86080 76833
L86108 76861
L86136 76917
L86136 76946
L86108 77002
L86080 77030
L86024 77058
L85912 77058
L85855 77086
L85827 77114
L85799 77171
L85799 77283
L85827 77339
L85855 77367
L85912 77395
L86024 77395
L86080 77367
L86108 77339
L86136 77283
L86136 77171
L86108 77114
L86080 77086
L86024 77058
" />
<path d="M86643 77002
L86643 77395
" />
<path d="M86502 76777
L86361 77199
L86727 77199
" />
<path d="M87036 77058
L86980 77030
L86952 77002
L86924 76946
L86924 76917
L86952 76861
L86980 76833
L87036 76805
L87149 76805
L87205 76833
L87233 76861
L87261 76917
L87261 76946
L87233 77002
L87205 77030
L87149 77058
L87036 77058
L86980 77086
L86952 77114
L86924 77171
L86924 77283
L86952 77339
L86980 77367
L87036 77395
L87149 77395
L87205 77367
L87233 77339
L87261 77283
L87261 77171
L87233 77114
L87205 77086
L87149 77058
" />
<path d="M86249 76703
L87374 76703
" />
<path d="M87768 77002
L87768 77395
" />
<path d="M87514 77002
L87514 77311
L87543 77367
L87599 77395
L87683 77395
L87739 77367
L87768 77339
" />
<path d="M88049 77395
L88049 76805
" />
<path d="M88049 77030
L88105 77002
L88217 77002
L88274 77030
L88302 77058
L88330 77114
L88330 77283
L88302 77339
L88274 77367
L88217 77395
L88105 77395
L88049 77367
" />
<path d="M88836 77002
L88836 77395
" />
<path d="M88583 77002
L88583 77311
L88611 77367
L88667 77395
L88752 77395
L88808 77367
L88836 77339
" />
<path d="M89117 77002
L89117 77395
" />
<path d="M89117 77058
L89145 77030
L89202 77002
L89286 77002
L89342 77030
L89370 77086
L89370 77395
" />
<path d="M89567 77002
L89792 77002
" />
<path d="M89652 76805
L89652 77311
L89680 77367
L89736 77395
L89792 77395
" />
<path d="M90242 77002
L90242 77395
" />
<path d="M89989 77002
L89989 77311
L90017 77367
L90073 77395
L90158 77395
L90214 77367
L90242 77339
" />
<path d="M90833 77395
L90495 77395
" />
<path d="M90664 77395
L90664 76805
L90608 76889
L90552 76946
L90495 76974
" />
<path d="M91339 76805
L91226 76805
L91170 76833
L91142 76861
L91086 76946
L91058 77058
L91058 77283
L91086 77339
L91114 77367
L91170 77395
L91283 77395
L91339 77367
L91367 77339
L91395 77283
L91395 77142
L91367 77086
L91339 77058
L91283 77030
L91170 77030
L91114 77058
L91086 77086
L91058 77142
" />
<path d="M91648 77339
L91676 77367
L91648 77395
L91620 77367
L91648 77339
L91648 77395
" />
<path d="M92042 76805
L92098 76805
L92154 76833
L92183 76861
L92211 76917
L92239 77030
L92239 77171
L92211 77283
L92183 77339
L92154 77367
L92098 77395
L92042 77395
L91986 77367
L91958 77339
L91929 77283
L91901 77171
L91901 77030
L91929 76917
L91958 76861
L91986 76833
L92042 76805
" />
<path d="M92745 77002
L92745 77395
" />
<path d="M92604 76777
L92464 77199
L92829 77199
" />
<path d="M93054 77339
L93082 77367
L93054 77395
L93026 77367
L93054 77339
L93054 77395
" />
<path d="M93645 77395
L93307 77395
" />
<path d="M93476 77395
L93476 76805
L93420 76889
L93364 76946
L93307 76974
" />
<path d="M93898 77171
L94348 77171
" />
<path d="M94601 77367
L94657 77395
L94770 77395
L94826 77367
L94854 77311
L94854 77283
L94826 77227
L94770 77199
L94685 77199
L94629 77171
L94601 77114
L94601 77086
L94629 77030
L94685 77002
L94770 77002
L94826 77030
" />
<path d="M95023 77002
L95248 77002
" />
<path d="M95107 76805
L95107 77311
L95135 77367
L95192 77395
L95248 77395
" />
<path d="M95698 77395
L95698 77086
L95670 77030
L95613 77002
L95501 77002
L95445 77030
" />
<path d="M95698 77367
L95642 77395
L95501 77395
L95445 77367
L95417 77311
L95417 77255
L95445 77199
L95501 77171
L95642 77171
L95698 77142
" />
<path d="M95979 77395
L95979 76805
" />
<path d="M95979 77030
L96035 77002
L96148 77002
L96204 77030
L96232 77058
L96260 77114
L96260 77283
L96232 77339
L96204 77367
L96148 77395
L96035 77395
L95979 77367
" />
<path d="M96598 77395
L96541 77367
L96513 77311
L96513 76805
" />
<path d="M97048 77367
L96991 77395
L96879 77395
L96823 77367
L96795 77311
L96795 77086
L96823 77030
L96879 77002
L96991 77002
L97048 77030
L97076 77086
L97076 77142
L96795 77199
" />
</g>
<g style="fill:#000000; fill-opacity:0.0; 
stroke:#000000; stroke-width:39.3701; stroke-opacity:1; 
stroke-linecap:round; stroke-linejoin:round;">
</g>
<g style="fill:#000000; fill-opacity:0.0; 
stroke:#000000; stroke-width:59.0551; stroke-opacity:1; 
stroke-linecap:round; stroke-linejoin:round;">
<path d="M69685 75396
L112205 75396
" />
</g>
<g style="fill:#000000; fill-opacity:0.0; 
stroke:#000000; stroke-width:39.3701; stroke-opacity:1; 
stroke-linecap:round; stroke-linejoin:round;">
</g>
<g style="fill:#000000; fill-opacity:0.0; 
stroke:#000000; stroke-width:118.11; stroke-opacity:1; 
stroke-linecap:round; stroke-linejoin:round;">
<path d="M104022 76293
L103825 76012
" />
<path d="M103684 76293
L103684 75703
L103909 75703
L103965 75731
L103994 75759
L104022 75815
L104022 75899
L103994 75956
L103965 75984
L103909 76012
L103684 76012
" />
<path d="M104500 76265
L104444 76293
L104331 76293
L104275 76265
L104247 76209
L104247 75984
L104275 75928
L104331 75899
L104444 75899
L104500 75928
L104528 75984
L104528 76040
L104247 76096
" />
<path d="M104725 75899
L104865 76293
L105006 75899
" />
<path d="M105231 76237
L105259 76265
L105231 76293
L105203 76265
L105231 76237
L105231 76293
" />
<path d="M105231 75928
L105259 75956
L105231 75984
L105203 75956
L105231 75928
L105231 75984
" />
</g>
<g style="fill:#000000; fill-opacity:0.0; 
stroke:#000000; stroke-width:39.3701; stroke-opacity:1; 
stroke-linecap:round; stroke-linejoin:round;">
</g>
<g style="fill:#000000; fill-opacity:0.0; 
stroke:#000000; stroke-width:59.0551; stroke-opacity:1; 
stroke-linecap:round; stroke-linejoin:round;">
<path d="M70192 76265
L70276 76293
L70417 76293
L70473 76265
L70501 76237
L70529 76181
L70529 76124
L70501 76068
L70473 76040
L70417 76012
L70304 75984
L70248 75956
L70220 75928
L70192 75871
L70192 75815
L70220 75759
L70248 75731
L70304 75703
L70445 75703
L70529 75731
" />
<path d="M70782 76293
L70782 75899
" />
<path d="M70782 75703
L70754 75731
L70782 75759
L70810 75731
L70782 75703
L70782 75759
" />
<path d="M71007 75899
L71316 75899
L71007 76293
L71316 76293
" />
<path d="M71766 76265
L71710 76293
L71598 76293
L71541 76265
L71513 76209
L71513 75984
L71541 75928
L71598 75899
L71710 75899
L71766 75928
L71795 75984
L71795 76040
L71513 76096
" />
<path d="M72048 76237
L72076 76265
L72048 76293
L72019 76265
L72048 76237
L72048 76293
" />
<path d="M72048 75928
L72076 75956
L72048 75984
L72019 75956
L72048 75928
L72048 75984
" />
<path d="M72751 76124
L73032 76124
" />
<path d="M72694 76293
L72891 75703
L73088 76293
" />
<path d="M73538 75899
L73538 76293
" />
<path d="M73397 75674
L73257 76096
L73622 76096
" />
</g>
<g style="fill:#000000; fill-opacity:0.0; 
stroke:#000000; stroke-width:39.3701; stroke-opacity:1; 
stroke-linecap:round; stroke-linejoin:round;">
</g>
<g style="fill:#000000; fill-opacity:0.0; 
stroke:#000000; stroke-width:59.0551; stroke-opacity:1; 
stroke-linecap:round; stroke-linejoin:round;">
<path d="M103684 77395
L103684 76805
" />
<path d="M104219 77395
L104219 76805
" />
<path d="M104219 77367
L104162 77395
L104050 77395
L103994 77367
L103965 77339
L103937 77283
L103937 77114
L103965 77058
L103994 77030
L104050 77002
L104162 77002
L104219 77030
" />
<path d="M104500 77339
L104528 77367
L104500 77395
L104472 77367
L104500 77339
L104500 77395
" />
<path d="M104500 77030
L104528 77058
L104500 77086
L104472 77058
L104500 77030
L104500 77086
" />
<path d="M105540 77395
L105203 77395
" />
<path d="M105372 77395
L105372 76805
L105315 76889
L105259 76946
L105203 76974
" />
<path d="M106215 76777
L105709 77536
" />
<path d="M106721 77395
L106384 77395
" />
<path d="M106553 77395
L106553 76805
L106496 76889
L106440 76946
L106384 76974
" />
</g>
<g style="fill:#000000; fill-opacity:0.0; 
stroke:#000000; stroke-width:39.3701; stroke-opacity:1; 
stroke-linecap:round; stroke-linejoin:round;">
</g>
<g style="fill:#000000; fill-opacity:0.0; 
stroke:#000000; stroke-width:59.0551; stroke-opacity:1; 
stroke-linecap:round; stroke-linejoin:round;">
<path d="M69685 73821
L112205 73821
" />
</g>
<g style="fill:#000000; fill-opacity:0.0; 
stroke:#000000; stroke-width:39.3701; stroke-opacity:1; 
stroke-linecap:round; stroke-linejoin:round;">
</g>
<g style="fill:#000000; fill-opacity:0.0; 
stroke:#000000; stroke-width:157.48; stroke-opacity:1; 
stroke-linecap:round; stroke-linejoin:round;">
<path d="M70257 74099
L70707 74099
" />
<path d="M70384 74886
L70482 74099
" />
<path d="M70871 74886
L70937 74361
" />
<path d="M70970 74099
L70927 74136
L70960 74174
L71002 74136
L70970 74099
L70960 74174
" />
<path d="M71199 74361
L71499 74361
" />
<path d="M71345 74099
L71260 74774
L71288 74849
L71359 74886
L71434 74886
" />
<path d="M71809 74886
L71738 74849
L71710 74774
L71795 74099
" />
<path d="M72413 74849
L72334 74886
L72184 74886
L72113 74849
L72085 74774
L72123 74474
L72169 74399
L72249 74361
L72399 74361
L72469 74399
L72498 74474
L72488 74549
L72104 74624
" />
<path d="M72793 74811
L72826 74849
L72783 74886
L72751 74849
L72793 74811
L72783 74886
" />
<path d="M72844 74399
L72877 74436
L72835 74474
L72802 74436
L72844 74399
L72835 74474
" />
</g>
<g style="fill:#000000; fill-opacity:0.0; 
stroke:#000000; stroke-width:39.3701; stroke-opacity:1; 
stroke-linecap:round; stroke-linejoin:round;">
</g>
<g style="fill:#000000; fill-opacity:0.0; 
stroke:#000000; stroke-width:59.0551; stroke-opacity:1; 
stroke-linecap:round; stroke-linejoin:round;">
<path d="M70417 73070
L70220 73070
" />
<path d="M70220 73380
L70220 72789
L70501 72789
" />
<path d="M70726 73380
L70726 72986
" />
<path d="M70726 72789
L70698 72817
L70726 72845
L70754 72817
L70726 72789
L70726 72845
" />
<path d="M71091 73380
L71035 73352
L71007 73295
L71007 72789
" />
<path d="M71541 73352
L71485 73380
L71373 73380
L71316 73352
L71288 73295
L71288 73070
L71316 73014
L71373 72986
L71485 72986
L71541 73014
L71570 73070
L71570 73127
L71288 73183
" />
<path d="M71823 73323
L71851 73352
L71823 73380
L71795 73352
L71823 73323
L71823 73380
" />
<path d="M71823 73014
L71851 73042
L71823 73070
L71795 73042
L71823 73014
L71823 73070
" />
<path d="M72526 73211
L72807 73211
" />
<path d="M72469 73380
L72666 72789
L72863 73380
" />
<path d="M73397 73380
L73201 73099
" />
<path d="M73060 73380
L73060 72789
L73285 72789
L73341 72817
L73369 72845
L73397 72902
L73397 72986
L73369 73042
L73341 73070
L73285 73099
L73060 73099
" />
<path d="M73988 73323
L73960 73352
L73876 73380
L73819 73380
L73735 73352
L73679 73295
L73651 73239
L73622 73127
L73622 73042
L73651 72930
L73679 72874
L73735 72817
L73819 72789
L73876 72789
L73960 72817
L73988 72845
" />
<path d="M74241 72789
L74241 73267
L74269 73323
L74297 73352
L74354 73380
L74466 73380
L74522 73352
L74550 73323
L74579 73267
L74579 72789
" />
<path d="M75310 73380
L75310 72789
L75535 72789
L75591 72817
L75619 72845
L75647 72902
L75647 72986
L75619 73042
L75591 73070
L75535 73099
L75310 73099
" />
<path d="M76238 73323
L76210 73352
L76125 73380
L76069 73380
L75985 73352
L75928 73295
L75900 73239
L75872 73127
L75872 73042
L75900 72930
L75928 72874
L75985 72817
L76069 72789
L76125 72789
L76210 72817
L76238 72845
" />
<path d="M76688 73070
L76772 73099
L76800 73127
L76828 73183
L76828 73267
L76800 73323
L76772 73352
L76716 73380
L76491 73380
L76491 72789
L76688 72789
L76744 72817
L76772 72845
L76800 72902
L76800 72958
L76772 73014
L76744 73042
L76688 73070
L76491 73070
" />
<path d="M77869 73380
L77672 73099
" />
<path d="M77531 73380
L77531 72789
L77756 72789
L77813 72817
L77841 72845
L77869 72902
L77869 72986
L77841 73042
L77813 73070
L77756 73099
L77531 73099
" />
<path d="M78122 73070
L78319 73070
" />
<path d="M78403 73380
L78122 73380
L78122 72789
L78403 72789
" />
<path d="M78572 72789
L78769 73380
L78965 72789
" />
<path d="M79584 73211
L79865 73211
" />
<path d="M79528 73380
L79725 72789
L79922 73380
" />
<path d="M80118 73323
L80147 73352
L80118 73380
L80090 73352
L80118 73323
L80118 73380
" />
<path d="M80400 73380
L80400 72789
" />
<path d="M80456 73155
L80625 73380
" />
<path d="M80625 72986
L80400 73211
" />
<path d="M80878 73380
L80878 72986
" />
<path d="M80878 72789
L80850 72817
L80878 72845
L80906 72817
L80878 72789
L80878 72845
" />
<path d="M81412 73352
L81356 73380
L81243 73380
L81187 73352
L81159 73323
L81131 73267
L81131 73099
L81159 73042
L81187 73014
L81243 72986
L81356 72986
L81412 73014
" />
<path d="M81918 73380
L81918 73070
L81890 73014
L81834 72986
L81721 72986
L81665 73014
" />
<path d="M81918 73352
L81862 73380
L81721 73380
L81665 73352
L81637 73295
L81637 73239
L81665 73183
L81721 73155
L81862 73155
L81918 73127
" />
<path d="M82453 73380
L82453 72789
" />
<path d="M82453 73352
L82396 73380
L82284 73380
L82228 73352
L82199 73323
L82171 73267
L82171 73099
L82199 73042
L82228 73014
L82284 72986
L82396 72986
L82453 73014
" />
<path d="M82593 73436
L83043 73436
" />
<path d="M83184 72986
L83184 73577
" />
<path d="M83184 73014
L83240 72986
L83352 72986
L83409 73014
L83437 73042
L83465 73099
L83465 73267
L83437 73323
L83409 73352
L83352 73380
L83240 73380
L83184 73352
" />
<path d="M83971 73352
L83915 73380
L83802 73380
L83746 73352
L83718 73323
L83690 73267
L83690 73099
L83718 73042
L83746 73014
L83802 72986
L83915 72986
L83971 73014
" />
<path d="M84224 73380
L84224 72789
" />
<path d="M84224 73014
L84280 72986
L84393 72986
L84449 73014
L84477 73042
L84505 73099
L84505 73267
L84477 73323
L84449 73352
L84393 73380
L84280 73380
L84224 73352
" />
</g>
<g style="fill:#000000; fill-opacity:0.0; 
stroke:#000000; stroke-width:39.3701; stroke-opacity:1; 
stroke-linecap:round; stroke-linejoin:round;">
</g>
<g style="fill:#000000; fill-opacity:0.0; 
stroke:#000000; stroke-width:59.0551; stroke-opacity:1; 
stroke-linecap:round; stroke-linejoin:round;">
<path d="M69685 71459
L112205 71459
" />
</g>
<g style="fill:#000000; fill-opacity:0.0; 
stroke:#000000; stroke-width:39.3701; stroke-opacity:1; 
stroke-linecap:round; stroke-linejoin:round;">
</g>
<g style="fill:#000000; fill-opacity:0.0; 
stroke:#000000; stroke-width:59.0551; stroke-opacity:1; 
stroke-linecap:round; stroke-linejoin:round;">
<path d="M70192 72289
L70276 72317
L70417 72317
L70473 72289
L70501 72260
L70529 72204
L70529 72148
L70501 72092
L70473 72064
L70417 72036
L70304 72007
L70248 71979
L70220 71951
L70192 71895
L70192 71839
L70220 71782
L70248 71754
L70304 71726
L70445 71726
L70529 71754
" />
<path d="M70782 72317
L70782 71726
" />
<path d="M71035 72317
L71035 72007
L71007 71951
L70951 71923
L70867 71923
L70810 71951
L70782 71979
" />
<path d="M71541 72289
L71485 72317
L71373 72317
L71316 72289
L71288 72232
L71288 72007
L71316 71951
L71373 71923
L71485 71923
L71541 71951
L71570 72007
L71570 72064
L71288 72120
" />
<path d="M72048 72289
L71991 72317
L71879 72317
L71823 72289
L71795 72232
L71795 72007
L71823 71951
L71879 71923
L71991 71923
L72048 71951
L72076 72007
L72076 72064
L71795 72120
" />
<path d="M72244 71923
L72469 71923
" />
<path d="M72329 71726
L72329 72232
L72357 72289
L72413 72317
L72469 72317
" />
<path d="M72666 72260
L72694 72289
L72666 72317
L72638 72289
L72666 72260
L72666 72317
" />
<path d="M72666 71951
L72694 71979
L72666 72007
L72638 71979
L72666 71951
L72666 72007
" />
</g>
<g style="fill:#000000; fill-opacity:0.0; 
stroke:#000000; stroke-width:39.3701; stroke-opacity:1; 
stroke-linecap:round; stroke-linejoin:round;">
</g>
<g style="fill:#000000; fill-opacity:0.0; 
stroke:#000000; stroke-width:59.0551; stroke-opacity:1; 
stroke-linecap:round; stroke-linejoin:round;">
<path d="M77559 75396
L77559 76577
" />
</g>
<g style="fill:#000000; fill-opacity:0.0; 
stroke:#000000; stroke-width:39.3701; stroke-opacity:1; 
stroke-linecap:round; stroke-linejoin:round;">
</g>
<g style="fill:#000000; fill-opacity:0.0; 
stroke:#000000; stroke-width:59.0551; stroke-opacity:1; 
stroke-linecap:round; stroke-linejoin:round;">
<path d="M102756 75396
L102756 77955
" />
</g>
<g style="fill:#C2C200; fill-opacity:0.0; 
stroke:#C2C200; stroke-width:59.0551; stroke-opacity:1; 
stroke-linecap:round; stroke-linejoin:round;">
</g>
<g style="fill:#C2C200; fill-opacity:0.0; 
stroke:#C2C200; stroke-width:39.3701; stroke-opacity:1; 
stroke-linecap:round; stroke-linejoin:round;">
<path d="M100000 41500
L100000 55500
" />
<path d="M86000 41500
L100000 41500
" />
<path d="M86000 55500
L86000 41500
" />
<path d="M86500 55500
L86000 55500
" />
<path d="M100000 55500
L86500 55500
" />
</g>
<g style="fill:#C2C200; fill-opacity:0.0; 
stroke:#C2C200; stroke-width:59.0551; stroke-opacity:1; 
stroke-linecap:round; stroke-linejoin:round;">
<path d="M87184 51099
L87503 51099
L87540 51081
L87559 51062
L87578 51024
L87578 50949
L87559 50912
L87540 50893
L87503 50874
L87184 50874
" />
<path d="M87578 50481
L87578 50706
" />
<path d="M87578 50593
L87184 50593
L87240 50631
L87278 50668
L87296 50706
" />
<path d="M96040 55571
L96096 55590
L96115 55609
L96134 55646
L96134 55703
L96115 55740
L96096 55759
L96059 55778
L95909 55778
L95909 55384
L96040 55384
L96078 55403
L96096 55421
L96115 55459
L96115 55496
L96096 55534
L96078 55553
L96040 55571
L95909 55571
" />
<path d="M96509 55778
L96284 55778
" />
<path d="M96396 55778
L96396 55384
L96359 55440
L96321 55478
L96284 55496
" />
<path d="M93534 46313
L93515 46332
L93459 46351
L93421 46351
L93365 46332
L93328 46295
L93309 46257
L93290 46182
L93290 46126
L93309 46051
L93328 46013
L93365 45976
L93421 45957
L93459 45957
L93515 45976
L93534 45995
" />
<path d="M93909 46351
L93684 46351
" />
<path d="M93796 46351
L93796 45957
L93759 46013
L93721 46051
L93684 46070
" />
<path d="M93534 51567
L93515 51586
L93459 51604
L93421 51604
L93365 51586
L93328 51548
L93309 51511
L93290 51436
L93290 51379
L93309 51304
L93328 51267
L93365 51229
L93421 51211
L93459 51211
L93515 51229
L93534 51248
" />
<path d="M93684 51248
L93703 51229
L93740 51211
L93834 51211
L93871 51229
L93890 51248
L93909 51286
L93909 51323
L93890 51379
L93665 51604
L93909 51604
" />
<path d="M89334 52567
L89315 52586
L89259 52604
L89221 52604
L89165 52586
L89128 52548
L89109 52511
L89090 52436
L89090 52379
L89109 52304
L89128 52267
L89165 52229
L89221 52211
L89259 52211
L89315 52229
L89334 52248
" />
<path d="M89465 52211
L89709 52211
L89578 52361
L89634 52361
L89671 52379
L89690 52398
L89709 52436
L89709 52529
L89690 52567
L89671 52586
L89634 52604
L89521 52604
L89484 52586
L89465 52567
" />
<path d="M87567 49765
L87586 49784
L87604 49840
L87604 49878
L87586 49934
L87548 49971
L87511 49990
L87436 50009
L87379 50009
L87304 49990
L87267 49971
L87229 49934
L87211 49878
L87211 49840
L87229 49784
L87248 49765
" />
<path d="M87342 49428
L87604 49428
" />
<path d="M87192 49521
L87473 49615
L87473 49371
" />
<path d="M92513 43365
L92532 43384
L92551 43440
L92551 43478
L92532 43534
L92495 43571
L92457 43590
L92382 43609
L92326 43609
L92251 43590
L92213 43571
L92176 43534
L92157 43478
L92157 43440
L92176 43384
L92195 43365
" />
<path d="M92157 43234
L92157 42971
L92551 43140
" />
<path d="M91834 43113
L91815 43132
L91759 43151
L91721 43151
L91665 43132
L91628 43095
L91609 43057
L91590 42982
L91590 42926
L91609 42851
L91628 42813
L91665 42776
L91721 42757
L91759 42757
L91815 42776
L91834 42795
" />
<path d="M92059 42926
L92021 42907
L92003 42888
L91984 42851
L91984 42832
L92003 42795
L92021 42776
L92059 42757
L92134 42757
L92171 42776
L92190 42795
L92209 42832
L92209 42851
L92190 42888
L92171 42907
L92134 42926
L92059 42926
L92021 42945
L92003 42963
L91984 43001
L91984 43076
L92003 43113
L92021 43132
L92059 43151
L92134 43151
L92171 43132
L92190 43113
L92209 43076
L92209 43001
L92190 42963
L92171 42945
L92134 42926
" />
<path d="M91834 42113
L91815 42132
L91759 42151
L91721 42151
L91665 42132
L91628 42095
L91609 42057
L91590 41982
L91590 41926
L91609 41851
L91628 41813
L91665 41776
L91721 41757
L91759 41757
L91815 41776
L91834 41795
" />
<path d="M92021 42151
L92096 42151
L92134 42132
L92153 42113
L92190 42057
L92209 41982
L92209 41832
L92190 41795
L92171 41776
L92134 41757
L92059 41757
L92021 41776
L92003 41795
L91984 41832
L91984 41926
L92003 41963
L92021 41982
L92059 42001
L92134 42001
L92171 41982
L92190 41963
L92209 41926
" />
<path d="M94346 45013
L94328 45032
L94271 45051
L94234 45051
L94178 45032
L94140 44995
L94121 44957
L94103 44882
L94103 44826
L94121 44751
L94140 44713
L94178 44676
L94234 44657
L94271 44657
L94328 44676
L94346 44695
" />
<path d="M94721 45051
L94496 45051
" />
<path d="M94609 45051
L94609 44657
L94571 44713
L94534 44751
L94496 44770
" />
<path d="M94965 44657
L95003 44657
L95040 44676
L95059 44695
L95078 44732
L95096 44807
L95096 44901
L95078 44976
L95059 45013
L95040 45032
L95003 45051
L94965 45051
L94928 45032
L94909 45013
L94890 44976
L94871 44901
L94871 44807
L94890 44732
L94909 44695
L94928 44676
L94965 44657
" />
<path d="M94346 42213
L94328 42232
L94271 42251
L94234 42251
L94178 42232
L94140 42195
L94121 42157
L94103 42082
L94103 42026
L94121 41951
L94140 41913
L94178 41876
L94234 41857
L94271 41857
L94328 41876
L94346 41895
" />
<path d="M94721 42251
L94496 42251
" />
<path d="M94609 42251
L94609 41857
L94571 41913
L94534 41951
L94496 41970
" />
<path d="M95096 42251
L94871 42251
" />
<path d="M94984 42251
L94984 41857
L94946 41913
L94909 41951
L94871 41970
" />
<path d="M89909 44689
L89909 44295
L90003 44295
L90059 44314
L90096 44351
L90115 44389
L90134 44464
L90134 44520
L90115 44595
L90096 44632
L90059 44670
L90003 44689
L89909 44689
" />
<path d="M90509 44689
L90284 44689
" />
<path d="M90396 44689
L90396 44295
L90359 44351
L90321 44389
L90284 44407
" />
<path d="M88109 46067
L88109 45673
L88203 45673
L88259 45692
L88296 45729
L88315 45767
L88334 45842
L88334 45898
L88315 45973
L88296 46010
L88259 46048
L88203 46067
L88109 46067
" />
<path d="M88484 45710
L88503 45692
L88540 45673
L88634 45673
L88671 45692
L88690 45710
L88709 45748
L88709 45785
L88690 45842
L88465 46067
L88709 46067
" />
<path d="M86370 44290
L85976 44290
L85976 44140
L85995 44103
L86014 44084
L86051 44065
L86107 44065
L86145 44084
L86164 44103
L86182 44140
L86182 44290
" />
<path d="M86370 43690
L86370 43915
" />
<path d="M86370 43803
L85976 43803
L86032 43840
L86070 43878
L86089 43915
" />
<path d="M86370 54390
L85976 54390
L85976 54240
L85995 54203
L86014 54184
L86051 54165
L86107 54165
L86145 54184
L86164 54203
L86182 54240
L86182 54390
" />
<path d="M86014 54015
L85995 53996
L85976 53959
L85976 53865
L85995 53828
L86014 53809
L86051 53790
L86089 53790
L86145 53809
L86370 54034
L86370 53790
" />
<path d="M94970 51090
L94576 51090
L94576 50940
L94595 50903
L94614 50884
L94651 50865
L94707 50865
L94745 50884
L94764 50903
L94782 50940
L94782 51090
" />
<path d="M94707 50528
L94970 50528
" />
<path d="M94557 50621
L94838 50715
L94838 50471
" />
<path d="M51434 46351
L51303 46163
" />
<path d="M51209 46351
L51209 45957
L51359 45957
L51396 45976
L51415 45995
L51434 46032
L51434 46088
L51415 46126
L51396 46145
L51359 46163
L51209 46163
" />
<path d="M51809 46351
L51584 46351
" />
<path d="M51696 46351
L51696 45957
L51659 46013
L51621 46051
L51584 46070
" />
<path d="M69234 53751
L69103 53563
" />
<path d="M69009 53751
L69009 53357
L69159 53357
L69196 53376
L69215 53395
L69234 53432
L69234 53488
L69215 53526
L69196 53545
L69159 53563
L69009 53563
" />
<path d="M69384 53395
L69403 53376
L69440 53357
L69534 53357
L69571 53376
L69590 53395
L69609 53432
L69609 53470
L69590 53526
L69365 53751
L69609 53751
" />
<path d="M69234 55351
L69103 55163
" />
<path d="M69009 55351
L69009 54957
L69159 54957
L69196 54976
L69215 54995
L69234 55032
L69234 55088
L69215 55126
L69196 55145
L69159 55163
L69009 55163
" />
<path d="M69365 54957
L69609 54957
L69478 55107
L69534 55107
L69571 55126
L69590 55145
L69609 55182
L69609 55276
L69590 55313
L69571 55332
L69534 55351
L69421 55351
L69384 55332
L69365 55313
" />
<path d="M82934 56404
L82803 56217
" />
<path d="M82709 56404
L82709 56011
L82859 56011
L82896 56029
L82915 56048
L82934 56086
L82934 56142
L82915 56179
L82896 56198
L82859 56217
L82709 56217
" />
<path d="M83271 56142
L83271 56404
" />
<path d="M83178 55992
L83084 56273
L83328 56273
" />
<path d="M82934 55604
L82803 55417
" />
<path d="M82709 55604
L82709 55211
L82859 55211
L82896 55229
L82915 55248
L82934 55286
L82934 55342
L82915 55379
L82896 55398
L82859 55417
L82709 55417
" />
<path d="M83290 55211
L83103 55211
L83084 55398
L83103 55379
L83140 55361
L83234 55361
L83271 55379
L83290 55398
L83309 55436
L83309 55529
L83290 55567
L83271 55586
L83234 55604
L83140 55604
L83103 55586
L83084 55567
" />
<path d="M57434 45851
L57303 45663
" />
<path d="M57209 45851
L57209 45457
L57359 45457
L57396 45476
L57415 45495
L57434 45532
L57434 45588
L57415 45626
L57396 45645
L57359 45663
L57209 45663
" />
<path d="M57771 45457
L57696 45457
L57659 45476
L57640 45495
L57603 45551
L57584 45626
L57584 45776
L57603 45813
L57621 45832
L57659 45851
L57734 45851
L57771 45832
L57790 45813
L57809 45776
L57809 45682
L57790 45645
L57771 45626
L57734 45607
L57659 45607
L57621 45626
L57603 45645
L57584 45682
" />
<path d="M59934 47351
L59803 47163
" />
<path d="M59709 47351
L59709 46957
L59859 46957
L59896 46976
L59915 46995
L59934 47032
L59934 47088
L59915 47126
L59896 47145
L59859 47163
L59709 47163
" />
<path d="M60065 46957
L60328 46957
L60159 47351
" />
<path d="M94751 50865
L94563 50996
" />
<path d="M94751 51090
L94357 51090
L94357 50940
L94376 50903
L94395 50884
L94432 50865
L94488 50865
L94526 50884
L94545 50903
L94563 50940
L94563 51090
" />
<path d="M94526 50640
L94507 50678
L94488 50696
L94451 50715
L94432 50715
L94395 50696
L94376 50678
L94357 50640
L94357 50565
L94376 50528
L94395 50509
L94432 50490
L94451 50490
L94488 50509
L94507 50528
L94526 50565
L94526 50640
L94545 50678
L94563 50696
L94601 50715
L94676 50715
L94713 50696
L94732 50678
L94751 50640
L94751 50565
L94732 50528
L94713 50509
L94676 50490
L94601 50490
L94563 50509
L94545 50528
L94526 50565
" />
<path d="M97684 48899
L98003 48899
L98040 48881
L98059 48862
L98078 48824
L98078 48749
L98059 48712
L98040 48693
L98003 48674
L97684 48674
" />
<path d="M97721 48506
L97703 48487
L97684 48450
L97684 48356
L97703 48318
L97721 48300
L97759 48281
L97796 48281
L97853 48300
L98078 48525
L98078 48281
" />
</g>
<g style="fill:#008484; fill-opacity:0.0; 
stroke:#008484; stroke-width:59.0551; stroke-opacity:1; 
stroke-linecap:round; stroke-linejoin:round;">
</g>
<g style="fill:#008484; fill-opacity:0.0; 
stroke:#008484; stroke-width:19.685; stroke-opacity:1; 
stroke-linecap:round; stroke-linejoin:round;">
<path d="M93436 45827
L93755 45827
L93792 45808
L93811 45790
L93830 45752
L93830 45677
L93811 45640
L93792 45621
L93755 45602
L93436 45602
" />
<path d="M93436 45452
L93436 45208
L93586 45340
L93586 45283
L93605 45246
L93624 45227
L93661 45208
L93755 45208
L93792 45227
L93811 45246
L93830 45283
L93830 45396
L93811 45433
L93792 45452
" />
<path d="M91113 47174
L90720 47174
L91001 47043
L90720 46911
L91113 46911
" />
<path d="M91113 46724
L90720 46724
L90720 46574
L90738 46536
L90757 46518
L90795 46499
L90851 46499
L90888 46518
L90907 46536
L90926 46574
L90926 46724
" />
<path d="M91113 46143
L91113 46330
L90720 46330
" />
<path d="M90720 46049
L90720 45805
L90870 45936
L90870 45880
L90888 45843
L90907 45824
L90945 45805
L91038 45805
L91076 45824
L91095 45843
L91113 45880
L91113 45993
L91095 46030
L91076 46049
" />
<path d="M91113 45430
L91113 45655
" />
<path d="M91113 45543
L90720 45543
L90776 45580
L90813 45618
L90832 45655
" />
<path d="M91113 45055
L91113 45280
" />
<path d="M91113 45168
L90720 45168
L90776 45205
L90813 45243
L90832 45280
" />
<path d="M90720 44699
L90720 44887
L90907 44905
L90888 44887
L90870 44849
L90870 44755
L90888 44718
L90907 44699
L90945 44680
L91038 44680
L91076 44699
L91095 44718
L91113 44755
L91113 44849
L91095 44887
L91076 44905
" />
<path d="M91001 44530
L91001 44343
" />
<path d="M91113 44568
L90720 44437
L91113 44305
" />
<path d="M90757 44193
L90738 44174
L90720 44137
L90720 44043
L90738 44005
L90757 43987
L90795 43968
L90832 43968
L90888 43987
L91113 44212
L91113 43968
" />
</g>
<g style="fill:#C2C200; fill-opacity:0.0; 
stroke:#C2C200; stroke-width:19.685; stroke-opacity:1; 
stroke-linecap:round; stroke-linejoin:round;">
</g>
<g style="fill:#C2C200; fill-opacity:0.0; 
stroke:#C2C200; stroke-width:59.0551; stroke-opacity:1; 
stroke-linecap:round; stroke-linejoin:round;">
<path d="M94300 45363
L94300 45682
L94318 45720
L94337 45738
L94375 45757
L94450 45757
L94487 45738
L94506 45720
L94525 45682
L94525 45363
" />
<path d="M94881 45495
L94881 45757
" />
<path d="M94787 45345
L94693 45626
L94937 45626
" />
</g>
<g style="fill:#008484; fill-opacity:0.0; 
stroke:#008484; stroke-width:59.0551; stroke-opacity:1; 
stroke-linecap:round; stroke-linejoin:round;">
</g>
<g style="fill:#008484; fill-opacity:0.0; 
stroke:#008484; stroke-width:19.685; stroke-opacity:1; 
stroke-linecap:round; stroke-linejoin:round;">
<path d="M94834 44168
L95228 43906
" />
<path d="M94834 43906
L95228 44168
" />
<path d="M95228 43550
L95228 43775
" />
<path d="M95228 43662
L94834 43662
L94890 43700
L94928 43737
L94946 43775
" />
<path d="M95322 42259
L95378 42278
L95472 42278
L95509 42259
L95528 42240
L95547 42203
L95547 42165
L95528 42128
L95509 42109
L95472 42090
L95397 42071
L95359 42053
L95340 42034
L95322 41996
L95322 41959
L95340 41921
L95359 41903
L95397 41884
L95490 41884
L95547 41903
" />
<path d="M95715 42278
L95715 41884
L95847 42165
L95978 41884
L95978 42278
" />
<path d="M96165 42278
L96165 41884
L96259 41884
L96315 41903
L96353 41940
L96371 41978
L96390 42053
L96390 42109
L96371 42184
L96353 42221
L96315 42259
L96259 42278
L96165 42278
" />
<path d="M96859 41884
L96859 42203
L96878 42240
L96896 42259
L96934 42278
L97009 42278
L97046 42259
L97065 42240
L97084 42203
L97084 41884
" />
<path d="M97253 42259
L97309 42278
L97403 42278
L97440 42259
L97459 42240
L97478 42203
L97478 42165
L97459 42128
L97440 42109
L97403 42090
L97328 42071
L97290 42053
L97271 42034
L97253 41996
L97253 41959
L97271 41921
L97290 41903
L97328 41884
L97421 41884
L97478 41903
" />
<path d="M97778 42071
L97834 42090
L97853 42109
L97871 42146
L97871 42203
L97853 42240
L97834 42259
L97796 42278
L97646 42278
L97646 41884
L97778 41884
L97815 41903
L97834 41921
L97853 41959
L97853 41996
L97834 42034
L97815 42053
L97778 42071
L97646 42071
" />
<path d="M98415 41884
L98490 41884
L98527 41903
L98565 41940
L98584 42015
L98584 42146
L98565 42221
L98527 42259
L98490 42278
L98415 42278
L98377 42259
L98340 42221
L98321 42146
L98321 42015
L98340 41940
L98377 41903
L98415 41884
" />
<path d="M98696 41884
L98921 41884
" />
<path d="M98809 42278
L98809 41884
" />
<path d="M99259 41903
L99221 41884
L99165 41884
L99109 41903
L99071 41940
L99052 41978
L99034 42053
L99034 42109
L99052 42184
L99071 42221
L99109 42259
L99165 42278
L99202 42278
L99259 42259
L99277 42240
L99277 42109
L99202 42109
" />
<path d="M93301 47208
L93301 47328
" />
<path d="M93217 47076
L93301 47208
L93385 47076
" />
<path d="M93601 47328
L93457 47328
" />
<path d="M93529 47328
L93529 47076
L93505 47112
L93481 47136
L93457 47148
" />
<path d="M93161 50369
L93137 50357
L93125 50345
L93113 50321
L93113 50309
L93125 50285
L93137 50273
L93161 50261
L93209 50261
L93233 50273
L93245 50285
L93257 50309
L93257 50321
L93245 50345
L93233 50357
L93209 50369
L93161 50369
L93137 50381
L93125 50393
L93113 50417
L93113 50465
L93125 50489
L93137 50501
L93161 50513
L93209 50513
L93233 50501
L93245 50489
L93257 50465
L93257 50417
L93245 50393
L93233 50381
L93209 50369
" />
<path d="M93365 50513
L93365 50261
L93449 50441
L93533 50261
L93533 50513
" />
<path d="M93653 50513
L93653 50261
" />
<path d="M93653 50381
L93797 50381
" />
<path d="M93797 50513
L93797 50261
" />
<path d="M93893 50261
L94061 50261
L93893 50513
L94061 50513
" />
</g>
<g style="fill:#008484; fill-opacity:0.0; 
stroke:#008484; stroke-width:59.0551; stroke-opacity:1; 
stroke-linecap:round; stroke-linejoin:round;">
<path d="M87762 50437
L87988 50437
" />
<path d="M87762 46362
L88028 46362
" />
<path d="M91837 46362
L91571 46362
" />
<path d="M91837 50437
L91571 50437
" />
<path d="M87762 50437
L87762 50171
" />
<path d="M91837 50437
L91837 50171
" />
<path d="M91837 46362
L91837 46628
" />
<path d="M87762 46362
L87762 46628
" />
<path d="M87988 50437
L87988 50939
" />
</g>
<g style="fill:#008484; fill-opacity:0.0; 
stroke:#008484; stroke-width:39.3701; stroke-opacity:1; 
stroke-linecap:round; stroke-linejoin:round;">
<path d="M97634 54774
L99485 54774
" />
<path d="M99485 54774
L99485 54144
" />
<path d="M97752 51625
L99406 51625
" />
<path d="M99406 51625
L99445 51625
" />
<path d="M99445 51625
L99485 51625
" />
<path d="M99485 51625
L99485 53200
" />
<path d="M93855 54774
L93067 53711
" />
<path d="M93855 51625
L93067 52688
" />
<path d="M93067 53200
L93067 53692
" />
<path d="M93067 53200
L93067 52707
" />
<path d="M94800 54774
L93855 54774
" />
<path d="M95981 54774
L94800 54774
" />
<path d="M94800 51625
L93855 51625
" />
<path d="M96020 51625
L94800 51625
" />
<path d="M93067 53160
L93067 53278
" />
<path d="M99485 53200
L99485 54144
" />
<path d="M97752 51625
L96020 51625
" />
<path d="M97634 54774
L95981 54774
" />
</g>
<g style="fill:#008484; fill-opacity:0.0; 
stroke:#008484; stroke-width:59.0551; stroke-opacity:1; 
stroke-linecap:round; stroke-linejoin:round;">
<path d="M93796 46665
L93403 46665
" />
<path d="M93403 47334
L93796 47334
" />
<path d="M93403 50934
L93796 50934
" />
<path d="M93796 50265
L93403 50265
" />
<path d="M89203 51934
L89596 51934
" />
<path d="M89596 51265
L89203 51265
" />
<path d="M86934 49896
L86934 49503
" />
<path d="M86265 49503
L86265 49896
" />
<path d="M92865 43103
L92865 43496
" />
<path d="M93534 43496
L93534 43103
" />
<path d="M92096 43465
L91703 43465
" />
<path d="M91703 44134
L92096 44134
" />
<path d="M92096 42465
L91703 42465
" />
<path d="M91703 43134
L92096 43134
" />
<path d="M94796 45365
L94403 45365
" />
<path d="M94403 46034
L94796 46034
" />
<path d="M94796 42565
L94403 42565
" />
<path d="M94403 43234
L94796 43234
" />
<path d="M89570 45495
L90633 45495
" />
<path d="M89570 44904
L90633 44904
" />
<path d="M90160 45259
L90160 45160
" />
<path d="M90160 45160
L90101 45219
" />
<path d="M90062 45062
L90062 45337
" />
<path d="M90200 45200
L90337 45200
" />
<path d="M90062 45200
L90200 45062
" />
<path d="M90200 45062
L90200 45337
" />
<path d="M90200 45337
L90062 45200
" />
<path d="M89029 44904
L87966 44904
" />
<path d="M89029 45495
L87966 45495
" />
<path d="M88439 45140
L88439 45239
" />
<path d="M88439 45239
L88498 45180
" />
<path d="M88537 45337
L88537 45062
" />
<path d="M88400 45200
L88262 45200
" />
<path d="M88537 45200
L88400 45337
" />
<path d="M88400 45337
L88400 45062
" />
<path d="M88400 45062
L88537 45200
" />
<path d="M88700 44500
L90700 44500
" />
<path d="M87589 44610
L87589 44000
" />
<path d="M87700 43500
L88700 43500
" />
<path d="M88700 43500
L88700 44500
" />
<path d="M90700 44500
L90700 42500
" />
<path d="M90700 42500
L88700 42500
" />
<path d="M87589 44610
L88200 44610
" />
<path d="M87700 42500
L87700 43500
" />
<path d="M88700 42500
L87700 42500
" />
<path d="M87700 52600
L92700 52600
" />
<path d="M92700 52600
L92700 54600
" />
<path d="M92700 54600
L88700 54600
" />
<path d="M87700 52600
L87700 53600
" />
<path d="M87589 54100
L87589 54710
" />
<path d="M87700 53600
L88700 53600
" />
<path d="M88700 53600
L88700 54600
" />
<path d="M87589 54710
L88200 54710
" />
<path d="M97300 51300
L99300 51300
" />
<path d="M99300 51300
L99300 50300
" />
<path d="M99300 50300
L97300 50300
" />
<path d="M96189 50189
L96800 50189
" />
<path d="M97300 50300
L97300 51300
" />
<path d="M96800 51410
L96189 51410
" />
<path d="M96189 51410
L96189 50189
" />
<path d="M51736 47344
L51263 47344
" />
<path d="M51263 46655
L51736 46655
" />
<path d="M69536 54744
L69063 54744
" />
<path d="M69063 54055
L69536 54055
" />
<path d="M69536 56344
L69063 56344
" />
<path d="M69063 55655
L69536 55655
" />
<path d="M82763 55055
L83236 55055
" />
<path d="M83236 55744
L82763 55744
" />
<path d="M82763 54255
L83236 54255
" />
<path d="M83236 54944
L82763 54944
" />
<path d="M57736 46844
L57263 46844
" />
<path d="M57263 46155
L57736 46155
" />
<path d="M60236 48344
L59763 48344
" />
<path d="M59763 47655
L60236 47655
" />
<path d="M95744 50563
L95744 51036
" />
<path d="M95055 51036
L95055 50563
" />
<path d="M97000 47200
L95800 47200
" />
<path d="M95800 47200
L95800 50000
" />
<path d="M95800 50000
L97000 50000
" />
<path d="M98200 47200
L98500 47200
" />
<path d="M98500 47200
L99400 47800
" />
<path d="M99400 47800
L99400 49400
" />
<path d="M99400 49400
L98500 50000
" />
<path d="M98500 50000
L98200 50000
" />
</g>
<g style="fill:#008484; fill-opacity:0.0; 
stroke:#008484; stroke-width:78.7402; stroke-opacity:1; 
stroke-linecap:round; stroke-linejoin:round;">
<path d="M93284 44409
L93284 45590
" />
<path d="M91315 45590
L91315 44409
" />
<circle cx="93048" cy="44133.9" r="55.6772" /> 
</g>
<g style="fill:#008484; fill-opacity:0.0; 
stroke:#008484; stroke-width:59.0551; stroke-opacity:1; 
stroke-linecap:round; stroke-linejoin:round;">
<path d="M95229 43670
L95229 43827
" />
<path d="M95229 43670
L95072 43670
" />
<path d="M93970 43670
L93970 43827
" />
<path d="M93970 43670
L94127 43670
" />
<path d="M93970 44929
L93970 44772
" />
<path d="M93970 44929
L94127 44929
" />
<path d="M95229 44929
L95072 44929
" />
</g>
<g style="fill:#008484; fill-opacity:0.0; 
stroke:#008484; stroke-width:40; stroke-opacity:1; 
stroke-linecap:round; stroke-linejoin:round;">
<path d="M99300 46098
L95795 46098
" />
<path d="M95795 46098
L95795 45601
" />
<path d="M95939.1 45458.1 A143.465 143.465 0.0 0 0 95795.6 45601.6 " />
<path d="M95939 45458
L96148 45458
" />
<path d="M96165 43741
L95933 43741
" />
<path d="M95795.6 43603.7 A137.953 137.953 0.0 0 0 95933.5 43741.7 " />
<path d="M95795 43603
L95795 43101
" />
<path d="M95795 43101
L97876 43101
" />
<path d="M97876 43101
L99300 43101
" />
<path d="M99300 43101
L99300 46098
" />
<path d="M95795 43101
L95795 42731
" />
<path d="M95856.4 42670.9 A60.5122 60.5122 0.0 0 0 95795.6 42731.6 " />
<path d="M95856 42670
L95856 42670
" />
<path d="M95922.6 42737.1 A66.2205 66.2205 0.0 0 0 95856.3 42670.9 " />
<path d="M95922 42737
L95922 42797
" />
<path d="M95922.6 42797.9 A88.189 88.189 0.0 0 0 96010.9 42886.1 " />
<path d="M96010 42886
L96021 42886
" />
<path d="M96021.9 42886.1 A88.3071 88.3071 0.0 0 0 96110.2 42797.8 " />
<path d="M96110 42797
L96110 42731
" />
<path d="M96170.9 42670.9 A60.7087 60.7087 0.0 0 0 96110.2 42731.6 " />
<path d="M96237.2 42737.1 A66.2205 66.2205 0.0 0 0 96170.9 42670.9 " />
<path d="M96237 42737
L96237 43079
" />
<path d="M97876 43101
L97876 42731
" />
<path d="M97937.2 42670.9 A60.4732 60.4732 0.0 0 0 97876.4 42731.5 " />
<path d="M97937 42670
L97937 42670
" />
<path d="M98003.3 42737.1 A66.2205 66.2205 0.0 0 0 97937.1 42670.9 " />
<path d="M98003 42737
L98003 42797
" />
<path d="M98003.3 42797.9 A88.189 88.189 0.0 0 0 98091.7 42886.1 " />
<path d="M98091 42886
L98102 42886
" />
<path d="M98102.8 42886.1 A88.2677 88.2677 0.0 0 0 98191 42797.8 " />
<path d="M98191 42797
L98191 42731
" />
<path d="M98251.7 42670.9 A60.7087 60.7087 0.0 0 0 98191 42731.6 " />
<path d="M98318 42737.1 A66.2205 66.2205 0.0 0 0 98251.7 42670.9 " />
<path d="M98317 42737
L98317 43079
" />
<path d="M98317 46098
L98317 46468
" />
<path d="M98257.2 46528.9 A60.4732 60.4732 0.0 0 0 98317.9 46468.2 " />
<path d="M98257 46528
L98257 46528
" />
<path d="M98191 46462.6 A66.2205 66.2205 0.0 0 0 98257.2 46528.9 " />
<path d="M98190 46462
L98190 46401
" />
<path d="M98191 46401.9 A88.2283 88.2283 0.0 0 0 98102.7 46313.6 " />
<path d="M98102 46313
L98091 46313
" />
<path d="M98091.6 46313.6 A88.2283 88.2283 0.0 0 0 98003.3 46401.9 " />
<path d="M98003 46401
L98003 46468
" />
<path d="M97942.6 46528.9 A60.7087 60.7087 0.0 0 0 98003.3 46468.1 " />
<path d="M97876.4 46462.6 A66.2205 66.2205 0.0 0 0 97942.6 46528.9 " />
<path d="M97876 46462
L97876 46120
" />
<path d="M96237 46098
L96237 46468
" />
<path d="M96176.4 46528.9 A60.5516 60.5516 0.0 0 0 96237.1 46468.2 " />
<path d="M96176 46528
L96176 46528
" />
<path d="M96110.2 46462.6 A66.2205 66.2205 0.0 0 0 96176.4 46528.9 " />
<path d="M96110 46462
L96110 46401
" />
<path d="M96110.2 46401.9 A88.3071 88.3071 0.0 0 0 96021.9 46313.6 " />
<path d="M96021 46313
L96010 46313
" />
<path d="M96010.7 46313.6 A88.2677 88.2677 0.0 0 0 95922.5 46401.9 " />
<path d="M95922 46401
L95922 46468
" />
<path d="M95861.8 46528.9 A60.7087 60.7087 0.0 0 0 95922.5 46468.1 " />
<path d="M95795.6 46462.6 A66.2205 66.2205 0.0 0 0 95861.8 46528.9 " />
<path d="M95795 46462
L95795 46092
" />
<path d="M98831 46076
L98831 45469
" />
<path d="M98831.2 45469.1 A137.953 137.953 0.0 0 0 98693.2 45331.2 " />
<path d="M98693 45331
L98676 45331
" />
<path d="M98676 45331
L97230 45264
" />
<path d="M97230.6 45265 A58.0201 58.0201 0.0 0 0 97225.1 45380.9 " />
<path d="M97225 45380
L98560 45469
" />
<path d="M98555.3 45662.4 A96.7008 96.7008 0.0 0 0 98560.8 45469.2 " />
<path d="M98555 45662
L97214 45750
" />
<path d="M97214.1 45750.7 A47.3445 47.3445 0.0 0 0 97169.9 45800.3 " />
<path d="M97169 45800
L97169 46076
" />
<path d="M97054 44895.2 A132.559 132.559 0.0 0 0 97186.5 45027.6 " />
<path d="M97186 45027
L98770 45110
" />
<path d="M98770.5 45110.4 A52.5134 52.5134 0.0 0 0 98776 45005.6 " />
<path d="M98776 45005
L97550 44939
" />
<path d="M97379.6 44768.2 A171.102 171.102 0.0 0 0 97550.7 44939.3 " />
<path d="M97379 44768
L97379 44420
" />
<path d="M97545.2 44254.9 A165.591 165.591 0.0 0 0 97379.6 44420.5 " />
<path d="M97545 44254
L97572 44254
" />
<path d="M97572 44254
L98770 44199
" />
<path d="M98770.6 44199.7 A55.2366 55.2366 0.0 0 0 98770.5 44089.4 " />
<path d="M98770 44089
L97197 44172
" />
<path d="M97197.5 44172.1 A143.504 143.504 0.0 0 0 97054 44315.6 " />
<path d="M97054 44315
L97054 44895
" />
<path d="M98831 43123
L98831 43730
" />
<path d="M98693.2 43868.6 A138.031 138.031 0.0 0 0 98831.2 43730.8 " />
<path d="M98693 43868
L98676 43868
" />
<path d="M98676 43868
L97230 43934
" />
<path d="M97225.1 43818.9 A58.0201 58.0201 0.0 0 0 97230.5 43934.8 " />
<path d="M97225 43818
L98560 43730
" />
<path d="M98560.8 43730.6 A96.7008 96.7008 0.0 0 0 98555.2 43537.4 " />
<path d="M98555 43537
L97214 43449
" />
<path d="M97169.9 43399.4 A47.3445 47.3445 0.0 0 0 97214 43449.1 " />
<path d="M97169 43399
L97169 43123
" />
</g>
<g style="fill:#008484; fill-opacity:0.0; 
stroke:#008484; stroke-width:50; stroke-opacity:1; 
stroke-linecap:round; stroke-linejoin:round;">
<circle cx="95300" cy="45250" r="50" /> 
<path d="M93718 47815
L93481 47815
" />
<path d="M94229 48485
L94229 49114
" />
<path d="M93718 49784
L93481 49784
" />
<path d="M92970 48485
L92970 49114
" />
</g>
<g style="fill:#008484; fill-opacity:0.0; 
stroke:#008484; stroke-width:0; stroke-opacity:1; 
stroke-linecap:round; stroke-linejoin:round;">
<circle cx="92792.9" cy="47599.2" r="39.3701" /> 
</g>
<g style="fill:#840000; fill-opacity:0.0; 
stroke:#840000; stroke-width:0; stroke-opacity:1; 
stroke-linecap:round; stroke-linejoin:round;">
</g>
<g style="fill:#840000; fill-opacity:1.0; 
stroke:#840000; stroke-width:0; stroke-opacity:1; 
stroke-linecap:round; stroke-linejoin:round;">
<circle cx="97752.8" cy="53200" r="1181.1" /> 
</g>
<g style="fill:#840000; fill-opacity:1.0; 
stroke:#840000; stroke-width:39.3701; stroke-opacity:1; 
stroke-linecap:round; stroke-linejoin:round;">
</g>
<g style="fill:#840000; fill-opacity:1.0; 
stroke:#840000; stroke-width:0; stroke-opacity:1; 
stroke-linecap:round; stroke-linejoin:round;">
<circle cx="94800" cy="53200" r="1181.1" /> 
</g>
<g style="fill:#840000; fill-opacity:1.0; 
stroke:#840000; stroke-width:39.3701; stroke-opacity:1; 
stroke-linecap:round; stroke-linejoin:round;">
</g>
<g style="fill:#840000; fill-opacity:1.0; 
stroke:#840000; stroke-width:0; stroke-opacity:1; 
stroke-linecap:round; stroke-linejoin:round;">
<polyline style="fill-rule:evenodd;"
points="88540,44340
87860,44340
87860,43660
88540,43660
88540,44340
" /> 
</g>
<g style="fill:#840000; fill-opacity:1.0; 
stroke:#840000; stroke-width:680; stroke-opacity:1; 
stroke-linecap:round; stroke-linejoin:round;">
</g>
<g style="fill:#840000; fill-opacity:0.0; 
stroke:#840000; stroke-width:680; stroke-opacity:1; 
stroke-linecap:round; stroke-linejoin:round;">
<path d="M88200 43000
L88200 43000
" />
<path d="M89200 44000
L89200 44000
" />
<path d="M89200 43000
L89200 43000
" />
<path d="M90200 44000
L90200 44000
" />
<path d="M90200 43000
L90200 43000
" />
</g>
<g style="fill:#840000; fill-opacity:0.0; 
stroke:#840000; stroke-width:0; stroke-opacity:1; 
stroke-linecap:round; stroke-linejoin:round;">
</g>
<g style="fill:#840000; fill-opacity:1.0; 
stroke:#840000; stroke-width:0; stroke-opacity:1; 
stroke-linecap:round; stroke-linejoin:round;">
<polyline style="fill-rule:evenodd;"
points="88540,54440
87860,54440
87860,53760
88540,53760
88540,54440
" /> 
</g>
<g style="fill:#840000; fill-opacity:1.0; 
stroke:#840000; stroke-width:680; stroke-opacity:1; 
stroke-linecap:round; stroke-linejoin:round;">
</g>
<g style="fill:#840000; fill-opacity:0.0; 
stroke:#840000; stroke-width:680; stroke-opacity:1; 
stroke-linecap:round; stroke-linejoin:round;">
<path d="M88200 53100
L88200 53100
" />
<path d="M89200 54100
L89200 54100
" />
<path d="M89200 53100
L89200 53100
" />
<path d="M90200 54100
L90200 54100
" />
<path d="M90200 53100
L90200 53100
" />
<path d="M91200 54100
L91200 54100
" />
<path d="M91200 53100
L91200 53100
" />
<path d="M92200 54100
L92200 54100
" />
<path d="M92200 53100
L92200 53100
" />
</g>
<g style="fill:#840000; fill-opacity:0.0; 
stroke:#840000; stroke-width:0; stroke-opacity:1; 
stroke-linecap:round; stroke-linejoin:round;">
</g>
<g style="fill:#840000; fill-opacity:1.0; 
stroke:#840000; stroke-width:0; stroke-opacity:1; 
stroke-linecap:round; stroke-linejoin:round;">
<polyline style="fill-rule:evenodd;"
points="97140,51200
96460,51200
96460,50400
97140,50400
97140,51200
" /> 
</g>
<g style="fill:#840000; fill-opacity:1.0; 
stroke:#840000; stroke-width:680; stroke-opacity:1; 
stroke-linecap:round; stroke-linejoin:round;">
</g>
<g style="fill:#840000; fill-opacity:0.0; 
stroke:#840000; stroke-width:680; stroke-opacity:1; 
stroke-linecap:round; stroke-linejoin:round;">
<path d="M97800 50860
L97800 50740
" />
<path d="M98800 50860
L98800 50740
" />
</g> 
</svg>
